<svg xmlns="http://www.w3.org/2000/svg"  viewBox="0 0 64 64" width="512px" height="512px"><path fill="#c4939c" d="M25.268,29.874c0,0-1.459,5.096-1.151,8.846c0.553,6.711,2.085,9.264,5.873,15.022 C28.628,48.294,28.485,43,29.398,40.908c0.912,1.526,3.585,5.12,6.157,6.953c2.093,1.492,3.052,0.468,2.989-1.108 c-0.104-2.612-1.817-6.402-2.477-10.282s2.135-9.163,3.136-11.249s-0.926-5.618-0.926-5.618s4.326,4.601,8.006,3.719 c3.68-0.882,3.526-5.453,3.526-5.453c0.544,1.341,0.83,2.692,0.731,3.592c1.872-0.85,2.303-3.46,2.303-3.46 c0.649,3.593-2.704,8.945-2.845,10.171s0.735,2.4,1.505,4.793s2.174,6.548,1.151,11.765s-1.339,8.313-0.663,9.637 s1.765,2.309-0.921,3.759c-2.686,1.45-6.054-0.047-7.427-0.497c-1.373-0.45-1.806,0.485-3.722,1.066 c-1.916,0.58-5.403,0.242-8.287-0.221c-4.016-0.645-6.751-1.945-12.658-10.476S9.403,26.897,9.073,20.315 C8.742,13.734,11.794,9.118,17,9c6.081-0.137,7.151,4.271,7.635,8.09S25.246,27.701,25.268,29.874"/><path fill="#fff8ee" d="M45.501,23.676c0.004,1.422,0.762,4.095,1.727,4.024c1.714-0.126,3.236-0.835,3.236-0.835 l2.308-7.204L45.501,23.676z"/><path fill="#efd8be" d="M25.268,29.874c0,0-1.459,5.096-1.151,8.846c0.553,6.711,2.085,9.264,5.873,15.022 C28.628,48.294,28.485,43,29.398,40.908c0.912,1.526,3.985,5.52,6.557,7.353c2.093,1.492,3.052,0.468,2.989-1.108 c-0.104-2.612-2.217-6.802-2.877-10.682s2.135-9.163,3.136-11.249s-0.926-5.618-0.926-5.618s4.326,4.601,8.006,3.719 c3.68-0.882,3.526-5.453,3.526-5.453c0.544,1.341,0.83,2.692,0.731,3.592c1.872-0.85,2.303-3.46,2.303-3.46 c0.018-2.201-0.444-6.127-3.931-6.094c-3.487,0.033-12.037,0.811-15.353,6.923c-1.735,3.198-4.198,2.802-4.198,2.802 S26.684,25.925,25.268,29.874z"/><path fill="#fff8ee" d="M28.628,51.253c-0.508,0-1.003-0.257-1.285-0.723c-2.443-4.038-3.313-6.787-3.724-11.769 c-0.332-4.028,0.512-7.093,1.175-9.048c0.895-2.634,1.254-3.283,1.918-4.388c0.197-0.329,0.405-0.674,0.659-1.134 c0.242-0.437,0.469-0.818,0.676-1.166c0.773-1.295,1.133-1.947,1.085-2.967c-0.033-0.705-0.257-1.438-0.494-2.213 c-0.257-0.84-0.521-1.704-0.547-2.577c-0.025-0.815-0.015-1.333,0.111-1.734c0.2-0.638,0.773-1.096,1.441-1.052l0.178-0.003 c0.122,0,0.252,0.006,0.395,0.021c0.093,0.008,0.192,0.013,0.29,0.013c1.402,0,2.455-0.984,3.091-1.809 c0.811-1.053,2.964-3.85,7.285-4.846c0.586-0.135,1.177-0.204,1.754-0.204c2.328,0,3.996,1.102,4.783,1.758 c1.848,1.541,2.603,3.276,2.683,3.469c0.317,0.765-0.045,1.643-0.811,1.96c-0.766,0.316-1.643-0.046-1.96-0.811 c-0.004-0.01-8.873,0.172-14.051,6.903c-1.201,1.561-1.825,4.236-2.636,5.596c-0.212,0.355-0.423,0.71-0.647,1.115 c-0.275,0.498-0.5,0.872-0.7,1.205c-0.559,0.929-0.833,1.383-1.663,3.829c-0.578,1.701-1.312,4.365-1.026,7.837 c0.408,4.959,1.348,7.235,3.3,10.461c0.429,0.709,0.202,1.631-0.506,2.06C29.16,51.184,28.893,51.253,28.628,51.253z"/><path fill="#c4939c" d="M32.94,12.388c0,0-1.67,0.662-2.82,0.706c-1.15,0.044-2.671,0.544-1.966,2.776 s2.202,4.324,1.377,5.451C30.756,19.8,32.94,12.388,32.94,12.388z"/><circle cx="40.107" cy="11.908" r="1.807" fill="#c4939c"/><path fill="#8d6c9f" d="M35.02,24.971c-1.177,0-2.093-0.283-2.731-0.845c-0.581-0.511-0.892-1.229-0.897-2.074 c-0.015-2.055,1.187-4.216,3.57-6.423c1.72-1.591,2.148-2.129,2.084-3.356c-0.062-1.196,0.342-2.158,1.137-2.709 c0.623-0.43,1.735-0.78,3.512-0.008c2.013,0.876,4.874,1.331,4.902,1.335c0.546,0.085,0.919,0.597,0.834,1.142 c-0.085,0.545-0.585,0.917-1.143,0.834c-0.127-0.02-3.14-0.497-5.393-1.478c-0.831-0.362-1.359-0.332-1.573-0.182 c-0.201,0.14-0.303,0.49-0.278,0.961c0.12,2.296-1.135,3.457-2.723,4.928c-1.955,1.809-2.94,3.471-2.93,4.941 c0.002,0.352,0.118,0.499,0.219,0.587c0.353,0.311,1.188,0.42,2.231,0.293c0.555-0.067,1.047,0.324,1.113,0.872 c0.066,0.548-0.324,1.047-0.873,1.113C35.707,24.948,35.353,24.971,35.02,24.971z"/><path fill="#c4939c" d="M45.071,12.528c0.118-0.975,4.521-1.794,5.315-1.324c1.508,0.894-0.419,3.309-1.912,3.676 C46.982,15.248,44.946,13.562,45.071,12.528z"/><path fill="#8d6c9f" d="M48.031,15.933c-1.071,0-2.11-0.565-2.797-1.173c-0.827-0.732-1.248-1.589-1.156-2.353 c0.104-0.863,0.963-1.286,1.245-1.425c1.241-0.613,4.449-1.306,5.573-0.639c0.776,0.46,1.145,1.24,1.012,2.14 c-0.208,1.402-1.73,3.007-3.194,3.368C48.487,15.908,48.258,15.933,48.031,15.933z M46.149,12.794 c0.118,0.189,0.359,0.466,0.729,0.715c0.484,0.328,1.017,0.488,1.357,0.401c0.506-0.125,1.189-0.702,1.524-1.287 c0.179-0.312,0.181-0.492,0.172-0.522C49.372,11.927,46.972,12.347,46.149,12.794z M45.071,12.528h0.01H45.071z"/><path fill="#8d6c9f" d="M52.874,19.213c-0.541,0-0.986-0.431-1-0.975l-0.006-0.359c-0.017-1.191-0.036-2.673-1.337-4.302 c-0.345-0.432-0.274-1.061,0.157-1.405c0.432-0.345,1.061-0.273,1.405,0.157c1.729,2.164,1.756,4.186,1.774,5.523l0.006,0.336 c0.014,0.552-0.423,1.011-0.975,1.024C52.891,19.213,52.882,19.213,52.874,19.213z"/><path fill="#8d6c9f" d="M47.191,28.702c-0.311,0-0.732-0.095-1.153-0.485c-0.997-0.925-1.533-3.23-1.537-4.538 c-0.002-0.552,0.445-1.001,0.997-1.003c0.001,0,0.002,0,0.003,0c0.551,0,0.998,0.446,1,0.997c0.003,1.131,0.5,2.613,0.835,3.014 c1.438-0.144,2.692-0.722,2.705-0.728c0.501-0.235,1.096-0.017,1.329,0.483c0.233,0.501,0.017,1.096-0.483,1.329 c-0.069,0.032-1.71,0.789-3.585,0.926C47.267,28.701,47.229,28.702,47.191,28.702z"/><path fill="#8d6c9f" d="M36.789,16.257c-0.297,0-0.59-0.131-0.787-0.382c-0.342-0.435-0.266-1.063,0.168-1.404 c2.6-2.043,6.966-3.243,9.107-3.519c0.555-0.073,1.05,0.317,1.12,0.864c0.07,0.548-0.316,1.049-0.864,1.12 c-2.073,0.268-5.965,1.408-8.127,3.108C37.223,16.188,37.005,16.257,36.789,16.257z"/><path fill="#8d6c9f" d="M29.236,22.917c-0.154,0-0.311-0.036-0.457-0.111c-0.49-0.253-0.684-0.856-0.431-1.347 c0.703-1.367,1.201-2.805,1.729-4.328c0.854-2.466,1.738-5.017,3.563-7.286c0.347-0.431,0.976-0.499,1.406-0.153 c0.43,0.346,0.498,0.976,0.152,1.406c-1.607,1.999-2.396,4.277-3.231,6.688c-0.527,1.522-1.073,3.096-1.842,4.589 C29.949,22.72,29.6,22.917,29.236,22.917z"/><path fill="#8d6c9f" d="M17.779,38.475c-0.387,0-0.754-0.225-0.918-0.602c-0.221-0.506,0.012-1.096,0.519-1.316l1.834-0.798 c0.509-0.221,1.096,0.012,1.315,0.518c0.221,0.506-0.012,1.096-0.519,1.316l-1.834,0.798 C18.047,38.448,17.912,38.475,17.779,38.475z"/><path fill="#8d6c9f" d="M15.983,33.879c-0.413,0-0.8-0.259-0.944-0.671c-0.182-0.521,0.094-1.092,0.615-1.274l1.888-0.659 c0.519-0.182,1.091,0.094,1.273,0.615c0.182,0.521-0.094,1.092-0.615,1.274l-1.888,0.659 C16.204,33.861,16.093,33.879,15.983,33.879z"/><path fill="#8d6c9f" d="M14.522,29.168c-0.44,0-0.845-0.294-0.965-0.741c-0.144-0.533,0.173-1.082,0.706-1.226l1.932-0.52 c0.532-0.145,1.082,0.172,1.226,0.706c0.144,0.533-0.173,1.082-0.706,1.226l-1.932,0.52C14.696,29.157,14.608,29.168,14.522,29.168 z"/><path fill="#8d6c9f" d="M13.448,24.333c-0.479,0-0.902-0.345-0.985-0.833c-0.092-0.545,0.274-1.061,0.819-1.153l1.972-0.334 c0.541-0.097,1.061,0.274,1.153,0.818c0.092,0.545-0.274,1.061-0.819,1.153l-1.972,0.334C13.56,24.329,13.504,24.333,13.448,24.333 z"/><path fill="#8d6c9f" d="M15.09,19.416c-0.028,0-0.057-0.001-0.086-0.003l-1.993-0.17c-0.55-0.047-0.958-0.531-0.911-1.082 c0.046-0.55,0.513-0.963,1.081-0.912l1.993,0.17c0.55,0.047,0.958,0.531,0.911,1.082C16.041,19.022,15.604,19.416,15.09,19.416z"/><path fill="#8d6c9f" d="M37.179,60.004c-1.548,0-3.453-0.181-5.703-0.542c-4.496-0.722-7.486-2.466-13.322-10.895 c-5.769-8.333-9.724-21.126-10.08-28.202c-0.203-4.053,0.822-7.508,2.889-9.729C12.515,8.965,14.595,8.054,16.978,8 c7.543-0.171,8.273,6,8.649,8.964c0.292,2.306,0.453,5.648,0.541,8.364c0.116-0.213,0.241-0.436,0.385-0.692l0.382-0.686 c0.252-0.455,0.488-0.852,0.703-1.211c0.738-1.238,1.037-1.775,0.995-2.654c-0.026-0.574-0.339-1.23-0.67-1.925 c-0.413-0.867-0.84-1.764-0.871-2.775c-0.033-1.125,0.222-1.949,0.781-2.522c0.496-0.508,1.191-0.765,2.068-0.765 c0.017,0,0.034,0,0.053,0c1.189,0,2.387-0.633,3.207-1.698c0.866-1.125,3.167-4.112,7.569-5.128 c3.309-0.763,5.788,0.772,6.97,1.757c1.658,1.383,2.468,2.887,2.739,3.47c0.233,0.5,0.017,1.096-0.484,1.329 c-0.499,0.234-1.097,0.016-1.328-0.484c-0.168-0.359-0.821-1.622-2.208-2.778C45.364,7.651,43.57,6.675,41.22,7.22 c-3.704,0.854-5.617,3.339-6.435,4.4c-1.196,1.553-2.985,2.478-4.791,2.478c-0.02,0-0.036,0-0.054,0 c-0.222,0-0.506,0.029-0.637,0.163c-0.15,0.154-0.229,0.542-0.212,1.064c0.018,0.591,0.338,1.264,0.677,1.976 c0.401,0.843,0.816,1.715,0.862,2.69c0.071,1.516-0.523,2.512-1.275,3.773c-0.205,0.343-0.432,0.722-0.671,1.155l-0.387,0.694 c-0.727,1.297-0.925,1.65-2.08,4.581c-0.138,0.499-1.379,5.103-1.104,8.445c0.372,4.52,1.158,7.014,2.944,10.15 c-0.417-3.499-0.289-6.549,0.422-8.181c0.15-0.343,0.479-0.574,0.854-0.598c0.356-0.024,0.729,0.163,0.922,0.485 c0.876,1.465,3.887,5.247,6.278,6.952c0.794,0.565,1.193,0.562,1.248,0.531c0.048-0.026,0.183-0.27,0.162-0.784 c-0.049-1.223-0.64-2.983-1.266-4.846c-0.596-1.772-1.271-3.781-1.598-5.708c-0.664-3.898,1.785-8.911,2.963-11.319l0.258-0.531 c0.61-1.273-0.56-3.518-1.018-4.204c-0.281-0.422-0.203-0.988,0.184-1.317c0.385-0.329,0.957-0.318,1.328,0.028 c1.144,1.059,4.672,3.676,7.254,3.054c2.849-0.683,2.884-4.085,2.884-4.23c0-0.478,0.339-0.891,0.809-0.982 c0.473-0.091,0.938,0.161,1.118,0.603c0.212,0.523,0.377,1.03,0.494,1.519c0.293-0.555,0.451-1.126,0.502-1.424 c0.083-0.478,0.497-0.83,0.982-0.832c0.001,0,0.002,0,0.004,0c0.483,0,0.898,0.344,0.984,0.82c0.511,2.826-1.076,6.371-2.126,8.717 c-0.301,0.673-0.677,1.511-0.711,1.748c-0.059,0.508,0.199,1.125,0.59,2.061c0.256,0.614,0.574,1.379,0.874,2.31l0.057,0.176 c0.813,2.522,2.172,6.744,1.124,12.087c-0.305,1.555-0.662,2.815-0.949,3.829c-0.69,2.435-0.976,3.442,0.13,5.049l0.109,0.159 c0.503,0.725,1.129,1.627,0.868,2.718c-0.209,0.873-0.923,1.613-2.247,2.329c-2.784,1.5-5.987,0.361-7.709-0.251 c-0.189-0.067-0.359-0.128-0.505-0.176c-0.441-0.146-0.6-0.073-1.282,0.287c-0.457,0.24-1.026,0.54-1.839,0.786 C39.437,59.887,38.424,60.004,37.179,60.004z M17.282,9.997c-0.086,0-0.172,0.001-0.26,0.003c-1.856,0.042-3.402,0.714-4.597,1.999 c-1.694,1.822-2.53,4.759-2.354,8.267c0.342,6.801,4.158,19.121,9.727,27.164c5.909,8.534,8.474,9.493,11.994,10.059 c3.654,0.587,6.438,0.675,7.839,0.251c0.631-0.191,1.086-0.431,1.488-0.642c0.774-0.408,1.576-0.831,2.836-0.417 c0.159,0.052,0.345,0.118,0.552,0.191c1.43,0.508,4.09,1.454,6.089,0.376c1.099-0.594,1.235-0.965,1.252-1.034 c0.053-0.221-0.29-0.716-0.566-1.114l-0.114-0.166c-1.638-2.381-1.121-4.204-0.405-6.728c0.291-1.029,0.621-2.194,0.91-3.668 c0.949-4.837-0.312-8.75-1.064-11.089l-0.058-0.177c-0.273-0.851-0.562-1.542-0.816-2.152c-0.474-1.136-0.848-2.034-0.729-3.062 c0.057-0.496,0.338-1.142,0.872-2.334c0.451-1.008,1.012-2.261,1.433-3.536c-0.113,0.066-0.232,0.128-0.356,0.185 c-0.325,0.149-0.708,0.111-1-0.101c-0.082-0.06-0.154-0.131-0.213-0.21c-0.683,1.008-1.713,1.872-3.223,2.234 c-2.124,0.509-4.395-0.376-6.136-1.389c0.164,0.905,0.144,1.872-0.276,2.747l-0.264,0.543c-1.086,2.221-3.344,6.843-2.789,10.105 c0.302,1.773,0.923,3.621,1.522,5.407c0.673,2.003,1.309,3.895,1.368,5.404c0.049,1.225-0.392,2.181-1.209,2.623 c-0.632,0.342-1.726,0.503-3.359-0.661c-1.91-1.362-4.049-3.754-5.487-5.627c-0.21,2.337,0.057,5.985,1.073,10.052 c0.119,0.473-0.121,0.962-0.568,1.158c-0.444,0.197-0.969,0.042-1.236-0.366c-3.87-5.882-5.463-8.546-6.035-15.49 c-0.294-3.574,0.904-8.174,1.146-9.06c-0.016-1.351-0.122-8.56-0.624-12.527C23.078,12.766,21.808,9.997,17.282,9.997z"/></svg>