<?xml version="1.0" encoding="UTF-8" standalone="no"?>
<!DOCTYPE svg PUBLIC "-//W3C//DTD SVG 1.1//EN" "http://www.w3.org/Graphics/SVG/1.1/DTD/svg11.dtd">
<svg version="1.1" xmlns="http://www.w3.org/2000/svg" xmlns:xlink="http://www.w3.org/1999/xlink" preserveAspectRatio="xMidYMid meet" viewBox="0 0 640 640" width="640" height="640"><defs><path d="M327.27 58.18C327.27 53.82 327.27 18.91 327.27 14.55C327.27 10.53 324.02 7.27 320 7.27C315.98 7.27 312.73 10.53 312.73 14.55C312.73 18.91 312.73 53.82 312.73 58.18C312.73 62.2 315.98 65.45 320 65.45C324.02 65.45 327.27 62.2 327.27 58.18Z" id="aorKJwXNn"></path><path d="M264.03 66.51C265.01 70.4 268.96 72.77 272.85 71.8C276.75 70.82 279.12 66.87 278.15 62.98C278.13 62.9 278.1 62.82 278.08 62.74C277.71 61.34 274.69 50.1 274.32 48.69C273.23 44.83 269.21 42.57 265.35 43.66C261.55 44.73 259.3 48.63 260.27 52.46C261.02 55.27 263.28 63.7 264.03 66.51Z" id="b473jPTiyv"></path><path d="M181.15 118.71C184.03 121.51 188.63 121.45 191.43 118.58C194.19 115.75 194.19 111.25 191.43 108.42C190.41 107.39 182.18 99.17 181.15 98.14C178.35 95.26 173.74 95.2 170.87 98.01C167.99 100.81 167.93 105.42 170.74 108.29C170.78 108.34 170.82 108.38 170.87 108.42C172.92 110.48 179.09 116.65 181.15 118.71Z" id="d1eS3aktw7"></path><path d="M125.18 187.54C121.29 186.55 117.33 188.9 116.34 192.8C115.37 196.62 117.62 200.52 121.42 201.59C122.83 201.97 134.06 204.98 135.47 205.35C139.33 206.46 143.36 204.22 144.46 200.36C145.56 196.5 143.33 192.47 139.47 191.37C139.39 191.35 139.31 191.33 139.23 191.31C136.42 190.55 126.59 187.92 125.18 187.54Z" id="c1QRdXLXcR"></path><path d="M121.42 292.95C117.52 293.93 115.16 297.88 116.14 301.78C117.11 305.68 121.07 308.04 124.96 307.06C125.04 307.04 125.11 307.02 125.18 307C126.59 306.63 137.83 303.61 139.23 303.24C143.13 302.26 145.5 298.32 144.52 294.42C143.55 290.52 139.6 288.15 135.7 289.13C135.63 289.15 135.55 289.17 135.47 289.19C132.66 289.94 122.83 292.58 121.42 292.95Z" id="c1luoXmtEb"></path><path d="M170.87 386.12C167.99 388.93 167.93 393.53 170.74 396.41C173.54 399.28 178.14 399.34 181.02 396.54C181.06 396.49 181.11 396.45 181.15 396.41C182.18 395.38 190.41 387.15 191.43 386.12C194.31 383.32 194.37 378.71 191.57 375.84C188.76 372.96 184.16 372.9 181.28 375.71C181.24 375.75 181.19 375.79 181.15 375.84C179.09 377.89 171.89 385.09 170.87 386.12Z" id="a11maSDGiC"></path><path d="M219.15 87.15C221.16 90.63 225.61 91.82 229.09 89.82C232.57 87.81 233.76 83.36 231.75 79.88C229.57 76.1 212.12 45.87 209.94 42.09C207.93 38.61 203.48 37.42 200 39.42C196.52 41.43 195.33 45.88 197.34 49.36C201.7 56.92 214.79 79.59 219.15 87.15Z" id="f3QQG0JzAS"></path><path d="M122.09 124.61C118.61 122.6 114.16 123.79 112.15 127.27C110.14 130.75 111.34 135.2 114.82 137.21C118.59 139.39 148.83 156.85 152.61 159.03C156.09 161.04 160.53 159.84 162.54 156.36C164.55 152.88 163.36 148.44 159.88 146.43C159.88 146.43 125.87 126.79 122.09 124.61Z" id="ax4VPRdP"></path><path d="M130.91 240C126.55 240 91.64 240 87.27 240C83.26 240 80 243.26 80 247.27C80 251.29 83.26 254.55 87.27 254.55C91.64 254.55 126.55 254.55 130.91 254.55C134.93 254.55 138.18 251.29 138.18 247.27C138.18 243.26 134.93 240 130.91 240Z" id="c8E6nCm16f"></path><path d="M114.82 357.34C111.34 359.35 110.14 363.79 112.15 367.27C114.16 370.75 118.61 371.94 122.09 369.94C122.09 369.94 122.09 369.94 122.09 369.94C125.87 367.75 156.1 350.3 159.88 348.12C163.36 346.11 164.55 341.66 162.54 338.18C160.53 334.7 156.09 333.51 152.61 335.52C152.61 335.52 118.59 355.15 114.82 357.34Z" id="iBrP63d4F"></path><path d="M219.15 407.39C216.97 411.17 199.52 441.4 197.34 445.18C195.33 448.66 196.52 453.11 200 455.12C203.48 457.13 207.93 455.93 209.94 452.45C212.12 448.68 229.57 418.44 231.75 414.66C233.76 411.18 232.57 406.74 229.09 404.73C229.09 404.73 229.09 404.73 229.09 404.73C225.61 402.72 221.16 403.91 219.15 407.39Z" id="g1K1ueGOiT"></path><path d="M375.96 66.54C375.96 66.53 375.96 66.52 375.97 66.51C376.34 65.1 379.35 53.86 379.73 52.46C380.71 48.56 378.34 44.61 374.45 43.63C370.64 42.68 366.76 44.92 365.68 48.69C365.31 50.1 362.29 61.34 361.92 62.74C360.88 66.62 363.18 70.61 367.06 71.65C370.93 72.69 374.91 70.41 375.96 66.54Z" id="aoDNvJd3b"></path><path d="M458.85 118.71C459.88 117.68 468.11 109.45 469.13 108.42C472.01 105.62 472.07 101.01 469.26 98.14C466.46 95.26 461.86 95.2 458.98 98.01C458.94 98.05 458.89 98.09 458.85 98.14C457.82 99.17 449.59 107.39 448.57 108.42C445.73 111.26 445.73 115.87 448.57 118.71C449.93 120.07 451.78 120.84 453.71 120.84C455.64 120.84 457.49 120.07 458.85 118.71Z" id="a3Ltk88pY"></path><path d="M518.58 201.59C522.45 200.5 524.7 196.49 523.61 192.62C522.54 188.82 518.64 186.57 514.82 187.54C513.41 187.92 502.17 190.93 500.77 191.31C496.87 192.28 494.5 196.23 495.48 200.13C496.45 204.02 500.4 206.39 504.3 205.42C504.37 205.4 504.45 205.38 504.53 205.35C507.34 204.6 517.17 201.97 518.58 201.59Z" id="c19Iy8HYw"></path><path d="M500.77 303.24C502.17 303.61 513.41 306.63 514.82 307C518.68 308.1 522.7 305.87 523.8 302C524.9 298.14 522.67 294.12 518.8 293.01C518.73 292.99 518.65 292.97 518.58 292.95C517.17 292.58 505.94 289.57 504.53 289.19C500.65 288.15 496.66 290.45 495.62 294.33C494.59 298.21 496.89 302.2 500.77 303.24Z" id="bAjNZszQ9"></path><path d="M458.85 375.84C456.05 372.96 451.44 372.9 448.57 375.71C445.69 378.51 445.63 383.12 448.43 385.99C448.48 386.04 448.52 386.08 448.57 386.12C449.59 387.15 457.82 395.38 458.85 396.41C461.65 399.28 466.26 399.34 469.13 396.54C472.01 393.73 472.07 389.13 469.26 386.25C469.22 386.21 469.18 386.17 469.13 386.12C467.08 384.07 460.91 377.89 458.85 375.84Z" id="c2DdeMvV7"></path><path d="M420.85 87.15C423.03 83.38 440.48 53.14 442.66 49.36C444.67 45.88 443.48 41.44 440 39.43C436.52 37.42 432.07 38.61 430.06 42.09C427.88 45.87 410.43 76.1 408.25 79.88C406.24 83.36 407.43 87.81 410.91 89.82C410.91 89.82 410.91 89.82 410.91 89.82C414.39 91.82 418.84 90.63 420.85 87.15Z" id="fHcQOsaqA"></path><path d="M487.39 159.03C491.17 156.85 521.41 139.39 525.18 137.21C528.66 135.2 529.86 130.75 527.85 127.27C525.84 123.79 521.39 122.6 517.91 124.61C514.13 126.79 483.9 144.25 480.12 146.43C476.64 148.43 475.45 152.88 477.46 156.36C478.76 158.62 481.16 160 483.76 160C485.04 160 486.29 159.67 487.39 159.03Z" id="a70ZzLfQr"></path><path d="M509.09 240C505.07 240 501.82 243.26 501.82 247.27C501.82 251.29 505.07 254.55 509.09 254.55C513.45 254.55 548.36 254.55 552.73 254.55C556.74 254.55 560 251.29 560 247.27C560 243.26 556.74 240 552.73 240C544 240 513.45 240 509.09 240Z" id="aMrfIK3VT"></path><path d="M487.39 335.52C483.91 333.51 479.47 334.7 477.46 338.18C475.45 341.66 476.64 346.11 480.12 348.12C483.9 350.3 514.13 367.75 517.91 369.94C521.39 371.94 525.84 370.75 527.85 367.27C529.86 363.79 528.66 359.35 525.18 357.34C525.18 357.34 491.17 337.7 487.39 335.52Z" id="g1cRqfIcXb"></path><path d="M420.85 407.39C418.84 403.91 414.39 402.72 410.91 404.73C407.43 406.74 406.24 411.19 408.25 414.67C410.43 418.45 427.88 448.68 430.06 452.46C432.07 455.94 436.52 457.13 440 455.12C443.48 453.11 444.67 448.66 442.66 445.18C438.3 437.63 425.21 414.95 420.85 407.39Z" id="a49nvOqzX"></path><path d="M370.91 429.09C370.91 429.09 370.91 429.09 370.91 429.09C370.91 437.82 370.91 442.67 370.91 443.64C370.91 443.64 370.91 443.64 370.91 443.64C309.82 443.64 275.88 443.64 269.09 443.64C269.09 443.64 269.09 443.64 269.09 443.64C269.09 434.91 269.09 430.06 269.09 429.09C269.09 429.09 269.09 429.09 269.09 429.09C330.18 429.09 364.12 429.09 370.91 429.09Z" id="a34JHvVMOX"></path><path d="M370.91 458.18C370.91 458.18 370.91 458.18 370.91 458.18C370.91 523.64 370.91 560 370.91 567.27C370.91 567.27 370.91 567.27 370.91 567.27C353.45 567.27 343.76 567.27 341.82 567.27C341.82 567.27 341.82 567.27 341.82 567.27C341.82 501.82 341.82 465.45 341.82 458.18C341.82 458.18 341.82 458.18 341.82 458.18C359.27 458.18 368.97 458.18 370.91 458.18Z" id="a1ayarFdm"></path><path d="M327.27 456.09C327.27 456.09 327.27 456.09 327.27 456.09C327.27 521.55 327.27 557.91 327.27 565.18C327.27 565.18 327.27 565.18 327.27 565.18C318.55 565.18 313.7 565.18 312.73 565.18C312.73 565.18 312.73 565.18 312.73 565.18C312.73 499.73 312.73 463.37 312.73 456.09C312.73 456.09 312.73 456.09 312.73 456.09C321.45 456.09 326.3 456.09 327.27 456.09Z" id="a6Swl6T8w0"></path><path d="M327.27 290.91C327.27 290.91 327.27 290.91 327.27 290.91C327.27 365.09 327.27 406.3 327.27 414.55C327.27 414.55 327.27 414.55 327.27 414.55C318.55 414.55 313.7 414.55 312.73 414.55C312.73 414.55 312.73 414.55 312.73 414.55C312.73 340.36 312.73 299.15 312.73 290.91C312.73 290.91 312.73 290.91 312.73 290.91C321.45 290.91 326.3 290.91 327.27 290.91Z" id="ciAoBNYUp"></path><path d="M254.55 254.55C254.55 266.6 264.31 276.36 276.36 276.36C277.82 276.36 285.09 276.36 298.18 276.36C298.18 263.27 298.18 256 298.18 254.55C298.17 242.5 288.41 232.74 276.36 232.73C264.31 232.73 254.55 242.5 254.55 254.55Z" id="aZQRbJ9Y7"></path><path d="M167.27 247.3C167.28 312.02 208.07 369.71 269.09 391.29C269.09 392.84 269.09 400.59 269.09 414.55L298.18 414.55L298.18 290.91C285.09 290.91 277.82 290.91 276.36 290.91C256.28 290.91 240 274.63 240 254.55C240 234.46 256.28 218.18 276.36 218.18C296.45 218.18 312.73 234.46 312.73 254.55C312.73 256 312.73 263.27 312.73 276.36L327.27 276.36C327.27 263.27 327.27 256 327.27 254.55C327.27 234.46 343.55 218.18 363.64 218.18C383.72 218.18 400 234.46 400 254.55C400 274.63 383.72 290.91 363.64 290.91C362.18 290.91 354.91 290.91 341.82 290.91L341.82 414.55L370.91 414.55C370.91 400.59 370.91 392.84 370.91 391.29C450.44 363.16 492.11 275.89 463.99 196.36C442.41 135.35 384.72 94.55 320 94.55C235.64 94.55 167.27 162.94 167.27 247.3Z" id="g1Ur6X6kce"></path><path d="M298.18 458.18C298.18 458.18 298.18 458.18 298.18 458.18C298.18 523.64 298.18 560 298.18 567.27C298.18 567.27 298.18 567.27 298.18 567.27C280.73 567.27 271.03 567.27 269.09 567.27C269.09 567.27 269.09 567.27 269.09 567.27C269.09 501.82 269.09 465.45 269.09 458.18C269.09 458.18 269.09 458.18 269.09 458.18C286.55 458.18 296.24 458.18 298.18 458.18Z" id="b4PkO3h3vj"></path><path d="M363.64 232.73C351.59 232.73 341.82 242.5 341.82 254.55C341.82 256 341.82 263.27 341.82 276.36C354.91 276.36 362.18 276.36 363.64 276.36C375.68 276.35 385.44 266.59 385.45 254.55C385.45 242.5 375.69 232.73 363.64 232.73Z" id="b9iVUomd"></path><path d="M314.48 630.19C317.09 633.24 321.68 633.59 324.73 630.98C325.01 630.74 325.28 630.47 325.52 630.19C328.28 626.96 342.1 610.84 366.98 581.82L273.02 581.82C295.13 607.62 308.95 623.74 314.48 630.19Z" id="b3hun1CdJb"></path></defs><g><g><g><use xlink:href="#aorKJwXNn" opacity="1" fill="#00dfc0" fill-opacity="1"></use><g><use xlink:href="#aorKJwXNn" opacity="1" fill-opacity="0" stroke="#000000" stroke-width="1" stroke-opacity="0"></use></g></g><g><use xlink:href="#b473jPTiyv" opacity="1" fill="#00dfc0" fill-opacity="1"></use><g><use xlink:href="#b473jPTiyv" opacity="1" fill-opacity="0" stroke="#000000" stroke-width="1" stroke-opacity="0"></use></g></g><g><use xlink:href="#d1eS3aktw7" opacity="1" fill="#00dfc0" fill-opacity="1"></use><g><use xlink:href="#d1eS3aktw7" opacity="1" fill-opacity="0" stroke="#000000" stroke-width="1" stroke-opacity="0"></use></g></g><g><use xlink:href="#c1QRdXLXcR" opacity="1" fill="#00dfc0" fill-opacity="1"></use><g><use xlink:href="#c1QRdXLXcR" opacity="1" fill-opacity="0" stroke="#000000" stroke-width="1" stroke-opacity="0"></use></g></g><g><use xlink:href="#c1luoXmtEb" opacity="1" fill="#00dfc0" fill-opacity="1"></use><g><use xlink:href="#c1luoXmtEb" opacity="1" fill-opacity="0" stroke="#000000" stroke-width="1" stroke-opacity="0"></use></g></g><g><use xlink:href="#a11maSDGiC" opacity="1" fill="#00dfc0" fill-opacity="1"></use><g><use xlink:href="#a11maSDGiC" opacity="1" fill-opacity="0" stroke="#000000" stroke-width="1" stroke-opacity="0"></use></g></g><g><use xlink:href="#f3QQG0JzAS" opacity="1" fill="#00dfc0" fill-opacity="1"></use><g><use xlink:href="#f3QQG0JzAS" opacity="1" fill-opacity="0" stroke="#000000" stroke-width="1" stroke-opacity="0"></use></g></g><g><use xlink:href="#ax4VPRdP" opacity="1" fill="#00dfc0" fill-opacity="1"></use><g><use xlink:href="#ax4VPRdP" opacity="1" fill-opacity="0" stroke="#000000" stroke-width="1" stroke-opacity="0"></use></g></g><g><use xlink:href="#c8E6nCm16f" opacity="1" fill="#00dfc0" fill-opacity="1"></use><g><use xlink:href="#c8E6nCm16f" opacity="1" fill-opacity="0" stroke="#000000" stroke-width="1" stroke-opacity="0"></use></g></g><g><use xlink:href="#iBrP63d4F" opacity="1" fill="#00dfc0" fill-opacity="1"></use><g><use xlink:href="#iBrP63d4F" opacity="1" fill-opacity="0" stroke="#000000" stroke-width="1" stroke-opacity="0"></use></g></g><g><use xlink:href="#g1K1ueGOiT" opacity="1" fill="#00dfc0" fill-opacity="1"></use><g><use xlink:href="#g1K1ueGOiT" opacity="1" fill-opacity="0" stroke="#000000" stroke-width="1" stroke-opacity="0"></use></g></g><g><use xlink:href="#aoDNvJd3b" opacity="1" fill="#00dfc0" fill-opacity="1"></use><g><use xlink:href="#aoDNvJd3b" opacity="1" fill-opacity="0" stroke="#000000" stroke-width="1" stroke-opacity="0"></use></g></g><g><use xlink:href="#a3Ltk88pY" opacity="1" fill="#00dfc0" fill-opacity="1"></use><g><use xlink:href="#a3Ltk88pY" opacity="1" fill-opacity="0" stroke="#000000" stroke-width="1" stroke-opacity="0"></use></g></g><g><use xlink:href="#c19Iy8HYw" opacity="1" fill="#00dfc0" fill-opacity="1"></use><g><use xlink:href="#c19Iy8HYw" opacity="1" fill-opacity="0" stroke="#000000" stroke-width="1" stroke-opacity="0"></use></g></g><g><use xlink:href="#bAjNZszQ9" opacity="1" fill="#00dfc0" fill-opacity="1"></use><g><use xlink:href="#bAjNZszQ9" opacity="1" fill-opacity="0" stroke="#000000" stroke-width="1" stroke-opacity="0"></use></g></g><g><use xlink:href="#c2DdeMvV7" opacity="1" fill="#00dfc0" fill-opacity="1"></use><g><use xlink:href="#c2DdeMvV7" opacity="1" fill-opacity="0" stroke="#000000" stroke-width="1" stroke-opacity="0"></use></g></g><g><use xlink:href="#fHcQOsaqA" opacity="1" fill="#00dfc0" fill-opacity="1"></use><g><use xlink:href="#fHcQOsaqA" opacity="1" fill-opacity="0" stroke="#000000" stroke-width="1" stroke-opacity="0"></use></g></g><g><use xlink:href="#a70ZzLfQr" opacity="1" fill="#00dfc0" fill-opacity="1"></use><g><use xlink:href="#a70ZzLfQr" opacity="1" fill-opacity="0" stroke="#000000" stroke-width="1" stroke-opacity="0"></use></g></g><g><use xlink:href="#aMrfIK3VT" opacity="1" fill="#00dfc0" fill-opacity="1"></use><g><use xlink:href="#aMrfIK3VT" opacity="1" fill-opacity="0" stroke="#000000" stroke-width="1" stroke-opacity="0"></use></g></g><g><use xlink:href="#g1cRqfIcXb" opacity="1" fill="#00dfc0" fill-opacity="1"></use><g><use xlink:href="#g1cRqfIcXb" opacity="1" fill-opacity="0" stroke="#000000" stroke-width="1" stroke-opacity="0"></use></g></g><g><use xlink:href="#a49nvOqzX" opacity="1" fill="#00dfc0" fill-opacity="1"></use><g><use xlink:href="#a49nvOqzX" opacity="1" fill-opacity="0" stroke="#000000" stroke-width="1" stroke-opacity="0"></use></g></g><g><use xlink:href="#a34JHvVMOX" opacity="1" fill="#00dfc0" fill-opacity="1"></use><g><use xlink:href="#a34JHvVMOX" opacity="1" fill-opacity="0" stroke="#000000" stroke-width="1" stroke-opacity="0"></use></g></g><g><use xlink:href="#a1ayarFdm" opacity="1" fill="#00dfc0" fill-opacity="1"></use><g><use xlink:href="#a1ayarFdm" opacity="1" fill-opacity="0" stroke="#000000" stroke-width="1" stroke-opacity="0"></use></g></g><g><use xlink:href="#a6Swl6T8w0" opacity="1" fill="#00dfc0" fill-opacity="1"></use><g><use xlink:href="#a6Swl6T8w0" opacity="1" fill-opacity="0" stroke="#000000" stroke-width="1" stroke-opacity="0"></use></g></g><g><use xlink:href="#ciAoBNYUp" opacity="1" fill="#00dfc0" fill-opacity="1"></use><g><use xlink:href="#ciAoBNYUp" opacity="1" fill-opacity="0" stroke="#000000" stroke-width="1" stroke-opacity="0"></use></g></g><g><use xlink:href="#aZQRbJ9Y7" opacity="1" fill="#00dfc0" fill-opacity="1"></use><g><use xlink:href="#aZQRbJ9Y7" opacity="1" fill-opacity="0" stroke="#000000" stroke-width="1" stroke-opacity="0"></use></g></g><g><use xlink:href="#g1Ur6X6kce" opacity="1" fill="#00dfc0" fill-opacity="1"></use><g><use xlink:href="#g1Ur6X6kce" opacity="1" fill-opacity="0" stroke="#000000" stroke-width="1" stroke-opacity="0"></use></g></g><g><use xlink:href="#b4PkO3h3vj" opacity="1" fill="#00dfc0" fill-opacity="1"></use><g><use xlink:href="#b4PkO3h3vj" opacity="1" fill-opacity="0" stroke="#000000" stroke-width="1" stroke-opacity="0"></use></g></g><g><use xlink:href="#b9iVUomd" opacity="1" fill="#00dfc0" fill-opacity="1"></use><g><use xlink:href="#b9iVUomd" opacity="1" fill-opacity="0" stroke="#000000" stroke-width="1" stroke-opacity="0"></use></g></g><g><use xlink:href="#b3hun1CdJb" opacity="1" fill="#00dfc0" fill-opacity="1"></use><g><use xlink:href="#b3hun1CdJb" opacity="1" fill-opacity="0" stroke="#000000" stroke-width="1" stroke-opacity="0"></use></g></g></g></g></svg>