<svg xmlns="http://www.w3.org/2000/svg" viewBox="0 0 750 500"><g id="freepik--background-complete--inject-2"><rect x="117.27" y="51.7" width="494.17" height="230.45" style="fill:#f5f5f5"></rect><path d="M48,274.33s-8.51,1.34-3.39,19.94S54,322.43,54,322.43s.72,4.22-2.69,4.15-10.43-2.71-12.72,1-.16,8.43,5.28,13.15,17,15.5,18,16.47,1.82,3-.51,3.35-19-1.33-19.29,6.62S59,385.78,60.9,387s2.18,2.17,1.78,3.25-5.94,0-10.69-.28-10.31.24-10.11,4.83,9.4,16.07,35.77,24.24l12.47,3,9-9.2C117.22,392,119,377.37,116.72,373.35s-7.24-1.51-11.13,1.23-8,6.58-8.94,5.87-1.15-1.69-.19-3.69,10-20.2,5.57-26.78-17.72,3.6-19.87,4.55S79.59,353.32,80,352s4.48-16.62,6.61-23.5,1.61-11.93-2.45-13.95-8.47,4-11.33,5.85-4.48-2.1-4.48-2.1-1.45-10.36-6.91-28.86-13.58-15-13.58-15" style="fill:#ebebeb"></path><path d="M90.16,425.1c-4-13.61-10.59-37.91-16.38-58.74s-11.07-39.68-15-53.31c-1.94-6.8-3.52-12.3-4.62-16.13L53,292.54c-.14-.5-.24-.88-.32-1.15s-.09-.39-.09-.39.05.13.13.38.2.65.36,1.13c.3,1,.75,2.49,1.32,4.37,1.15,3.79,2.77,9.29,4.75,16.1,3.95,13.6,9.26,32.44,15.06,53.27S86.54,411.4,90.43,425" style="fill:#e0e0e0"></path><path d="M48.19,331.69a3.75,3.75,0,0,1,.83.42c.52.29,1.25.74,2.16,1.3,1.81,1.12,4.27,2.73,7,4.56L65,342.68l2.09,1.41a4.91,4.91,0,0,1,.75.55,3.25,3.25,0,0,1-.83-.42c-.52-.29-1.26-.74-2.16-1.3-1.8-1.14-4.24-2.79-6.92-4.62L51,333.65l-2.09-1.41A4.32,4.32,0,0,1,48.19,331.69Z" style="fill:#e0e0e0"></path><path d="M68.85,344c-.09-.06,3-5.28,6.93-11.67S83,320.84,83,320.9s-3,5.28-6.92,11.66S68.94,344.07,68.85,344Z" style="fill:#e0e0e0"></path><path d="M76.31,376.41a4.08,4.08,0,0,1,.67-.67l1.9-1.73c1.61-1.46,3.82-3.49,6.18-5.82s4.42-4.49,5.91-6.08l1.75-1.88a4.48,4.48,0,0,1,.68-.66,4.19,4.19,0,0,1-.56.76c-.38.48-1,1.15-1.66,2-1.44,1.64-3.47,3.85-5.84,6.18s-4.61,4.33-6.27,5.74c-.83.7-1.51,1.26-2,1.63A4.42,4.42,0,0,1,76.31,376.41Z" style="fill:#e0e0e0"></path><path d="M55.17,369.37a3.37,3.37,0,0,1,.86.19l2.28.66c1.92.58,4.57,1.4,7.49,2.33s5.56,1.79,7.46,2.44l2.25.78a3,3,0,0,1,.8.34,3.35,3.35,0,0,1-.85-.19l-2.28-.66c-1.93-.58-4.58-1.4-7.5-2.33s-5.55-1.8-7.46-2.44L56,369.71A4.59,4.59,0,0,1,55.17,369.37Z" style="fill:#e0e0e0"></path><path d="M58.13,398.8a5.48,5.48,0,0,1,1.09.25l2.93.84c2.47.73,5.87,1.75,9.62,2.91s7.15,2.23,9.6,3l2.89,1a7.13,7.13,0,0,1,1,.4,5.17,5.17,0,0,1-1.09-.25l-2.94-.84c-2.47-.73-5.87-1.75-9.62-2.91s-7.15-2.23-9.6-3l-2.89-1A6.14,6.14,0,0,1,58.13,398.8Z" style="fill:#e0e0e0"></path><path d="M84.71,406.8a7,7,0,0,1,.83-.87l2.34-2.28c2-1.93,4.68-4.6,7.59-7.63s5.48-5.84,7.33-7.89l2.18-2.42a6.8,6.8,0,0,1,.84-.86,7.14,7.14,0,0,1-.72,1c-.48.6-1.2,1.46-2.09,2.51-1.79,2.1-4.33,4.94-7.25,8s-5.67,5.68-7.69,7.55c-1,.94-1.84,1.69-2.43,2.19A6.62,6.62,0,0,1,84.71,406.8Z" style="fill:#e0e0e0"></path><path d="M632.76,426.93c-17.8-10.44-23.37-32-24.26-51.72-.15-3.29-.79-6.72.54-9.72s4.82-5.26,7.87-4.11c2.53.95,3.82,3.7,5.37,5.94a19.28,19.28,0,0,0,8.27,6.74c2.18.92,4.82,1.37,6.79.07,2.71-1.79,2.73-5.72,2.45-9l-1.56-18.24c-.28-3.26-.56-6.6.21-9.77s2.78-6.24,5.82-7.35,7,.36,7.93,3.51a30.2,30.2,0,0,1,.41,4.05c.2,1.35.95,2.8,2.27,3.08s2.56-.75,3.46-1.79c3.11-3.56,5.06-8,6.86-12.38s3.53-8.88,6.3-12.71,6.77-7,11.43-7.66,9.86,1.85,11.4,6.35-.76,9.39-3.38,13.34a73.46,73.46,0,0,1-14,15.67,6,6,0,0,0-2.32,2.93c-.54,2.23,1.69,4.22,3.9,4.77,2.49.62,5.11.15,7.68.25s5.42,1,6.57,3.33c1.6,3.23-.91,7-3.47,9.46a62.74,62.74,0,0,1-17.62,12.13c-2.34,1.06-4.8,2-6.6,3.88s-2.74,4.86-1.39,7.07,4.42,2.7,6.89,2,4.62-2.21,7-3.31c4.35-2.05,10.16-2.2,13.35,1.45,2.09,2.4,2.53,5.93,1.82,9.05a23.7,23.7,0,0,1-4.31,8.45,62.81,62.81,0,0,1-25.3,21c-10.11,4.44-19.68,6.18-30.31,3.22" style="fill:#f5f5f5"></path><path d="M636.85,414.2A294.56,294.56,0,0,1,646,381.8q1.42-4.24,2.82-8.37c.93-2.75,1.86-5.47,2.93-8.08a145.08,145.08,0,0,1,7-14.63c2.45-4.55,4.95-8.77,7.31-12.7s4.64-7.55,6.86-10.76a116.28,116.28,0,0,1,11.58-14.37c1.49-1.58,2.69-2.77,3.52-3.56l.94-.9a2.51,2.51,0,0,1,.33-.29,2.51,2.51,0,0,1-.29.33c-.22.24-.52.55-.9.94-.79.83-2,2-3.43,3.65a123.18,123.18,0,0,0-11.4,14.44c-2.19,3.22-4.44,6.84-6.79,10.78s-4.81,8.17-7.24,12.71a147.4,147.4,0,0,0-7,14.59c-1.06,2.59-2,5.29-2.9,8L646.53,382a300.45,300.45,0,0,0-9.14,32.33" style="fill:#e0e0e0"></path><path d="M651.88,365.31a6.47,6.47,0,0,1-.43-1.36c-.24-.89-.55-2.19-.91-3.8-.72-3.21-1.56-7.68-2.47-12.61s-1.82-9.38-2.58-12.58c-.38-1.59-.7-2.88-.93-3.77a6.63,6.63,0,0,1-.3-1.4,6.37,6.37,0,0,1,.52,1.33c.3.87.68,2.15,1.12,3.74.87,3.17,1.85,7.63,2.76,12.57s1.68,9.27,2.29,12.64c.29,1.52.53,2.8.73,3.82A7.29,7.29,0,0,1,651.88,365.31Z" style="fill:#e0e0e0"></path><path d="M693.21,354.14a8.6,8.6,0,0,1-1.65.33c-1.07.18-2.62.44-4.52.81-3.81.72-9,1.9-14.75,3.45s-10.82,3.2-14.48,4.49c-1.84.63-3.31,1.19-4.33,1.56a8.66,8.66,0,0,1-1.6.53,8.78,8.78,0,0,1,1.52-.75c1-.44,2.44-1.06,4.26-1.74,3.64-1.4,8.74-3.11,14.47-4.68A149.43,149.43,0,0,1,687,354.86c1.92-.32,3.48-.52,4.57-.62A7.59,7.59,0,0,1,693.21,354.14Z" style="fill:#e0e0e0"></path><path d="M637.3,413.39a2.47,2.47,0,0,1-.32-.49c-.23-.39-.51-.87-.84-1.46-.72-1.27-1.72-3.14-2.92-5.46-2.41-4.65-5.53-11.17-8.88-18.41s-6.4-13.79-8.71-18.48l-2.75-5.55-.74-1.51a.3.3,0,1,1,.11-.06c.23.39.5.88.84,1.46.72,1.27,1.72,3.14,2.92,5.46,2.41,4.65,5.53,11.17,8.88,18.42s6.4,13.78,8.71,18.47l2.74,5.55c.3.6.54,1.1.74,1.51A1.79,1.79,0,0,1,637.3,413.39Z" style="fill:#e0e0e0"></path><path d="M691.63,391a2.07,2.07,0,0,1-.53.27l-1.58.67-5.81,2.41c-4.92,2-11.67,4.93-19.12,8.13s-14.24,6-19.2,8c-2.48,1-4.49,1.73-5.89,2.23l-1.62.56a1.91,1.91,0,0,1-.58.16,2.63,2.63,0,0,1,.54-.27l1.58-.67,5.81-2.41c4.91-2,11.67-4.93,19.12-8.13s14.24-6,19.2-8c2.48-1,4.49-1.73,5.89-2.23l1.62-.56A2.53,2.53,0,0,1,691.63,391Z" style="fill:#e0e0e0"></path><rect x="105.82" y="66.56" width="518.79" height="239.23" style="fill:#e0e0e0"></rect></g><g id="freepik--Window--inject-2"><rect x="88.44" y="84.99" width="556.12" height="342.13" style="fill:#fff"></rect><path d="M644.55,427.13c0-1.65-.08-132.69-.2-342.14l.2.21-556.07,0h0L88.7,85c0,121.27,0,236.92,0,342.14l-.24-.24,556.11.24-556.11.24h-.25v-.24c0-105.22,0-220.87,0-342.14v-.26h.31l556.07.06h.21V85C644.63,294.44,644.55,425.48,644.55,427.13Z" style="fill:#263238"></path><circle cx="130.47" cy="395.3" r="14.9" transform="translate(-241.3 208.04) rotate(-45)" style="fill:#00DFC0"></circle><path d="M132.13,396.16a3.65,3.65,0,1,0-3.07.13c-1.9.72-3.92,3-3.92,5,0,0,0,.08,0,.12h10.64s0-.08,0-.12A6.25,6.25,0,0,0,132.13,396.16Z" style="fill:#fff"></path><path d="M296.3,392.21c0,.14-30.79.26-68.76.26s-68.78-.12-68.78-.26,30.79-.27,68.78-.27S296.3,392.06,296.3,392.21Z" style="fill:#263238"></path><path d="M194.15,401.37c0,.14-8.35.26-18.65.26s-18.66-.12-18.66-.26,8.35-.26,18.66-.26S194.15,401.22,194.15,401.37Z" style="fill:#263238"></path><path d="M408.59,387.55v4.51H408v-3.95h-1v-.56Z" style="fill:#263238"></path><path d="M409.57,389.8c0-1.46.79-2.3,1.84-2.3s1.84.84,1.84,2.3-.79,2.31-1.84,2.31S409.57,391.27,409.57,389.8Zm3,0c0-1.15-.49-1.73-1.2-1.73s-1.19.58-1.19,1.73.49,1.74,1.19,1.74S412.61,391,412.61,389.8Z" style="fill:#263238"></path><path d="M415.7,390.06l-.82.83v1.17h-.65v-4.51h.65v2.52l2.44-2.52h.74l-1.93,2,2.05,2.48h-.75Z" style="fill:#263238"></path><path d="M449.43,391h-.85v1.11H448V391h-2.5v-.45l2.3-2.95h.7l-2.21,2.85H448v-1h.61v1h.85Z" style="fill:#263238"></path><path d="M449.82,389.8c0-1.46.78-2.3,1.84-2.3s1.83.84,1.83,2.3-.78,2.31-1.83,2.31S449.82,391.27,449.82,389.8Zm3,0c0-1.15-.49-1.73-1.19-1.73s-1.2.58-1.2,1.73.49,1.74,1.2,1.74S452.85,391,452.85,389.8Z" style="fill:#263238"></path><path d="M454.11,389.8c0-1.46.78-2.3,1.84-2.3s1.84.84,1.84,2.3-.79,2.31-1.84,2.31S454.11,391.27,454.11,389.8Zm3,0c0-1.15-.49-1.73-1.19-1.73s-1.2.58-1.2,1.73.49,1.74,1.2,1.74S457.14,391,457.14,389.8Z" style="fill:#263238"></path><path d="M472.68,389.78a1,1,0,1,0-1,1A1,1,0,0,0,472.68,389.78Z" style="fill:#263238"></path><path d="M476.6,389.78a1,1,0,1,0-1,1A1,1,0,0,0,476.6,389.78Z" style="fill:#263238"></path><path d="M480.51,389.78a1,1,0,1,0-1,1A1,1,0,0,0,480.51,389.78Z" style="fill:#263238"></path><path d="M399.21,386.47h-1L396,383.38v-2s-1.57-.09-1.39,2.57,0,2,0,2-3.35,0-3.62.31a33.8,33.8,0,0,0-.33,5.33,2,2,0,0,0,1.38,2,1.49,1.49,0,0,0,.36.05c.83,0,5.09-.68,5.09-.68h1.76Z" style="fill:#263238"></path><polygon points="402.64 385.92 402.02 392.88 400.27 392.88 400.27 386.06 402.64 385.92" style="fill:#263238"></polygon><path d="M439.22,391.77h-1L436,394.86v2s-1.57.09-1.39-2.57,0-2,0-2-3.35,0-3.62-.31a33.8,33.8,0,0,1-.33-5.33,2,2,0,0,1,1.38-2,1.49,1.49,0,0,1,.36-.05c.83,0,5.09.68,5.09.68h1.76Z" style="fill:#263238"></path><polygon points="442.71 392.32 442.08 385.36 440.34 385.36 440.34 392.19 442.71 392.32" style="fill:#263238"></polygon><rect x="88.44" y="84.99" width="556.12" height="10.46" style="fill:#263238"></rect><rect x="508.48" y="120.45" width="59.01" height="37.96" style="fill:#00DFC0"></rect><path d="M542.66,138.79a.74.74,0,0,1,0,1.29l-4.3,2.48-4.31,2.49a.74.74,0,0,1-1.11-.64v-9.95a.74.74,0,0,1,1.11-.64l4.31,2.48Z" style="fill:#fff"></path><path d="M613.69,124.55c0,.15-8.7.27-19.43.27s-19.42-.12-19.42-.27,8.69-.26,19.42-.26S613.69,124.41,613.69,124.55Z" style="fill:#263238"></path><path d="M619.87,132c0,.15-10.08.26-22.51.26s-22.52-.11-22.52-.26,10.08-.26,22.52-.26S619.87,131.85,619.87,132Z" style="fill:#263238"></path><path d="M619.87,139.43c0,.15-10.08.26-22.51.26s-22.52-.11-22.52-.26,10.08-.26,22.52-.26S619.87,139.29,619.87,139.43Z" style="fill:#263238"></path><path d="M619.87,146.87c0,.15-10.08.26-22.51.26s-22.52-.11-22.52-.26,10.08-.26,22.52-.26S619.87,146.73,619.87,146.87Z" style="fill:#263238"></path><path d="M619.87,154.31c0,.15-10.08.26-22.51.26s-22.52-.11-22.52-.26,10.08-.26,22.52-.26S619.87,154.17,619.87,154.31Z" style="fill:#263238"></path><rect x="508.48" y="168.42" width="59.01" height="37.96" style="fill:#00DFC0"></rect><g style="opacity:0.2"><rect x="508.48" y="168.42" width="59.01" height="37.96" style="fill:#fff"></rect></g><path d="M542.66,186.76a.74.74,0,0,1,0,1.29l-4.3,2.48L534.05,193a.74.74,0,0,1-1.11-.64v-9.95a.74.74,0,0,1,1.11-.64l4.31,2.48Z" style="fill:#fff"></path><path d="M613.69,172.52c0,.15-8.7.26-19.43.26s-19.42-.11-19.42-.26,8.69-.26,19.42-.26S613.69,172.38,613.69,172.52Z" style="fill:#263238"></path><path d="M619.87,180c0,.15-10.08.26-22.51.26s-22.52-.11-22.52-.26,10.08-.26,22.52-.26S619.87,179.82,619.87,180Z" style="fill:#263238"></path><path d="M619.87,187.4c0,.15-10.08.26-22.51.26s-22.52-.11-22.52-.26,10.08-.26,22.52-.26S619.87,187.26,619.87,187.4Z" style="fill:#263238"></path><path d="M619.87,194.84c0,.15-10.08.26-22.51.26s-22.52-.11-22.52-.26,10.08-.26,22.52-.26S619.87,194.7,619.87,194.84Z" style="fill:#263238"></path><path d="M619.87,202.28c0,.15-10.08.26-22.51.26s-22.52-.11-22.52-.26,10.08-.26,22.52-.26S619.87,202.14,619.87,202.28Z" style="fill:#263238"></path><rect x="508.48" y="218.83" width="59.01" height="37.96" style="fill:#00DFC0"></rect><g style="opacity:0.30000000000000004"><rect x="508.48" y="218.83" width="59.01" height="37.96" style="fill:#fff"></rect></g><path d="M542.66,237.17a.73.73,0,0,1,0,1.28l-4.3,2.49-4.31,2.49a.74.74,0,0,1-1.11-.65v-9.94a.74.74,0,0,1,1.11-.65l4.31,2.49Z" style="fill:#fff"></path><path d="M613.69,222.93c0,.15-8.7.26-19.43.26s-19.42-.11-19.42-.26,8.69-.26,19.42-.26S613.69,222.79,613.69,222.93Z" style="fill:#263238"></path><path d="M619.87,230.37c0,.14-10.08.26-22.51.26s-22.52-.12-22.52-.26,10.08-.26,22.52-.26S619.87,230.23,619.87,230.37Z" style="fill:#263238"></path><path d="M619.87,237.81c0,.14-10.08.26-22.51.26s-22.52-.12-22.52-.26,10.08-.26,22.52-.26S619.87,237.67,619.87,237.81Z" style="fill:#263238"></path><path d="M619.87,245.25c0,.14-10.08.26-22.51.26s-22.52-.12-22.52-.26,10.08-.26,22.52-.26S619.87,245.11,619.87,245.25Z" style="fill:#263238"></path><path d="M619.87,252.69c0,.14-10.08.26-22.51.26s-22.52-.12-22.52-.26,10.08-.26,22.52-.26S619.87,252.54,619.87,252.69Z" style="fill:#263238"></path><rect x="508.48" y="269.24" width="59.01" height="37.96" style="fill:#00DFC0"></rect><g style="opacity:0.5"><rect x="508.48" y="269.24" width="59.01" height="37.96" style="fill:#fff"></rect></g><path d="M542.66,287.57a.74.74,0,0,1,0,1.29l-4.3,2.49-4.31,2.48a.74.74,0,0,1-1.11-.64v-9.95a.74.74,0,0,1,1.11-.64l4.31,2.49Z" style="fill:#fff"></path><path d="M613.69,273.34c0,.14-8.7.26-19.43.26s-19.42-.12-19.42-.26,8.69-.26,19.42-.26S613.69,273.2,613.69,273.34Z" style="fill:#263238"></path><path d="M619.87,280.78c0,.14-10.08.26-22.51.26s-22.52-.12-22.52-.26,10.08-.26,22.52-.26S619.87,280.63,619.87,280.78Z" style="fill:#263238"></path><path d="M619.87,288.22c0,.14-10.08.26-22.51.26s-22.52-.12-22.52-.26,10.08-.26,22.52-.26S619.87,288.07,619.87,288.22Z" style="fill:#263238"></path><path d="M619.87,295.66c0,.14-10.08.26-22.51.26s-22.52-.12-22.52-.26,10.08-.26,22.52-.26S619.87,295.51,619.87,295.66Z" style="fill:#263238"></path><path d="M619.87,303.1c0,.14-10.08.26-22.51.26s-22.52-.12-22.52-.26,10.08-.26,22.52-.26S619.87,303,619.87,303.1Z" style="fill:#263238"></path><rect x="508.48" y="319.64" width="59.01" height="37.96" style="fill:#00DFC0"></rect><g style="opacity:0.7000000000000001"><rect x="508.48" y="319.64" width="59.01" height="37.96" style="fill:#fff"></rect></g><path d="M542.66,338a.74.74,0,0,1,0,1.29l-4.3,2.48-4.31,2.49a.74.74,0,0,1-1.11-.64v-10a.74.74,0,0,1,1.11-.64l4.31,2.48Z" style="fill:#fff"></path><path d="M613.69,323.75c0,.14-8.7.26-19.43.26s-19.42-.12-19.42-.26,8.69-.26,19.42-.26S613.69,323.6,613.69,323.75Z" style="fill:#263238"></path><path d="M619.87,331.19c0,.14-10.08.26-22.51.26s-22.52-.12-22.52-.26,10.08-.26,22.52-.26S619.87,331,619.87,331.19Z" style="fill:#263238"></path><path d="M619.87,338.62c0,.15-10.08.27-22.51.27s-22.52-.12-22.52-.27,10.08-.26,22.52-.26S619.87,338.48,619.87,338.62Z" style="fill:#263238"></path><path d="M619.87,346.06c0,.15-10.08.26-22.51.26s-22.52-.11-22.52-.26,10.08-.26,22.52-.26S619.87,345.92,619.87,346.06Z" style="fill:#263238"></path><path d="M619.87,353.5c0,.15-10.08.26-22.51.26s-22.52-.11-22.52-.26,10.08-.26,22.52-.26S619.87,353.36,619.87,353.5Z" style="fill:#263238"></path><rect x="508.48" y="370.51" width="59.01" height="37.96" style="fill:#f5f5f5"></rect><path d="M542.66,388.84a.74.74,0,0,1,0,1.29l-4.3,2.49-4.31,2.48a.74.74,0,0,1-1.11-.64v-9.95a.74.74,0,0,1,1.11-.64l4.31,2.49Z" style="fill:#fff"></path><path d="M613.69,374.61c0,.14-8.7.26-19.43.26s-19.42-.12-19.42-.26,8.69-.26,19.42-.26S613.69,374.46,613.69,374.61Z" style="fill:#263238"></path><path d="M619.87,382.05c0,.14-10.08.26-22.51.26s-22.52-.12-22.52-.26,10.08-.26,22.52-.26S619.87,381.9,619.87,382.05Z" style="fill:#263238"></path><path d="M619.87,389.49c0,.14-10.08.26-22.51.26s-22.52-.12-22.52-.26,10.08-.26,22.52-.26S619.87,389.34,619.87,389.49Z" style="fill:#263238"></path><path d="M619.87,396.93c0,.14-10.08.26-22.51.26s-22.52-.12-22.52-.26,10.08-.26,22.52-.26S619.87,396.78,619.87,396.93Z" style="fill:#263238"></path><path d="M619.87,404.36c0,.15-10.08.27-22.51.27s-22.52-.12-22.52-.27,10.08-.26,22.52-.26S619.87,404.22,619.87,404.36Z" style="fill:#263238"></path><circle cx="97.31" cy="90.55" r="2.47" style="fill:#fff"></circle><path d="M107.68,90.55a2.47,2.47,0,1,1-2.47-2.47A2.48,2.48,0,0,1,107.68,90.55Z" style="fill:#fff"></path><path d="M115.58,90.55a2.47,2.47,0,1,1-2.47-2.47A2.48,2.48,0,0,1,115.58,90.55Z" style="fill:#fff"></path></g><g id="freepik--Video--inject-2"><path d="M473.79,368.47H124.3c-3.27,0-5.92-3.23-5.92-7.21V127.66c0-4,2.65-7.21,5.92-7.21H473.79c3.27,0,5.93,3.23,5.93,7.21v233.6C479.72,365.24,477.06,368.47,473.79,368.47Z" style="fill:#fff"></path><path d="M473.79,368.47l.2,0a4,4,0,0,0,.58-.06,5,5,0,0,0,2.13-.89,6.78,6.78,0,0,0,2.32-3,8.23,8.23,0,0,0,.6-2.38c.08-.88,0-1.83,0-2.83,0-8.05,0-19.91-.05-35.18,0-30.56,0-74.77-.08-129.4q0-20.48,0-42.87V129.07a17,17,0,0,0-.13-2.87,7.77,7.77,0,0,0-1-2.66,6.27,6.27,0,0,0-1.92-2.05,5,5,0,0,0-2.67-.82H461.87l-102.55,0-235,0a5,5,0,0,0-3.36,1.35,6.91,6.91,0,0,0-2,3.16,11.56,11.56,0,0,0-.37,3.78V239c0,39.3,0,77.22,0,113.34v6.75a30.26,30.26,0,0,0,.09,3.32,7.51,7.51,0,0,0,1.06,3,6.12,6.12,0,0,0,2.29,2.2,4.68,4.68,0,0,0,1.49.5,9.58,9.58,0,0,0,1.62.07h82.44l89.36,0,129.38.08,35.18.05,9.15,0,3.11,0-3.11,0-9.15,0-35.18.05L297,368.65l-89.36,0H125.17a10.85,10.85,0,0,1-1.69-.08,5.35,5.35,0,0,1-1.65-.55,6.51,6.51,0,0,1-2.46-2.37,8.12,8.12,0,0,1-1.14-3.23,32.26,32.26,0,0,1-.09-3.39v-6.75c0-36.12,0-74,0-113.34q0-29.49,0-60V129a12,12,0,0,1,.39-3.94,7.55,7.55,0,0,1,2.11-3.39,5.53,5.53,0,0,1,3.71-1.48l235,0,102.55,0h11.94a5.52,5.52,0,0,1,2.9.89,6.84,6.84,0,0,1,2.05,2.2,8.09,8.09,0,0,1,1,2.8,16.2,16.2,0,0,1,.13,2.94v22.81q0,22.37,0,42.87c0,54.63-.06,98.84-.08,129.4,0,15.27,0,27.13-.05,35.18,0,1,0,1.95-.06,2.84a8.05,8.05,0,0,1-.62,2.4,6.78,6.78,0,0,1-2.36,3,5,5,0,0,1-2.15.86A5.2,5.2,0,0,1,473.79,368.47Z" style="fill:#263238"></path><path d="M154.32,354.23v-2.62a.31.31,0,0,1,.46-.27l2.28,1.32,2.27,1.31a.3.3,0,0,1,0,.53l-2.27,1.31-2.28,1.31a.31.31,0,0,1-.46-.26Z" style="fill:#263238"></path><path d="M175.64,352.18h-2a.3.3,0,0,0-.31.3V356a.31.31,0,0,0,.31.31h2l3.05,3V349.13Z" style="fill:#263238"></path><path d="M161.17,357.39h0a.52.52,0,0,1-.52-.53V351.6a.52.52,0,0,1,.52-.52h0a.52.52,0,0,1,.53.52v5.26A.53.53,0,0,1,161.17,357.39Z" style="fill:#263238"></path><path d="M179.91,351v6.38a3.41,3.41,0,0,0,0-6.38Z" style="fill:#263238"></path><path d="M179.91,348.61v1.33a4.47,4.47,0,0,1,0,8.59v1.33a5.76,5.76,0,0,0,0-11.25Z" style="fill:#263238"></path><path d="M196.38,352.13v6.19h-.88V352.9h-1.39v-.77Z" style="fill:#263238"></path><path d="M197.71,354.19a.59.59,0,0,1,.6-.6.58.58,0,0,1,.58.6.59.59,0,0,1-.58.61A.6.6,0,0,1,197.71,354.19Zm0,3.57a.59.59,0,0,1,.6-.6.58.58,0,0,1,.58.6.59.59,0,0,1-.58.61A.6.6,0,0,1,197.71,357.76Z" style="fill:#263238"></path><path d="M199.73,355.22c0-2,1.08-3.16,2.53-3.16s2.52,1.15,2.52,3.16-1.08,3.17-2.52,3.17S199.73,357.24,199.73,355.22Zm4.16,0c0-1.58-.67-2.37-1.63-2.37s-1.64.79-1.64,2.37.67,2.38,1.64,2.38S203.89,356.81,203.89,355.22Z" style="fill:#263238"></path><path d="M207.51,352.13v6.19h-.87V352.9h-1.4v-.77Z" style="fill:#263238"></path><path d="M213.48,350.88h.77l-2.92,8.32h-.77Z" style="fill:#263238"></path><path d="M221.6,356.57c0,1.12-1,1.82-2.47,1.82s-2.45-.7-2.45-1.82a1.54,1.54,0,0,1,1.09-1.5,1.38,1.38,0,0,1-.87-1.33c0-1,.9-1.68,2.23-1.68s2.24.65,2.24,1.68a1.38,1.38,0,0,1-.87,1.33A1.55,1.55,0,0,1,221.6,356.57Zm-.89,0c0-.68-.6-1.1-1.58-1.1s-1.56.42-1.56,1.1.58,1.13,1.56,1.13S220.71,357.24,220.71,356.54Zm-2.93-2.77c0,.61.5,1,1.35,1s1.38-.38,1.38-1-.55-1-1.38-1S217.78,353.16,217.78,353.77Z" style="fill:#263238"></path><path d="M222.39,354.19a.59.59,0,0,1,.6-.6.58.58,0,0,1,.58.6.59.59,0,0,1-.58.61A.6.6,0,0,1,222.39,354.19Zm0,3.57a.59.59,0,0,1,.6-.6.58.58,0,0,1,.58.6.59.59,0,0,1-.58.61A.6.6,0,0,1,222.39,357.76Z" style="fill:#263238"></path><path d="M224.41,355.22c0-2,1.08-3.16,2.53-3.16s2.51,1.15,2.51,3.16-1.07,3.17-2.51,3.17S224.41,357.24,224.41,355.22Zm4.16,0c0-1.58-.67-2.37-1.63-2.37s-1.65.79-1.65,2.37.67,2.38,1.65,2.38S228.57,356.81,228.57,355.22Z" style="fill:#263238"></path><path d="M230.3,355.22c0-2,1.08-3.16,2.52-3.16s2.52,1.15,2.52,3.16-1.08,3.17-2.52,3.17S230.3,357.24,230.3,355.22Zm4.16,0c0-1.58-.67-2.37-1.64-2.37s-1.64.79-1.64,2.37.67,2.38,1.64,2.38S234.46,356.81,234.46,355.22Z" style="fill:#263238"></path><path d="M131.78,357.42h0a1,1,0,0,1-1-1v-5.44a1,1,0,0,1,1-1.05h0a1,1,0,0,1,1,1.05v5.44A1,1,0,0,1,131.78,357.42Z" style="fill:#263238"></path><path d="M136.51,357.42h0a1,1,0,0,1-1-1v-5.44a1,1,0,0,1,1-1.05h0a1,1,0,0,1,1,1.05v5.44A1,1,0,0,1,136.51,357.42Z" style="fill:#263238"></path><rect x="128.92" y="339.89" width="343.34" height="4.45" rx="2.15" style="fill:#e0e0e0"></rect><path d="M131.08,339.89h85.17a1.87,1.87,0,0,1,1.87,1.87v.71a1.87,1.87,0,0,1-1.87,1.87H131.08a2.15,2.15,0,0,1-2.15-2.15V342a2.15,2.15,0,0,1,2.15-2.15Z" style="fill:#00DFC0"></path><path d="M220.37,342.12a4.25,4.25,0,1,1-4.25-4.25A4.25,4.25,0,0,1,220.37,342.12Z" style="fill:#00DFC0"></path><rect x="154.87" y="142.75" width="160.67" height="180.98" rx="6.34" style="fill:#fff"></rect><path d="M309.2,323.72s.14,0,.43,0a6,6,0,0,0,1.27-.24,6.37,6.37,0,0,0,3.84-3.09,6.94,6.94,0,0,0,.6-1.66,8.72,8.72,0,0,0,.13-1.95c0-1.38,0-2.89,0-4.53,0-3.27,0-7.05,0-11.3,0-17-.05-41.64-.09-72.06,0-15.21,0-31.87,0-49.75q0-13.41,0-27.72a22.87,22.87,0,0,0-.13-3.53,6.13,6.13,0,0,0-1.61-3,6,6,0,0,0-3-1.69A19.34,19.34,0,0,0,307,143H292.07l-130.85,0a6.13,6.13,0,0,0-3.85,1.36,6.25,6.25,0,0,0-2.12,3.48,10.36,10.36,0,0,0-.12,2.1v23.54q0,17,0,33.39c0,21.89,0,43,0,63.11q0,15.09,0,29.39,0,7.15,0,14.08v3.46a6.4,6.4,0,0,0,.66,3.21,6.09,6.09,0,0,0,5.24,3.36l49.74.05,72,.08,19.59.05,5.09,0,1.74,0-1.74,0-5.09,0-19.59.05-72,.09-49.76,0a6.54,6.54,0,0,1-5.61-3.6,6.18,6.18,0,0,1-.58-1.66,8.71,8.71,0,0,1-.13-1.75v-3.46q0-6.93,0-14.08,0-14.28,0-29.39c0-20.11,0-41.22,0-63.11V150a11,11,0,0,1,.13-2.2,6.63,6.63,0,0,1,6.48-5.27l130.85,0H308.8a7.94,7.94,0,0,1,1.87.17,6.68,6.68,0,0,1,3.24,1.82,6.75,6.75,0,0,1,1.73,3.27,24.59,24.59,0,0,1,.13,3.62q0,14.3,0,27.72c0,17.88,0,34.54,0,49.75,0,30.42-.06,55-.08,72.06,0,4.25,0,8,0,11.3,0,1.64,0,3.15,0,4.53a9.09,9.09,0,0,1-.15,2,7,7,0,0,1-.62,1.68,6.4,6.4,0,0,1-3.91,3.1,5.65,5.65,0,0,1-1.28.2Z" style="fill:#263238"></path><path d="M202.18,160l.27-.45a5.08,5.08,0,0,1,.38-.52,5.89,5.89,0,0,1,.61-.67,8.9,8.9,0,0,1,5.53-2.27h0l0,0c.88.95,1.84,2,2.86,3.26q.77.91,1.56,1.95c.54.68,1,1.45,1.66,2.13a6.5,6.5,0,0,0,2.28,1.7,6.73,6.73,0,0,0,1.45.4,3.72,3.72,0,0,0,.76.14,7,7,0,0,0,.78,0c2.12-.24,4.36-.71,6.72-1.22l-.1.1a4.13,4.13,0,0,1,1.42-2,8.26,8.26,0,0,1,2.23-1.25,16.37,16.37,0,0,1,5.23-.92,14.68,14.68,0,0,1,2.79.17,10.84,10.84,0,0,1,2.72.94,19,19,0,0,1,4.85,3.47l0,0v0l1.49,3.53-.08-.09,10.41,5.69,0,0c1.92.57,3.86,1.1,5.88,1.73a5.62,5.62,0,0,1,2.47,2.08,14.55,14.55,0,0,1,1.58,2.87A51.08,51.08,0,0,1,271.11,194h0v0q-.15,4.16-.45,8.51c-.21,2.89-.46,5.85-.94,8.85-.12.75-.27,1.5-.46,2.25a7.35,7.35,0,0,1-.43,1.12,3.55,3.55,0,0,1-.79.93,12.42,12.42,0,0,1-4.25,2,50.35,50.35,0,0,1-9.38,1.69l.22-.21c-.27,2.74-.56,5.76-.86,8.82l-.1-.22a18.41,18.41,0,0,1,4.84,6.83,55.9,55.9,0,0,1,2.88,8c.79,2.77,1.45,5.59,2,8.46.29,1.43.57,2.86.86,4.3s.69,2.87,1,4.31l2.12,8.73c.17.74.38,1.46.52,2.21a18.19,18.19,0,0,1,.3,2.29c.08.77.11,1.53.13,2.29s0,1.54,0,2.3c0,6.14-.52,12.33-1.18,18.57-.23,2.09-.5,4.17-.79,6.24-.17,1-.31,2.06-.52,3.09-.1.51-.2,1-.33,1.53-.07.26-.12.51-.2.77l-.3.78a4.12,4.12,0,0,1-2.68,1.77,13.84,13.84,0,0,1-3.12.32,52.2,52.2,0,0,1-6.15-.44l-3-.38c-.51-.1-1-.19-1.52-.3l-1.47-.45a32.25,32.25,0,0,1-5.45-2.64,69.14,69.14,0,0,1-9.61-7l.09.05c-5.73-2-11.31-4.11-16.68-6.41a72.91,72.91,0,0,1-7.78-3.83,18,18,0,0,1-3.43-2.59,6.51,6.51,0,0,1-1.29-1.74,2.56,2.56,0,0,1-.17-2.25l0,.13c-.07-9.78-.13-19.14-.19-28,0-1.11,0-2.21,0-3.3s0-2.18,0-3.27a50.23,50.23,0,0,1,.86-6.33,79.08,79.08,0,0,1,3.36-11.7l0,.1c-1.37-11.2-2.61-21.35-3.71-30.27-.54-4.46-1-8.62-1.52-12.45-.11-1-.23-1.89-.34-2.81a8.86,8.86,0,0,0-.56-2.59,18.57,18.57,0,0,0-2.77-4.12q-.72-1-1.32-1.92a4,4,0,0,1-.43-2.16,14.48,14.48,0,0,1,.86-3.86,43.58,43.58,0,0,1,2.55-5.65c1.59-2.95,2.58-4.41,2.58-4.41l-.16.29-.48.84c-.43.74-1.07,1.85-1.84,3.34a44.05,44.05,0,0,0-2.49,5.64,14.53,14.53,0,0,0-.83,3.82,3.87,3.87,0,0,0,.42,2c.4.62.84,1.25,1.32,1.88a19.16,19.16,0,0,1,2.82,4.17,9.1,9.1,0,0,1,.59,2.66c.11.92.23,1.85.35,2.81q.72,5.75,1.57,12.44c1.11,8.92,2.38,19.06,3.78,30.25v.05l0,0c-2.63,7.31-4.8,15.56-4.17,24.45.07,8.86.15,18.22.22,28v.05l0,.08a2.15,2.15,0,0,0,.19,1.78,6,6,0,0,0,1.21,1.61,17.21,17.21,0,0,0,3.33,2.51,71,71,0,0,0,7.73,3.79c5.35,2.3,10.92,4.39,16.64,6.4h0l0,0a68.74,68.74,0,0,0,9.53,6.9,31.51,31.51,0,0,0,5.36,2.59l1.43.44c.48.11,1,.19,1.46.29l3,.38a53.85,53.85,0,0,0,6.08.43,13.51,13.51,0,0,0,3-.3,3.6,3.6,0,0,0,2.36-1.53l.25-.67c.07-.24.13-.5.19-.74.13-.5.23-1,.32-1.51.21-1,.35-2,.52-3.07.3-2.06.57-4.13.79-6.22.66-6.22,1.14-12.4,1.18-18.51a31,31,0,0,0-1-9c-.71-2.93-1.42-5.83-2.12-8.72-.35-1.44-.69-2.88-1-4.32s-.57-2.89-.86-4.32c-.58-2.86-1.24-5.67-2-8.42a55.68,55.68,0,0,0-2.85-8,18.15,18.15,0,0,0-4.68-6.65l-.11-.09v-.13c.3-3.06.6-6.08.87-8.82l0-.2.2,0a49.79,49.79,0,0,0,9.28-1.66,11.91,11.91,0,0,0,4.08-1.93,3,3,0,0,0,.7-.8,6.15,6.15,0,0,0,.38-1c.19-.72.34-1.46.46-2.2.48-3,.73-5.92.94-8.8s.36-5.73.47-8.5v0a50.35,50.35,0,0,0-3.08-13.07,14.15,14.15,0,0,0-1.52-2.79,5.25,5.25,0,0,0-2.29-1.95c-2-.62-3.94-1.17-5.84-1.73h0l-10.4-5.71,0,0,0-.06c-.52-1.24-1-2.46-1.47-3.53l0,.06a18.72,18.72,0,0,0-4.74-3.42,10.76,10.76,0,0,0-2.64-.92,13.92,13.92,0,0,0-2.73-.17,16,16,0,0,0-5.13.88c-1.55.59-3,1.57-3.49,3.08l0,.08h-.07c-2.37.5-4.61,1-6.76,1.2a7.31,7.31,0,0,1-.81,0,5.29,5.29,0,0,1-.79-.15,7.57,7.57,0,0,1-1.5-.42,7.11,7.11,0,0,1-2.35-1.77c-.64-.71-1.13-1.47-1.66-2.15s-1-1.34-1.54-2c-1-1.23-1.95-2.32-2.83-3.27l.06,0a8.82,8.82,0,0,0-5.49,2.19A10.21,10.21,0,0,0,202.18,160Z" style="fill:#263238"></path><path d="M247,165.2s.07.09.16.28a3.89,3.89,0,0,1,.29.88,5.47,5.47,0,0,1-.48,3.36,6.66,6.66,0,0,1-3.77,3.31,10.71,10.71,0,0,1-6.15.28,22.69,22.69,0,0,1-5.76-2.18,8.32,8.32,0,0,1-3.61-3.5,5.3,5.3,0,0,1-.53-3.35,3.5,3.5,0,0,1,.28-.88c.1-.19.16-.28.17-.27s-.17.41-.25,1.19a5.35,5.35,0,0,0,.66,3.15,8.2,8.2,0,0,0,3.51,3.24,24.2,24.2,0,0,0,5.64,2.1,10.43,10.43,0,0,0,5.87-.23,6.34,6.34,0,0,0,3.61-3,5.53,5.53,0,0,0,.61-3.17C247.18,165.62,247,165.22,247,165.2Z" style="fill:#263238"></path><path d="M208.13,156.69a2.81,2.81,0,0,1,.16.95,13.15,13.15,0,0,1-.1,2.62,14.3,14.3,0,0,1-1.06,3.76,27.56,27.56,0,0,1-2.29,4.17c-1.83,2.82-3.51,5.34-4.77,7.16a3.87,3.87,0,0,1-1.08,1.09,1.86,1.86,0,0,1-1.16.24c-.67-.11-.85-.52-.82-.52a1.5,1.5,0,0,0,1.82,0,3.62,3.62,0,0,0,.94-1.05c1.16-1.85,2.81-4.42,4.63-7.23a31.05,31.05,0,0,0,2.29-4.08,15.57,15.57,0,0,0,1.14-3.63A33.78,33.78,0,0,0,208.13,156.69Z" style="fill:#263238"></path><path d="M214.27,175.78a24.63,24.63,0,0,1-1.83-4.61,23.1,23.1,0,0,1-1.34-4.78,24.2,24.2,0,0,1,1.83,4.61A23.28,23.28,0,0,1,214.27,175.78Z" style="fill:#263238"></path><path d="M219.62,178.48a14.65,14.65,0,0,1-1.62-11,52.64,52.64,0,0,0,.25,5.57A51.19,51.19,0,0,0,219.62,178.48Z" style="fill:#263238"></path><path d="M226.24,175.05a12.4,12.4,0,0,1-.3-4.49,12.69,12.69,0,0,1,.81-4.43c.15,0-.16,2-.29,4.46S226.39,175,226.24,175.05Z" style="fill:#e0e0e0"></path><path d="M234.36,182.71c-.14.08-.9-1.21-2.29-2.36s-2.77-1.68-2.72-1.83a6.59,6.59,0,0,1,5,4.19Z" style="fill:#e0e0e0"></path><path d="M249.39,175.48a1.43,1.43,0,0,1,.11.71,4.15,4.15,0,0,1-.46,1.92,6.22,6.22,0,0,1-1.87,2.26,8.74,8.74,0,0,1-3.27,1.47,21.24,21.24,0,0,1-3.51.49l-2.86.17a13.29,13.29,0,0,1-2.64,0,13.85,13.85,0,0,1,2.61-.39,57,57,0,0,0,6.28-.79,8.86,8.86,0,0,0,3.1-1.35,6.52,6.52,0,0,0,1.84-2A6.62,6.62,0,0,0,249.39,175.48Z" style="fill:#e0e0e0"></path><path d="M249,173.57c-.11.09-.74-.52-1.19-1.49s-.51-1.84-.38-1.86.43.74.86,1.64S249.14,173.48,249,173.57Z" style="fill:#e0e0e0"></path><path d="M250.93,200.34a71.47,71.47,0,0,0,4.49-5.72c2.21-3.36,3.26-6.48,3.42-6.42a7.35,7.35,0,0,1-.6,2.07,25.62,25.62,0,0,1-2.38,4.63,25,25,0,0,1-3.28,4A6.94,6.94,0,0,1,250.93,200.34Z" style="fill:#263238"></path><path d="M250.85,216.43a12.13,12.13,0,0,1-.34-2.94,33.6,33.6,0,0,1,2.47-14,11.37,11.37,0,0,1,1.33-2.64,28,28,0,0,1-1,2.77,41.44,41.44,0,0,0-2.44,13.83A29,29,0,0,1,250.85,216.43Z" style="fill:#263238"></path><path d="M267.27,214.88a1.86,1.86,0,0,0,.45-.79,1.94,1.94,0,0,0-1-2.06,5.89,5.89,0,0,0-3.73-.09,24.64,24.64,0,0,0-4.56,1.34,25.85,25.85,0,0,0-4.24,2.17c-.62.39-1.19.79-1.72,1.17a4.77,4.77,0,0,0-1.28,1.18.8.8,0,0,0,.28,1.1,1.5,1.5,0,0,0,1,.24,7.6,7.6,0,0,1,1-.11,2.4,2.4,0,0,1-.94.31,1.65,1.65,0,0,1-1.18-.2,1.21,1.21,0,0,1-.53-.6,1.12,1.12,0,0,1,.08-.91,4.78,4.78,0,0,1,1.34-1.35c.52-.41,1.1-.83,1.72-1.24a24.86,24.86,0,0,1,4.31-2.25,23.13,23.13,0,0,1,4.67-1.32,6,6,0,0,1,4,.24,2.09,2.09,0,0,1,1,1.24,2,2,0,0,1,0,1.19C267.69,214.8,267.25,214.9,267.27,214.88Z" style="fill:#263238"></path><path d="M245.8,216a4.3,4.3,0,0,1-1.65.6,12.37,12.37,0,0,1-8.31-1.07,4.36,4.36,0,0,1-1.45-1,22.63,22.63,0,0,0,5.58,1.74A22.26,22.26,0,0,0,245.8,216Z" style="fill:#263238"></path><path d="M247.35,208.89c0-.07.29,0,.64-.09a1,1,0,0,0,0-2c-.35-.13-.61-.05-.64-.12s.21-.3.72-.23a1.4,1.4,0,0,1,1.23,1.37,1.42,1.42,0,0,1-1.29,1.31C247.55,209.2,247.31,208.94,247.35,208.89Z" style="fill:#263238"></path><path d="M213.31,207.23c0,.06-.25.21-.71.11a1.6,1.6,0,0,1-1.2-1.28,1.58,1.58,0,0,1,.76-1.58c.41-.24.72-.17.72-.11s-.24.15-.5.4a1.47,1.47,0,0,0-.47,1.21,1.45,1.45,0,0,0,.81,1C213.05,207.15,213.3,207.15,213.31,207.23Z" style="fill:#263238"></path><path d="M221.94,214.82a3.88,3.88,0,0,1-1.05.45,9.49,9.49,0,0,1-3.09.45,11.22,11.22,0,0,1-4.52-1,10.17,10.17,0,0,1-6.18-9,11,11,0,0,1,.69-4.58,9.62,9.62,0,0,1,1.52-2.72,4.06,4.06,0,0,1,.8-.82,15,15,0,0,0-2,3.66,11.41,11.41,0,0,0-.55,4.43,9.92,9.92,0,0,0,5.9,8.59,11.26,11.26,0,0,0,4.33,1.06A14.55,14.55,0,0,0,221.94,214.82Z" style="fill:#263238"></path><path d="M229.14,208.67a8.74,8.74,0,0,1-2.22,3.43,8.57,8.57,0,0,1-3.28,2.44c-.08-.13,1.39-1.18,2.9-2.8S229,208.6,229.14,208.67Z" style="fill:#e0e0e0"></path><path d="M229.2,216.51a12.89,12.89,0,0,1,.09-3.6,11.89,11.89,0,0,1,.6-3.55,12.86,12.86,0,0,1-.09,3.6A12.07,12.07,0,0,1,229.2,216.51Z" style="fill:#ebebeb"></path><path d="M227.85,217.9a21.51,21.51,0,0,1,.47-5.28,21,21,0,0,1,1.29-5.15,37.75,37.75,0,0,1-.78,5.23A37.2,37.2,0,0,1,227.85,217.9Z" style="fill:#ebebeb"></path><path d="M226.83,219a37.35,37.35,0,0,1,1.39-8.67,18.5,18.5,0,0,1-.44,4.37A18.74,18.74,0,0,1,226.83,219Z" style="fill:#ebebeb"></path><path d="M225.5,220.25a34,34,0,0,1,1.71-8.23,17.36,17.36,0,0,1-.6,4.17A17.11,17.11,0,0,1,225.5,220.25Z" style="fill:#ebebeb"></path><path d="M224.37,219.88a8.6,8.6,0,0,1,.39-3,8.42,8.42,0,0,1,.9-2.84,17.12,17.12,0,0,1-1.29,5.8Z" style="fill:#ebebeb"></path><path d="M223.46,221.07a9.26,9.26,0,0,1,.32-3.37,9,9,0,0,1,1.07-3.21,14.48,14.48,0,0,1-.56,3.32A14,14,0,0,1,223.46,221.07Z" style="fill:#ebebeb"></path><path d="M222.74,219.72a11.5,11.5,0,0,1,1.14-4.7,11.5,11.5,0,0,1-1.14,4.7Z" style="fill:#ebebeb"></path><path d="M221.36,220.78a5.1,5.1,0,0,1,.14-2.3,5.25,5.25,0,0,1,.65-2.2,5.22,5.22,0,0,1-.14,2.29A5.4,5.4,0,0,1,221.36,220.78Z" style="fill:#ebebeb"></path><path d="M220,221.51a6.71,6.71,0,0,1,.33-2.58,6.49,6.49,0,0,1,.83-2.46,6.71,6.71,0,0,1-.33,2.58A6.49,6.49,0,0,1,220,221.51Z" style="fill:#ebebeb"></path><path d="M219.08,221.26a4.49,4.49,0,0,1,.19-2.13c.24-1.15.56-2.06.7-2a4.69,4.69,0,0,1-.19,2.14C219.53,220.39,219.22,221.29,219.08,221.26Z" style="fill:#ebebeb"></path><path d="M218.3,220.91a9.35,9.35,0,0,1,1.09-4.28,4.87,4.87,0,0,1-.29,2.2A5.11,5.11,0,0,1,218.3,220.91Z" style="fill:#ebebeb"></path><path d="M217.62,220.44c-.14,0-.06-.85.18-1.82s.54-1.73.68-1.69.06.85-.18,1.81S217.76,220.47,217.62,220.44Z" style="fill:#ebebeb"></path><path d="M216.63,220.29a4.33,4.33,0,0,1,.25-2.08c.28-1.12.62-2,.76-2a4.37,4.37,0,0,1-.25,2.09C217.11,219.45,216.77,220.33,216.63,220.29Z" style="fill:#ebebeb"></path><path d="M215.7,219.5c-.15,0-.12-.7.06-1.48s.43-1.4.57-1.37.11.69-.06,1.48S215.84,219.53,215.7,219.5Z" style="fill:#ebebeb"></path><path d="M215.11,218.62c-.13-.06,0-.6.1-1.26s.3-1.19.44-1.18.23.6.07,1.3S215.24,218.67,215.11,218.62Z" style="fill:#ebebeb"></path><path d="M214,216.46c.12,0,.39.39.65,1l-.49,0,.07-.35c.17-.82.43-1.47.57-1.44s.11.73-.06,1.55c0,.11-.05.22-.08.35l-.21.89-.28-.86C214,217,213.89,216.5,214,216.46Z" style="fill:#ebebeb"></path><path d="M212.91,216.09c-.13-.05-.13-.34,0-.64s.34-.5.48-.44.13.34,0,.64S213,216.15,212.91,216.09Z" style="fill:#ebebeb"></path><path d="M214.18,207.53c0,.14-.19.32-.49.4s-.59,0-.63-.1.19-.32.49-.4S214.14,207.39,214.18,207.53Z" style="fill:#ebebeb"></path><path d="M214.13,208.85c.05.14-.11.32-.36.4s-.48,0-.53-.09.12-.32.36-.4S214.09,208.72,214.13,208.85Z" style="fill:#ebebeb"></path><path d="M214.1,213.48c-.1.1-.68-.39-1.07-1.2s-.43-1.57-.3-1.59.4.61.76,1.36S214.21,213.39,214.1,213.48Z" style="fill:#ebebeb"></path><path d="M215.29,213.64c-.12.07-.56-.47-1-1.22s-.64-1.39-.52-1.46.56.47,1,1.21S215.42,213.57,215.29,213.64Z" style="fill:#ebebeb"></path><path d="M216.74,213.68c-.1.1-.64-.28-1-1s-.46-1.36-.32-1.39.41.5.77,1.13S216.84,213.58,216.74,213.68Z" style="fill:#ebebeb"></path><path d="M218.26,213.86c-.09.11-.66-.24-1.08-.91s-.51-1.33-.37-1.36.42.48.81,1.08S218.36,213.75,218.26,213.86Z" style="fill:#ebebeb"></path><path d="M219.59,214.1c-.08.12-.57-.09-1-.6s-.44-1.05-.31-1.09.4.34.73.77S219.68,214,219.59,214.1Z" style="fill:#ebebeb"></path><path d="M210.1,233.91c-.12.08-.8-.76-1.24-2a3.87,3.87,0,0,1-.31-2.32,9.18,9.18,0,0,1,.8,2.15A10,10,0,0,1,210.1,233.91Z" style="fill:#e0e0e0"></path><path d="M212.2,234.75c-.14.05-.6-.8-1-1.9a4.82,4.82,0,0,1-.56-2.1c.13-.06.6.8,1,1.9A4.82,4.82,0,0,1,212.2,234.75Z" style="fill:#e0e0e0"></path><path d="M213.88,235.1c-.09.11-.83-.42-1.39-1.37s-.64-1.86-.51-1.89.45.75,1,1.62S214,235,213.88,235.1Z" style="fill:#e0e0e0"></path><path d="M215.25,235.3c-.09.11-.76-.34-1.27-1.16s-.61-1.61-.48-1.64.45.62.92,1.37S215.35,235.19,215.25,235.3Z" style="fill:#e0e0e0"></path><path d="M216.77,235.35c-.07.12-.71-.12-1.27-.73s-.77-1.26-.65-1.32.51.42,1,1S216.85,235.22,216.77,235.35Z" style="fill:#e0e0e0"></path><path d="M232.31,231.88a30.32,30.32,0,0,0-4.2-.06,31.4,31.4,0,0,0-4.08,1,7.07,7.07,0,0,1,4-1.52A7,7,0,0,1,232.31,231.88Z" style="fill:#e0e0e0"></path><path d="M242.73,235.71a6.45,6.45,0,0,1-4.88-.71,10.65,10.65,0,0,1,2.45.32A10.79,10.79,0,0,1,242.73,235.71Z" style="fill:#e0e0e0"></path><path d="M246.43,225.14a14.56,14.56,0,0,1-4.41,2.49,14.78,14.78,0,0,1-4.88,1.35c0-.15,2.13-.77,4.68-1.83S246.35,225,246.43,225.14Z" style="fill:#e0e0e0"></path><path d="M232.66,244.71c0,.07-.31.34-.64,1-.17.31-.35.71-.61,1.14a2.46,2.46,0,0,1-1.28,1.14,2.4,2.4,0,0,1-1.71-.16,3.61,3.61,0,0,1-1.09-.82c-.5-.56-.72-1-.68-1s.39.27.94.73a3.89,3.89,0,0,0,1,.65,2,2,0,0,0,1.36.1c.91-.32,1.28-1.4,1.74-2S232.64,244.65,232.66,244.71Z" style="fill:#263238"></path><path d="M227.82,247.32c-.15,0-.32-.26-.39-.64s0-.71.12-.74.32.26.39.64S228,247.3,227.82,247.32Z" style="fill:#e0e0e0"></path><path d="M228.33,246.57c-.14,0-.29-.17-.32-.43s.05-.47.2-.49.28.17.32.42S228.47,246.55,228.33,246.57Z" style="fill:#e0e0e0"></path><path d="M229.07,247.2c-.14,0-.31-.34-.38-.8s0-.86.13-.89.32.34.39.81S229.22,247.18,229.07,247.2Z" style="fill:#e0e0e0"></path><path d="M230,247.69c-.14,0-.34-.4-.45-.95s-.08-1,.06-1.05.34.4.45.95S230.12,247.66,230,247.69Z" style="fill:#e0e0e0"></path><path d="M231,247.58c-.14,0-.35-.4-.46-1s-.09-1,.05-1,.35.4.46.95S231.16,247.55,231,247.58Z" style="fill:#e0e0e0"></path><path d="M233.9,285.84a97.37,97.37,0,0,1-8.42-5.49,96.46,96.46,0,0,1-8.14-5.92,96.56,96.56,0,0,1,8.43,5.49A100,100,0,0,1,233.9,285.84Z" style="fill:#263238"></path><path d="M234,296.26a14,14,0,0,1-.39-4.44,13.57,13.57,0,0,1,.57-4.42,31.56,31.56,0,0,1-.05,4.43A32.05,32.05,0,0,1,234,296.26Z" style="fill:#263238"></path><path d="M231.51,292.42c-.09.06-1-1.36-3-3.27a28,28,0,0,0-3.68-3,32.75,32.75,0,0,0-5.11-2.82,32.2,32.2,0,0,0-5.59-1.72,28.68,28.68,0,0,0-4.74-.53c-2.73-.07-4.41.24-4.42.13a5,5,0,0,1,1.17-.25,10.76,10.76,0,0,1,1.39-.17,17.47,17.47,0,0,1,1.86-.08,26,26,0,0,1,4.84.43,27.58,27.58,0,0,1,10.88,4.62,25.31,25.31,0,0,1,3.66,3.18c.5.48.88,1,1.24,1.39a10.81,10.81,0,0,1,.84,1.12A5.43,5.43,0,0,1,231.51,292.42Z" style="fill:#263238"></path><path d="M265.8,302.86c-.06.08-1.4-1-3.81-2.32a33.43,33.43,0,0,0-4.38-2,35.85,35.85,0,0,0-5.69-1.55,36.48,36.48,0,0,0-5.87-.52,34.63,34.63,0,0,0-4.8.35c-2.72.41-4.35.95-4.38.85a6.13,6.13,0,0,1,1.13-.43c.37-.12.82-.26,1.36-.38s1.14-.3,1.83-.4a30,30,0,0,1,4.86-.47,33.3,33.3,0,0,1,6,.49,32.93,32.93,0,0,1,5.76,1.61,29.78,29.78,0,0,1,4.4,2.12c.61.34,1.12.71,1.58,1a11,11,0,0,1,1.14.84A5.11,5.11,0,0,1,265.8,302.86Z" style="fill:#263238"></path><path d="M245.69,269.29s0,.29-.05.81a17.8,17.8,0,0,1-.44,2.19,25.16,25.16,0,0,1-2.89,6.77,25.47,25.47,0,0,1-4.7,5.65,16.61,16.61,0,0,1-1.75,1.39c-.43.3-.68.45-.7.42s.86-.77,2.2-2.07a30.2,30.2,0,0,0,4.51-5.66,29.64,29.64,0,0,0,3-6.6C245.39,270.41,245.6,269.27,245.69,269.29Z" style="fill:#263238"></path><path d="M241.15,267.2a7,7,0,0,1-2,1.42,19.35,19.35,0,0,1-11.37,2.45,7.45,7.45,0,0,1-2.38-.49,30,30,0,0,0,8.15-.37A30.47,30.47,0,0,0,241.15,267.2Z" style="fill:#e0e0e0"></path><path d="M233.37,286.15c-.14,0-.13-.82,0-1.79s.4-1.72.55-1.7.12.82,0,1.79S233.51,286.18,233.37,286.15Z" style="fill:#e0e0e0"></path><path d="M232.31,284.43c-.14,0-.2-.87-.12-1.92s.25-1.9.4-1.89.19.87.12,1.93S232.46,284.44,232.31,284.43Z" style="fill:#e0e0e0"></path><path d="M231.27,283.48a11.1,11.1,0,0,1,.15-4.73,5.51,5.51,0,0,1,.19,2.38A5.38,5.38,0,0,1,231.27,283.48Z" style="fill:#e0e0e0"></path><path d="M230.27,282.08c-.14,0-.2-.81-.12-1.77s.25-1.75.39-1.74.2.81.13,1.78S230.42,282.09,230.27,282.08Z" style="fill:#e0e0e0"></path><path d="M229.36,281.59c-.15,0-.27-.92-.27-2.06s.1-2.07.25-2.07a8.33,8.33,0,0,1,0,4.13Z" style="fill:#e0e0e0"></path><path d="M227.84,280.93a6.42,6.42,0,0,1-.26-2.52,6.53,6.53,0,0,1,.27-2.52,6.42,6.42,0,0,1,.26,2.52A6.53,6.53,0,0,1,227.84,280.93Z" style="fill:#e0e0e0"></path><path d="M225.76,279c-.14,0-.2-.87-.12-1.92s.25-1.9.4-1.89.2.87.12,1.92S225.91,279,225.76,279Z" style="fill:#e0e0e0"></path><path d="M250.15,266.37c-.11.09-.45-.15-.53-.62s.15-.81.28-.77.17.35.23.68S250.26,266.28,250.15,266.37Z" style="fill:#e0e0e0"></path><path d="M251.42,265.18c-.12.09-.34,0-.51-.23s-.2-.46-.08-.55.34,0,.5.24S251.53,265.1,251.42,265.18Z" style="fill:#e0e0e0"></path><path d="M252.65,264.92c-.12.08-.32,0-.44-.17a.34.34,0,0,1,0-.46c.12-.08.31,0,.43.17S252.76,264.84,252.65,264.92Z" style="fill:#e0e0e0"></path><path d="M223.69,267.35a15.3,15.3,0,0,1-5.32-5.52,25.44,25.44,0,0,1,2.68,2.74A26.71,26.71,0,0,1,223.69,267.35Z" style="fill:#e0e0e0"></path><path d="M228.25,269.29a6,6,0,0,1-1.58-1.12,26.17,26.17,0,0,1-3.25-3.34,24.9,24.9,0,0,1-2.6-3.88,5.88,5.88,0,0,1-.76-1.77c.14-.07,1.49,2.53,3.76,5.32S228.35,269.16,228.25,269.29Z" style="fill:#e0e0e0"></path><path d="M231.14,268.06a35.67,35.67,0,0,1-7.92-8.7c.12-.09,1.8,1.94,4,4.33A57.28,57.28,0,0,1,231.14,268.06Z" style="fill:#e0e0e0"></path><path d="M235.19,266.34a6.52,6.52,0,0,1-1.68-1.07,27.68,27.68,0,0,1-3.55-3.21,28.87,28.87,0,0,1-3-3.74,6.19,6.19,0,0,1-1-1.73c.13-.09,1.79,2.43,4.33,5.12S235.28,266.21,235.19,266.34Z" style="fill:#e0e0e0"></path><path d="M239.67,264.94a17.17,17.17,0,0,1-4.54-3.65,16.81,16.81,0,0,1-3.47-4.67c.13-.09,1.63,2,3.85,4.31S239.76,264.82,239.67,264.94Z" style="fill:#e0e0e0"></path><path d="M244.42,264.2a18.3,18.3,0,0,1-4.66-3.76,18.55,18.55,0,0,1-3.62-4.76c.12-.09,1.71,2.05,4,4.4S244.51,264.07,244.42,264.2Z" style="fill:#e0e0e0"></path><path d="M246.47,261.23a29.38,29.38,0,0,1-5.47-5.52,14.68,14.68,0,0,1,2.92,2.58A14.37,14.37,0,0,1,246.47,261.23Z" style="fill:#e0e0e0"></path><path d="M253.56,227.57A17.19,17.19,0,0,1,251.2,231a16.74,16.74,0,0,1-2.78,3.14,17.21,17.21,0,0,1,2.37-3.46A17,17,0,0,1,253.56,227.57Z" style="fill:#e0e0e0"></path><path d="M251.22,234.54a6.52,6.52,0,0,1,1.26-2.23c.82-1.16,1.57-2,1.69-1.94a6.6,6.6,0,0,1-1.26,2.24C252.09,233.76,251.34,234.63,251.22,234.54Z" style="fill:#e0e0e0"></path><path d="M252.45,236.66a8,8,0,0,1,1-2.67,7.74,7.74,0,0,1,1.43-2.46,8.08,8.08,0,0,1-1,2.68A8,8,0,0,1,252.45,236.66Z" style="fill:#e0e0e0"></path><path d="M253.51,238.11a5.65,5.65,0,0,1,.7-2.28c.52-1.2,1-2.13,1.17-2.07a5.5,5.5,0,0,1-.69,2.28C254.17,237.24,253.64,238.17,253.51,238.11Z" style="fill:#e0e0e0"></path><path d="M255.08,239.91c-.14,0,.07-1,.46-2.11s.82-2,1-1.93-.07,1-.46,2.11S255.21,240,255.08,239.91Z" style="fill:#e0e0e0"></path><path d="M258.5,264.6c-.11.09-.61-.31-1.11-.89s-.83-1.13-.72-1.22.61.3,1.11.88S258.6,264.5,258.5,264.6Z" style="fill:#e0e0e0"></path><path d="M260,263.54c-.11.09-.41-.09-.66-.4s-.36-.64-.25-.73.4.09.66.4S260.06,263.45,260,263.54Z" style="fill:#e0e0e0"></path><path d="M236.1,218.05c-.14,0-.4-.33-.6-.85s-.24-1-.11-1,.41.33.6.85S236.23,218,236.1,218.05Z" style="fill:#ebebeb"></path><path d="M236.93,219.16c-.14,0-.41-.6-.6-1.42s-.23-1.5-.09-1.54.41.61.6,1.43S237.07,219.13,236.93,219.16Z" style="fill:#ebebeb"></path><path d="M238,220.72c-.14,0-.43-.78-.64-1.81s-.26-1.89-.12-1.91.42.78.63,1.81S238.11,220.7,238,220.72Z" style="fill:#ebebeb"></path><path d="M238.68,222.49a6.92,6.92,0,0,1-.63-2.64,7.31,7.31,0,0,1-.12-2.72,14.39,14.39,0,0,1,.75,5.36Z" style="fill:#ebebeb"></path><path d="M240,223.84a9.45,9.45,0,0,1-.8-3,9.55,9.55,0,0,1-.3-3.12,9.22,9.22,0,0,1,.81,3A9.32,9.32,0,0,1,240,223.84Z" style="fill:#ebebeb"></path><path d="M241.28,225.2a11.37,11.37,0,0,1-.95-3.73,11.55,11.55,0,0,1-.17-3.84,18.7,18.7,0,0,1,.69,3.77A19.69,19.69,0,0,1,241.28,225.2Z" style="fill:#ebebeb"></path><path d="M242.76,226.77a24.79,24.79,0,0,1-1-4.94,25,25,0,0,1-.47-5,23.57,23.57,0,0,1,1,4.94A25.32,25.32,0,0,1,242.76,226.77Z" style="fill:#ebebeb"></path><path d="M243.8,226.14a19,19,0,0,1-.71-4.35,19.22,19.22,0,0,1-.2-4.4,19.41,19.41,0,0,1,.72,4.35A18.22,18.22,0,0,1,243.8,226.14Z" style="fill:#ebebeb"></path><path d="M244.87,225.53a17.05,17.05,0,0,1-.55-4.14,16.8,16.8,0,0,1,0-4.17,17.34,17.34,0,0,1,.56,4.14A17.07,17.07,0,0,1,244.87,225.53Z" style="fill:#ebebeb"></path><path d="M245.9,225.23a17.64,17.64,0,0,1-.49-4.19,17.25,17.25,0,0,1,0-4.22,17,17,0,0,1,.49,4.19A17.31,17.31,0,0,1,245.9,225.23Z" style="fill:#ebebeb"></path><path d="M247.08,222.32a8,8,0,0,1-.39-2.82,7.69,7.69,0,0,1,.14-2.85,15.89,15.89,0,0,1,.25,5.67Z" style="fill:#ebebeb"></path><path d="M248.43,221.6a13.24,13.24,0,0,1-.69-5.15,12.76,12.76,0,0,1,.69,5.15Z" style="fill:#ebebeb"></path><path d="M249.42,220.11a12.59,12.59,0,0,1-.49-5,6.48,6.48,0,0,1,.51,2.49A6.25,6.25,0,0,1,249.42,220.11Z" style="fill:#ebebeb"></path><path d="M249.85,217.72c-.15,0-.26-.8-.26-1.8s.12-1.79.26-1.79.26.8.26,1.8S250,217.72,249.85,217.72Z" style="fill:#ebebeb"></path><path d="M248.27,212.33c-.14,0-.19-.36-.12-.75s.25-.68.39-.66.19.37.12.75S248.41,212.36,248.27,212.33Z" style="fill:#ebebeb"></path><path d="M247.18,213.17c-.14,0-.12-.55,0-1.15s.42-1.05.56-1,.11.56-.06,1.15S247.32,213.21,247.18,213.17Z" style="fill:#ebebeb"></path><path d="M246.26,213.79c-.13,0-.14-.48,0-1s.36-.89.5-.85.14.47,0,1S246.4,213.83,246.26,213.79Z" style="fill:#ebebeb"></path><path d="M245.49,214.1c-.13,0-.14-.38,0-.74s.34-.61.48-.56.14.38,0,.74S245.63,214.15,245.49,214.1Z" style="fill:#ebebeb"></path><path d="M244.73,214c-.14,0-.17-.36-.06-.72s.29-.61.43-.57.17.36.07.72S244.87,214,244.73,214Z" style="fill:#ebebeb"></path><path d="M243.44,213.71c-.06-.13.07-.32.22-.52s.3-.36.44-.34.2.36,0,.66S243.49,213.84,243.44,213.71Z" style="fill:#ebebeb"></path><path d="M241.82,213.67c-.1-.1,0-.38.27-.61s.53-.34.62-.24,0,.38-.26.62S241.92,213.78,241.82,213.67Z" style="fill:#ebebeb"></path><path d="M246.85,209.23a.28.28,0,0,1-.35-.18.28.28,0,0,1,.15-.37.28.28,0,0,1,.34.19A.27.27,0,0,1,246.85,209.23Z" style="fill:#ebebeb"></path><path d="M246.6,210.1c-.14,0-.3-.14-.35-.39s0-.46.16-.49.3.14.35.38S246.74,210.07,246.6,210.1Z" style="fill:#ebebeb"></path><path d="M248,231.52c-.08.11-1-.4-1.82-1.31s-1.31-1.83-1.19-1.9.75.67,1.57,1.54S248.08,231.4,248,231.52Z" style="fill:#ebebeb"></path><path d="M249.41,230.94a8.35,8.35,0,0,1-1.55-2.49,8.53,8.53,0,0,1-1.09-2.73,8.13,8.13,0,0,1,1.55,2.49A8.53,8.53,0,0,1,249.41,230.94Z" style="fill:#ebebeb"></path><path d="M250.81,230.22a11.62,11.62,0,0,1-1.65-3,11.37,11.37,0,0,1-1.16-3.25,11.77,11.77,0,0,1,1.64,3A11.6,11.6,0,0,1,250.81,230.22Z" style="fill:#ebebeb"></path><path d="M251.36,229.13a11.91,11.91,0,0,1-1.33-3.22,11.72,11.72,0,0,1-.82-3.38,23.5,23.5,0,0,1,2.15,6.6Z" style="fill:#ebebeb"></path><path d="M252.44,228.46a14.4,14.4,0,0,1-.77-3.85,14.84,14.84,0,0,1-.26-3.91,30,30,0,0,1,1,7.76Z" style="fill:#ebebeb"></path><path d="M244.94,233.91a7.76,7.76,0,0,1-1.37-2.43,7.31,7.31,0,0,1-.89-2.65,15,15,0,0,1,2.26,5.08Z" style="fill:#ebebeb"></path><path d="M243,234.8a17.26,17.26,0,0,1-2.23-5.57A17.26,17.26,0,0,1,243,234.8Z" style="fill:#ebebeb"></path><path d="M240.09,233.75c-.13.06-.6-.68-1.05-1.66s-.7-1.81-.57-1.87.6.68,1,1.66S240.22,233.69,240.09,233.75Z" style="fill:#ebebeb"></path><path d="M232,204.65c-.09.1-1-.57-1.8-1.67a4.23,4.23,0,0,1-1-2.22c.13-.06.69.85,1.47,1.91S232.13,204.54,232,204.65Z" style="fill:#ebebeb"></path><path d="M232.85,204a9.55,9.55,0,0,1-3-6.07c.15,0,.58,1.42,1.41,3.08S233,203.93,232.85,204Z" style="fill:#ebebeb"></path><path d="M233.86,202.48a7.91,7.91,0,0,1-1.59-2.35,7.72,7.72,0,0,1-1.13-2.6,8.32,8.32,0,0,1,1.59,2.35A7.8,7.8,0,0,1,233.86,202.48Z" style="fill:#ebebeb"></path><path d="M234.52,201.09a7,7,0,0,1-1.49-2.2,6.85,6.85,0,0,1-1-2.45,13.74,13.74,0,0,1,2.53,4.65Z" style="fill:#ebebeb"></path><path d="M236.39,182.54a16.63,16.63,0,0,1-2.73-4,17.13,17.13,0,0,1-1.94-4.45,34.69,34.69,0,0,1,2.4,4.2A36.07,36.07,0,0,1,236.39,182.54Z" style="fill:#ebebeb"></path><path d="M237.66,181.8a8.57,8.57,0,0,1-2.08-3,8.77,8.77,0,0,1-1.18-3.44,25.77,25.77,0,0,1,1.64,3.2A24.86,24.86,0,0,1,237.66,181.8Z" style="fill:#ebebeb"></path><path d="M238.13,181a8.27,8.27,0,0,1-1.49-2.44,8,8,0,0,1-1-2.68,15.56,15.56,0,0,1,2.52,5.12Z" style="fill:#ebebeb"></path><path d="M239.42,180.76a10.76,10.76,0,0,1-1.49-3,10.64,10.64,0,0,1-1-3.21,21.9,21.9,0,0,1,2.48,6.23Z" style="fill:#ebebeb"></path><path d="M239.8,179c-.14.05-.57-.73-1-1.74s-.62-1.88-.49-1.94.57.73,1,1.74S239.93,179,239.8,179Z" style="fill:#ebebeb"></path><path d="M232.66,180.38c-.13.05-.47-.51-.75-1.26s-.4-1.4-.26-1.45.47.52.75,1.27S232.8,180.33,232.66,180.38Z" style="fill:#ebebeb"></path><path d="M209.79,193.07c-.08,0-.21-.32-.54-.78a3.72,3.72,0,0,0-1.68-1.33,3.81,3.81,0,0,0-2.13-.14c-.56.12-.89.3-.93.23s.23-.35.82-.58a3.46,3.46,0,0,1,2.43,0,3.42,3.42,0,0,1,1.81,1.63C209.85,192.66,209.85,193.06,209.79,193.07Z" style="fill:#e0e0e0"></path><path d="M208.41,194.42c-.14,0-.2-.69-.13-1.51s.24-1.49.38-1.47.21.69.14,1.51S208.55,194.44,208.41,194.42Z" style="fill:#ebebeb"></path><path d="M207,194.53c-.14,0-.09-.82.11-1.77s.48-1.7.62-1.67.09.82-.11,1.78S207.12,194.56,207,194.53Z" style="fill:#ebebeb"></path><path d="M206.23,194c-.14,0-.17-.74,0-1.6s.32-1.56.46-1.54.17.74.05,1.6S206.37,194.06,206.23,194Z" style="fill:#ebebeb"></path><path d="M205.13,193.37c-.14,0-.28-.63-.11-1.41s.55-1.31.67-1.25,0,.65-.16,1.36S205.28,193.37,205.13,193.37Z" style="fill:#ebebeb"></path><path d="M204.29,174.29a5.33,5.33,0,0,1,.92,1.7,8.07,8.07,0,0,1,.56,2,4.68,4.68,0,0,1-.39,2.61A13.94,13.94,0,0,1,204,182.8a7.19,7.19,0,0,0-1,1.73,4.78,4.78,0,0,0-.27,1.82c-.05.05-.45-.72-.08-1.93a6.79,6.79,0,0,1,1-1.9,16.06,16.06,0,0,0,1.34-2.1,5.77,5.77,0,0,0,0-4.31A10.68,10.68,0,0,1,204.29,174.29Z" style="fill:#e0e0e0"></path><path d="M204,180.09a17.45,17.45,0,0,1-.46-3c-.12-.82-.25-1.56-.35-2.11l.37-.07c0,.57,0,.93,0,.94s-.19-.33-.32-.89l.36-.07A11.19,11.19,0,0,1,204,177,6.42,6.42,0,0,1,204,180.09Z" style="fill:#ebebeb"></path><path d="M203.82,182.6a15.75,15.75,0,0,1-.8-3.92,15.44,15.44,0,0,1-.28-4,15.6,15.6,0,0,1,.8,3.91A15.5,15.5,0,0,1,203.82,182.6Z" style="fill:#ebebeb"></path><path d="M202.73,183.06a16.39,16.39,0,0,1-.69-4,15.48,15.48,0,0,1-.17-4.06,16.39,16.39,0,0,1,.69,4A16,16,0,0,1,202.73,183.06Z" style="fill:#ebebeb"></path><path d="M202.28,182.26a18.4,18.4,0,0,1-1.43-6,9.62,9.62,0,0,1,1,2.95A9.22,9.22,0,0,1,202.28,182.26Z" style="fill:#ebebeb"></path><path d="M201.1,181.42a4.61,4.61,0,0,1-1.11-2.18,4.78,4.78,0,0,1-.32-2.44,8,8,0,0,1,.82,2.28A7.83,7.83,0,0,1,201.1,181.42Z" style="fill:#ebebeb"></path><rect x="213.79" y="134.87" width="39.58" height="7.88" style="fill:#455a64"></rect><path d="M183.89,214.71a66.1,66.1,0,0,1,4.15-7.13,66.06,66.06,0,0,1,4.58-6.84,66.49,66.49,0,0,1-4.14,7.12A64.15,64.15,0,0,1,183.89,214.71Z" style="fill:#ebebeb"></path><path d="M185.28,215.4a50,50,0,0,1,3.41-6.43,49.11,49.11,0,0,1,3.87-6.17,52.59,52.59,0,0,1-3.42,6.43A52.25,52.25,0,0,1,185.28,215.4Z" style="fill:#ebebeb"></path><path d="M185.06,217.23a56.06,56.06,0,0,1,3.77-6.61,54.14,54.14,0,0,1,4.22-6.34,58,58,0,0,1-3.77,6.61A58,58,0,0,1,185.06,217.23Z" style="fill:#ebebeb"></path><path d="M187.76,215.07a11.39,11.39,0,0,1-1.11,2.14l-.31-.19c.76-1.31,1.85-3.12,3.08-5.11s2.35-3.72,3.19-5a10.83,10.83,0,0,1,1.45-2,11.57,11.57,0,0,1-1.14,2.18c-.76,1.31-1.84,3.1-3.06,5.06s-2.37,3.76-3.21,5l-.31-.19A11.54,11.54,0,0,1,187.76,215.07Z" style="fill:#ebebeb"></path><path d="M187.58,219.86a49.56,49.56,0,0,1,3.22-6.51,51.84,51.84,0,0,1,3.68-6.26,49.56,49.56,0,0,1-3.22,6.51A51.84,51.84,0,0,1,187.58,219.86Z" style="fill:#ebebeb"></path><path d="M176.7,194.21a50.32,50.32,0,0,1,5.59-8.73,26,26,0,0,1-2.58,4.51A25.71,25.71,0,0,1,176.7,194.21Z" style="fill:#e0e0e0"></path><path d="M177.78,193.88a16.18,16.18,0,0,1-1.32,2.83l-.36-.2c.67-1.25,1.55-2.85,2.53-4.59,1.14-2,2.19-3.81,3-5.11a11.93,11.93,0,0,1,1.36-2,11.3,11.3,0,0,1-1,2.22c-.71,1.34-1.71,3.18-2.84,5.19-1,1.73-1.91,3.32-2.63,4.53l-.36-.2A17,17,0,0,1,177.78,193.88Z" style="fill:#e0e0e0"></path><path d="M179.53,193.53a16.36,16.36,0,0,1-1.56,2.79l-.35-.2a46,46,0,0,1,2.4-4.47,44.55,44.55,0,0,1,3.39-4.77,9.35,9.35,0,0,1,1.67-1.76,15,15,0,0,1-1.38,2c-.87,1.2-2,2.88-3.23,4.81-1,1.63-1.85,3.17-2.48,4.38l-.36-.2A16.87,16.87,0,0,1,179.53,193.53Z" style="fill:#e0e0e0"></path><path d="M180.85,193.84a27.51,27.51,0,0,1-1.88,3.93l-.39-.22c.77-1.27,1.62-2.7,2.54-4.24,1.34-2.19,2.57-4.16,3.49-5.57a15.58,15.58,0,0,1,1.57-2.23,12.94,12.94,0,0,1-1.26,2.42c-.83,1.46-2,3.46-3.35,5.66L179,197.78l-.38-.22A28.82,28.82,0,0,1,180.85,193.84Z" style="fill:#e0e0e0"></path><path d="M181.62,194.58a18,18,0,0,1-1.55,3.06l-.34-.22c.83-1.2,1.91-2.71,3.1-4.34,1.43-2,2.74-3.71,3.71-5a12.82,12.82,0,0,1,1.67-2,13.58,13.58,0,0,1-1.37,2.18c-.9,1.31-2.16,3.09-3.59,5-1.19,1.62-2.3,3.11-3.19,4.27l-.34-.23A19.31,19.31,0,0,1,181.62,194.58Z" style="fill:#e0e0e0"></path><path d="M183.37,194.93a5.75,5.75,0,0,1-.63,1.29c-.44.79-1.09,1.9-1.88,3.23l-.39-.24c.76-1.18,1.61-2.51,2.52-3.91,1.48-2.27,2.85-4.3,3.86-5.77a16.17,16.17,0,0,1,1.73-2.3,15.42,15.42,0,0,1-1.42,2.51c-.93,1.51-2.25,3.58-3.73,5.85l-2.58,3.87-.38-.25c.82-1.3,1.53-2.39,2-3.14A5.59,5.59,0,0,1,183.37,194.93Z" style="fill:#e0e0e0"></path><path d="M186.51,193.18a9,9,0,0,1-1.13,1.77c-.75,1.07-1.84,2.57-3.11,4.28l-.41-.29,1.49-2.21c1.55-2.3,3-4.36,4-5.84a16.38,16.38,0,0,1,1.8-2.33,16.62,16.62,0,0,1-1.5,2.54c-1,1.53-2.36,3.63-3.91,5.92-.52.76-1,1.5-1.5,2.2l-.41-.29c1.3-1.7,2.43-3.15,3.26-4.17A10.43,10.43,0,0,1,186.51,193.18Z" style="fill:#e0e0e0"></path><path d="M184.77,198.77c-.12-.1,1.1-1.72,2.24-3.94s1.8-4.13,2-4.09a15.09,15.09,0,0,1-4.19,8Z" style="fill:#e0e0e0"></path><rect x="186.01" y="314.46" width="94.86" height="13.99" style="fill:#455a64"></rect><rect x="400.72" y="150.93" width="47.95" height="49.98" style="fill:#e0e0e0"></rect><rect x="397.47" y="150.93" width="47.95" height="49.98" style="fill:#fafafa"></rect><path d="M445.44,200.93h-48v-50h48Zm-47.95,0h47.92V151H397.49Z" style="fill:#e0e0e0"></path><rect x="403.92" y="157.65" width="35.06" height="36.54" style="fill:#fafafa"></rect><path d="M403.92,194.44a6,6,0,0,1-.87,1c-.56.6-1.34,1.4-2.22,2.26s-1.7,1.65-2.3,2.2a5.2,5.2,0,0,1-1,.84,5.58,5.58,0,0,1,.86-1c.56-.59,1.35-1.39,2.24-2.27s1.69-1.64,2.29-2.19A5.58,5.58,0,0,1,403.92,194.44Z" style="fill:#e0e0e0"></path><path d="M439,194.35a5.58,5.58,0,0,1,1,.86c.59.56,1.39,1.35,2.26,2.23s1.64,1.7,2.19,2.29a5.79,5.79,0,0,1,.85,1,5.58,5.58,0,0,1-1-.86c-.59-.56-1.4-1.35-2.27-2.24s-1.64-1.69-2.19-2.29A5.08,5.08,0,0,1,439,194.35Z" style="fill:#e0e0e0"></path><path d="M438.88,157.75a5.78,5.78,0,0,1,.87-1c.56-.59,1.34-1.39,2.22-2.26s1.7-1.64,2.3-2.19a5.2,5.2,0,0,1,1-.84,5.58,5.58,0,0,1-.86,1c-.56.59-1.35,1.39-2.24,2.26s-1.69,1.65-2.29,2.2A5.58,5.58,0,0,1,438.88,157.75Z" style="fill:#e0e0e0"></path><path d="M403.82,157.84a6,6,0,0,1-1-.87c-.59-.56-1.39-1.34-2.26-2.23s-1.64-1.69-2.19-2.29a5.56,5.56,0,0,1-.85-1,5.58,5.58,0,0,1,1,.86c.59.56,1.4,1.35,2.27,2.23s1.64,1.7,2.19,2.3A5.08,5.08,0,0,1,403.82,157.84Z" style="fill:#e0e0e0"></path><path d="M438.88,194.2s0-.07,0-.18v-.51c0-.46,0-1.12,0-2,0-1.74,0-4.25,0-7.45,0-6.4,0-15.52-.06-26.44l.13.14-35,0h0l.15-.16c0,13.41,0,26,0,36.55l-.13-.14,25.31.07,7.11,0h1.91l-1.85,0-7.08,0-25.4.07h-.13v-.13c0-10.59,0-23.14,0-36.55v-.15h.16l35,0H439v.13c0,10.95-.06,20.1-.07,26.52,0,3.19,0,5.7,0,7.42,0,.85,0,1.5,0,1.95V194A1.15,1.15,0,0,1,438.88,194.2Z" style="fill:#e0e0e0"></path><rect x="415.6" y="170.07" width="11.7" height="11.7" style="fill:#00DFC0"></rect></g><g id="freepik--Character--inject-2"><path d="M378.64,211.73s4.86,1.72,9.85,10.7C393.7,231.8,402.13,261,402.13,261l23-5.81,6.05,19.66-23.95,10.23c-13,4.82-25.87,2.39-29.23-11.08l-2.3-9.21Z" style="fill:#00DFC0"></path><path d="M279,264.92c-3.94,6-3.89,14.57.54,20.25s13.11,7.74,19.4,4.22c3.86-2.16,6.54-6,8.13-10.14a57.46,57.46,0,0,0,2.81-12.94c2.63-19,9.53-39.54,12.16-58.58-8.41,1.13-18.26,4.14-21.59,11.05a147.59,147.59,0,0,0-7.59,23c-2.46,11.85-7.24,21.76-9.7,33.62" style="fill:#00DFC0"></path><path d="M330.09,205.43s-3.49,1.1-3.37,1c6.06-2.77-19.07,9.27-21.57,11.3-3.25,2.64,6.25,53.88,6.25,53.88l3.45,33.72,62,1,1.82-94.67-24-7.72Z" style="fill:#00DFC0"></path><path d="M304.12,268.05a2.32,2.32,0,0,1,.26.56,16.12,16.12,0,0,1,.55,1.69,17.62,17.62,0,0,1,.45,6.51,15.65,15.65,0,0,1-4,8.76,14.92,14.92,0,0,1-4.63,3.42,13.69,13.69,0,0,1-6.06,1.25,13.29,13.29,0,0,1-6-1.56,12.91,12.91,0,0,1-4.29-3.85,17.33,17.33,0,0,1-3-9.16,26.54,26.54,0,0,1,.51-6.51c.15-.75.3-1.33.4-1.72a2.63,2.63,0,0,1,.19-.59,2.36,2.36,0,0,1-.09.61c-.08.45-.17,1-.3,1.74a28.29,28.29,0,0,0-.34,6.45,17.19,17.19,0,0,0,3.05,8.9,12.52,12.52,0,0,0,4.14,3.68,12.86,12.86,0,0,0,5.76,1.49,13.09,13.09,0,0,0,5.82-1.2,14.33,14.33,0,0,0,4.5-3.28,15.41,15.41,0,0,0,4-8.48,18.28,18.28,0,0,0-.28-6.41C304.39,268.86,304.07,268.07,304.12,268.05Z" style="fill:#263238"></path><path d="M307.58,267.83a34.44,34.44,0,0,0-1.88-7.37,33.68,33.68,0,0,0-3.94-6.51,6.77,6.77,0,0,1,1.61,1.6,19.42,19.42,0,0,1,4.19,10A6.88,6.88,0,0,1,307.58,267.83Z" style="fill:#263238"></path><path d="M377.1,222.83c.15,0,.3,7.86.35,17.54s0,17.54-.17,17.54-.3-7.85-.35-17.54S377,222.83,377.1,222.83Z" style="fill:#263238"></path><g style="opacity:0.2"><path d="M377.18,239.44a87.68,87.68,0,0,0,5.68,24.75,4,4,0,0,0,1.49,2.16c1.33.75,2.94-.2,4.24-1a27.48,27.48,0,0,1,13.7-4.16,209,209,0,0,1-17.24,19.89c-1,1.05-2.66,2.13-3.8,1.21a3,3,0,0,1-.71-1,55.89,55.89,0,0,1-5.86-21.82"></path></g><polygon points="274.81 246.53 277.39 244.01 296.38 269.59 294.14 271.29 274.81 246.53" style="fill:none"></polygon><path d="M327.41,168.19c-.19-.07-7.52-2-7.08,5.42s7.8,5.45,7.8,5.23S327.41,168.19,327.41,168.19Z" style="fill:#b78876"></path><path d="M325.7,176.17s-.13.09-.34.21a1.31,1.31,0,0,1-1,.08,3.22,3.22,0,0,1-1.65-2.78,4.41,4.41,0,0,1,.25-1.88,1.54,1.54,0,0,1,.92-1.05.67.67,0,0,1,.78.31c.11.2.07.35.11.36s.16-.13.08-.43a.83.83,0,0,0-.32-.45,1,1,0,0,0-.73-.15,1.85,1.85,0,0,0-1.28,1.24,4.31,4.31,0,0,0-.32,2.09c.13,1.49,1,2.85,2.07,3.09a1.36,1.36,0,0,0,1.17-.27C325.69,176.35,325.72,176.18,325.7,176.17Z" style="fill:#aa6550"></path><path d="M345.93,141.69c3.77,0,7.61,0,12.33,2.46,3,1.56,4.83,4,6.38,7A16.14,16.14,0,0,1,366.4,159c-.14,2.56-.15,4.36-1.17,6.71" style="fill:#263238"></path><path d="M344.43,142.27a20,20,0,0,1,21.37,18.9c.49,9.3.91,19.35.81,24.41-.22,10.86-11.1,12.47-11.1,12.47s.24,3.22.51,7.21a14.33,14.33,0,0,1-13.74,15.27h0a14.31,14.31,0,0,1-14.84-13.77L325.83,163a20,20,0,0,1,18.6-20.7Z" style="fill:#b78876"></path><path d="M355.51,198.05a25.9,25.9,0,0,1-13.94-4.3s3.29,7.91,14.14,7Z" style="fill:#aa6550"></path><path d="M361.64,167.22a1.55,1.55,0,0,1-1.51,1.55,1.49,1.49,0,0,1-1.59-1.41,1.56,1.56,0,0,1,1.51-1.56A1.49,1.49,0,0,1,361.64,167.22Z" style="fill:#263238"></path><path d="M363.15,165c-.2.2-1.37-.68-3-.69s-2.9.82-3.08.61.11-.45.65-.83a4.17,4.17,0,0,1,2.47-.74,4,4,0,0,1,2.41.8C363.07,164.56,363.24,164.93,363.15,165Z" style="fill:#263238"></path><path d="M345.27,167.22a1.56,1.56,0,0,1-1.51,1.55,1.48,1.48,0,0,1-1.59-1.41,1.54,1.54,0,0,1,1.51-1.55A1.49,1.49,0,0,1,345.27,167.22Z" style="fill:#263238"></path><path d="M346.73,165.2c-.19.2-1.36-.68-3-.69s-2.9.82-3.08.61.11-.45.65-.83a4.13,4.13,0,0,1,2.46-.74,4.06,4.06,0,0,1,2.42.8C346.65,164.74,346.83,165.11,346.73,165.2Z" style="fill:#263238"></path><path d="M352.69,177.63a11.73,11.73,0,0,1,2.72-.47c.42,0,.83-.12.9-.41a2.1,2.1,0,0,0-.27-1.26c-.39-1-.81-2.12-1.24-3.26-1.71-4.64-2.95-8.45-2.76-8.52s1.73,3.64,3.44,8.28c.41,1.14.81,2.23,1.18,3.27a2.48,2.48,0,0,1,.21,1.68,1.1,1.1,0,0,1-.7.62,3,3,0,0,1-.73.09A10.42,10.42,0,0,1,352.69,177.63Z" style="fill:#263238"></path><path d="M347.77,178.75c.27,0,.26,1.8,1.8,3.1s3.47,1.11,3.48,1.36-.43.35-1.24.37a4.54,4.54,0,0,1-2.91-1,4,4,0,0,1-1.4-2.6C347.44,179.18,347.65,178.74,347.77,178.75Z" style="fill:#263238"></path><path d="M347.21,158.66c-.16.45-1.83.23-3.79.45s-3.55.74-3.81.33c-.11-.2.17-.62.81-1.06a6.67,6.67,0,0,1,5.79-.59C346.93,158.09,347.29,158.45,347.21,158.66Z" style="fill:#263238"></path><path d="M362.91,159.08c-.3.37-1.44,0-2.83-.06s-2.55.24-2.82-.16c-.11-.2.07-.57.59-.93a3.89,3.89,0,0,1,2.3-.6,4,4,0,0,1,2.25.78C362.89,158.5,363,158.89,362.91,159.08Z" style="fill:#263238"></path><path d="M326,166.36s.48,2.51.6,3.65c.05.41,0,5,1.11,5.24,1,.2,2.88-.67,3.73-2.58s2.47-6.47,2.29-8.55a29.87,29.87,0,0,1,.2-8.5,12.16,12.16,0,0,1,4.14-7.25,7.71,7.71,0,0,1,8-1.09c1.57.78,2.74,2.18,4.2,3.15a6.5,6.5,0,0,0,4.48,1.16,4.23,4.23,0,0,0,3.47-2.84,4.6,4.6,0,0,0-1.72-4.57,10.53,10.53,0,0,0-4.73-1.94,25.48,25.48,0,0,0-14.11,1,18.37,18.37,0,0,0-10.3,9.43c-2.2,5.07-1.95,8.18-1.37,13.7" style="fill:#263238"></path><path d="M350.79,167.29a13.54,13.54,0,0,0-.28-1.79,7.39,7.39,0,0,0-2.7-4,7.14,7.14,0,0,0-3.06-1.35,7.32,7.32,0,0,0-3.82.32,7.24,7.24,0,0,0-1.83,1,6.78,6.78,0,0,0-1.53,1.54,7.37,7.37,0,0,0-1.41,4.29,7.27,7.27,0,0,0,1.41,4.28,6.78,6.78,0,0,0,1.53,1.54,6.66,6.66,0,0,0,1.83,1,7.33,7.33,0,0,0,3.82.33,7.24,7.24,0,0,0,3.07-1.35,7.42,7.42,0,0,0,2.69-4,13.81,13.81,0,0,0,.28-1.79.55.55,0,0,1,0,.12v.35a3,3,0,0,1,0,.57,5.06,5.06,0,0,1-.14.77,7.32,7.32,0,0,1-2.68,4.13,7.2,7.2,0,0,1-3.14,1.42,7.46,7.46,0,0,1-3.94-.31,7.51,7.51,0,0,1-3.5-2.61,7.5,7.5,0,0,1,0-8.89,7.1,7.1,0,0,1,1.6-1.59,6.7,6.7,0,0,1,1.9-1,7.56,7.56,0,0,1,3.94-.32,7.45,7.45,0,0,1,5.82,5.55,5.54,5.54,0,0,1,.14.77,3.19,3.19,0,0,1,0,.58v.35A.55.55,0,0,1,350.79,167.29Z" style="fill:#263238"></path><path d="M369.91,167.29a11.69,11.69,0,0,0-.28-1.79,7.31,7.31,0,0,0-9.57-5,7.13,7.13,0,0,0-1.84,1,7,7,0,0,0-1.53,1.54,7.22,7.22,0,0,0,0,8.57,7,7,0,0,0,1.53,1.54,6.57,6.57,0,0,0,1.84,1,7.31,7.31,0,0,0,9.57-5,11.88,11.88,0,0,0,.28-1.79s0,0,0,.12v.35a3.14,3.14,0,0,1-.05.57,5.06,5.06,0,0,1-.14.77,7.41,7.41,0,0,1-5.82,5.55,7.47,7.47,0,0,1-3.94-.31,7.15,7.15,0,0,1-1.9-1,7.05,7.05,0,0,1-1.59-1.59,7.46,7.46,0,0,1,0-8.89,7.05,7.05,0,0,1,1.59-1.59,6.84,6.84,0,0,1,1.9-1,7.58,7.58,0,0,1,3.94-.32,7.48,7.48,0,0,1,3.15,1.42,7.35,7.35,0,0,1,2.67,4.13,5.54,5.54,0,0,1,.14.77,3.32,3.32,0,0,1,.05.58v.35C369.92,167.25,369.92,167.29,369.91,167.29Z" style="fill:#263238"></path><path d="M355.32,166.5s-.26-.1-.68-.24a4.71,4.71,0,0,0-1.67-.21,4.57,4.57,0,0,0-1.63.43,3.78,3.78,0,0,1-.65.33s.16-.25.55-.49a3.8,3.8,0,0,1,3.47-.24C355.13,166.28,355.34,166.48,355.32,166.5Z" style="fill:#263238"></path><path d="M358.29,148.17c.1-.56-.08-.88.23-1.11s1.05.43,1.3.7c.08.09.34-.25.43-.32a1.88,1.88,0,0,0,.2-.72c-.05-.39-.67-.5-1-.76a3.06,3.06,0,0,0-1-.59,1,1,0,0,0-1,.06.92.92,0,0,0-.22.74,2,2,0,0,0,.15.76,1,1,0,0,0,.52.56" style="fill:#263238"></path><path d="M436.38,266.22c-2-.76-2.76-3.32-2.31-5.42s1.77-3.86,2.82-5.73,1.88-4.06,1.24-6.11c-.44-1.39-1.5-3-.61-4.12a2.06,2.06,0,0,1,2.45-.44,5.26,5.26,0,0,1,1.94,1.81,26.06,26.06,0,0,1,4.17,8.65" style="fill:#b78876"></path><path d="M453.63,260.36s-4.66-8.43-18.95-8.85-55.12,13-53.19,33.24,33.47,17,39.81,15.56a56.37,56.37,0,0,0,18-7.82c10.78-7.32,15.87-14.17,15.88-24.5A15.93,15.93,0,0,0,453.63,260.36Z" style="fill:#455a64"></path><path d="M453.45,268.22a.87.87,0,0,1,0,.24c0,.19-.06.42-.1.71a10,10,0,0,1-.22,1.13c-.09.45-.2,1-.37,1.54a31,31,0,0,1-4.26,9.12,31.85,31.85,0,0,1-4.55,5.29,36.49,36.49,0,0,1-6.51,4.67,57.54,57.54,0,0,1-17.21,6.15,48.68,48.68,0,0,1-18.25.64,28,28,0,0,1-13.49-6.23,19.34,19.34,0,0,1-5.76-8.19,10.1,10.1,0,0,1-.46-1.52,7.1,7.1,0,0,1-.24-1.14c0-.28-.07-.51-.1-.7a.87.87,0,0,1,0-.24,32.92,32.92,0,0,0,1,3.53,19.58,19.58,0,0,0,5.81,8,27.89,27.89,0,0,0,13.33,6,48.85,48.85,0,0,0,18.07-.68,57.68,57.68,0,0,0,17.07-6.06,36.22,36.22,0,0,0,6.46-4.57,31.23,31.23,0,0,0,4.53-5.18,31.76,31.76,0,0,0,4.37-9c.18-.57.32-1.08.42-1.52s.21-.82.27-1.12l.15-.7A1,1,0,0,1,453.45,268.22Z" style="fill:#263238"></path><path d="M403.68,273.52a12.73,12.73,0,0,0-3.39-1.26,4.32,4.32,0,0,0-3.44.73,3,3,0,0,0-.92,1.34,3.34,3.34,0,0,1-2.61,2.25,25.44,25.44,0,0,0-3.22.74,2.77,2.77,0,0,0-1.39.9c-1.18,1.45.05,2.93,1.39,3.31a14.66,14.66,0,0,0,3.57.13,1.51,1.51,0,0,1,1,.37c.75.72.13,1.83-.1,2.78a3.37,3.37,0,0,0,1.4,3.54,3.27,3.27,0,0,0,3.75-.21,9.9,9.9,0,0,0,1.69-2.25,3.36,3.36,0,0,1,2.19-1.64c1.4-.15,2.54,1.21,3.94,1.39A2.55,2.55,0,0,0,410,284.4a2.59,2.59,0,0,0-.16-2.77c-.31-.42-.73-.72-1.05-1.12a1.48,1.48,0,0,1-.34-1.43,1.65,1.65,0,0,1,.92-.76,19.49,19.49,0,0,0,2.23-.88,2.28,2.28,0,0,0,1.3-1.9,2.08,2.08,0,0,0-1.29-1.72,5.83,5.83,0,0,0-2.19-.4c-1.94-.1-4.25.83-5.72.1" style="fill:#fff"></path><path d="M430.27,278.11a12.73,12.73,0,0,0-3.39-1.26,4.35,4.35,0,0,0-3.44.73,3,3,0,0,0-.92,1.34,3.34,3.34,0,0,1-2.61,2.25,27.3,27.3,0,0,0-3.22.74,2.77,2.77,0,0,0-1.39.9c-1.18,1.46.05,2.94,1.39,3.32a15.73,15.73,0,0,0,3.57.13,1.46,1.46,0,0,1,1,.37c.75.71.13,1.82-.1,2.78a3.38,3.38,0,0,0,1.4,3.54,3.29,3.29,0,0,0,3.75-.22,9.9,9.9,0,0,0,1.69-2.25,3.32,3.32,0,0,1,2.18-1.63c1.41-.16,2.55,1.21,3.95,1.38a2.52,2.52,0,0,0,2.46-1.23,2.63,2.63,0,0,0-.16-2.78c-.31-.41-.73-.72-1.05-1.12a1.45,1.45,0,0,1-.34-1.43,1.64,1.64,0,0,1,.92-.75c.73-.32,1.53-.49,2.23-.88a2.31,2.31,0,0,0,1.3-1.91,2.08,2.08,0,0,0-1.29-1.72A5.82,5.82,0,0,0,436,278c-1.94-.1-4.25.82-5.72.09" style="fill:#00DFC0"></path><path d="M426.09,256.62a15.05,15.05,0,0,0-4-1,5,5,0,0,0-3.8,1.25,3.36,3.36,0,0,0-.88,1.61,3.77,3.77,0,0,1-2.67,2.83,30.36,30.36,0,0,0-3.55,1.22,3.26,3.26,0,0,0-1.46,1.18c-1.15,1.77.43,3.26,2,3.52a17.93,17.93,0,0,0,4.06-.3,1.69,1.69,0,0,1,1.16.29c.94.7.38,2,.24,3.1a3.67,3.67,0,0,0,6.25,3.06,10.8,10.8,0,0,0,1.63-2.72,3.77,3.77,0,0,1,2.27-2.09c1.57-.34,3,1,4.64,1.06a2.92,2.92,0,0,0,2.63-1.69,2.89,2.89,0,0,0-.54-3.07c-.4-.42-.91-.71-1.33-1.11a1.62,1.62,0,0,1-.56-1.56,1.85,1.85,0,0,1,.94-.95,23.09,23.09,0,0,0,2.42-1.26,2.53,2.53,0,0,0,1.22-2.28,2.33,2.33,0,0,0-1.67-1.76,7,7,0,0,0-2.54-.16c-2.21.13-4.7,1.45-6.46.82" style="fill:#00DFC0"></path><g style="opacity:0.30000000000000004"><path d="M430.27,278.11a12.73,12.73,0,0,0-3.39-1.26,4.35,4.35,0,0,0-3.44.73,3,3,0,0,0-.92,1.34,3.34,3.34,0,0,1-2.61,2.25,27.3,27.3,0,0,0-3.22.74,2.77,2.77,0,0,0-1.39.9c-1.18,1.46.05,2.94,1.39,3.32a15.73,15.73,0,0,0,3.57.13,1.46,1.46,0,0,1,1,.37c.75.71.13,1.82-.1,2.78a3.38,3.38,0,0,0,1.4,3.54,3.29,3.29,0,0,0,3.75-.22,9.9,9.9,0,0,0,1.69-2.25,3.32,3.32,0,0,1,2.18-1.63c1.41-.16,2.55,1.21,3.95,1.38a2.52,2.52,0,0,0,2.46-1.23,2.63,2.63,0,0,0-.16-2.78c-.31-.41-.73-.72-1.05-1.12a1.45,1.45,0,0,1-.34-1.43,1.64,1.64,0,0,1,.92-.75c.73-.32,1.53-.49,2.23-.88a2.31,2.31,0,0,0,1.3-1.91,2.08,2.08,0,0,0-1.29-1.72A5.82,5.82,0,0,0,436,278c-1.94-.1-4.25.82-5.72.09" style="fill:#fff"></path></g><path d="M457.68,255.39a5.28,5.28,0,0,0-4.42-4.15,8.78,8.78,0,0,0-4,.7,31.21,31.21,0,0,0-6.12,3.05,5.71,5.71,0,0,0-2.55,2.82,2.46,2.46,0,0,0-.07.29,2.49,2.49,0,0,0,3.34,2.62l7.31-2.59a1.73,1.73,0,0,1,1.52,0c.89.62.13,2.38,1.06,2.92a1.46,1.46,0,0,0,1.35-.15A5.28,5.28,0,0,0,457.68,255.39Z" style="fill:#b78876"></path><path d="M460,260.37a5.28,5.28,0,0,0-4.43-4.14,8.78,8.78,0,0,0-4.09.72,31.63,31.63,0,0,0-5.86,2.9,6.07,6.07,0,0,0-2.75,2.94c-.41,1.31.46,3.37,1.83,3.43l8.75-3.1a1.72,1.72,0,0,1,1.53,0c.88.61.12,2.38,1.05,2.91a1.43,1.43,0,0,0,1.35-.14A5.3,5.3,0,0,0,460,260.37Z" style="fill:#b78876"></path><path d="M459.25,265.36a4.68,4.68,0,0,0-3.93-3.67,7.81,7.81,0,0,0-3.61.64,27.55,27.55,0,0,0-5.19,2.57,5.28,5.28,0,0,0-2.44,2.61c-.36,1.15.32,2.69,1.54,2.75h0c2.58-.91,5.25-1.55,7.83-2.46a1.5,1.5,0,0,1,1.35,0c.79.54.11,2.1.94,2.58a1.25,1.25,0,0,0,1.19-.13A4.7,4.7,0,0,0,459.25,265.36Z" style="fill:#b78876"></path><path d="M458.68,264.27a9.25,9.25,0,0,0-1.84-1.11,6.48,6.48,0,0,0-2.26-.4,9.3,9.3,0,0,0-2.79.5c-1.93.66-3.57,1.61-4.84,2.14a6.11,6.11,0,0,1-2.12.66c0-.07.76-.37,2-1a34.51,34.51,0,0,1,4.84-2.29,9,9,0,0,1,2.95-.49,6.34,6.34,0,0,1,2.4.54A3.19,3.19,0,0,1,458.68,264.27Z" style="fill:#aa6550"></path><path d="M458,257.62a6.79,6.79,0,0,0-2-.59,16.12,16.12,0,0,0-5,.72,35.84,35.84,0,0,0-6.68,2.91,6.56,6.56,0,0,1,1.73-1.32,18.62,18.62,0,0,1,4.81-2.09,13.56,13.56,0,0,1,5.22-.58A2.78,2.78,0,0,1,458,257.62Z" style="fill:#aa6550"></path><path d="M375.1,246.21l-12.74-39.73-5.4-1.73,10.47,40.18a143.89,143.89,0,0,1-22.91,1.49,224.78,224.78,0,0,1-23.58-2.23l5.78-37.71-5.25,1.29L310.1,265.9s1.35,33.62,1.35,34.32-5,28.58-5,28.58l79.43-.4-8.78-72.93A49.87,49.87,0,0,0,375.1,246.21Z" style="fill:#ebebeb"></path><path d="M369,261.43a1.64,1.64,0,0,1-.45.18l-1.32.43c-1.14.37-2.82.83-4.91,1.33A97.7,97.7,0,0,1,329,265.43c-2.14-.25-3.86-.5-5-.72l-1.36-.26a1.78,1.78,0,0,1-.47-.13,1.67,1.67,0,0,1,.49,0l1.37.17c1.19.16,2.91.36,5.05.55a110.51,110.51,0,0,0,16.71.26A111.71,111.71,0,0,0,362.27,263c2.09-.45,3.78-.86,4.94-1.17l1.34-.33A1.55,1.55,0,0,1,369,261.43Z" style="fill:#263238"></path><path d="M350.65,288.72s.22-2.82-.65-3.89a4.09,4.09,0,0,0-3.68-1.42c-1.4.21-2.77,1.15-4.1.69a3.73,3.73,0,0,1-2-2.43,7.6,7.6,0,0,0-1.41-2.88c-1.54-1.54-4.35-.88-5.76.78s-1.8,3.93-2.14,6.09C330.93,285.66,338.78,290.1,350.65,288.72Z" style="fill:#00DFC0"></path><path d="M369,265.78a3.33,3.33,0,0,1,.08.75c0,.49.06,1.22,0,2.16a29,29,0,0,1-1.25,7.84,21.62,21.62,0,0,1-2.25,5,14.73,14.73,0,0,1-1.87,2.47,12,12,0,0,1-2.58,2c-3.87,2.37-8.9,3.15-14,3.19A34,34,0,0,1,333,286.79a14,14,0,0,1-5.19-3.61,17.69,17.69,0,0,1-2.84-4.73,34.46,34.46,0,0,1-2.07-7.67c-.15-.93-.24-1.65-.29-2.14a4.33,4.33,0,0,1,0-.76,5.47,5.47,0,0,1,.15.74c.09.54.22,1.24.38,2.12a36.52,36.52,0,0,0,2.21,7.56,17.63,17.63,0,0,0,2.82,4.59,13.71,13.71,0,0,0,5.07,3.46,33.84,33.84,0,0,0,14,2.37c5.06,0,10-.8,13.76-3.08a11.8,11.8,0,0,0,2.5-1.93,14.53,14.53,0,0,0,1.83-2.38,21.88,21.88,0,0,0,2.27-4.91,30.67,30.67,0,0,0,1.4-7.74C369,266.82,369,265.78,369,265.78Z" style="fill:#263238"></path><path d="M352.16,275.29a2.89,2.89,0,0,0-1.63-1.09,3.73,3.73,0,0,0-2,0,2.06,2.06,0,0,0-1.69,2,2.81,2.81,0,0,0,1.4,2.34,3,3,0,0,0,3.31-.1A2.43,2.43,0,0,0,352.16,275.29Z" style="fill:#00DFC0"></path><path d="M336.58,298.87a7.23,7.23,0,0,0-3.47-2.79,6.28,6.28,0,0,0-4.34-.74,6.87,6.87,0,0,0-3.29,1.88,4.49,4.49,0,0,0-1.52,3,2.28,2.28,0,0,0,2.06,2.33c1.06,0,2.11-1,3.06-.54.78.37.89,1.41,1.24,2.2a3.51,3.51,0,0,0,3.75,1.91,4.23,4.23,0,0,0,3.17-2.92A5.32,5.32,0,0,0,336.58,298.87Z" style="fill:#00DFC0"></path><g style="opacity:0.30000000000000004"><path d="M336.58,298.87a7.23,7.23,0,0,0-3.47-2.79,6.28,6.28,0,0,0-4.34-.74,6.87,6.87,0,0,0-3.29,1.88,4.49,4.49,0,0,0-1.52,3,2.28,2.28,0,0,0,2.06,2.33c1.06,0,2.11-1,3.06-.54.78.37.89,1.41,1.24,2.2a3.51,3.51,0,0,0,3.75,1.91,4.23,4.23,0,0,0,3.17-2.92A5.32,5.32,0,0,0,336.58,298.87Z" style="fill:#fff"></path></g><path d="M370.36,244.48a2,2,0,0,1-.5.13l-1.46.27c-1.27.23-3.12.51-5.4.79a141.25,141.25,0,0,1-18,1,139.44,139.44,0,0,1-18-1.31c-2.28-.32-4.12-.62-5.38-.88l-1.46-.29a1.71,1.71,0,0,1-.5-.14,2,2,0,0,1,.52,0l1.47.19c1.27.19,3.12.44,5.4.72A164.84,164.84,0,0,0,345,246.17a167.35,167.35,0,0,0,17.93-.86c2.28-.24,4.13-.46,5.41-.63l1.47-.17A1.72,1.72,0,0,1,370.36,244.48Z" style="fill:#263238"></path><path d="M344.44,314.39a5.29,5.29,0,0,1-1.24.07,33.61,33.61,0,0,1-3.39-.15,47.2,47.2,0,0,1-21-7.07c-1.21-.77-2.16-1.43-2.79-1.93a6,6,0,0,1-1-.8c.06-.08,1.48,1,3.93,2.42A54.56,54.56,0,0,0,329,311.54,55.25,55.25,0,0,0,339.85,314C342.67,314.27,344.44,314.3,344.44,314.39Z" style="fill:#263238"></path><path d="M370.14,294.28a9,9,0,0,1-1,1c-.67.65-1.71,1.54-3,2.59a60.43,60.43,0,0,1-11.16,6.94,59.63,59.63,0,0,1-12.41,4.33c-1.64.37-3,.62-3.92.74a7.77,7.77,0,0,1-1.45.14,7.74,7.74,0,0,1,1.42-.34c.92-.18,2.24-.48,3.86-.89a66.45,66.45,0,0,0,23.43-11.21c1.34-1,2.4-1.85,3.12-2.45A6.92,6.92,0,0,1,370.14,294.28Z" style="fill:#263238"></path><path d="M293.93,227.86a4.25,4.25,0,0,0,5.09-1.2,7,7,0,0,0,1.31-5.36,21.09,21.09,0,0,0-1.74-5.39l-3.25-7.61a3.76,3.76,0,0,0-4.55-2.92c-2,.08-4.21.24-5.61,1.66-1.77,1.78-1.48,4.71-.79,7.13a33,33,0,0,0,8.28,14.08" style="fill:#aa6550"></path><path d="M288.55,174l-3.88.86,7.66,45.38A1.42,1.42,0,0,0,294,221.4h0a1.41,1.41,0,0,0,1.18-1.61Z" style="fill:#263238"></path><polygon points="284.67 174.85 275.85 168.28 279.85 166.05 280.86 167.13 280.53 165.36 287.63 163.14 288.55 173.99 284.67 174.85" style="fill:#00DFC0"></polygon><polygon points="285.24 178.27 284.67 174.85 288.7 173.71 289.01 177.2 285.24 178.27" style="fill:#e0e0e0"></polygon><g style="opacity:0.6000000000000001"><path d="M275.85,168.28a5.63,5.63,0,0,1,2.2,1.16,5.32,5.32,0,0,0,2.07,1.13,1.81,1.81,0,0,0,2-.86c.12-.28.14-.6.26-.89a.74.74,0,0,1,.69-.52c.36.06.52.46.63.8a3.2,3.2,0,0,0,1.16,1.74,1.38,1.38,0,0,0,1.88-.3c.5-.87-.4-2.06.08-2.94a8.37,8.37,0,0,1,.69-.78,2.44,2.44,0,0,0,.29-1.84,7.29,7.29,0,0,1-.19-1.91l-7.11,2.29.33,1.77-1-1.08Z" style="fill:#fff"></path></g><path d="M295.74,192.38s-12.74,7.63-14,10.06-3.69,10.48-3,13.26,3.21,7.48,3.1,11.37c-.07,2.77-.35,5.55-.35,5.55l15.55-.71a20.7,20.7,0,0,0-2.15-9.61,31.25,31.25,0,0,0-3.82-5.62,2.94,2.94,0,0,1,.67-4.37h0s5.9,4.17,7.12,3.82,2.77-.7,1.56-2.17-6.06-4.87-6.06-4.87l8.21,1.74c.53,0,1.68-1.21,1.91-1.69.42-.94,1-2.42.38-3l-11-4.13-6.46,2.51,6-5.53S297.58,196.18,295.74,192.38Z" style="fill:#b78876"></path><path d="M281.53,232.62,278.2,271a14.86,14.86,0,0,0,4,11.51h0a12.49,12.49,0,0,0,9,3.87h0A12.46,12.46,0,0,0,302,280.26h0a16.88,16.88,0,0,0,2.08-11.55l-7.22-40.43Z" style="fill:#b78876"></path><path d="M295.54,209.87c-.08,0-.39-.46-1.17-.89a5.06,5.06,0,0,0-3.36-.48,11.35,11.35,0,0,0-3.29,1.32,5,5,0,0,1-1.36.66c0-.06.4-.44,1.17-1a9.28,9.28,0,0,1,3.38-1.52,4.83,4.83,0,0,1,3.65.68C295.38,209.24,295.59,209.85,295.54,209.87Z" style="fill:#aa6550"></path><path d="M304.61,208.69a12.73,12.73,0,0,1-2.47-.71c-1.5-.5-3.56-1.23-5.83-2.07a8.09,8.09,0,0,0-3.2-.74,6.82,6.82,0,0,0-2.57.72c-1.4.69-2.22,1.26-2.27,1.18a8.09,8.09,0,0,1,2.1-1.51,6.66,6.66,0,0,1,2.72-.87,8.07,8.07,0,0,1,3.4.74c2.27.83,4.31,1.61,5.78,2.21A13.22,13.22,0,0,1,304.61,208.69Z" style="fill:#aa6550"></path><g style="opacity:0.2"><path d="M326.72,206.48c1.25,5.7-2.28,13.55-1.69,19.61s2.94,12.19,7.6,16.11a3.52,3.52,0,0,1,1.15,1.34c.34,1,.43,1.9-.49,2.33,0,0-3.13-.56-4.15-.62-2.83-.15-7.94-.69-8.2-1.06,0,0,.84-4.46,1.05-6.27.93-7.9,4.73-31.44,4.73-31.44"></path></g><g style="opacity:0.2"><path d="M304,267.85c.35,2.15.69,4.29,1,6.43.08.54.25,1.17.77,1.34.69.24,1.27-.57,1.53-1.26a22,22,0,0,0-4.93-23.1c-.37-.36-.91-.73-1.35-.47s-.39.89-.29,1.38l3.43,16.64"></path></g><path d="M379.53,313.05c-1-.46-2.08-.61-3-1.13-3.16-1.72-3.07-6.39-5.38-9.15a6.23,6.23,0,0,0-10.86,2.66,25.78,25.78,0,0,0-.16,4.57,5,5,0,0,1-1.78,4c-1.43,1-3.36.55-5-.09s-3.2-1.52-4.92-1.38c-3.28.25-5.21,4.21-4.57,7.45s3.42,6.21,5.69,8.6l29.94-.19c1.45-2.46,3.06-5.26,3.39-8.1S382.11,314.28,379.53,313.05Z" style="fill:#00DFC0"></path><g style="opacity:0.30000000000000004"><path d="M379.53,313.05c-1-.46-2.08-.61-3-1.13-3.16-1.72-3.07-6.39-5.38-9.15a6.23,6.23,0,0,0-10.86,2.66,25.78,25.78,0,0,0-.16,4.57,5,5,0,0,1-1.78,4c-1.43,1-3.36.55-5-.09s-3.2-1.52-4.92-1.38c-3.28.25-5.21,4.21-4.57,7.45s3.42,6.21,5.69,8.6l29.94-.19c1.45-2.46,3.06-5.26,3.39-8.1S382.11,314.28,379.53,313.05Z" style="fill:#fff"></path></g><path d="M448.37,328.62c0,.14-70.27.26-156.93.26s-156.94-.12-156.94-.26,70.25-.26,156.94-.26S448.37,328.47,448.37,328.62Z" style="fill:#263238"></path></g></svg>