<svg xmlns="http://www.w3.org/2000/svg" viewBox="0 0 500 500"><g id="freepik--Floor--inject-2"><ellipse id="freepik--floor--inject-2" cx="250" cy="346.12" rx="215.28" ry="124.29" style="fill:#f5f5f5"></ellipse></g><g id="freepik--Shadows--inject-2"><path id="freepik--Shadow--inject-2" d="M84.69,400.31l-37.53-21.6c-1.33-.77-1.33-2,0-2.78L288.71,236.52a5.3,5.3,0,0,1,4.81,0l37.54,21.61c1.33.77,1.33,2,0,2.78L89.51,400.31A5.32,5.32,0,0,1,84.69,400.31Z" style="fill:#e0e0e0"></path><path id="freepik--shadow--inject-2" d="M247.23,319.39,266,308.57a2.85,2.85,0,0,1,2.59,0l20.59,12a.8.8,0,0,1,0,1.51l-18.74,10.82a2.87,2.87,0,0,1-2.6,0l-20.59-12A.8.8,0,0,1,247.23,319.39Z" style="fill:#e0e0e0"></path><path id="freepik--shadow--inject-2" d="M274.9,303.14l18.74-10.82a2.84,2.84,0,0,1,2.6,0l20.58,12a.79.79,0,0,1,0,1.5l-18.74,10.82a2.85,2.85,0,0,1-2.59,0l-20.59-12C274.18,304.22,274.18,303.55,274.9,303.14Z" style="fill:#e0e0e0"></path><path id="freepik--shadow--inject-2" d="M302.15,287.4l18.74-10.82a2.85,2.85,0,0,1,2.59,0l20.59,12a.8.8,0,0,1,0,1.51l-18.74,10.82a2.87,2.87,0,0,1-2.6,0l-20.59-12A.8.8,0,0,1,302.15,287.4Z" style="fill:#e0e0e0"></path><ellipse id="freepik--shadow--inject-2" cx="209.9" cy="417.42" rx="61.32" ry="35.4" style="fill:#e0e0e0"></ellipse><ellipse id="freepik--shadow--inject-2" cx="392.37" cy="322.15" rx="51.58" ry="25.65" style="fill:#e0e0e0"></ellipse></g><g id="freepik--Plant--inject-2"><g id="freepik--Plants--inject-2"><path d="M79.21,346.93s1.42-16-3.87-29.78-14.41-23.53-24.21-26.37S31.4,295.47,40.77,304s27,18.84,30.89,44.23Z" style="fill:#00DFC0"></path><path d="M79.21,346.93s1.42-16-3.87-29.78-14.41-23.53-24.21-26.37S31.4,295.47,40.77,304s27,18.84,30.89,44.23Z" style="opacity:0.15"></path><path d="M77.12,342.26h.11a.55.55,0,0,0,.44-.64c-5.22-28.11-23-43.07-31.7-47.05a.55.55,0,0,0-.72.27.53.53,0,0,0,.27.72c8.5,3.9,25.95,18.59,31.08,46.26A.55.55,0,0,0,77.12,342.26Z" style="fill:#fff"></path><path d="M80.06,373c0-.81,0-1.61,0-2.41a26.31,26.31,0,0,1,.93-6.67c.61-2.13,2.06-3.82,2.57-5.94a9.12,9.12,0,0,0-1.66-6.8c-1.32-1.87-3.26-3.37-4-5.55-.9-2.74.8-5.49.06-8s-3.52-4.08-5.81-4.7c-3.05-.83-6.3-.62-9.38-1.34-4-.93-7.43-3.36-11-5.28s-7.84-3.4-11.76-2.24a9.51,9.51,0,0,0-6.08,12.74c.88,2.12,2.5,3.85,3.68,5.82s1.81,4.24.92,6.39c-.66,1.59-1.85,2.81-2.4,4.47-1.4,4.25-.62,8.07,3.63,10.25,3.14,1.62,6.75,1.16,9.89,2.58,2.28,1,4.19,3.14,4,5.74-.09,1.35-.47,2.66-.6,4-.85,8.79,5,14.39,12.46,15.48a23.13,23.13,0,0,0,11.55-1.69c3.78-1.84,3-4.8,3.13-8.52C80.28,378.56,80.1,375.78,80.06,373Z" style="fill:#00DFC0"></path><path d="M47.63,354.29a.48.48,0,0,0,.31,0A27.11,27.11,0,0,1,71,355.92a.51.51,0,0,0,.69-.21.52.52,0,0,0-.21-.7,28.2,28.2,0,0,0-24-1.69.52.52,0,0,0-.24.69A.5.5,0,0,0,47.63,354.29Z" style="fill:#fff"></path><path d="M80.77,381.41a.48.48,0,0,1-.48-.46c-.88-21.45-22.42-44.13-36.85-50.32a.48.48,0,1,1,.37-.88C58.48,336,80.35,359.1,81.24,380.91a.48.48,0,0,1-.46.5Z" style="fill:#fff"></path></g></g><g id="freepik--Gears--inject-2"><g id="freepik--gears--inject-2"><path d="M89.29,78.86h0a.92.92,0,0,0-1,.09l-2,1.28-.44,1.17a2.22,2.22,0,0,0,.54,2.17,10.81,10.81,0,0,1,.92,1.09,1.38,1.38,0,0,0,1.88.41l4.68-3a.93.93,0,0,1,1-.1ZM82.08,95.59c-.65-3.7-3.07-5.54-6.21-5.29a9,9,0,0,1,.65,2.16c1,5.85-2.77,14.16-8.5,18.54a11.7,11.7,0,0,1-6,2.61c1.88,3.93,6.64,4.3,11.58.52C79.32,109.74,83.12,101.44,82.08,95.59Zm.1-25h0a1.09,1.09,0,0,0-.37-.14l-3.52-.78a1.93,1.93,0,0,0-2,.9L73,76.72a2.83,2.83,0,0,1-.74.82h0a3.1,3.1,0,0,1-.57.37l1,3.36a1.21,1.21,0,0,0,1.67.74,17,17,0,0,1,2.17-.7,3.5,3.5,0,0,0,1.26-.64,2.87,2.87,0,0,0,.75-.82l3.31-6.16a1.93,1.93,0,0,1,2-.9l3.53.77a1.4,1.4,0,0,1,.36.13Zm-9.93,59.58a1,1,0,0,1-.34-.52l-1.19-3.85a1.2,1.2,0,0,0-1.67-.74,16,16,0,0,1-2.17.69,3.49,3.49,0,0,0-.68.28l.15.5a1,1,0,0,0,.46.59h0ZM65.48,73.69a.76.76,0,0,0-.39-.1,1,1,0,0,0-.64.24l-5.3,4-.2.19a1.07,1.07,0,0,0-.14.16,3.35,3.35,0,0,0-.46.81l-.07.19h0a2.58,2.58,0,0,0-.14.83l.32,4.9a3.79,3.79,0,0,1-.82,2.37c-.87,1-1.69,2.07-2.46,3.16a2.64,2.64,0,0,1-1.16.87,2.18,2.18,0,0,1-.46.14.91.91,0,0,1-.23,0,1,1,0,0,1-.3,0l-3.4-.16h-.08a1.33,1.33,0,0,0-.28,0,1.11,1.11,0,0,0-.25,0h0a1.53,1.53,0,0,0-.27.11,2,2,0,0,0-.49.3,1.85,1.85,0,0,0-.55.67l-3.19,7A1.31,1.31,0,0,0,45,101.2l3.78,2.11a1.58,1.58,0,0,1,.08,1,30.46,30.46,0,0,0-.59,3.32,4,4,0,0,1-1.14,2.26l0,0L42.47,114a1.26,1.26,0,0,0-.22.24l0,0a1.14,1.14,0,0,0-.18.3,2.61,2.61,0,0,0-.36,1.67l.89,5a1,1,0,0,0,.41.67L48.52,125a1,1,0,0,1-.39-.66l-.88-5a2.38,2.38,0,0,1,.06-1,2.69,2.69,0,0,1,.73-1.3L52.67,113l0,0a4.09,4.09,0,0,0,1.15-2.26,28.61,28.61,0,0,1,.59-3.32,1.66,1.66,0,0,0-.94-1.85l-2.75-1.13a1.31,1.31,0,0,1-.71-1.76l3.19-7A1.88,1.88,0,0,1,53.8,95a2.16,2.16,0,0,1,1.4-.49l3.41.16a2.34,2.34,0,0,0,1-.19,2.61,2.61,0,0,0,1.16-.88c.77-1.08,1.6-2.15,2.46-3.16A3.7,3.7,0,0,0,64,88.08l-.31-4.89a2,2,0,0,1,.13-.85A2.8,2.8,0,0,1,64.72,81L70,77a.92.92,0,0,1,1-.15Zm-7.93,52a2.23,2.23,0,0,0-.55-2.17,8.09,8.09,0,0,1-.91-1.09,1.38,1.38,0,0,0-1.88-.41l-2.67,1.71-1.94,5.11a1.12,1.12,0,0,0,.47,1.4h0l5.58,3.13a1.11,1.11,0,0,1-.47-1.4Z" style="fill:#e0e0e0"></path><path d="M52.67,113,48,117.16a2.69,2.69,0,0,0-.73,1.3l-5.55-3.12a3.16,3.16,0,0,1,.28-.72,1.14,1.14,0,0,1,.18-.3l0,0a1.26,1.26,0,0,1,.22-.24l4.64-4.15Z" style="fill:#fafafa"></path><path d="M59.59,94.48a2.34,2.34,0,0,1-1,.19l-3.41-.16a2.16,2.16,0,0,0-1.4.49l-5.56-3.12a2,2,0,0,1,.49-.3,1.53,1.53,0,0,1,.27-.11h0a1.11,1.11,0,0,1,.25,0,1.33,1.33,0,0,1,.28,0h.08l3.4.16a1,1,0,0,0,.3,0,.91.91,0,0,0,.23,0l.44-.15h0Z" style="fill:#fafafa"></path><path d="M94.84,82a.91.91,0,0,0-1,.1l-4.68,3a1.38,1.38,0,0,1-1.88-.41,8.15,8.15,0,0,0-.92-1.09,2.22,2.22,0,0,1-.54-2.17l.44-1.16,2-1.29a.92.92,0,0,1,1-.09h0Z" style="fill:#fafafa"></path><path d="M87.74,73.69a1.4,1.4,0,0,0-.36-.13l-3.53-.77a1.93,1.93,0,0,0-2,.9l-3.31,6.16a2.87,2.87,0,0,1-.75.82l-5.56-3.13a2.83,2.83,0,0,0,.74-.82l3.32-6.16a1.93,1.93,0,0,1,2-.9l3.52.78a1.09,1.09,0,0,1,.37.14h0Z" style="fill:#fafafa"></path><path d="M71.05,76.81A.92.92,0,0,0,70,77l-5.29,4a2.8,2.8,0,0,0-.87,1.34l-5.57-3.12.07-.19a3.35,3.35,0,0,1,.46-.81,1.07,1.07,0,0,1,.14-.16l.2-.19,5.3-4a1,1,0,0,1,.64-.24.76.76,0,0,1,.39.1Z" style="fill:#fafafa"></path><path d="M96.16,87.63l-.88-5a.84.84,0,0,0-1.39-.59l-4.68,3a1.38,1.38,0,0,1-1.88-.41,9.73,9.73,0,0,0-.91-1.09,2.2,2.2,0,0,1-.55-2.17l2.39-6.28a1.15,1.15,0,0,0-.88-1.56l-3.53-.77a1.94,1.94,0,0,0-2,.9l-3.31,6.15a3.46,3.46,0,0,1-2,1.47,16.52,16.52,0,0,0-2.17.7,1.21,1.21,0,0,1-1.67-.74L71.5,77.41A.89.89,0,0,0,70,77l-5.29,4a2.84,2.84,0,0,0-1,2.18l.31,4.9a3.83,3.83,0,0,1-.82,2.37,36,36,0,0,0-2.45,3.16,2.78,2.78,0,0,1-2.16,1.06l-3.39-.16a2.2,2.2,0,0,0-2,1.16l-3.19,7a1.33,1.33,0,0,0,.71,1.77l2.75,1.14a1.64,1.64,0,0,1,.94,1.84,30.9,30.9,0,0,0-.59,3.32A4.09,4.09,0,0,1,52.72,113L48,117.16a2.74,2.74,0,0,0-.79,2.25l.88,5a.85.85,0,0,0,1.4.59l4.68-3a1.38,1.38,0,0,1,1.88.41,8.91,8.91,0,0,0,.91,1.09,2.2,2.2,0,0,1,.55,2.17l-2.39,6.28a1.16,1.16,0,0,0,.88,1.57l3.52.76a1.91,1.91,0,0,0,2-.9l3.32-6.15a3.51,3.51,0,0,1,2-1.47,16.56,16.56,0,0,0,2.18-.69,1.2,1.2,0,0,1,1.66.74l1.2,3.85a.89.89,0,0,0,1.49.46l5.28-4a2.8,2.8,0,0,0,1-2.18L79.38,119a3.8,3.8,0,0,1,.83-2.37c.86-1,1.68-2.07,2.45-3.16a2.77,2.77,0,0,1,2.15-1.07l3.4.17a2.2,2.2,0,0,0,2-1.17l3.2-7a1.31,1.31,0,0,0-.71-1.76L89.9,101.5A1.66,1.66,0,0,1,89,99.65a30.9,30.9,0,0,0,.59-3.32,4.11,4.11,0,0,1,1.14-2.26l4.69-4.19A2.74,2.74,0,0,0,96.16,87.63Zm-22.57,26.5c-5.73,4.38-11.22,3.19-12.26-2.67s2.77-14.16,8.5-18.54,11.22-3.19,12.25,2.66S79.32,109.74,73.59,114.13Z" style="fill:#f0f0f0"></path><path d="M162.53,74.64h0a1.07,1.07,0,0,0-1.12.09l-2.32,1.49-.51,1.35a2.56,2.56,0,0,0,.63,2.51,11.75,11.75,0,0,1,1,1.25,1.59,1.59,0,0,0,2.17.47l5.4-3.46a1.07,1.07,0,0,1,1.1-.11ZM154.21,94c-.76-4.26-3.55-6.39-7.17-6.1a10.6,10.6,0,0,1,.75,2.49c1.2,6.76-3.2,16.34-9.81,21.4a13.51,13.51,0,0,1-6.93,3c2.16,4.53,7.65,5,13.36.6C151,110.28,155.4,100.7,154.21,94Zm.12-28.87h0a1.84,1.84,0,0,0-.43-.17L149.83,64a2.23,2.23,0,0,0-2.31,1l-3.83,7.11a3.23,3.23,0,0,1-.85.94h0a3.12,3.12,0,0,1-.66.43l1.2,3.88a1.4,1.4,0,0,0,1.92.85,21.29,21.29,0,0,1,2.51-.8,4.34,4.34,0,0,0,1.45-.74,3,3,0,0,0,.87-1l3.82-7.1a2.24,2.24,0,0,1,2.31-1l4.08.89a1.19,1.19,0,0,1,.4.15Zm-11.47,68.76a1.15,1.15,0,0,1-.39-.6l-1.37-4.45a1.39,1.39,0,0,0-1.93-.85,19.17,19.17,0,0,1-2.51.8,3.64,3.64,0,0,0-.79.32l.19.57a1.06,1.06,0,0,0,.52.69h0Zm-7.81-65.16a.89.89,0,0,0-.45-.12,1.2,1.2,0,0,0-.74.28l-6.11,4.67a1.23,1.23,0,0,0-.24.22c-.06,0-.1.11-.16.17a4.09,4.09,0,0,0-.53.94c0,.07,0,.15-.08.23h0a2.78,2.78,0,0,0-.16,1l.37,5.66a4.46,4.46,0,0,1-.95,2.73,43.38,43.38,0,0,0-2.83,3.65,3,3,0,0,1-1.35,1,2.14,2.14,0,0,1-.53.16,1.17,1.17,0,0,1-.26,0,1.37,1.37,0,0,1-.35,0l-3.92-.18h-.1l-.32,0a1.4,1.4,0,0,0-.28.06h0l-.32.12a2.93,2.93,0,0,0-.56.35,2.34,2.34,0,0,0-.63.78l-3.69,8a1.5,1.5,0,0,0,.62,1.93l4.36,2.45a1.88,1.88,0,0,1,.1,1.1,35.5,35.5,0,0,0-.69,3.83,4.69,4.69,0,0,1-1.31,2.61l-.07,0-5.35,4.78a1.67,1.67,0,0,0-.25.28l0,0a1.59,1.59,0,0,0-.22.35,3,3,0,0,0-.4,1.92l1,5.74a1.19,1.19,0,0,0,.47.78l6.4,3.58a1.07,1.07,0,0,1-.45-.76l-1-5.73a2.49,2.49,0,0,1,.06-1.11,3.09,3.09,0,0,1,.84-1.49l5.34-4.78.07,0a4.87,4.87,0,0,0,1.32-2.61,33.31,33.31,0,0,1,.68-3.84,1.9,1.9,0,0,0-1.09-2.13l-3.17-1.31a1.51,1.51,0,0,1-.82-2l3.68-8a2.34,2.34,0,0,1,.63-.78,2.55,2.55,0,0,1,1.63-.57l3.93.19a2.56,2.56,0,0,0,1.13-.22,3,3,0,0,0,1.34-1c.89-1.25,1.84-2.48,2.83-3.64a4.38,4.38,0,0,0,1-2.74L133,79.64a2.5,2.5,0,0,1,.15-1,3.25,3.25,0,0,1,1-1.55l6.09-4.66a1.08,1.08,0,0,1,1.21-.17Zm-9.15,60a2.59,2.59,0,0,0-.64-2.51,10,10,0,0,1-1.05-1.26,1.59,1.59,0,0,0-2.16-.47l-3.09,2-2.24,5.9a1.29,1.29,0,0,0,.54,1.61h0l6.44,3.62a1.28,1.28,0,0,1-.54-1.62Z" style="fill:#e0e0e0"></path><path d="M120.26,114.07l-5.34,4.78a3.09,3.09,0,0,0-.84,1.49l-6.41-3.59a4,4,0,0,1,.32-.83,1.59,1.59,0,0,1,.22-.35l0,0a1.67,1.67,0,0,1,.25-.28l5.35-4.78Z" style="fill:#fafafa"></path><path d="M128.25,92.67a2.56,2.56,0,0,1-1.13.22l-3.93-.19a2.55,2.55,0,0,0-1.63.57l-6.41-3.6a2.93,2.93,0,0,1,.56-.35l.32-.12h0a1.4,1.4,0,0,1,.28-.06l.32,0h.1l3.92.18a1.37,1.37,0,0,0,.35,0l.26,0a3.39,3.39,0,0,0,.51-.17h0Z" style="fill:#fafafa"></path><path d="M168.93,78.23a1.06,1.06,0,0,0-1.1.13l-5.4,3.46a1.61,1.61,0,0,1-2.17-.48,10.79,10.79,0,0,0-1-1.26,2.54,2.54,0,0,1-.63-2.5l.51-1.34,2.31-1.49a1.07,1.07,0,0,1,1.13-.1h0Z" style="fill:#fafafa"></path><path d="M160.73,68.68a1.19,1.19,0,0,0-.4-.15l-4.08-.89a2.24,2.24,0,0,0-2.31,1l-3.82,7.1a3,3,0,0,1-.87,1l-6.41-3.62a3.23,3.23,0,0,0,.85-.94l3.83-7.11a2.23,2.23,0,0,1,2.31-1l4.07.89a1.84,1.84,0,0,1,.43.17h0Z" style="fill:#fafafa"></path><path d="M141.48,72.28a1.08,1.08,0,0,0-1.21.17l-6.09,4.66a3.25,3.25,0,0,0-1,1.55l-6.42-3.59c0-.08.06-.16.08-.23a4.09,4.09,0,0,1,.53-.94c.06-.06.1-.12.16-.17a1.23,1.23,0,0,1,.24-.22l6.11-4.67a1.2,1.2,0,0,1,.74-.28.89.89,0,0,1,.45.12Z" style="fill:#fafafa"></path><path d="M170.46,84.77l-1-5.74a1,1,0,0,0-1.61-.67l-5.4,3.45a1.59,1.59,0,0,1-2.17-.47,11.69,11.69,0,0,0-1-1.26,2.54,2.54,0,0,1-.63-2.5l2.75-7.25a1.32,1.32,0,0,0-1-1.8l-4.07-.89a2.22,2.22,0,0,0-2.3,1l-3.83,7.1a4,4,0,0,1-2.32,1.69,20.13,20.13,0,0,0-2.5.81,1.4,1.4,0,0,1-1.93-.86L142,73a1,1,0,0,0-1.73-.53l-6.1,4.67A3.31,3.31,0,0,0,133,79.63l.37,5.65a4.43,4.43,0,0,1-.95,2.74,43.86,43.86,0,0,0-2.83,3.65,3.19,3.19,0,0,1-2.49,1.22l-3.92-.19a2.53,2.53,0,0,0-2.25,1.35l-3.69,8a1.52,1.52,0,0,0,.82,2l3.17,1.31a1.92,1.92,0,0,1,1.09,2.13,35.6,35.6,0,0,0-.68,3.84,4.74,4.74,0,0,1-1.32,2.6l-5.41,4.84a3.13,3.13,0,0,0-.91,2.59l1,5.74a1,1,0,0,0,1.61.68l5.4-3.46a1.6,1.6,0,0,1,2.17.48,11.75,11.75,0,0,0,1.05,1.25,2.57,2.57,0,0,1,.64,2.5l-2.76,7.26a1.32,1.32,0,0,0,1,1.8l4.07.88a2.22,2.22,0,0,0,2.31-1l3.83-7.1a4,4,0,0,1,2.31-1.69,20.72,20.72,0,0,0,2.51-.8,1.39,1.39,0,0,1,1.92.85l1.38,4.45a1,1,0,0,0,1.72.53l6.1-4.67a3.32,3.32,0,0,0,1.16-2.52l-.37-5.65a4.46,4.46,0,0,1,.95-2.73q1.5-1.76,2.84-3.65a3.2,3.2,0,0,1,2.48-1.23l3.92.19a2.54,2.54,0,0,0,2.25-1.34l3.69-8a1.51,1.51,0,0,0-.82-2l-3.17-1.32a1.91,1.91,0,0,1-1.09-2.12,33.69,33.69,0,0,0,.68-3.84,4.74,4.74,0,0,1,1.32-2.61l5.41-4.84A3.13,3.13,0,0,0,170.46,84.77ZM144.4,115.35c-6.61,5.05-12.94,3.68-14.14-3.08s3.2-16.34,9.81-21.4S153,87.19,154.21,94,151,110.29,144.4,115.35Z" style="fill:#f0f0f0"></path><path d="M55.85,213.58a2.24,2.24,0,0,0-.13-2,19.17,19.17,0,0,1-1.92-4.16,1,1,0,0,0-1.43-.64l-2.09.91c.21.43.44.83.68,1.22a2.24,2.24,0,0,1,.13,2l-5.74,11.26a1.26,1.26,0,0,0,.51,1.64l4.72,2.65a1.27,1.27,0,0,1-.47-1.62Zm25.5-78.41a.62.62,0,0,0-.31-.07,1,1,0,0,0-.47.13l-9.68,5.44-.14.09-.15.12-.13.12a3.61,3.61,0,0,0-.25.3,2.33,2.33,0,0,0-.48,1.13l-1,10.47a3.48,3.48,0,0,1-1,2,57.54,57.54,0,0,0-5.37,5.54,1.87,1.87,0,0,1-1.9.52l-6.21-2.11a1,1,0,0,0-.49-.06H53.6l-.19,0a1.47,1.47,0,0,0-.54.28.25.25,0,0,0-.1.08,1.08,1.08,0,0,0-.24.28l-7.11,12a1.41,1.41,0,0,0-.15.88,1.32,1.32,0,0,0,.46.9l5,4.19a1.77,1.77,0,0,1,.48,1.86,54.56,54.56,0,0,0-2.24,7.3,3.11,3.11,0,0,1-.55,1.11,1.09,1.09,0,0,1-.17.22l-.16.18a3.45,3.45,0,0,1-.36.32l-8.84,6.05-.16.13-.15.15a2.53,2.53,0,0,0-.68,1.57v10.87a.76.76,0,0,0,.35.7L43,210.54a.81.81,0,0,1-.34-.71V199a2.48,2.48,0,0,1,.38-1.21,2.35,2.35,0,0,1,.6-.65l8.84-6a3.34,3.34,0,0,0,.69-.71,3.28,3.28,0,0,0,.55-1.13A56.4,56.4,0,0,1,56,181.93a1.76,1.76,0,0,0-.49-1.86l-5-4.19A1.37,1.37,0,0,1,50,175a1.28,1.28,0,0,1,.16-.88l7.11-12a1.51,1.51,0,0,1,1.18-.69,1.36,1.36,0,0,1,.57.06l6.2,2.11a1.88,1.88,0,0,0,1.91-.52,57.54,57.54,0,0,1,5.37-5.54,3.48,3.48,0,0,0,1-2l1-10.47a2,2,0,0,1,.18-.63,2.51,2.51,0,0,1,1-1.13l9.68-5.44a.85.85,0,0,1,.73-.09ZM74.81,228.4a.8.8,0,0,1-.33-.61l-.94-9.14a1,1,0,0,0-1.29-.89,20.9,20.9,0,0,1-3.24.43l.72,6.93a.76.76,0,0,0,.37.64h0ZM90,162.85c1.39,1.87,2.12,4.72,2.12,8.44,0,10.14-7.32,22.47-16.35,27.55-3.52,2-6.52,2.64-8.87,2.09,2.92,3.32,7.94,3.77,13.63.58,9-5.08,16.35-17.41,16.35-27.56C96.84,167.77,94.12,163.84,90,162.85Zm9.41-29.22a1.31,1.31,0,0,0-1.71.39L90.5,144.48l-.1.14-.17.16-.1.08-.1.08a2.47,2.47,0,0,1-1.4.45c-.47,0-.94,0-1.42,0l.22,2.22a1,1,0,0,0,1.3.89,19.58,19.58,0,0,1,4.66-.46,2.47,2.47,0,0,0,1.4-.45,1.72,1.72,0,0,0,.47-.46l7.15-10.47a1.32,1.32,0,0,1,1.69-.39Zm13.85,19.44a.52.52,0,0,0-.16-.06,1,1,0,0,0-.59.07L106,155.94c.16.3.3.6.44.91s.24.54.35.82a.58.58,0,0,1,.06.17,9.25,9.25,0,0,1,.32.88,1.15,1.15,0,0,1,.06.17,1.1,1.1,0,0,0,.26.43.53.53,0,0,0,.12.1l.08.05a.51.51,0,0,0,.25.11l.09,0a.94.94,0,0,0,.41,0h0a.64.64,0,0,0,.18-.06l8.61-3.78a.81.81,0,0,1,.64-.05.22.22,0,0,1,.12.05Z" style="fill:#e0e0e0"></path><path d="M104.1,136.29a1.32,1.32,0,0,0-1.69.39l-7.15,10.47a1.72,1.72,0,0,1-.47.46L90,144.94h0l.2-.15.17-.16.1-.14L97.66,134a1.31,1.31,0,0,1,1.71-.39Z" style="fill:#fafafa"></path><path d="M53.17,190.35a3.34,3.34,0,0,1-.69.71l-8.84,6a2.35,2.35,0,0,0-.6.65l-4.74-2.66a2.51,2.51,0,0,1,.27-.37l.15-.15.16-.13,8.84-6.05a3.45,3.45,0,0,0,.36-.32l.16-.18.17-.22h0Z" style="fill:#fafafa"></path><path d="M58.47,161.42a1.51,1.51,0,0,0-1.18.69l-7.11,12A1.28,1.28,0,0,0,50,175l-4.75-2.67a1.41,1.41,0,0,1,.15-.88l7.11-12a1.08,1.08,0,0,1,.24-.28.25.25,0,0,1,.1-.08,1.47,1.47,0,0,1,.54-.28l.19,0h.19Z" style="fill:#fafafa"></path><path d="M86.06,137.81a.85.85,0,0,0-.73.09l-9.68,5.44a2.51,2.51,0,0,0-1,1.13l-4.75-2.67a2.87,2.87,0,0,1,.54-.8l.13-.12.15-.12.14-.09,9.68-5.44a1,1,0,0,1,.47-.13.62.62,0,0,1,.31.07Z" style="fill:#fafafa"></path><path d="M113.22,153.07l4.76,2.68a.22.22,0,0,0-.12-.05.81.81,0,0,0-.64.05l-8.61,3.78a1,1,0,0,1-1.17-.21,1.1,1.1,0,0,1-.26-.43,1.15,1.15,0,0,0-.06-.17,9.25,9.25,0,0,0-.32-.88.58.58,0,0,0-.06-.17c-.11-.28-.22-.55-.35-.82s-.28-.61-.44-.91l6.52-2.86a1,1,0,0,1,.59-.07l.16.07Z" style="fill:#fafafa"></path><rect x="117.98" y="155.75" width="0.01" height="0.01" style="fill:#fafafa"></rect><path d="M118.32,167.32V156.44a.72.72,0,0,0-1.1-.69l-8.61,3.78a1,1,0,0,1-1.43-.65,18.63,18.63,0,0,0-1.92-4.15,2.24,2.24,0,0,1-.13-2l5.74-11.27a1.26,1.26,0,0,0-.51-1.64l-6.23-3.5a1.34,1.34,0,0,0-1.72.39l-7.15,10.47a2.4,2.4,0,0,1-1.87.91,19.58,19.58,0,0,0-4.66.46,1,1,0,0,1-1.29-.89l-1-9.14a.72.72,0,0,0-1.16-.59l-9.68,5.44a2.53,2.53,0,0,0-1.15,1.76l-1,10.48a3.48,3.48,0,0,1-1,1.95,57.54,57.54,0,0,0-5.37,5.54,1.87,1.87,0,0,1-1.9.52L59,161.48a1.56,1.56,0,0,0-1.75.63l-7.11,12a1.47,1.47,0,0,0,.31,1.79l5,4.18a1.76,1.76,0,0,1,.49,1.86,54.56,54.56,0,0,0-2.24,7.3,3.48,3.48,0,0,1-1.24,1.82l-8.84,6.06a2.52,2.52,0,0,0-1,1.85v10.87a.72.72,0,0,0,1.1.69l8.61-3.77a1,1,0,0,1,1.43.64,18.71,18.71,0,0,0,1.92,4.16,2.24,2.24,0,0,1,.13,2l-5.74,11.26a1.25,1.25,0,0,0,.51,1.64l6.23,3.5a1.31,1.31,0,0,0,1.71-.39l7.16-10.47a2.4,2.4,0,0,1,1.87-.9,20.67,20.67,0,0,0,4.66-.46,1,1,0,0,1,1.29.88l.95,9.15a.71.71,0,0,0,1.16.58l9.68-5.43a2.58,2.58,0,0,0,1.15-1.76l1-10.48a3.48,3.48,0,0,1,1-2,56.29,56.29,0,0,0,5.37-5.53,1.9,1.9,0,0,1,1.9-.53l6.21,2.11a1.53,1.53,0,0,0,1.75-.63l7.11-12a1.45,1.45,0,0,0-.31-1.78l-5-4.18a1.78,1.78,0,0,1-.48-1.86,56.53,56.53,0,0,0,2.24-7.3,3.5,3.5,0,0,1,1.24-1.83l8.84-6.05A2.53,2.53,0,0,0,118.32,167.32ZM80.49,201.51c-9,5.07-16.35,1-16.35-9.19s7.32-22.48,16.35-27.55,16.35-1,16.35,9.18S89.52,196.43,80.49,201.51Z" style="fill:#f0f0f0"></path></g></g><g id="freepik--Board--inject-2"><g id="freepik--board--inject-2"><g id="freepik--board--inject-2"><g id="freepik--board--inject-2"><polygon points="91.57 379.29 312.44 251.77 312.41 64.17 91.57 191.67 91.57 379.29" style="fill:#f0f0f0"></polygon><polygon points="83.45 187.03 91.57 191.67 312.41 64.17 320.34 50.26 83.45 187.03" style="fill:#00DFC0"></polygon><g style="opacity:0.5"><polygon points="83.45 187.03 91.57 191.67 312.41 64.17 320.34 50.26 83.45 187.03"></polygon></g><polygon points="320.34 256.59 320.34 50.22 312.41 64.17 312.44 251.77 320.34 256.59" style="fill:#00DFC0"></polygon><g style="opacity:0.6000000000000001"><polygon points="320.34 256.59 320.34 50.22 312.41 64.17 312.44 251.77 320.34 256.59"></polygon></g><polygon points="83.45 187.03 91.57 191.67 91.57 379.29 83.45 393.36 83.45 187.03" style="fill:#00DFC0"></polygon><g style="opacity:0.6000000000000001"><polygon points="83.45 187.03 91.57 191.67 91.57 379.29 83.45 393.36 83.45 187.03"></polygon></g><polygon points="91.57 379.29 312.44 251.77 320.34 256.59 83.45 393.36 91.57 379.29" style="fill:#00DFC0"></polygon><g style="opacity:0.5"><polygon points="91.57 379.29 312.44 251.77 320.34 256.59 83.45 393.36 91.57 379.29"></polygon></g><polygon points="320.34 50.26 314.38 46.82 77.49 183.59 83.45 187.03 320.34 50.26" style="fill:#00DFC0"></polygon><g style="opacity:0.30000000000000004"><polygon points="320.34 50.26 314.38 46.82 77.49 183.59 83.45 187.03 320.34 50.26"></polygon></g><polygon points="77.49 183.59 83.45 187.03 83.45 393.36 77.49 389.92 77.49 183.59" style="fill:#00DFC0"></polygon><g style="opacity:0.7000000000000001"><polygon points="77.49 183.59 83.45 187.03 83.45 393.36 77.49 389.92 77.49 183.59"></polygon></g><g style="opacity:0.1"><polygon points="312.41 64.17 309.43 65.89 309.46 250.05 91.57 375.85 91.57 379.29 312.44 251.77 312.41 64.17"></polygon></g></g></g><g id="freepik--Notes--inject-2"><path d="M154.06,287.38c-8.95,1.74-15.52,8.62-19.52,16.5a38.83,38.83,0,0,0-4.2,14.55,26.83,26.83,0,0,0,.24,6.58,12.6,12.6,0,0,0,1.85,5.09c2.16,3.07,6.24,4,9.79,3.54,4.38-.58,7.91-3.19,10.8-6.4a41.75,41.75,0,0,0,7.66-12.54,29.19,29.19,0,0,0,2.29-14c-.4-3.35-1.8-7.15-5.08-8.66s-6.95.17-9.14,2.71a12.48,12.48,0,0,0-1.79,2.71c-.14.29.33.77.51.45,1.71-2.93,5.19-6.28,8.93-5.57,3.32.63,4.94,4.17,5.5,7.16a26.27,26.27,0,0,1-1.43,13.13,42.35,42.35,0,0,1-6.64,12.23c-2.56,3.28-5.75,6.38-9.83,7.59-3.36,1-7.6.8-10.19-1.83a9.26,9.26,0,0,1-2.15-4.5,23.65,23.65,0,0,1-.52-6,36.92,36.92,0,0,1,3.38-14c3.36-7.42,8.86-14.12,16.59-17.18a28.86,28.86,0,0,1,3.1-1c.22-.05.07-.49-.15-.45Z" style="fill:#f28f8f"></path><path d="M140.21,177.61a.09.09,0,0,1,.13,0,.24.24,0,0,1,.06.18v.78a.53.53,0,0,1-.06.24.4.4,0,0,1-.13.17l-1.29.74v6a.53.53,0,0,1-.06.24.48.48,0,0,1-.13.17l-.58.33a.11.11,0,0,1-.14,0,.24.24,0,0,1,0-.18v-6l-1.29.74a.11.11,0,0,1-.14,0,.3.3,0,0,1-.05-.18v-.78a.69.69,0,0,1,.05-.24.41.41,0,0,1,.14-.17Z" style="fill:#455a64"></path><path d="M142.05,178.42a1.47,1.47,0,0,1,.71-.23.88.88,0,0,1,.55.2,1.28,1.28,0,0,1,.37.56,2.62,2.62,0,0,1,.16.85,1.85,1.85,0,0,1,0,.25v.61a1.85,1.85,0,0,1,0,.25,5.23,5.23,0,0,1-.16,1,4.61,4.61,0,0,1-.37,1,4,4,0,0,1-.55.83,2.67,2.67,0,0,1-.71.6,1.45,1.45,0,0,1-.71.22.87.87,0,0,1-.55-.19,1.24,1.24,0,0,1-.37-.55,2.74,2.74,0,0,1-.16-.86,1.63,1.63,0,0,1,0-.24c0-.1,0-.2,0-.3s0-.2,0-.31a2,2,0,0,1,0-.26,4.24,4.24,0,0,1,.16-1,4.82,4.82,0,0,1,.37-1,4.06,4.06,0,0,1,.55-.84A2.83,2.83,0,0,1,142.05,178.42Zm.86,2a1.41,1.41,0,0,0-.1-.5.45.45,0,0,0-.2-.24.36.36,0,0,0-.27,0,1,1,0,0,0-.29.12,1.17,1.17,0,0,0-.29.22,1.14,1.14,0,0,0-.27.33,1.85,1.85,0,0,0-.2.47,3,3,0,0,0-.11.63,2,2,0,0,1,0,.23v.55a1.79,1.79,0,0,1,0,.21,1.49,1.49,0,0,0,.11.51.45.45,0,0,0,.2.24.41.41,0,0,0,.27,0l.29-.12a1.48,1.48,0,0,0,.29-.22,1.35,1.35,0,0,0,.27-.34,1.85,1.85,0,0,0,.2-.47,2.77,2.77,0,0,0,.1-.63,1.28,1.28,0,0,0,0-.22v-.55A1.41,1.41,0,0,0,142.91,180.39Z" style="fill:#455a64"></path><path d="M148.32,172.93a2.08,2.08,0,0,1,.91-.32.92.92,0,0,1,.65.24,1.46,1.46,0,0,1,.4.73,4.58,4.58,0,0,1,.17,1.15c0,.53,0,1.08,0,1.63a7.33,7.33,0,0,1-.17,1.35,5.54,5.54,0,0,1-.39,1.19,4.36,4.36,0,0,1-.64,1,3.74,3.74,0,0,1-.9.73l-1.8,1a.09.09,0,0,1-.13,0,.24.24,0,0,1-.06-.18v-7.1a.61.61,0,0,1,.06-.25.31.31,0,0,1,.13-.16Zm1.17,2.36a2.53,2.53,0,0,0-.09-.6.82.82,0,0,0-.23-.4.47.47,0,0,0-.36-.14,1.08,1.08,0,0,0-.53.18l-1,.55v5l1-.58a1.83,1.83,0,0,0,.5-.42,2.61,2.61,0,0,0,.36-.55,3.31,3.31,0,0,0,.22-.65,4.31,4.31,0,0,0,.09-.71C149.51,176.36,149.51,175.82,149.49,175.29Z" style="fill:#455a64"></path><path d="M153,172.12a1.35,1.35,0,0,1,.71-.22.82.82,0,0,1,.55.19,1.28,1.28,0,0,1,.37.56,2.62,2.62,0,0,1,.16.85,1.85,1.85,0,0,1,0,.25v.61a1.85,1.85,0,0,1,0,.25,5.23,5.23,0,0,1-.16,1,4.41,4.41,0,0,1-.37,1,4,4,0,0,1-.55.83,2.67,2.67,0,0,1-.71.6,1.45,1.45,0,0,1-.71.22.87.87,0,0,1-.55-.19,1.24,1.24,0,0,1-.37-.55,2.74,2.74,0,0,1-.16-.86,1.63,1.63,0,0,1,0-.24,2.81,2.81,0,0,1,0-.3c0-.1,0-.2,0-.31a2,2,0,0,1,0-.26,4.24,4.24,0,0,1,.16-1,4.82,4.82,0,0,1,.37-1,3.74,3.74,0,0,1,.55-.83A2.67,2.67,0,0,1,153,172.12Zm.86,2a1.51,1.51,0,0,0-.1-.5.45.45,0,0,0-.2-.24.41.41,0,0,0-.27,0,1,1,0,0,0-.29.12,1.48,1.48,0,0,0-.29.22,1.29,1.29,0,0,0-.27.33,1.92,1.92,0,0,0-.2.48,2.75,2.75,0,0,0-.11.62v.23a2.53,2.53,0,0,0,0,.28,2.44,2.44,0,0,0,0,.27v.21a1.49,1.49,0,0,0,.11.51.45.45,0,0,0,.2.24.41.41,0,0,0,.27,0,1,1,0,0,0,.29-.12,1.68,1.68,0,0,0,.56-.55,2.1,2.1,0,0,0,.2-.48,2.77,2.77,0,0,0,.1-.63,1.22,1.22,0,0,0,0-.21v-.56A1.41,1.41,0,0,0,153.82,174.09Z" style="fill:#455a64"></path><path d="M103.08,199a1.83,1.83,0,0,1,.84-.29,1,1,0,0,1,.61.14,1.07,1.07,0,0,1,.37.44,1.75,1.75,0,0,1,.14.6.57.57,0,0,1-.06.25.37.37,0,0,1-.14.16l-.5.29c-.08,0-.14.06-.18,0a.29.29,0,0,1-.11-.13.57.57,0,0,0-.32-.29.88.88,0,0,0-.65.17,2.11,2.11,0,0,0-.36.27,1.87,1.87,0,0,0-.29.34,1.75,1.75,0,0,0-.19.39,1.25,1.25,0,0,0-.08.42.83.83,0,0,0,.07.37.32.32,0,0,0,.23.15,1.75,1.75,0,0,0,.43,0l.65-.15a2.69,2.69,0,0,1,.74-.09.82.82,0,0,1,.51.16.94.94,0,0,1,.29.46,2.24,2.24,0,0,1,.1.74,4,4,0,0,1-.14,1,4.48,4.48,0,0,1-.41,1,4.68,4.68,0,0,1-.65.85,4.08,4.08,0,0,1-.87.68,2.32,2.32,0,0,1-.76.29,1.17,1.17,0,0,1-.65-.06.93.93,0,0,1-.45-.41,1.71,1.71,0,0,1-.19-.77.43.43,0,0,1,0-.25.45.45,0,0,1,.14-.16l.5-.29a.24.24,0,0,1,.19,0,.27.27,0,0,1,.1.14l.12.21a.43.43,0,0,0,.2.15.75.75,0,0,0,.3,0,1.32,1.32,0,0,0,.45-.19,2.42,2.42,0,0,0,.42-.29,2,2,0,0,0,.35-.37,1.76,1.76,0,0,0,.24-.42,1.29,1.29,0,0,0,.1-.48.46.46,0,0,0-.11-.34.41.41,0,0,0-.3-.09,3.16,3.16,0,0,0-.5.09c-.2.05-.43.1-.7.14a2,2,0,0,1-.62,0,.71.71,0,0,1-.44-.19.89.89,0,0,1-.26-.47,2.89,2.89,0,0,1-.09-.8,3.89,3.89,0,0,1,.14-1,4.36,4.36,0,0,1,.4-.94,4.19,4.19,0,0,1,.59-.81A3,3,0,0,1,103.08,199Z" style="fill:#455a64"></path><path d="M107.18,202.32a.73.73,0,0,0,.12.48c.08.09.22.07.44-.05l.43-.26a.12.12,0,0,1,.14,0,.24.24,0,0,1,.06.18v.73a.53.53,0,0,1-.06.24.41.41,0,0,1-.14.17l-.53.3c-.44.26-.79.29-1,.1a1.75,1.75,0,0,1-.36-1.33v-2.37l-.47.28a.12.12,0,0,1-.14,0,.3.3,0,0,1,0-.18v-.72a.7.7,0,0,1,0-.25.38.38,0,0,1,.14-.16l.47-.27v-1.8a.53.53,0,0,1,.06-.24.4.4,0,0,1,.13-.17l.55-.31a.09.09,0,0,1,.13,0,.23.23,0,0,1,.06.18v1.79l.92-.53a.11.11,0,0,1,.14,0s.05.09.05.17v.73a.52.52,0,0,1-.05.24.41.41,0,0,1-.14.17l-.92.53Z" style="fill:#455a64"></path><path d="M110.7,196.52a1.45,1.45,0,0,1,.71-.22.81.81,0,0,1,.55.2,1.39,1.39,0,0,1,.38.56,2.92,2.92,0,0,1,.16.85V199a5.25,5.25,0,0,1-.17,1,4.61,4.61,0,0,1-.37,1,3.86,3.86,0,0,1-.55.83,2.83,2.83,0,0,1-.71.59,1.37,1.37,0,0,1-.71.23.85.85,0,0,1-.55-.2,1.27,1.27,0,0,1-.37-.55,2.92,2.92,0,0,1-.16-.85,1.63,1.63,0,0,1,0-.24c0-.1,0-.2,0-.3s0-.21,0-.31a2,2,0,0,1,0-.26,4.68,4.68,0,0,1,.16-1,5.22,5.22,0,0,1,.37-1,4.51,4.51,0,0,1,.55-.84A3.1,3.1,0,0,1,110.7,196.52Zm.87,2a1.49,1.49,0,0,0-.11-.51.49.49,0,0,0-.2-.24.39.39,0,0,0-.26,0,1.88,1.88,0,0,0-.3.12,2.77,2.77,0,0,0-.29.22,1.33,1.33,0,0,0-.26.34,1.85,1.85,0,0,0-.21.47,2.77,2.77,0,0,0-.1.63,1.55,1.55,0,0,0,0,.23c0,.08,0,.18,0,.27s0,.19,0,.28a1.22,1.22,0,0,0,0,.21,1.52,1.52,0,0,0,.1.51.48.48,0,0,0,.21.23.29.29,0,0,0,.26,0,.89.89,0,0,0,.29-.12,1.82,1.82,0,0,0,.3-.21,1.6,1.6,0,0,0,.26-.34,1.85,1.85,0,0,0,.2-.47,2.74,2.74,0,0,0,.11-.63v-1Z" style="fill:#455a64"></path><path d="M115.05,195.44a1.55,1.55,0,0,0-.62.65,2.63,2.63,0,0,0-.18,1.06V200a.53.53,0,0,1-.06.24.35.35,0,0,1-.14.17l-.54.31a.11.11,0,0,1-.14,0,.25.25,0,0,1-.05-.17v-5.13a.69.69,0,0,1,.05-.24.41.41,0,0,1,.14-.17l.54-.31a.11.11,0,0,1,.14,0,.24.24,0,0,1,.06.18v.25a3.5,3.5,0,0,1,.39-.64,2,2,0,0,1,.56-.46l.32-.19a.1.1,0,0,1,.13,0,.24.24,0,0,1,.06.18v.73a.53.53,0,0,1-.06.24.36.36,0,0,1-.13.16Z" style="fill:#455a64"></path><path d="M117.43,198.16,116,193.94a.15.15,0,0,1,0-.07.53.53,0,0,1,.06-.24.35.35,0,0,1,.13-.17l.54-.31a.14.14,0,0,1,.15,0,.3.3,0,0,1,.09.13l1,2.85.95-3.95A.91.91,0,0,1,119,192a.36.36,0,0,1,.15-.17l.54-.31a.09.09,0,0,1,.13,0,.23.23,0,0,1,.06.18.22.22,0,0,1,0,.08l-2,8.33a1.28,1.28,0,0,1-.09.22.35.35,0,0,1-.15.18l-.54.31a.1.1,0,0,1-.13,0,.24.24,0,0,1-.06-.18.22.22,0,0,1,0-.08Z" style="fill:#455a64"></path><path d="M170.37,167.89a.11.11,0,0,1-.14,0,.23.23,0,0,1-.06-.18v-7.1a.53.53,0,0,1,.06-.24.41.41,0,0,1,.14-.17l.58-.33a.09.09,0,0,1,.13,0,.21.21,0,0,1,.06.17v7.11a.53.53,0,0,1-.06.24.4.4,0,0,1-.13.17Z" style="fill:#455a64"></path><path d="M175.68,164.53a.53.53,0,0,1-.06.24.35.35,0,0,1-.14.17l-.54.31a.11.11,0,0,1-.14,0,.26.26,0,0,1-.05-.17v-2.8a1.7,1.7,0,0,0-.2-.94c-.14-.19-.34-.2-.62,0a1.41,1.41,0,0,0-.59.74,3,3,0,0,0-.22,1.18V166a.53.53,0,0,1-.06.24.32.32,0,0,1-.14.16l-.54.32a.1.1,0,0,1-.13,0,.24.24,0,0,1-.06-.18v-5.12a.54.54,0,0,1,.06-.25.36.36,0,0,1,.13-.16l.54-.32a.12.12,0,0,1,.14,0,.24.24,0,0,1,.06.18v.25a4.28,4.28,0,0,1,.43-.72,2,2,0,0,1,.6-.53,1.16,1.16,0,0,1,.73-.21.65.65,0,0,1,.47.29,1.59,1.59,0,0,1,.25.67,5.32,5.32,0,0,1,.08.94Z" style="fill:#455a64"></path><path d="M180.43,154.38c.57-.33,1-.38,1.34-.15a1.91,1.91,0,0,1,.48,1.56,4.52,4.52,0,0,1-.48,2.13,3.44,3.44,0,0,1-1.34,1.41l-1.15.66v2.46a.69.69,0,0,1-.05.24.38.38,0,0,1-.14.16l-.58.34a.1.1,0,0,1-.13,0,.24.24,0,0,1-.06-.18v-7.1a.61.61,0,0,1,.06-.25.31.31,0,0,1,.13-.16Zm-1.15,4.24,1.11-.64a1.93,1.93,0,0,0,.65-.62,1.91,1.91,0,0,0,.24-1c0-.41-.08-.65-.24-.71a.78.78,0,0,0-.65.14l-1.11.64Z" style="fill:#455a64"></path><path d="M184.7,155.21a1.54,1.54,0,0,0-.62.65,2.61,2.61,0,0,0-.19,1.06v2.86a.7.7,0,0,1,0,.25.38.38,0,0,1-.14.16l-.54.32a.12.12,0,0,1-.14,0,.24.24,0,0,1-.06-.18v-5.13A.53.53,0,0,1,183,155a.32.32,0,0,1,.14-.16l.54-.32a.12.12,0,0,1,.14,0,.3.3,0,0,1,0,.18v.25a3.61,3.61,0,0,1,.4-.63,2,2,0,0,1,.55-.47l.32-.18c.06,0,.1,0,.14,0a.21.21,0,0,1,.06.17v.73a.53.53,0,0,1-.06.24.35.35,0,0,1-.14.17Z" style="fill:#455a64"></path><path d="M187.53,152.15a1.45,1.45,0,0,1,.71-.22.85.85,0,0,1,.55.2,1.33,1.33,0,0,1,.37.55,2.69,2.69,0,0,1,.16.86,1.7,1.7,0,0,1,0,.25v.61a1.85,1.85,0,0,1,0,.25,5.35,5.35,0,0,1-.16,1,5.49,5.49,0,0,1-.37,1,4.35,4.35,0,0,1-.55.82,2.67,2.67,0,0,1-.71.6,1.47,1.47,0,0,1-.71.23.88.88,0,0,1-.55-.2,1.19,1.19,0,0,1-.37-.55,2.68,2.68,0,0,1-.16-.85c0-.06,0-.14,0-.24v-.61c0-.11,0-.19,0-.26a4.17,4.17,0,0,1,.16-1,4.69,4.69,0,0,1,.37-1,4.27,4.27,0,0,1,.55-.83A2.67,2.67,0,0,1,187.53,152.15Zm.86,2a1.52,1.52,0,0,0-.1-.51.49.49,0,0,0-.2-.24.41.41,0,0,0-.27,0,1.38,1.38,0,0,0-.29.12,1.68,1.68,0,0,0-.56.55,2.1,2.1,0,0,0-.2.48,2.74,2.74,0,0,0-.11.63,1.86,1.86,0,0,1,0,.22v.56a1.79,1.79,0,0,1,0,.21,1.43,1.43,0,0,0,.11.5.45.45,0,0,0,.2.24.41.41,0,0,0,.27,0,1,1,0,0,0,.29-.12,1.48,1.48,0,0,0,.29-.22,1.29,1.29,0,0,0,.27-.33,2.39,2.39,0,0,0,.2-.48,2.77,2.77,0,0,0,.1-.62,1.41,1.41,0,0,0,0-.22v-.56A1.28,1.28,0,0,0,188.39,154.13Z" style="fill:#455a64"></path><path d="M191.77,156.64a1.33,1.33,0,0,0,.3-.25,2,2,0,0,0,.29-.39,3.52,3.52,0,0,0,.21-.52,2,2,0,0,0,.08-.6v-.41q-.06.14-.15.3a2.25,2.25,0,0,1-.22.35,2.56,2.56,0,0,1-.71.64,1,1,0,0,1-.64.16.86.86,0,0,1-.5-.29,1.82,1.82,0,0,1-.32-.64,3.55,3.55,0,0,1-.13-.9c0-.11,0-.23,0-.38s0-.27,0-.39a5.58,5.58,0,0,1,.13-1,6.61,6.61,0,0,1,.32-1,4,4,0,0,1,.5-.85,2.08,2.08,0,0,1,.64-.59,1.45,1.45,0,0,1,.4-.17,1.1,1.1,0,0,1,.31,0,.63.63,0,0,1,.22.09l.15.12v-.25a.53.53,0,0,1,.06-.24.4.4,0,0,1,.13-.17l.55-.31a.09.09,0,0,1,.13,0,.23.23,0,0,1,.06.18v5.15a5.06,5.06,0,0,1-.48,2.29,3.41,3.41,0,0,1-1.33,1.45,1.74,1.74,0,0,1-.68.24.94.94,0,0,1-.54-.09.81.81,0,0,1-.36-.35,1.21,1.21,0,0,1-.15-.55.47.47,0,0,1,.05-.25.38.38,0,0,1,.14-.16l.49-.28a.14.14,0,0,1,.17,0l.12.12a.37.37,0,0,0,.25.17A1,1,0,0,0,191.77,156.64Zm-.86-3.78a3.21,3.21,0,0,0,0,.62c0,.46.12.75.28.86a.51.51,0,0,0,.6,0,1.54,1.54,0,0,0,.59-.66,2.52,2.52,0,0,0,.27-1.07c0-.11,0-.26,0-.42s0-.31,0-.41a1,1,0,0,0-.27-.75.51.51,0,0,0-.59,0,1.69,1.69,0,0,0-.6.66A2.94,2.94,0,0,0,190.91,152.86Z" style="fill:#455a64"></path><path d="M196.3,148.52a1.49,1.49,0,0,0-.62.65,2.59,2.59,0,0,0-.18,1.06v2.86a.53.53,0,0,1-.06.24.38.38,0,0,1-.14.16l-.54.32a.12.12,0,0,1-.14,0,.3.3,0,0,1-.05-.18V148.5a.79.79,0,0,1,.05-.25.38.38,0,0,1,.14-.16l.54-.32a.12.12,0,0,1,.14,0,.24.24,0,0,1,.06.18v.25a3.4,3.4,0,0,1,.39-.63,2,2,0,0,1,.56-.47l.32-.18a.09.09,0,0,1,.13,0,.22.22,0,0,1,.06.17v.73a.53.53,0,0,1-.06.24.4.4,0,0,1-.13.17Z" style="fill:#455a64"></path><path d="M197.31,149.47a6.41,6.41,0,0,1,.12-1.23,5.62,5.62,0,0,1,.35-1.14,4.1,4.1,0,0,1,.56-1,2.45,2.45,0,0,1,.72-.65,1.27,1.27,0,0,1,.73-.19.88.88,0,0,1,.55.29,1.61,1.61,0,0,1,.35.68,3.46,3.46,0,0,1,.13,1v.5a.53.53,0,0,1-.06.24.4.4,0,0,1-.13.17l-2.39,1.37a.94.94,0,0,0,.07.41.4.4,0,0,0,.18.22.45.45,0,0,0,.26,0,1,1,0,0,0,.31-.12,1.38,1.38,0,0,0,.37-.28,1.41,1.41,0,0,0,.24-.32.87.87,0,0,1,.13-.19.5.5,0,0,1,.13-.12l.57-.33a.12.12,0,0,1,.14,0,.24.24,0,0,1,.06.18,2.63,2.63,0,0,1-.11.46,4.19,4.19,0,0,1-.31.65,3.67,3.67,0,0,1-.52.69,2.58,2.58,0,0,1-.7.57,1.22,1.22,0,0,1-.72.21.83.83,0,0,1-.56-.29,1.89,1.89,0,0,1-.35-.74A4.69,4.69,0,0,1,197.31,149.47Zm1.75-2.66a1.14,1.14,0,0,0-.35.3,2,2,0,0,0-.25.39,1.56,1.56,0,0,0-.15.41,2.16,2.16,0,0,0-.07.39l1.61-.93a1.77,1.77,0,0,0,0-.32.59.59,0,0,0-.13-.25.34.34,0,0,0-.23-.11A.86.86,0,0,0,199.06,146.81Z" style="fill:#455a64"></path><path d="M203.62,147.05a.18.18,0,0,0-.23-.21l-.33.06-.53.13a1.19,1.19,0,0,1-.52,0,.56.56,0,0,1-.33-.2.94.94,0,0,1-.18-.39,3.42,3.42,0,0,1-.05-.59,3,3,0,0,1,.1-.7,4.2,4.2,0,0,1,.29-.74,3.72,3.72,0,0,1,.46-.66,2.61,2.61,0,0,1,.63-.52,2,2,0,0,1,.62-.24.89.89,0,0,1,.47,0,.63.63,0,0,1,.3.28,1.16,1.16,0,0,1,.12.46.43.43,0,0,1-.05.24.41.41,0,0,1-.14.17l-.55.31c-.07,0-.13.06-.16,0l-.12-.07a.29.29,0,0,0-.17,0,.75.75,0,0,0-.32.12,1.47,1.47,0,0,0-.38.32.68.68,0,0,0-.17.45.4.4,0,0,0,0,.18.18.18,0,0,0,.15.06,1.38,1.38,0,0,0,.31,0l.51-.12a.88.88,0,0,1,.9.13,1.47,1.47,0,0,1,.26,1,2.6,2.6,0,0,1-.11.7,3.15,3.15,0,0,1-.31.74,3.67,3.67,0,0,1-.5.69,2.85,2.85,0,0,1-.67.53,1.64,1.64,0,0,1-.67.25,1,1,0,0,1-.49-.07.72.72,0,0,1-.3-.32,1.06,1.06,0,0,1-.12-.47.61.61,0,0,1,.06-.25.32.32,0,0,1,.14-.16l.55-.32c.07,0,.12-.05.16,0l.12.11a.33.33,0,0,0,.19.07.75.75,0,0,0,.36-.14,1.43,1.43,0,0,0,.22-.15,1.29,1.29,0,0,0,.21-.19.87.87,0,0,0,.16-.23A.44.44,0,0,0,203.62,147.05Z" style="fill:#455a64"></path><path d="M207.33,144.91c0-.08,0-.14-.05-.17a.21.21,0,0,0-.17,0,1.29,1.29,0,0,0-.33.06l-.53.13a1.34,1.34,0,0,1-.52,0,.61.61,0,0,1-.34-.19.87.87,0,0,1-.17-.4,3.3,3.3,0,0,1-.05-.58,2.64,2.64,0,0,1,.1-.71,3.47,3.47,0,0,1,.29-.73,3.79,3.79,0,0,1,.46-.67,2.31,2.31,0,0,1,.62-.51,1.55,1.55,0,0,1,.63-.24.76.76,0,0,1,.46.05.58.58,0,0,1,.3.28,1,1,0,0,1,.13.45.53.53,0,0,1-.06.24.35.35,0,0,1-.14.17l-.55.32c-.07,0-.12.05-.16,0l-.12-.07a.29.29,0,0,0-.17,0,.81.81,0,0,0-.32.13,1.44,1.44,0,0,0-.38.32.63.63,0,0,0-.16.44.3.3,0,0,0,0,.18s.07.06.15.06a1.24,1.24,0,0,0,.3,0l.52-.13c.42-.11.72-.06.89.14a1.37,1.37,0,0,1,.26,1,2.64,2.64,0,0,1-.1.71,3.38,3.38,0,0,1-.32.74,3.21,3.21,0,0,1-.5.68,2.84,2.84,0,0,1-.66.54,1.93,1.93,0,0,1-.67.25.85.85,0,0,1-.49-.08.69.69,0,0,1-.31-.32,1,1,0,0,1-.11-.47.42.42,0,0,1,.05-.24.41.41,0,0,1,.14-.17l.55-.32c.07,0,.13,0,.16,0l.12.1a.29.29,0,0,0,.19.07.77.77,0,0,0,.37-.13l.22-.15a2,2,0,0,0,.21-.2,1.12,1.12,0,0,0,.16-.22A.53.53,0,0,0,207.33,144.91Z" style="fill:#455a64"></path><path d="M229.09,126.3c.06,0,.1,0,.14,0a.24.24,0,0,1,.06.18v.78a.53.53,0,0,1-.06.24.35.35,0,0,1-.14.17l-1.28.74v6a.53.53,0,0,1-.06.24.32.32,0,0,1-.14.16l-.58.34a.09.09,0,0,1-.13,0,.24.24,0,0,1-.06-.18v-6l-1.28.74c-.06,0-.1,0-.14,0a.24.24,0,0,1-.06-.18v-.78a.53.53,0,0,1,.06-.24.35.35,0,0,1,.14-.17Z" style="fill:#455a64"></path><path d="M229.11,131.13a6.42,6.42,0,0,1,.13-1.23,5.3,5.3,0,0,1,.35-1.15,4,4,0,0,1,.55-1,2.56,2.56,0,0,1,.72-.65,1.13,1.13,0,0,1,.73-.19.8.8,0,0,1,.55.28,1.66,1.66,0,0,1,.36.69,3.75,3.75,0,0,1,.12,1v.49a.69.69,0,0,1-.05.24.41.41,0,0,1-.14.17L230,131.21a1.06,1.06,0,0,0,.07.4.46.46,0,0,0,.18.22.41.41,0,0,0,.27,0,.73.73,0,0,0,.3-.11,1.46,1.46,0,0,0,.38-.29,1.72,1.72,0,0,0,.23-.32l.13-.19a.4.4,0,0,1,.14-.11l.57-.33a.11.11,0,0,1,.14,0,.18.18,0,0,1,.05.17,1.55,1.55,0,0,1-.11.46,3.81,3.81,0,0,1-.31.66,5.09,5.09,0,0,1-.51.69,3.07,3.07,0,0,1-.71.57,1.24,1.24,0,0,1-.72.2.77.77,0,0,1-.55-.29,1.65,1.65,0,0,1-.35-.74A4.56,4.56,0,0,1,229.11,131.13Zm1.75-2.66a1.43,1.43,0,0,0-.35.3,1.67,1.67,0,0,0-.25.38,3.52,3.52,0,0,0-.15.42,3.48,3.48,0,0,0-.07.38l1.62-.93a1.7,1.7,0,0,0-.06-.31.63.63,0,0,0-.12-.26.33.33,0,0,0-.24-.1A.68.68,0,0,0,230.86,128.47Z" style="fill:#455a64"></path><path d="M235.42,128.71c0-.08,0-.14,0-.17a.21.21,0,0,0-.17,0,1.16,1.16,0,0,0-.33.06l-.53.13a1.34,1.34,0,0,1-.52,0,.61.61,0,0,1-.34-.19.87.87,0,0,1-.17-.4,2.56,2.56,0,0,1-.05-.58,2.64,2.64,0,0,1,.1-.71,3,3,0,0,1,.29-.73,3.33,3.33,0,0,1,.46-.67,2.31,2.31,0,0,1,.62-.51,1.57,1.57,0,0,1,.62-.24.79.79,0,0,1,.47,0,.58.58,0,0,1,.3.28.94.94,0,0,1,.12.45.42.42,0,0,1-.05.24.41.41,0,0,1-.14.17l-.55.32c-.07,0-.12,0-.16,0l-.12-.07a.29.29,0,0,0-.17,0,.68.68,0,0,0-.32.13,1.61,1.61,0,0,0-.38.31.67.67,0,0,0-.16.45.3.3,0,0,0,0,.18s.07.06.15.06a.94.94,0,0,0,.3,0c.13,0,.3-.07.51-.12.43-.11.73-.06.9.14a1.42,1.42,0,0,1,.26.95,2.32,2.32,0,0,1-.11.71,3.33,3.33,0,0,1-.31.74,3.21,3.21,0,0,1-.5.68,2.94,2.94,0,0,1-.67.54,1.78,1.78,0,0,1-.66.24.84.84,0,0,1-.49-.07.69.69,0,0,1-.31-.32,1,1,0,0,1-.11-.47.42.42,0,0,1,.05-.24.41.41,0,0,1,.14-.17l.55-.32c.07,0,.12,0,.16,0l.12.1a.29.29,0,0,0,.19.07.82.82,0,0,0,.36-.13l.23-.15.21-.2a1.12,1.12,0,0,0,.16-.22A.53.53,0,0,0,235.42,128.71Z" style="fill:#455a64"></path><path d="M238.37,126.58a.75.75,0,0,0,.12.48c.07.09.22.07.43-.06l.44-.25a.12.12,0,0,1,.14,0,.3.3,0,0,1,.05.18v.73a.69.69,0,0,1-.05.24.38.38,0,0,1-.14.16l-.53.31c-.45.26-.79.29-1,.09s-.36-.63-.36-1.32v-2.37l-.47.27a.11.11,0,0,1-.14,0,.24.24,0,0,1-.06-.18v-.73a.53.53,0,0,1,.06-.24.32.32,0,0,1,.14-.16l.47-.28v-1.79a.53.53,0,0,1,.06-.24.34.34,0,0,1,.13-.17l.54-.31c.06,0,.1,0,.14,0a.21.21,0,0,1,.06.17v1.8l.92-.53a.09.09,0,0,1,.13,0,.24.24,0,0,1,.06.18v.73a.53.53,0,0,1-.06.24.31.31,0,0,1-.13.16l-.92.54Z" style="fill:#455a64"></path><path d="M241,119.3a.12.12,0,0,1,.14,0,.24.24,0,0,1,.06.18v.86a.53.53,0,0,1-.06.24.32.32,0,0,1-.14.16l-.61.36a.11.11,0,0,1-.14,0,.3.3,0,0,1-.05-.18v-.85a.7.7,0,0,1,.05-.25.38.38,0,0,1,.14-.16Zm.16,7.43a.53.53,0,0,1-.06.24.31.31,0,0,1-.13.16l-.55.32a.1.1,0,0,1-.13,0,.24.24,0,0,1-.06-.18v-5.12a.54.54,0,0,1,.06-.25.36.36,0,0,1,.13-.16l.55-.32a.1.1,0,0,1,.13,0,.24.24,0,0,1,.06.18Z" style="fill:#455a64"></path><path d="M245.65,124.14a.69.69,0,0,1-.05.24.35.35,0,0,1-.14.17l-.54.31a.1.1,0,0,1-.14,0,.21.21,0,0,1-.06-.17v-2.79a1.64,1.64,0,0,0-.2-1c-.13-.18-.33-.2-.61,0a1.56,1.56,0,0,0-.6.74,3.19,3.19,0,0,0-.22,1.19v2.79a.52.52,0,0,1-.05.24.41.41,0,0,1-.14.17l-.54.31a.11.11,0,0,1-.14,0s-.05-.09-.05-.17V121a.52.52,0,0,1,.05-.24.41.41,0,0,1,.14-.17l.54-.31a.11.11,0,0,1,.14,0s.05.09.05.17v.26a4,4,0,0,1,.44-.73,2.11,2.11,0,0,1,.59-.53,1.19,1.19,0,0,1,.73-.21.68.68,0,0,1,.48.29,1.81,1.81,0,0,1,.25.67,5.53,5.53,0,0,1,.07.94Z" style="fill:#455a64"></path><path d="M248.23,124.05a1.26,1.26,0,0,0,.3-.24,2,2,0,0,0,.29-.39,3.52,3.52,0,0,0,.21-.52,2,2,0,0,0,.08-.6v-.41q-.06.14-.15.3a2.25,2.25,0,0,1-.22.35,2.56,2.56,0,0,1-.71.64,1,1,0,0,1-.64.16.86.86,0,0,1-.5-.29,1.92,1.92,0,0,1-.32-.64,3.55,3.55,0,0,1-.13-.9c0-.11,0-.23,0-.38s0-.28,0-.39a5.58,5.58,0,0,1,.13-1,6.27,6.27,0,0,1,.32-1,4,4,0,0,1,.5-.86,2.05,2.05,0,0,1,.64-.58,1.45,1.45,0,0,1,.4-.17,1.1,1.1,0,0,1,.31,0,.49.49,0,0,1,.22.09l.15.12V117a.53.53,0,0,1,.06-.24.4.4,0,0,1,.13-.17l.55-.31a.09.09,0,0,1,.13,0,.21.21,0,0,1,.06.17v5.16a5.06,5.06,0,0,1-.48,2.29,3.33,3.33,0,0,1-1.33,1.44,1.63,1.63,0,0,1-.68.25.94.94,0,0,1-.54-.09.81.81,0,0,1-.36-.35,1.22,1.22,0,0,1-.15-.56.45.45,0,0,1,.05-.24.38.38,0,0,1,.14-.16l.48-.28a.15.15,0,0,1,.18,0l.12.12a.33.33,0,0,0,.25.16A.83.83,0,0,0,248.23,124.05Zm-.86-3.77a3.21,3.21,0,0,0,0,.62c0,.46.12.75.28.86a.51.51,0,0,0,.6,0,1.54,1.54,0,0,0,.59-.66,2.52,2.52,0,0,0,.27-1.07c0-.11,0-.26,0-.43s0-.3,0-.4a1,1,0,0,0-.27-.75.49.49,0,0,0-.59,0,1.69,1.69,0,0,0-.6.66A2.94,2.94,0,0,0,247.37,120.28Z" style="fill:#455a64"></path><path d="M279.75,97.1a2,2,0,0,1,.91-.32.84.84,0,0,1,.65.24,1.55,1.55,0,0,1,.41.72,5.23,5.23,0,0,1,.16,1.16c0,.53,0,1.07,0,1.63a8.31,8.31,0,0,1-.16,1.35,5.84,5.84,0,0,1-.4,1.18,4.14,4.14,0,0,1-.64,1,3.6,3.6,0,0,1-.9.74l-1.8,1a.1.1,0,0,1-.13,0,.24.24,0,0,1-.06-.18V98.52a.53.53,0,0,1,.06-.24.39.39,0,0,1,.13-.17Zm1.17,2.36a2.62,2.62,0,0,0-.09-.61.91.91,0,0,0-.22-.4.53.53,0,0,0-.37-.14,1.11,1.11,0,0,0-.53.18l-1,.55V104l1-.57a1.83,1.83,0,0,0,.5-.42,2,2,0,0,0,.36-.55,2.69,2.69,0,0,0,.22-.66,4.18,4.18,0,0,0,.09-.71Q281,100.26,280.92,99.46Z" style="fill:#455a64"></path><path d="M284.39,96.28a1.45,1.45,0,0,1,.71-.22.83.83,0,0,1,.55.2,1.28,1.28,0,0,1,.37.56,2.38,2.38,0,0,1,.16.85,1.78,1.78,0,0,1,0,.25v.61a1.85,1.85,0,0,1,0,.25,5.23,5.23,0,0,1-.16,1,4.61,4.61,0,0,1-.37,1,4.27,4.27,0,0,1-.55.83,2.87,2.87,0,0,1-.71.6,1.45,1.45,0,0,1-.71.22.83.83,0,0,1-.55-.2,1.19,1.19,0,0,1-.37-.55,2.92,2.92,0,0,1-.16-.85,1.63,1.63,0,0,1,0-.24c0-.1,0-.2,0-.3s0-.21,0-.31a2,2,0,0,1,0-.26,4.24,4.24,0,0,1,.16-1,4.61,4.61,0,0,1,.37-1,4.06,4.06,0,0,1,.55-.84A3.1,3.1,0,0,1,284.39,96.28Zm.87,2a1.49,1.49,0,0,0-.11-.51.54.54,0,0,0-.2-.24.41.41,0,0,0-.27,0l-.29.12a2,2,0,0,0-.29.22,1.35,1.35,0,0,0-.27.34,1.85,1.85,0,0,0-.2.47,2.31,2.31,0,0,0-.1.63,1.55,1.55,0,0,0,0,.23,2.35,2.35,0,0,0,0,.27,2.53,2.53,0,0,0,0,.28,1.22,1.22,0,0,0,0,.21,1.31,1.31,0,0,0,.1.51.54.54,0,0,0,.2.24.36.36,0,0,0,.27,0,1,1,0,0,0,.29-.12,1.42,1.42,0,0,0,.29-.21,1.35,1.35,0,0,0,.27-.34,1.85,1.85,0,0,0,.2-.47,2.74,2.74,0,0,0,.11-.63v-1Z" style="fill:#455a64"></path><path d="M290.49,98.29a.7.7,0,0,1-.05.25.38.38,0,0,1-.14.16l-.54.32a.12.12,0,0,1-.14,0,.24.24,0,0,1-.06-.18V96a1.6,1.6,0,0,0-.2-.94c-.13-.19-.33-.2-.61,0a1.47,1.47,0,0,0-.6.74,3.1,3.1,0,0,0-.22,1.18v2.79a.52.52,0,0,1-.05.24.41.41,0,0,1-.14.17l-.54.31a.11.11,0,0,1-.14,0s-.05-.09-.05-.17V95.18a.52.52,0,0,1,.05-.24.41.41,0,0,1,.14-.17l.54-.31a.11.11,0,0,1,.14,0,.24.24,0,0,1,.05.18v.25a4.88,4.88,0,0,1,.44-.73,2.12,2.12,0,0,1,.59-.53,1.32,1.32,0,0,1,.73-.21.69.69,0,0,1,.47.29,1.64,1.64,0,0,1,.26.68,5.37,5.37,0,0,1,.07.94Z" style="fill:#455a64"></path><path d="M291.26,95.29a6.41,6.41,0,0,1,.12-1.23,5.92,5.92,0,0,1,.35-1.15,4.22,4.22,0,0,1,.55-1,2.46,2.46,0,0,1,.73-.65,1.17,1.17,0,0,1,.72-.19.89.89,0,0,1,.56.28,1.72,1.72,0,0,1,.35.69,3.81,3.81,0,0,1,.12,1v.49a.53.53,0,0,1-.05.25.38.38,0,0,1-.14.16l-2.38,1.38a1.18,1.18,0,0,0,.06.41.52.52,0,0,0,.19.22.37.37,0,0,0,.26,0,.83.83,0,0,0,.31-.11,1.59,1.59,0,0,0,.37-.29,1.66,1.66,0,0,0,.23-.31l.13-.2a.53.53,0,0,1,.14-.11l.57-.33a.11.11,0,0,1,.14,0,.19.19,0,0,1,.05.18,1.7,1.7,0,0,1-.11.46,3.75,3.75,0,0,1-.31.65,5.09,5.09,0,0,1-.51.69,2.74,2.74,0,0,1-.7.57,1.28,1.28,0,0,1-.73.2.74.74,0,0,1-.55-.29,1.78,1.78,0,0,1-.35-.73A4.75,4.75,0,0,1,291.26,95.29ZM293,92.63a1.31,1.31,0,0,0-.36.3,1.87,1.87,0,0,0-.24.38,2.41,2.41,0,0,0-.16.42,3.1,3.1,0,0,0-.06.39l1.61-.94c0-.1,0-.21-.05-.31a.64.64,0,0,0-.13-.26.33.33,0,0,0-.24-.1A.63.63,0,0,0,293,92.63Z" style="fill:#455a64"></path><line x1="128.13" y1="179.94" x2="128.13" y2="344.47" style="fill:none;stroke:#455a64;stroke-linecap:round;stroke-miterlimit:10"></line><line x1="164.69" y1="158.84" x2="164.69" y2="323.36" style="fill:none;stroke:#455a64;stroke-linecap:round;stroke-miterlimit:10"></line><line x1="213.43" y1="130.69" x2="213.43" y2="295.22" style="fill:none;stroke:#455a64;stroke-linecap:round;stroke-miterlimit:10"></line><line x1="262.18" y1="102.55" x2="262.18" y2="267.08" style="fill:none;stroke:#455a64;stroke-linecap:round;stroke-miterlimit:10"></line><line x1="96.82" y1="216.78" x2="302.8" y2="97.86" style="fill:none;stroke:#455a64;stroke-linecap:round;stroke-miterlimit:10"></line><g id="freepik--Note--inject-2"><polygon points="218.66 220.6 218.66 246.05 239.75 233.88 239.75 208.43 218.66 220.6" style="opacity:0.1"></polygon><path d="M242.61,235l-15.15,8.74c-1.61-.78-5.48-2.44-6.5-4.42l-1.45-14.4,21.08-12.18Z" style="fill:#00DFC0"></path><path d="M242.61,235l-15.15,8.74c-1.61-.78-5.48-2.44-6.5-4.42l-1.45-14.4,21.08-12.18Z" style="fill:#fff;opacity:0.5"></path><path d="M221,239.33c.51,1.12,4.44,1.49,6.25.68,0,0-.6,2.69.25,3.74a7.68,7.68,0,0,1-4-1.51C221.1,240.67,221,239.33,221,239.33Z" style="fill:#00DFC0"></path><path d="M221,239.33c.51,1.12,4.44,1.49,6.25.68,0,0-.6,2.69.25,3.74a7.68,7.68,0,0,1-4-1.51C221.1,240.67,221,239.33,221,239.33Z" style="fill:#fff;opacity:0.5"></path><path d="M221,239.33c.51,1.12,4.44,1.49,6.25.68,0,0-.6,2.69.25,3.74a7.68,7.68,0,0,1-4-1.51C221.1,240.67,221,239.33,221,239.33Z" style="opacity:0.1"></path><polygon points="240.59 212.76 219.51 224.93 219.51 221.02 240.59 208.85 240.59 212.76" style="fill:#00DFC0"></polygon><polygon points="240.59 212.76 219.51 224.93 219.51 221.02 240.59 208.85 240.59 212.76" style="fill:#fff;opacity:0.5"></polygon><polygon points="240.59 212.76 219.51 224.93 219.51 221.02 240.59 208.85 240.59 212.76" style="opacity:0.1"></polygon></g><path d="M225.6,234.94l13-7.53c.48-.28.86-.08.86.43a1.85,1.85,0,0,1-.86,1.43l-13,7.53c-.48.27-.86.08-.86-.43A1.82,1.82,0,0,1,225.6,234.94Z" style="fill:#455a64"></path><path d="M225.6,230.65l7.7-4.45c.47-.27.86-.08.86.44a1.84,1.84,0,0,1-.86,1.42l-7.7,4.45c-.48.27-.86.08-.86-.44A1.82,1.82,0,0,1,225.6,230.65Z" style="fill:#455a64"></path><path d="M225.6,226.35l7.7-4.45c.47-.27.86-.08.86.43a1.86,1.86,0,0,1-.86,1.43l-7.7,4.45c-.48.27-.86.07-.86-.44A1.82,1.82,0,0,1,225.6,226.35Z" style="fill:#455a64"></path><g id="freepik--note--inject-2"><polygon points="273.48 125.13 273.48 150.58 294.56 138.41 294.56 112.96 273.48 125.13" style="opacity:0.1"></polygon><path d="M299.83,137s-1,1.74-4.71,3.86c-2.06,1.2-18.57,10.72-18.57,10.72l-2.22-22.12,21.08-12.17,1.18,12.8C296.78,132.18,297.08,135.22,299.83,137Z" style="fill:#00DFC0"></path><polygon points="295.41 117.29 274.33 129.46 274.32 125.56 295.41 113.38 295.41 117.29" style="fill:#00DFC0"></polygon><polygon points="295.41 117.29 274.33 129.46 274.32 125.56 295.41 113.38 295.41 117.29" style="opacity:0.1"></polygon></g><path d="M278.58,136l10.2-5.89c.47-.27.86-.08.86.44a1.84,1.84,0,0,1-.86,1.42l-10.2,5.89c-.47.28-.86.08-.86-.43A1.88,1.88,0,0,1,278.58,136Z" style="fill:#455a64"></path><path d="M278.58,131.43l10.2-5.9c.47-.27.86-.07.86.44a1.84,1.84,0,0,1-.86,1.42l-10.2,5.9c-.47.27-.86.07-.86-.44A1.84,1.84,0,0,1,278.58,131.43Z" style="fill:#455a64"></path><path d="M285.09,137.59l9-5.17c.47-.27.86-.08.86.44a1.84,1.84,0,0,1-.86,1.42l-9,5.17c-.48.27-.86.08-.86-.44A1.82,1.82,0,0,1,285.09,137.59Z" style="fill:#455a64"></path><g id="freepik--note--inject-2"><polygon points="266.6 219.96 266.6 245.41 287.68 233.24 287.68 207.79 266.6 219.96" style="opacity:0.1"></polygon><path d="M290.54,234.37l-15.14,8.74c-1.61-.78-5.48-2.44-6.5-4.42l-1.45-14.4,21.08-12.17Z" style="fill:#00DFC0"></path><path d="M290.54,234.37l-15.14,8.74c-1.61-.78-5.48-2.44-6.5-4.42l-1.45-14.4,21.08-12.17Z" style="opacity:0.2"></path><path d="M268.9,238.69c.51,1.13,4.44,1.5,6.25.68,0,0-.6,2.7.25,3.74a7.68,7.68,0,0,1-4-1.51C269,240,268.9,238.69,268.9,238.69Z" style="fill:#00DFC0"></path><path d="M268.9,238.69c.51,1.13,4.44,1.5,6.25.68,0,0-.6,2.7.25,3.74a7.68,7.68,0,0,1-4-1.51C269,240,268.9,238.69,268.9,238.69Z" style="opacity:0.4"></path><polygon points="288.53 212.12 267.45 224.29 267.45 220.38 288.53 208.21 288.53 212.12" style="fill:#00DFC0"></polygon><polygon points="288.53 212.12 267.45 224.29 267.45 220.38 288.53 208.21 288.53 212.12" style="opacity:0.4"></polygon></g><path d="M274.62,229.39,285.79,223c.47-.27.85-.08.85.43a1.85,1.85,0,0,1-.85,1.43l-11.17,6.44c-.47.28-.86.08-.86-.43A1.88,1.88,0,0,1,274.62,229.39Z" style="fill:#455a64"></path><path d="M272.79,235l7.7-4.45c.48-.27.86-.07.86.44a1.82,1.82,0,0,1-.86,1.42l-7.7,4.45c-.47.27-.85.08-.85-.43A1.83,1.83,0,0,1,272.79,235Z" style="fill:#455a64"></path><path d="M271.65,226.51l7.7-4.45c.47-.27.85-.08.85.44a1.83,1.83,0,0,1-.85,1.42l-7.7,4.45c-.48.27-.86.08-.86-.44A1.82,1.82,0,0,1,271.65,226.51Z" style="fill:#455a64"></path><g id="freepik--note--inject-2"><polygon points="233.2 199.39 233.2 224.84 254.28 212.67 254.28 187.22 233.2 199.39" style="opacity:0.1"></polygon><path d="M257.14,213.8l-20.87,12-2.22-22.12,21.08-12.18Z" style="fill:#00DFC0"></path><path d="M257.14,213.8l-20.87,12-2.22-22.12,21.08-12.18Z" style="opacity:0.2"></path><polygon points="255.13 191.54 234.04 203.72 234.04 199.81 255.13 187.64 255.13 191.54" style="fill:#00DFC0"></polygon><polygon points="255.13 191.54 234.04 203.72 234.04 199.81 255.13 187.64 255.13 191.54" style="opacity:0.4"></polygon></g><path d="M239.82,212.1,251,205.65c.47-.27.86-.07.86.44a1.84,1.84,0,0,1-.86,1.42L239.82,214c-.48.27-.86.08-.86-.44A1.82,1.82,0,0,1,239.82,212.1Z" style="fill:#455a64"></path><path d="M239.82,207.51,251,201.07c.47-.28.86-.08.86.43a1.88,1.88,0,0,1-.86,1.43l-11.16,6.44c-.48.27-.86.08-.86-.43A1.83,1.83,0,0,1,239.82,207.51Z" style="fill:#455a64"></path><g id="freepik--note--inject-2"><polygon points="234.02 161.39 234.02 186.84 255.1 174.67 255.1 149.22 234.02 161.39" style="opacity:0.1"></polygon><path d="M258,175.8l-20.86,12-2.23-22.12L256,153.54Z" style="fill:#00DFC0"></path><path d="M258,175.8l-20.86,12-2.23-22.12L256,153.54Z" style="opacity:0.2"></path><polygon points="255.95 153.55 234.87 165.72 234.87 161.81 255.95 149.64 255.95 153.55" style="fill:#00DFC0"></polygon><polygon points="255.95 153.55 234.87 165.72 234.87 161.81 255.95 149.64 255.95 153.55" style="opacity:0.4"></polygon></g><path d="M240.64,174.1l11.16-6.44c.48-.28.86-.08.86.43a1.82,1.82,0,0,1-.86,1.42L240.64,176c-.47.27-.86.08-.86-.43A1.85,1.85,0,0,1,240.64,174.1Z" style="fill:#455a64"></path><path d="M240.64,169.51l11.16-6.44c.48-.27.86-.08.86.43a1.83,1.83,0,0,1-.86,1.43l-11.16,6.44c-.47.28-.86.08-.86-.43A1.88,1.88,0,0,1,240.64,169.51Z" style="fill:#455a64"></path><g id="freepik--note--inject-2"><polygon points="168.96 230.54 168.96 255.99 190.04 243.81 190.04 218.36 168.96 230.54" style="opacity:0.1"></polygon><path d="M195.31,242.4s-1,1.74-4.71,3.86L172,257l-2.22-22.12,21.08-12.18,1.18,12.8C192.26,237.58,192.56,240.62,195.31,242.4Z" style="fill:#00DFC0"></path><path d="M195.31,242.4s-1,1.74-4.71,3.86L172,257l-2.22-22.12,21.08-12.18,1.18,12.8C192.26,237.58,192.56,240.62,195.31,242.4Z" style="opacity:0.2"></path><polygon points="190.89 222.69 169.81 234.86 169.8 230.96 190.89 218.78 190.89 222.69" style="fill:#00DFC0"></polygon><polygon points="190.89 222.69 169.81 234.86 169.8 230.96 190.89 218.78 190.89 222.69" style="opacity:0.4"></polygon></g><path d="M175.25,243.19l10.19-5.89c.48-.27.86-.08.86.43a1.83,1.83,0,0,1-.86,1.43l-10.19,5.89c-.48.27-.86.08-.86-.43A1.82,1.82,0,0,1,175.25,243.19Z" style="fill:#455a64"></path><path d="M175.25,247.19l10.19-5.89c.48-.27.86-.08.86.43a1.83,1.83,0,0,1-.86,1.43l-10.19,5.89c-.48.27-.86.08-.86-.43A1.82,1.82,0,0,1,175.25,247.19Z" style="fill:#455a64"></path><path d="M179.23,234l9-5.16c.47-.27.86-.08.86.43a1.85,1.85,0,0,1-.86,1.43l-9,5.16c-.48.28-.86.08-.86-.43A1.85,1.85,0,0,1,179.23,234Z" style="fill:#455a64"></path><g id="freepik--note--inject-2"><polygon points="150.3 208.21 150.3 233.66 171.38 221.48 171.38 196.03 150.3 208.21" style="opacity:0.1"></polygon><path d="M176.65,220.07s-1,1.74-4.71,3.87l-18.57,10.72-2.22-22.12,21.08-12.18,1.18,12.8C173.6,215.25,173.9,218.29,176.65,220.07Z" style="fill:#00DFC0"></path><path d="M176.65,220.07s-1,1.74-4.71,3.87l-18.57,10.72-2.22-22.12,21.08-12.18,1.18,12.8C173.6,215.25,173.9,218.29,176.65,220.07Z" style="fill:#fff;opacity:0.5"></path><polygon points="172.23 200.36 151.15 212.53 151.14 208.63 172.23 196.46 172.23 200.36" style="fill:#00DFC0"></polygon><polygon points="172.23 200.36 151.15 212.53 151.14 208.63 172.23 196.46 172.23 200.36" style="fill:#fff;opacity:0.5"></polygon><polygon points="172.23 200.36 151.15 212.53 151.14 208.63 172.23 196.46 172.23 200.36" style="opacity:0.1"></polygon></g><path d="M156.62,220.48l9.49-5.47c.47-.28.86-.08.86.43a1.84,1.84,0,0,1-.86,1.42l-9.49,5.48c-.47.27-.85.08-.85-.44A1.83,1.83,0,0,1,156.62,220.48Z" style="fill:#455a64"></path><path d="M159,214.53l9.68-5.58c.47-.27.85-.07.85.44a1.83,1.83,0,0,1-.85,1.42L159,216.39c-.47.27-.86.08-.86-.44A1.84,1.84,0,0,1,159,214.53Z" style="fill:#455a64"></path><g id="freepik--note--inject-2"><polygon points="98.97 324.94 98.97 350.39 120.05 338.21 120.05 312.76 98.97 324.94" style="opacity:0.1"></polygon><path d="M122.91,339.34l-15.14,8.74c-1.61-.78-5.49-2.44-6.5-4.41l-1.45-14.4,21.08-12.18Z" style="fill:#00DFC0"></path><path d="M101.27,343.67c.51,1.12,4.44,1.49,6.25.68,0,0-.6,2.69.25,3.73a7.57,7.57,0,0,1-4-1.51C101.41,345,101.27,343.67,101.27,343.67Z" style="fill:#00DFC0"></path><path d="M101.27,343.67c.51,1.12,4.44,1.49,6.25.68,0,0-.6,2.69.25,3.73a7.57,7.57,0,0,1-4-1.51C101.41,345,101.27,343.67,101.27,343.67Z" style="opacity:0.1"></path><polygon points="120.9 317.09 99.82 329.26 99.81 325.36 120.9 313.19 120.9 317.09" style="fill:#00DFC0"></polygon><polygon points="120.9 317.09 99.82 329.26 99.81 325.36 120.9 313.19 120.9 317.09" style="opacity:0.1"></polygon></g><path d="M105.78,332.59l11.16-6.45c.48-.27.86-.08.86.44a1.82,1.82,0,0,1-.86,1.42l-11.16,6.44c-.47.28-.86.08-.86-.43A1.84,1.84,0,0,1,105.78,332.59Z" style="fill:#455a64"></path><path d="M105.78,337.17l7.7-4.44c.47-.28.86-.08.86.43a1.88,1.88,0,0,1-.86,1.43l-7.7,4.44c-.47.28-.86.08-.86-.43A1.86,1.86,0,0,1,105.78,337.17Z" style="fill:#455a64"></path><g id="freepik--note--inject-2"><polygon points="185.16 237.42 185.16 262.87 206.24 250.7 206.24 225.25 185.16 237.42" style="opacity:0.1"></polygon><path d="M211.51,249.29s-1,1.74-4.71,3.86l-18.57,10.72L186,241.75l21.08-12.17,1.18,12.8C208.46,244.47,208.76,247.51,211.51,249.29Z" style="fill:#00DFC0"></path><polygon points="207.09 229.58 186.01 241.75 186 237.84 207.09 225.67 207.09 229.58" style="fill:#00DFC0"></polygon><polygon points="207.09 229.58 186.01 241.75 186 237.84 207.09 225.67 207.09 229.58" style="opacity:0.1"></polygon></g><path d="M190.26,248.3l10.2-5.89c.47-.27.86-.08.86.44a1.84,1.84,0,0,1-.86,1.42l-10.2,5.89c-.47.28-.86.08-.86-.43A1.86,1.86,0,0,1,190.26,248.3Z" style="fill:#455a64"></path><path d="M190.26,243.72l10.2-5.9c.47-.27.86-.08.86.44a1.84,1.84,0,0,1-.86,1.42l-10.2,5.89c-.47.28-.86.08-.86-.43A1.84,1.84,0,0,1,190.26,243.72Z" style="fill:#455a64"></path><path d="M196.77,249.88l9-5.17c.47-.27.86-.08.86.44a1.84,1.84,0,0,1-.86,1.42l-9,5.17c-.48.27-.86.08-.86-.44A1.82,1.82,0,0,1,196.77,249.88Z" style="fill:#455a64"></path><g id="freepik--note--inject-2"><polygon points="131.81 201.67 131.81 227.12 152.89 214.94 152.89 189.5 131.81 201.67" style="opacity:0.1"></polygon><path d="M155.75,216.08l-20.87,12L132.66,206l21.08-12.18Z" style="fill:#00DFC0"></path><polygon points="153.74 193.82 132.66 206 132.65 202.09 153.74 189.92 153.74 193.82" style="fill:#00DFC0"></polygon><polygon points="153.74 193.82 132.66 206 132.65 202.09 153.74 189.92 153.74 193.82" style="opacity:0.1"></polygon></g><path d="M138.7,212.08l11.16-6.44c.48-.27.86-.08.86.43a1.83,1.83,0,0,1-.86,1.43l-11.16,6.44c-.47.28-.86.08-.86-.43A1.88,1.88,0,0,1,138.7,212.08Z" style="fill:#455a64"></path><path d="M138.7,207.5l11.16-6.45c.48-.27.86-.08.86.44a1.82,1.82,0,0,1-.86,1.42l-11.16,6.45c-.47.27-.86.08-.86-.44A1.84,1.84,0,0,1,138.7,207.5Z" style="fill:#455a64"></path><path d="M138.7,216.67l7.7-4.45c.47-.27.86-.07.86.44a1.84,1.84,0,0,1-.86,1.42l-7.7,4.45c-.47.27-.86.08-.86-.43A1.85,1.85,0,0,1,138.7,216.67Z" style="fill:#455a64"></path><g id="freepik--note--inject-2"><polygon points="180.1 275.53 180.1 300.98 201.18 288.8 201.18 263.35 180.1 275.53" style="opacity:0.1"></polygon><path d="M204,289.93l-20.86,12L181,279.85,202,267.68Z" style="fill:#00DFC0"></path><path d="M204,289.93l-20.86,12L181,279.85,202,267.68Z" style="fill:#fff;opacity:0.5"></path><polygon points="202.03 267.68 180.95 279.85 180.95 275.95 202.03 263.77 202.03 267.68" style="fill:#00DFC0"></polygon><polygon points="202.03 267.68 180.95 279.85 180.95 275.95 202.03 263.77 202.03 267.68" style="fill:#fff;opacity:0.5"></polygon><polygon points="202.03 267.68 180.95 279.85 180.95 275.95 202.03 263.77 202.03 267.68" style="opacity:0.1"></polygon></g><path d="M186.91,290.53l11.17-6.45c.47-.27.85-.08.85.44a1.83,1.83,0,0,1-.85,1.42l-11.17,6.45c-.47.27-.85.08-.85-.44A1.83,1.83,0,0,1,186.91,290.53Z" style="fill:#455a64"></path><path d="M186.91,285.94l11.17-6.44c.47-.28.85-.08.85.43a1.87,1.87,0,0,1-.85,1.43l-11.17,6.44c-.47.27-.85.08-.85-.43A1.83,1.83,0,0,1,186.91,285.94Z" style="fill:#455a64"></path><path d="M188.27,280.66l7.7-4.45c.47-.27.86-.07.86.44a1.84,1.84,0,0,1-.86,1.42l-7.7,4.45c-.48.27-.86.08-.86-.43A1.82,1.82,0,0,1,188.27,280.66Z" style="fill:#455a64"></path><g id="freepik--note--inject-2"><polygon points="135.28 306.15 135.28 331.6 156.37 319.43 156.37 293.98 135.28 306.15" style="opacity:0.1"></polygon><path d="M159.23,320.56l-15.15,8.74c-1.61-.78-5.48-2.44-6.5-4.42l-1.45-14.4,21.09-12.17Z" style="fill:#00DFC0"></path><path d="M159.23,320.56l-15.15,8.74c-1.61-.78-5.48-2.44-6.5-4.42l-1.45-14.4,21.09-12.17Z" style="fill:#fff;opacity:0.5"></path><path d="M137.58,324.88c.52,1.13,4.44,1.5,6.25.69,0,0-.59,2.69.25,3.73a7.67,7.67,0,0,1-4-1.51C137.73,326.23,137.58,324.88,137.58,324.88Z" style="fill:#00DFC0"></path><path d="M137.58,324.88c.52,1.13,4.44,1.5,6.25.69,0,0-.59,2.69.25,3.73a7.67,7.67,0,0,1-4-1.51C137.73,326.23,137.58,324.88,137.58,324.88Z" style="fill:#fff;opacity:0.5"></path><path d="M137.58,324.88c.52,1.13,4.44,1.5,6.25.69,0,0-.59,2.69.25,3.73a7.67,7.67,0,0,1-4-1.51C137.73,326.23,137.58,324.88,137.58,324.88Z" style="opacity:0.1"></path><polygon points="157.22 298.31 136.13 310.48 136.13 306.57 157.22 294.4 157.22 298.31" style="fill:#00DFC0"></polygon><polygon points="157.22 298.31 136.13 310.48 136.13 306.57 157.22 294.4 157.22 298.31" style="fill:#fff;opacity:0.5"></polygon><polygon points="157.22 298.31 136.13 310.48 136.13 306.57 157.22 294.4 157.22 298.31" style="opacity:0.1"></polygon></g><path d="M142.22,320.49,155.27,313c.47-.27.85-.08.85.43a1.85,1.85,0,0,1-.85,1.43l-13.05,7.53c-.47.28-.86.08-.86-.43A1.88,1.88,0,0,1,142.22,320.49Z" style="fill:#455a64"></path><path d="M142.22,316.2l7.7-4.44c.47-.28.86-.08.86.43a1.88,1.88,0,0,1-.86,1.43l-7.7,4.44c-.47.28-.86.08-.86-.43A1.86,1.86,0,0,1,142.22,316.2Z" style="fill:#455a64"></path><path d="M142.22,311.9l7.7-4.45c.47-.27.86-.08.86.44a1.84,1.84,0,0,1-.86,1.42l-7.7,4.45c-.47.27-.86.08-.86-.44A1.84,1.84,0,0,1,142.22,311.9Z" style="fill:#455a64"></path><g id="freepik--note--inject-2"><polygon points="98.72 289.77 98.72 315.22 119.81 303.04 119.81 277.59 98.72 289.77" style="opacity:0.1"></polygon><path d="M122.67,304.17l-15.15,8.74c-1.61-.78-5.48-2.44-6.5-4.41l-1.45-14.4,21.08-12.18Z" style="fill:#00DFC0"></path><path d="M122.67,304.17l-15.15,8.74c-1.61-.78-5.48-2.44-6.5-4.41l-1.45-14.4,21.08-12.18Z" style="fill:#fff;opacity:0.5"></path><path d="M101,308.5c.52,1.12,4.44,1.49,6.25.68,0,0-.59,2.69.25,3.73a7.59,7.59,0,0,1-4-1.51C101.16,309.84,101,308.5,101,308.5Z" style="fill:#00DFC0"></path><path d="M101,308.5c.52,1.12,4.44,1.49,6.25.68,0,0-.59,2.69.25,3.73a7.59,7.59,0,0,1-4-1.51C101.16,309.84,101,308.5,101,308.5Z" style="fill:#fff;opacity:0.5"></path><path d="M101,308.5c.52,1.12,4.44,1.49,6.25.68,0,0-.59,2.69.25,3.73a7.59,7.59,0,0,1-4-1.51C101.16,309.84,101,308.5,101,308.5Z" style="opacity:0.1"></path><polygon points="120.66 281.92 99.57 294.09 99.57 290.19 120.66 278.01 120.66 281.92" style="fill:#00DFC0"></polygon><polygon points="120.66 281.92 99.57 294.09 99.57 290.19 120.66 278.01 120.66 281.92" style="fill:#fff;opacity:0.5"></polygon><polygon points="120.66 281.92 99.57 294.09 99.57 290.19 120.66 278.01 120.66 281.92" style="opacity:0.1"></polygon></g><path d="M105.66,304.11l13-7.54c.47-.27.85-.08.85.44a1.83,1.83,0,0,1-.85,1.42l-13,7.54c-.47.27-.86.07-.86-.44A1.84,1.84,0,0,1,105.66,304.11Z" style="fill:#455a64"></path><path d="M105.66,299.82l7.7-4.45c.47-.27.86-.08.86.43a1.86,1.86,0,0,1-.86,1.43l-7.7,4.44c-.47.28-.86.08-.86-.43A1.84,1.84,0,0,1,105.66,299.82Z" style="fill:#455a64"></path><path d="M105.66,295.51l7.7-4.44c.47-.28.86-.08.86.43a1.84,1.84,0,0,1-.86,1.42l-7.7,4.45c-.47.27-.86.08-.86-.43A1.86,1.86,0,0,1,105.66,295.51Z" style="fill:#455a64"></path><g id="freepik--note--inject-2"><polygon points="216.84 152.39 216.84 177.84 237.93 165.67 237.93 140.22 216.84 152.39" style="opacity:0.1"></polygon><path d="M243.2,164.25s-1,1.74-4.71,3.87l-18.57,10.72-2.23-22.12,21.09-12.18,1.18,12.8C240.14,159.43,240.45,162.47,243.2,164.25Z" style="fill:#00DFC0"></path><path d="M243.2,164.25s-1,1.74-4.71,3.87l-18.57,10.72-2.23-22.12,21.09-12.18,1.18,12.8C240.14,159.43,240.45,162.47,243.2,164.25Z" style="fill:#fff;opacity:0.5"></path><polygon points="238.78 144.54 217.69 156.72 217.69 152.81 238.78 140.64 238.78 144.54" style="fill:#00DFC0"></polygon><polygon points="238.78 144.54 217.69 156.72 217.69 152.81 238.78 140.64 238.78 144.54" style="fill:#fff;opacity:0.5"></polygon><polygon points="238.78 144.54 217.69 156.72 217.69 152.81 238.78 140.64 238.78 144.54" style="opacity:0.1"></polygon></g><path d="M223.17,164.66l9.49-5.47c.47-.28.85-.08.85.43a1.85,1.85,0,0,1-.85,1.43l-9.49,5.47c-.47.27-.86.08-.86-.44A1.84,1.84,0,0,1,223.17,164.66Z" style="fill:#455a64"></path><path d="M225.51,158.71l9.67-5.57c.48-.28.86-.08.86.43a1.85,1.85,0,0,1-.86,1.43l-9.67,5.57c-.47.27-.86.08-.86-.43A1.85,1.85,0,0,1,225.51,158.71Z" style="fill:#455a64"></path><g id="freepik--note--inject-2"><polygon points="98.72 226.59 98.72 252.04 119.81 239.87 119.81 214.42 98.72 226.59" style="opacity:0.1"></polygon><path d="M122.67,241l-15.15,8.74c-1.61-.78-5.48-2.44-6.5-4.42l-1.45-14.4,21.08-12.18Z" style="fill:#00DFC0"></path><path d="M122.67,241l-15.15,8.74c-1.61-.78-5.48-2.44-6.5-4.42l-1.45-14.4,21.08-12.18Z" style="opacity:0.2"></path><path d="M101,245.32c.52,1.12,4.44,1.49,6.25.68,0,0-.59,2.69.25,3.74a7.71,7.71,0,0,1-4-1.51C101.16,246.66,101,245.32,101,245.32Z" style="fill:#00DFC0"></path><path d="M101,245.32c.52,1.12,4.44,1.49,6.25.68,0,0-.59,2.69.25,3.74a7.71,7.71,0,0,1-4-1.51C101.16,246.66,101,245.32,101,245.32Z" style="opacity:0.4"></path><polygon points="120.66 218.75 99.57 230.92 99.57 227.01 120.66 214.84 120.66 218.75" style="fill:#00DFC0"></polygon><polygon points="120.66 218.75 99.57 230.92 99.57 227.01 120.66 214.84 120.66 218.75" style="opacity:0.4"></polygon></g><path d="M106.75,236l11.16-6.44c.47-.28.86-.08.86.43a1.88,1.88,0,0,1-.86,1.43l-11.16,6.44c-.48.27-.86.08-.86-.43A1.82,1.82,0,0,1,106.75,236Z" style="fill:#455a64"></path><path d="M104.92,241.61l7.7-4.45c.47-.27.86-.08.86.44a1.84,1.84,0,0,1-.86,1.42l-7.7,4.45c-.47.27-.86.08-.86-.44A1.84,1.84,0,0,1,104.92,241.61Z" style="fill:#455a64"></path><path d="M103.77,233.13l7.7-4.44c.48-.28.86-.08.86.43a1.83,1.83,0,0,1-.86,1.43l-7.7,4.44c-.47.28-.86.08-.86-.43A1.88,1.88,0,0,1,103.77,233.13Z" style="fill:#455a64"></path><g id="freepik--note--inject-2"><polygon points="178.03 179.69 178.03 205.14 199.12 192.96 199.12 167.51 178.03 179.69" style="opacity:0.1"></polygon><path d="M202,194.09c-2.06,1.2-20.86,12-20.86,12L178.88,184,200,171.84Z" style="fill:#00DFC0"></path><path d="M202,194.09c-2.06,1.2-20.86,12-20.86,12L178.88,184,200,171.84Z" style="opacity:0.2"></path><polygon points="199.96 171.84 178.88 184.01 178.88 180.11 199.96 167.94 199.96 171.84" style="fill:#00DFC0"></polygon><polygon points="199.96 171.84 178.88 184.01 178.88 180.11 199.96 167.94 199.96 171.84" style="opacity:0.4"></polygon></g><path d="M184.65,192.4,195.81,186c.48-.27.86-.08.86.44a1.82,1.82,0,0,1-.86,1.42l-11.16,6.44c-.47.28-.86.08-.86-.43A1.84,1.84,0,0,1,184.65,192.4Z" style="fill:#455a64"></path><path d="M184.65,187.81l11.16-6.45c.48-.27.86-.08.86.44a1.82,1.82,0,0,1-.86,1.42l-11.16,6.45c-.47.27-.86.08-.86-.44A1.84,1.84,0,0,1,184.65,187.81Z" style="fill:#455a64"></path><g id="freepik--note--inject-2"><polygon points="134.31 248.49 134.31 273.94 155.39 261.77 155.39 236.32 134.31 248.49" style="opacity:0.1"></polygon><path d="M160.66,260.35s-1,1.74-4.71,3.87l-18.57,10.72-2.22-22.12,21.08-12.18,1.18,12.8C157.61,255.53,157.91,258.57,160.66,260.35Z" style="fill:#00DFC0"></path><path d="M160.66,260.35s-1,1.74-4.71,3.87l-18.57,10.72-2.22-22.12,21.08-12.18,1.18,12.8C157.61,255.53,157.91,258.57,160.66,260.35Z" style="opacity:0.2"></path><polygon points="156.24 240.64 135.16 252.82 135.15 248.91 156.24 236.74 156.24 240.64" style="fill:#00DFC0"></polygon><polygon points="156.24 240.64 135.16 252.82 135.15 248.91 156.24 236.74 156.24 240.64" style="opacity:0.4"></polygon></g><path d="M140.6,261.14l10.2-5.89c.47-.27.85-.08.85.44a1.83,1.83,0,0,1-.85,1.42L140.6,263c-.48.28-.86.08-.86-.43A1.83,1.83,0,0,1,140.6,261.14Z" style="fill:#455a64"></path><path d="M140.6,265.14l10.2-5.89c.47-.27.85-.08.85.43a1.83,1.83,0,0,1-.85,1.43L140.6,267c-.48.28-.86.08-.86-.43A1.83,1.83,0,0,1,140.6,265.14Z" style="fill:#455a64"></path><path d="M144.58,251.94l9-5.17c.48-.27.86-.08.86.44a1.82,1.82,0,0,1-.86,1.42l-9,5.16c-.48.28-.86.08-.86-.43A1.82,1.82,0,0,1,144.58,251.94Z" style="fill:#455a64"></path><g id="freepik--note--inject-2"><polygon points="282.56 231.03 282.56 256.48 303.64 244.3 303.64 218.85 282.56 231.03" style="opacity:0.1"></polygon><path d="M306.5,245.43l-20.87,12.05-2.22-22.13,21.08-12.17Z" style="fill:#00DFC0"></path><path d="M306.5,245.43l-20.87,12.05-2.22-22.13,21.08-12.17Z" style="fill:#fff;opacity:0.5"></path><polygon points="304.49 223.18 283.41 235.35 283.4 231.45 304.49 219.27 304.49 223.18" style="fill:#00DFC0"></polygon><polygon points="304.49 223.18 283.41 235.35 283.4 231.45 304.49 219.27 304.49 223.18" style="fill:#fff;opacity:0.5"></polygon><polygon points="304.49 223.18 283.41 235.35 283.4 231.45 304.49 219.27 304.49 223.18" style="opacity:0.1"></polygon></g><path d="M289.37,246l11.16-6.45c.48-.27.86-.07.86.44a1.82,1.82,0,0,1-.86,1.42l-11.16,6.45c-.47.27-.86.08-.86-.44A1.84,1.84,0,0,1,289.37,246Z" style="fill:#455a64"></path><path d="M289.37,241.44,300.53,235c.48-.28.86-.08.86.43a1.85,1.85,0,0,1-.86,1.43l-11.16,6.44c-.47.27-.86.08-.86-.43A1.86,1.86,0,0,1,289.37,241.44Z" style="fill:#455a64"></path><path d="M290.73,236.16l7.7-4.44c.47-.28.85-.08.85.43a1.83,1.83,0,0,1-.85,1.42l-7.7,4.45c-.48.27-.86.08-.86-.43A1.83,1.83,0,0,1,290.73,236.16Z" style="fill:#455a64"></path><path d="M234.89,144.33a8,8,0,0,1,3.65-6.29,2.54,2.54,0,0,1,2.65-.22h0l1.68,1L242.2,140s0,.08,0,.13a8,8,0,0,1-3.65,6.29h0l-.76,1.33-1.9-1.1h0A2.57,2.57,0,0,1,234.89,144.33Z" style="fill:#f28f8f"></path><path d="M244,141.16a8,8,0,0,1-3.65,6.29c-2,1.17-3.66.24-3.66-2.07a8.07,8.07,0,0,1,3.65-6.3C242.36,137.92,244,138.85,244,141.16Z" style="fill:#ffa8a7"></path><path d="M287.06,228.4a8,8,0,0,1,3.66-6.29,2.54,2.54,0,0,1,2.65-.22h0l1.67,1-.67,1.17c0,.05,0,.09,0,.14a8,8,0,0,1-3.65,6.29h0L290,231.8l-1.9-1.1h0A2.57,2.57,0,0,1,287.06,228.4Z" style="fill:#f28f8f"></path><path d="M296.17,225.23a8,8,0,0,1-3.65,6.29c-2,1.17-3.65.24-3.65-2.08a8,8,0,0,1,3.65-6.29C294.53,222,296.17,222.92,296.17,225.23Z" style="fill:#ffa8a7"></path><path d="M196.48,266.39a8,8,0,0,1,3.65-6.29,2.56,2.56,0,0,1,2.66-.22h0l1.67,1-.67,1.17c0,.05,0,.09,0,.14a8,8,0,0,1-3.65,6.29h0l-.76,1.33-1.9-1.1h0A2.57,2.57,0,0,1,196.48,266.39Z" style="fill:#f28f8f"></path><path d="M205.59,263.22a8,8,0,0,1-3.65,6.29c-2,1.17-3.65.24-3.65-2.08a8,8,0,0,1,3.65-6.29C204,260,205.59,260.91,205.59,263.22Z" style="fill:#ffa8a7"></path><path d="M130,251.11a8.06,8.06,0,0,1,3.66-6.3,2.52,2.52,0,0,1,2.65-.21h0l1.67,1-.67,1.18s0,.08,0,.13a8,8,0,0,1-3.65,6.3h0l-.76,1.34-1.9-1.1h0A2.61,2.61,0,0,1,130,251.11Z" style="fill:#f28f8f"></path><path d="M139.07,247.93a8,8,0,0,1-3.65,6.3c-2,1.16-3.65.23-3.65-2.08a8,8,0,0,1,3.65-6.29C137.43,244.69,139.07,245.62,139.07,247.93Z" style="fill:#ffa8a7"></path><path d="M115.47,280.21a8,8,0,0,1,3.65-6.29,2.54,2.54,0,0,1,2.65-.22h0l1.67,1-.67,1.17c0,.05,0,.09,0,.14a8,8,0,0,1-3.65,6.29h0l-.76,1.33-1.9-1.1h0A2.59,2.59,0,0,1,115.47,280.21Z" style="fill:#f28f8f"></path><path d="M124.57,277a8,8,0,0,1-3.65,6.29c-2,1.17-3.65.24-3.65-2.08a8,8,0,0,1,3.65-6.29C122.94,273.8,124.57,274.73,124.57,277Z" style="fill:#ffa8a7"></path><path d="M229.87,206.89a10.33,10.33,0,0,1-4.64-4.25,14.88,14.88,0,0,1-1.62-6,20,20,0,0,1,2.83-11.76,18.89,18.89,0,0,1,2.05-2.81c.73-.83,1.63-1.54,2.31-2.39.21-.28-.18-.77-.49-.6a13.73,13.73,0,0,0-4.76,5,20.93,20.93,0,0,0-2.56,6c-1,4-1,8.85,1,12.57a9.45,9.45,0,0,0,5.81,4.86c.4.09.33-.49.08-.62Z" style="fill:#f28f8f"></path><path d="M225.81,181.68c-.24,0-.27,0-.1,0l.1,0a2.25,2.25,0,0,0,.42-.13l.67-.23c.47-.17.93-.34,1.39-.53.92-.37,1.82-.77,2.7-1.21l-.78-.57a13.23,13.23,0,0,0-1.3,2.93,14.94,14.94,0,0,0-.41,1.63,7.2,7.2,0,0,0-.17,1.79c0,.45.87.6,1,.11s.12-1.1.22-1.65a11.46,11.46,0,0,1,.37-1.51,13.26,13.26,0,0,1,1.26-2.89c.1-.17,0-.41-.19-.51a.59.59,0,0,0-.6-.06q-1.22.61-2.46,1.14c-.41.17-.82.34-1.23.49s-.87.29-1.28.47,0,.84.43.73Z" style="fill:#f28f8f"></path><path d="M272.32,164.55l10.2-5.89c.47-.28.85-.08.85.43a1.83,1.83,0,0,1-.85,1.42l-10.2,5.9c-.48.27-.86.08-.86-.44A1.82,1.82,0,0,1,272.32,164.55Z" style="fill:#f28f8f"></path><path d="M272.32,160l10.2-5.89c.47-.27.85-.08.85.43a1.85,1.85,0,0,1-.85,1.43l-10.2,5.89c-.48.27-.86.08-.86-.43A1.82,1.82,0,0,1,272.32,160Z" style="fill:#f28f8f"></path><path d="M278.82,166.12l9-5.16c.47-.28.86-.08.86.43a1.86,1.86,0,0,1-.86,1.43l-9,5.16c-.47.27-.85.08-.85-.43A1.85,1.85,0,0,1,278.82,166.12Z" style="fill:#f28f8f"></path><path d="M222,258.51l10.19-5.89c.48-.27.86-.08.86.43a1.82,1.82,0,0,1-.86,1.43L222,260.37c-.48.28-.86.08-.86-.43A1.83,1.83,0,0,1,222,258.51Z" style="fill:#f28f8f"></path><path d="M222,253.93l10.19-5.9c.48-.27.86-.08.86.44a1.82,1.82,0,0,1-.86,1.42L222,255.78c-.48.28-.86.08-.86-.43A1.82,1.82,0,0,1,222,253.93Z" style="fill:#f28f8f"></path><path d="M228.45,260.09l9-5.17c.48-.27.86-.08.86.44a1.82,1.82,0,0,1-.86,1.42l-9,5.17c-.47.27-.86.07-.86-.44A1.84,1.84,0,0,1,228.45,260.09Z" style="fill:#f28f8f"></path><path d="M168.89,285.68c-.11,1.73.11,3.51.15,5.24s.08,3.33.09,5,0,3.23,0,4.85-.19,3.38-.16,5.06a.59.59,0,0,0,.3.55l.23.11a.51.51,0,0,0,.58-.1c.52-.66.36-1.72.39-2.53s0-1.65.07-2.48c0-1.77.06-3.55.05-5.33s0-3.47-.11-5.2a34.63,34.63,0,0,0-.34-5.19c-.11-.56-1.16-.59-1.21,0Z" style="fill:#f28f8f"></path><path d="M170.7,311.87a1.34,1.34,0,0,0-.25-.54,3.78,3.78,0,0,0-.38-.43,1.63,1.63,0,0,0-.42-.31,1.21,1.21,0,0,0-1.08,0,.77.77,0,0,0-.41.42.83.83,0,0,0,0,.56,2.51,2.51,0,0,0,.46.85,1.24,1.24,0,0,0,.53.37,1,1,0,0,0,.71.05l.1-.05a.89.89,0,0,0,.63-.36A.74.74,0,0,0,170.7,311.87Z" style="fill:#f28f8f"></path></g></g></g><g id="freepik--notes--inject-2"><g id="freepik--sticky-notes--inject-2"><polygon points="306.88 284.75 324.68 274.47 341.8 284.36 324 294.64 306.88 284.75" style="fill:#00DFC0"></polygon><polygon points="306.88 284.75 324.68 274.47 341.8 284.36 324 294.64 306.88 284.75" style="opacity:0.4"></polygon><polygon points="306.88 284.75 304.82 283.57 322.63 273.29 324.68 274.47 306.88 284.75" style="fill:#00DFC0"></polygon><polygon points="306.88 284.75 304.82 283.57 322.63 273.29 324.68 274.47 306.88 284.75" style="opacity:0.4"></polygon><polygon points="304.82 283.57 304.82 288.04 324 299.11 324 294.64 304.82 283.57" style="fill:#00DFC0"></polygon><polygon points="304.82 283.57 304.82 288.04 324 299.11 324 294.64 304.82 283.57" style="opacity:0.5"></polygon><polygon points="324 294.64 341.8 284.36 341.8 288.83 324 299.11 324 294.64" style="fill:#00DFC0"></polygon><polygon points="324 294.64 341.8 284.36 341.8 288.83 324 299.11 324 294.64" style="opacity:0.2"></polygon><path d="M338.48,280.85h0l-13.8-6.38-17.8,10.28L324,292.66l15.4-8.89a3.14,3.14,0,0,0,1.8-2.67A3.12,3.12,0,0,1,338.48,280.85Z" style="fill:#00DFC0"></path><path d="M338.48,280.85h0l-13.8-6.38-17.8,10.28L324,292.66l15.4-8.89a3.14,3.14,0,0,0,1.8-2.67A3.12,3.12,0,0,1,338.48,280.85Z" style="opacity:0.2"></path></g><g id="freepik--sticky-notes--inject-2"><polygon points="279.48 300.84 297.29 290.56 314.41 300.44 296.6 310.72 279.48 300.84" style="fill:#00DFC0"></polygon><polygon points="279.48 300.84 297.29 290.56 314.41 300.44 296.6 310.72 279.48 300.84" style="opacity:0.1"></polygon><polygon points="279.48 300.84 277.43 299.65 295.23 289.37 297.29 290.56 279.48 300.84" style="fill:#00DFC0"></polygon><polygon points="279.48 300.84 277.43 299.65 295.23 289.37 297.29 290.56 279.48 300.84" style="opacity:0.1"></polygon><polygon points="277.43 299.65 277.43 304.13 296.6 315.2 296.6 310.72 277.43 299.65" style="fill:#00DFC0"></polygon><polygon points="277.43 299.65 277.43 304.13 296.6 315.2 296.6 310.72 277.43 299.65" style="opacity:0.30000000000000004"></polygon><polygon points="296.6 310.72 314.41 300.44 314.41 304.92 296.6 315.2 296.6 310.72" style="fill:#00DFC0"></polygon><path d="M311.09,296.93h0l-13.8-6.37-17.81,10.28,17.12,7.91,15.41-8.9a3.13,3.13,0,0,0,1.8-2.67A3.09,3.09,0,0,1,311.09,296.93Z" style="fill:#00DFC0"></path></g><g id="freepik--sticky-notes--inject-2"><polygon points="252.05 316.97 269.86 306.69 286.98 316.58 269.18 326.86 252.05 316.97" style="fill:#00DFC0"></polygon><polygon points="252.05 316.97 269.86 306.69 286.98 316.58 269.18 326.86 252.05 316.97" style="fill:#fff;opacity:0.5"></polygon><polygon points="252.05 316.97 269.86 306.69 286.98 316.58 269.18 326.86 252.05 316.97" style="opacity:0.1"></polygon><polygon points="252.05 316.97 250 315.79 267.81 305.51 269.86 306.69 252.05 316.97" style="fill:#00DFC0"></polygon><polygon points="252.05 316.97 250 315.79 267.81 305.51 269.86 306.69 252.05 316.97" style="fill:#fff;opacity:0.5"></polygon><polygon points="252.05 316.97 250 315.79 267.81 305.51 269.86 306.69 252.05 316.97" style="opacity:0.1"></polygon><polygon points="250 315.79 250 320.26 269.18 331.33 269.18 326.86 250 315.79" style="fill:#00DFC0"></polygon><polygon points="250 315.79 250 320.26 269.18 331.33 269.18 326.86 250 315.79" style="fill:#fff;opacity:0.5"></polygon><polygon points="250 315.79 250 320.26 269.18 331.33 269.18 326.86 250 315.79" style="opacity:0.2"></polygon><polygon points="269.18 326.86 286.98 316.58 286.98 321.05 269.18 331.33 269.18 326.86" style="fill:#00DFC0"></polygon><polygon points="269.18 326.86 286.98 316.58 286.98 321.05 269.18 331.33 269.18 326.86" style="fill:#fff;opacity:0.5"></polygon><path d="M283.66,313.07h0l-13.8-6.38L252.05,317l17.12,7.91,15.41-8.9a3.12,3.12,0,0,0,1.8-2.67A3.07,3.07,0,0,1,283.66,313.07Z" style="fill:#00DFC0"></path><path d="M283.66,313.07h0l-13.8-6.38L252.05,317l17.12,7.91,15.41-8.9a3.12,3.12,0,0,0,1.8-2.67A3.07,3.07,0,0,1,283.66,313.07Z" style="fill:#fff;opacity:0.5"></path></g></g><g id="freepik--character-2--inject-2"><g id="freepik--Character--inject-2"><polygon points="297.51 177.59 300.21 179.97 299.15 185.22 290.7 188.05 284.78 185.15 282.08 182.76 297.51 177.59" style="fill:#f28f8f"></polygon><polygon points="297.51 177.59 300.21 179.97 299.15 185.22 290.7 188.05 284.78 185.15 282.08 182.76 297.51 177.59" style="opacity:0.1"></polygon><polygon points="296.44 182.83 288 185.66 282.08 182.76 297.51 177.59 296.44 182.83" style="fill:#f28f8f"></polygon><polygon points="288 185.66 290.7 188.05 284.78 185.15 282.08 182.76 288 185.66" style="opacity:0.1"></polygon><path d="M323.56,184.74c-3.58,1.21-7.13.27-11.34-.44s-7.78.51-13.44,2.41h0a2.56,2.56,0,0,1-2.47-.76,8,8,0,0,1-2.3-6.87,2.54,2.54,0,0,1,1.51-2.09h0c5.66-1.9,9.3-3.13,12.18-6.18s5.2-6,8.78-7.19Z" style="fill:#263238"></path><path d="M323.56,184.74l.87-.29L415.17,154l7.87-2.63-.83-2.49-.67-2-1.35-4-.67-2-1.34-4-1.35-4-.82-2.49-2.54.85-96.26,32.26-.07,0-.46.16a.07.07,0,0,0-.06,0,5.31,5.31,0,0,0-2.81,3.71c-.08.24-.13.48-.19.73a13.86,13.86,0,0,0-.17,3.89,18.79,18.79,0,0,0,.9,4.19,16.13,16.13,0,0,0,4.3,6.9C320.36,184.49,322.09,185.05,323.56,184.74Z" style="fill:#263238"></path><path d="M313.45,171.89a18.79,18.79,0,0,0,.9,4.19l105.17-35.25-1.34-4-1.35-4-.82-2.49-2.54.85-96.26,32.26-.07,0-.46.16a.07.07,0,0,0-.06,0,5.31,5.31,0,0,0-2.81,3.71c-.08.24-.13.48-.19.73A13.86,13.86,0,0,0,313.45,171.89Z" style="fill:#37474f"></path><path d="M416.83,132.74l-103,34.53c-.08.24-.13.48-.19.73a13.86,13.86,0,0,0-.17,3.89l104.72-35.1Z" style="fill:#455a64"></path><path d="M412.7,134.8a17.42,17.42,0,0,0,5,14.95c3.76,3.33,7.63,2,8.63-2.89a17.46,17.46,0,0,0-5-15C417.57,128.58,413.7,129.88,412.7,134.8Z" style="fill:#e0e0e0"></path><path d="M417.57,150.48c-4.08-3.6-6.5-10.84-5.42-16.17.54-2.66,1.85-4.34,3.54-4.91l37.9-12.7,7.54,22.9-37.77,12.66C421.67,152.83,419.61,152.28,417.57,150.48Z" style="fill:#f28f8f"></path><path d="M412,138.86l37.82-12.68a14.93,14.93,0,0,1,.15-4.55l-37.83,12.68A14.63,14.63,0,0,0,412,138.86Z" style="fill:#fff;opacity:0.30000000000000004"></path><path d="M417.56,150.48c2.05,1.8,4.11,2.35,5.81,1.78l37.76-12.66h0c-1.67.54-3.71,0-5.72-1.8a16.26,16.26,0,0,1-3.86-5.44L413.71,145A16.28,16.28,0,0,0,417.56,150.48Z" style="opacity:0.1"></path><path d="M450,121.63c-1.08,5.33,1.35,12.57,5.42,16.17s8.26,2.2,9.34-3.13-1.35-12.57-5.42-16.17S451.07,116.3,450,121.63Z" style="fill:#f28f8f"></path><path d="M450,121.63c-1.08,5.33,1.35,12.57,5.42,16.17s8.26,2.2,9.34-3.13-1.35-12.57-5.42-16.17S451.07,116.3,450,121.63Z" style="opacity:0.15"></path><path d="M454.93,120.77A3.88,3.88,0,0,0,452.6,124a12.16,12.16,0,0,0,3.5,10.42,3.89,3.89,0,0,0,3.69,1.16,3.83,3.83,0,0,0,2.33-3.18,12.15,12.15,0,0,0-3.49-10.42A3.92,3.92,0,0,0,454.93,120.77Zm.73,2.22a2.71,2.71,0,0,1,2.58.8,8.52,8.52,0,0,1,2.45,7.3,2.35,2.35,0,0,1-4.22,1.42,8.49,8.49,0,0,1-2.43-7.3A2.67,2.67,0,0,1,455.66,123Z" style="opacity:0.2"></path><path d="M350.24,323.07c-.42-.05-.41,1.2-.28,1.75s1.79,2.4,4.83,3.13,7.3.29,9.12.27,4.92,1,6.72,1.29,5.08-.19,6.19-1.18a1.92,1.92,0,0,0,.49-1.49c0-1.2-.1-1.45-.24-1.44Z" style="fill:#37474f"></path><path d="M376.75,321.8l.12.72a11.84,11.84,0,0,1,.11,3.71,3.35,3.35,0,0,1-2.26,1.56,11.35,11.35,0,0,1-6.16-.14,18.21,18.21,0,0,0-4.66-.64,44.6,44.6,0,0,1-6.33.05,15.36,15.36,0,0,1-4.61-1.14,5.83,5.83,0,0,1-2.73-2.63,4.24,4.24,0,0,1,2.53-4.13,9.57,9.57,0,0,1,4.74-.81c1.77.08,3.1.36,4.67.31a7.69,7.69,0,0,0,3.15-.64,3,3,0,0,0,1-1.36c.27-.55.38-1,.89-1.07,0,0,7.42.13,8.17.22s.89,3.11,1,3.7.06.95.17,1.4C376.62,321.2,376.69,321.5,376.75,321.8Z" style="fill:#455a64"></path><path d="M360.82,318.3a1.12,1.12,0,0,0-.38-.15c-.72-.14-1.29.55-1.62,1.09a4.4,4.4,0,0,0-.41,1.06,2.48,2.48,0,0,0-.08,1.4c0,.12.12.26.23.23s.15-.16.16-.27a5.58,5.58,0,0,1,.61-1.86,2.13,2.13,0,0,1,.47-.68,2.21,2.21,0,0,1,.73-.42c.11,0,.59,0,.48-.23a.43.43,0,0,0-.09-.1Z" style="fill:#fafafa"></path><path d="M362.89,318.38a1.32,1.32,0,0,0-1,.23,2,2,0,0,0-.6.93,3,3,0,0,0-.14,2.41c.13.23.32.12.4-.08a3,3,0,0,0,.12-.74,6.61,6.61,0,0,1,.5-1.58,2.45,2.45,0,0,1,.32-.57,1,1,0,0,1,.33-.29.68.68,0,0,1,.2-.07.62.62,0,0,1,.19,0c0-.1-.1-.17-.2-.19Z" style="fill:#fafafa"></path><path d="M365,317.86a1.27,1.27,0,0,0-.62.39,1.62,1.62,0,0,0-.31.63,6.39,6.39,0,0,0-.34,1.56,1.93,1.93,0,0,0,.22,1.09c.08.13.22.26.36.21s.14-.3.16-.44,0-.51,0-.76a4.52,4.52,0,0,1,.95-2.56s.06-.08.05-.12-.11-.08-.18-.07A1.83,1.83,0,0,0,365,317.86Z" style="fill:#fafafa"></path><path d="M358.6,318.42c-.73,0-2.3.91-3.13,3.13a12.91,12.91,0,0,0-.5,5.06,7.19,7.19,0,0,1-4-2.05,4.32,4.32,0,0,1-1-1.32,4.45,4.45,0,0,1,.88-3.4c1.11-1.24,2.77-2,5.37-2.07,2.91,0,3.13.73,3.13.73Z" style="fill:#fafafa"></path><path d="M375.8,310.81s-.23,3.82-.52,5.58c-.17,1-1.15,2.53-4.24,2.47a3.56,3.56,0,0,1-3.63-2.39,63.16,63.16,0,0,1-.17-7Z" style="fill:#ffbda7"></path><path d="M428.16,301.45,423.56,290l-10,3.44s7,10.11,7.84,11.21C422.73,306.46,428.16,301.45,428.16,301.45Z" style="fill:#ffbda7"></path><path d="M432.73,304.62a5.88,5.88,0,0,1,0,1.39l-.36,4.8a11.78,11.78,0,0,1-.26,1.89A11.55,11.55,0,0,0,432,315c0,.79,0,1.59,0,2.39a4.35,4.35,0,0,0,0,1c.08.33-5.05,3.27-7.12,4.4-.12.07-.24.12-.37.18a3.27,3.27,0,0,1-3.36-.79,5.7,5.7,0,0,1,1.39-6.28s.26,0,.21-2c0-1.44,0-2.91-.15-4.34a9.12,9.12,0,0,0-.69-2.63,6.47,6.47,0,0,1-.88-2.44,3.7,3.7,0,0,1,.81-1.69,5.23,5.23,0,0,1,1.25-1.36,9.09,9.09,0,0,1,3.63-1.79,1.44,1.44,0,0,1,.82,0c.41.12.65.53.93.86a9.15,9.15,0,0,0,2.31,1.72,4.16,4.16,0,0,1,1.9,2.12C432.69,304.41,432.71,304.52,432.73,304.62Z" style="fill:#455a64"></path><path d="M422.52,315.9a7.64,7.64,0,0,0-.67,1h0a7.17,7.17,0,0,0-.72,5.31c-3.63-.33-4.58-2.42-4.58-2.42a3.49,3.49,0,0,1,1.88-3.12,5.43,5.43,0,0,1,.79-.41l0,0A5.24,5.24,0,0,1,422.52,315.9Z" style="fill:#fafafa"></path><path d="M433.73,305.15c1,.37.71,3,.11,5.5s-.93,3.4-.63,5.49.49,3-.37,3.8-7.65,3.95-7.65,3.95a25,25,0,0,0,1.52-7.87c.18-4.64.49-7.63,2.64-9.74A4.08,4.08,0,0,1,433.73,305.15Z" style="fill:#00DFC0"></path><path d="M433.73,305.15c1,.37.71,3,.11,5.5s-.93,3.4-.63,5.49.49,3-.37,3.8-7.65,3.95-7.65,3.95a25,25,0,0,0,1.52-7.87c.18-4.64.49-7.63,2.64-9.74A4.08,4.08,0,0,1,433.73,305.15Z" style="opacity:0.30000000000000004"></path><path d="M416.55,319.76a12.64,12.64,0,0,0,5.67,2.47c3,.35,3.18-.82,3.5-4.41s.44-8.56,1.86-10.75,3.79-3.16,4.73-2.93c.19-.1,1.12.59,1.42,1a5.19,5.19,0,0,0-4,1.59c-1.89,1.85-2.24,5.76-2.32,9.31s-.25,7.67-3.08,8.1a10.3,10.3,0,0,1-7.71-2.34A1.43,1.43,0,0,1,416.55,319.76Z" style="fill:#37474f"></path><path d="M422.74,314.58a1,1,0,0,0-.42.65,2,2,0,0,0,1,1.87c.39.22.71.13.1-.62A3.79,3.79,0,0,1,422.74,314.58Z" style="fill:#fafafa"></path><path d="M422.68,312.08a.88.88,0,0,0-.26.54,3.11,3.11,0,0,0,1.25,2c.66.29.3-.44,0-.78A12.89,12.89,0,0,1,422.68,312.08Z" style="fill:#fafafa"></path><path d="M422.51,309.32a.6.6,0,0,0-.31.45c0,.29,1.35,1.31,1.77,1.28s.53-.17,0-.53S422.51,309.32,422.51,309.32Z" style="fill:#fafafa"></path><path d="M416.75,298.67S394.82,266,394.16,263.39s-4.82-29.27-4.82-29.27l-8.58,31.46a52.6,52.6,0,0,1,.78,8.85,79.38,79.38,0,0,1-1.75,15.45c-2.29,10.81-3.59,21.17-3.59,21.17a8.72,8.72,0,0,1-4.69,1,9.73,9.73,0,0,1-4.59-1.31s-1.2-29.24-1.54-35.94-.55-9.7-.17-14.11c.5-6,.78-12.26,1.94-25.27,1-11.43,3.09-35.77,3.09-35.77l35.23-2.33s3,5.62,3.32,20.22c.27,11.4.26,42.69.26,42.69,5.23,3.28,6.83,6.68,9.32,13.1,1.57,4,5.63,16.6,6.82,20.32C420.78,294.89,416.75,298.67,416.75,298.67Z" style="fill:#455a64"></path><path d="M389.31,234.23l3-12.77s5.07.36,11.31-4.63c0,0-.72,4.46-9.52,6.54l-2.93,12.51.92,15.51S389.35,234.52,389.31,234.23Z" style="fill:#37474f"></path><polygon points="381.95 149.74 383.44 162.56 395.91 161.94 394.52 146.99 381.95 149.74" style="fill:#ffbda7"></polygon><path d="M402.14,153.63c3.88.1,7.22,1.85,8.09,6s-.58,15.2-1.41,21.3c-.79,5.76-1.05,7.39-4.23,7.92-2.41.4-12.35-1-12.35-1Z" style="fill:#ffbda7"></path><path d="M399.48,153.63c4.53-1.18,9.11,1.14,10.19,3s1.51,3.78,1,9.45-1.47,13.71-1.47,13.71-3.41,3.18-13.94-1Z" style="fill:#00DFC0"></path><path d="M407.84,160.12c-.62-3.46-5.17-7.09-9.42-6.4-1,.16-2.3.26-3.24.43.53,2-8.3,4.23-12.45,2.34-1.64.43-5.88,1.25-7.25,1.71-3.91,1.3-5.52,5.14-6.13,17.9,0,0,.31,28.87.16,34.62a47,47,0,0,0,25.41,3.09c11.71-2.29,13.23-7.09,13.23-7.09l-1.74-13.21S409.27,167.94,407.84,160.12Z" style="fill:#ebebeb"></path><path d="M375.48,158.2c-5.34.46-7.61,1.44-11.62,8.66-3.73,6.72-10.39,18.1-12.9,22.35a70.18,70.18,0,0,1-16.6-6.39,5.82,5.82,0,0,1-2-2.39c-1.12-2.45-1.74-2.37-3-4.43-1-1.59-1-2.74-1.5-2.69a2.14,2.14,0,0,0-1.62,2.41,10.73,10.73,0,0,0,.73,2.94,21.79,21.79,0,0,1-4.21-4.41c-2.89-3.93-5.1-4.64-6.71,1.37-1,3.77.54,7.39,8.13,12.38,2.19,1.43,8.41,5.23,11.4,6.66,9.25,4.42,11.89,6,16.79,6.35,3,.18,4.26-.89,6.52-3.45,5.09-5.74,14.56-19.78,14.56-19.78S381.44,167.17,375.48,158.2Z" style="fill:#ffbda7"></path><path d="M373.17,134.05s-3.12,4.59-2.76,5,2.64.86,2.64.86Z" style="fill:#f0997a"></path><path d="M374.62,137a3.6,3.6,0,1,1,3.71-3.6A3.67,3.67,0,0,1,374.62,137Zm0-6.4a2.8,2.8,0,1,0,2.89,2.8A2.85,2.85,0,0,0,374.62,130.6Z" style="fill:#263238"></path><path d="M381.81,121.37c-6.3,1.29-8.12,4-8.71,13.69-.62,10.15.44,13.34,1.82,14.71.93.92,6.08,1.08,8.68.39,3.25-.87,10.6-3.4,14-8.5,4.05-6,5.11-14.15.78-17.49C392.32,119.47,384.37,120.85,381.81,121.37Z" style="fill:#ffbda7"></path><path d="M382,150.44l-.29-1.87a12.75,12.75,0,0,1-6.46,1.43C376.48,150.57,379.62,150.74,382,150.44Z" style="fill:#f0997a"></path><polygon points="371.26 132.65 382.46 134.05 382.01 134.82 371.26 133.46 371.26 132.65" style="fill:#263238"></polygon><path d="M372.71,125.39a4.25,4.25,0,0,0,.48,2.71,4.55,4.55,0,0,0,4.22,2.16c-.29,0,.8,1.37.9,1.44a2.22,2.22,0,0,0,1.65.62c.23,1.36.12,2.79,1.68,3.43,0,0,1-3.75,4.25-3.28s3.72,4.53,1.66,7-4,1.53-4,1.52c.19.09.25,1.29.32,1.51a10.51,10.51,0,0,0,.84,2.05,9.78,9.78,0,0,0,2.94,3.36,8.78,8.78,0,0,0,3.58,1.63,7.62,7.62,0,0,0,3.49-.28,67.09,67.09,0,0,0,7.81-13,17.1,17.1,0,0,0,1.8-6.42c0-1.81,0-3.75-1.19-5.28a6.11,6.11,0,0,0-4.09-2.36,6.33,6.33,0,0,0-3.5-4.68,12.25,12.25,0,0,0-6-1.15c-2.07.05-4.11.4-6.17.6a68.12,68.12,0,0,1-12.77-.26.73.73,0,0,0-.44,0,.68.68,0,0,0-.25.44,5,5,0,0,0,3.61,6.3A4,4,0,0,0,372.71,125.39Z" style="fill:#263238"></path><path d="M381.57,137.89l.12-4.24a2.12,2.12,0,1,0-.12,4.24Z" style="fill:#263238"></path><path d="M376.2,158c-5.75-.12-9.16,2.11-13.19,8.7s-7.84,14.41-7.84,14.41,5.16,6.63,11.57,7.74L377,173.33S380.59,163.71,376.2,158Z" style="fill:#00DFC0"></path></g></g><g id="freepik--character-1--inject-2"><g id="freepik--character--inject-2"><path d="M175.69,392.8c-2.29,5.87-4.38,13.5-7.65,25-3.07,10.77-3.45,18.46-.06,21.27s13.57,1.69,20.62-11.61c2.2-4.15,10.37-16.93,10.37-16.93s5.67-1.74,7.66-3.15c0,0,18.56,1.44,27.67,0s19.25-12,15.61-13.24c-6.56-2.28-24.22-3.88-39.17-5.57Z" style="fill:#37474f"></path><path d="M225.55,404.64c-4.11.75-10.07-.8-13.42-1.95a9.08,9.08,0,0,0,.07-3.61,11.76,11.76,0,0,1-1.73,4.44l-1.41.68c-2.31,1-8.67,3.91-9.77,2.86a12.14,12.14,0,0,0-6.74-4.74c1.88,1.4,7.32,5.71,5.09,10.29l1.33-2.09s5.67-1.74,7.66-3.15c0,0,10.38.8,19.42.62l11.07-6.89S232,400.56,225.55,404.64Z" style="fill:#263238"></path><path d="M214.52,416.81a11.89,11.89,0,0,1-5,2.62,4.41,4.41,0,0,1-1.82-.08c-2.07-.54-5.41-.7-6.78,3.41-1.56,4.66-6.94,6.65-8.51,9.81-.78,1.59-1.37,6.25-.82,9.16.45,2.39,5.1.85,6.93-1.94s5.65-6.41,8.15-8.49a119.66,119.66,0,0,0,10.38-6.21Z" style="fill:#f28f8f"></path><path d="M243.24,392.23c11.94,1.38,12,7.77,8.82,12.43-3.48,5-15.63,11.43-22.18,14.79-6,3.09-16.32,8.6-16.32,8.6s-4.88-4.21-4-8.62c6.85-4.3,16.41-17,27.56-18.33Z" style="fill:#263238"></path><path d="M193.36,443.27a2.73,2.73,0,0,1-1.94-.56c-.52-.4-2.09-3.78-.91-7.78s4-6.44,5.37-7.76a9.94,9.94,0,0,0,2.49-4.87c.57-2,2.16-4.4,3.2-4.64a4.56,4.56,0,0,1,2.55.65Z" style="fill:#263238"></path><path d="M193.36,443.27c2.27.4,4.11-1,5.21-2.46s2.15-3,3.42-4.51,2.82-3.43,4.65-4.41,3.65-1,3.26-2a18.33,18.33,0,0,0-1.77-3.77c-.74-1-2.08-.15-2.51.14s.11-1.43,1.22-2.35,1-4.34,1.84-4.4l.88-.05a.84.84,0,0,0-.76-1.05c-1-.19-2.14.57-4.68-.07s-3.75,2.06-4.43,4.76-1.16,4-3,5.81-4.84,4.72-4.91,8.86S192.62,442.84,193.36,443.27Z" style="fill:#455a64"></path><path d="M204.17,433.88a1.86,1.86,0,0,0,1.3-1.23,5.45,5.45,0,0,0-.53-3.75.75.75,0,0,0-1.24-.17h0a.76.76,0,0,0-.09.86A5.78,5.78,0,0,1,204.17,433.88Z" style="fill:#f5f5f5"></path><path d="M202,436.3a2.14,2.14,0,0,0,1.28-1.52,6.75,6.75,0,0,0-.57-4.1.74.74,0,0,0-1.2-.16h0a.72.72,0,0,0-.08.83A5.77,5.77,0,0,1,202,436.3Z" style="fill:#f5f5f5"></path><path d="M199.91,439.05a2.41,2.41,0,0,0,1.2-1.6,6.42,6.42,0,0,0-.62-3.95.73.73,0,0,0-1.19-.16h0a.73.73,0,0,0-.09.83A5.47,5.47,0,0,1,199.91,439.05Z" style="fill:#f5f5f5"></path><path d="M209.89,418.35c2.14-.43,5.3-1,6.67-2.68s4.12-3.15,7.62-.6a15.74,15.74,0,0,0,7.61,2.56,27.06,27.06,0,0,1,3.61.34,13.3,13.3,0,0,1,3.91,2,6.51,6.51,0,0,1,1.91,1.82,4.08,4.08,0,0,1-.15,4.46,2.36,2.36,0,0,1-.59.59,2.57,2.57,0,0,1-1,.35,7,7,0,0,1-3.45-.61c-1-.32-1.95-.57-2.94-.8a49.11,49.11,0,0,0-6.81-1.13c-1-.09-3.16-.51-4.13-.67-4.35-.71-9.07,2.39-9.07,2.39Z" style="fill:#ffa8a7"></path><path d="M166.23,435.87c.47,4.16,5,6.37,15,4.87s34.41-15.25,34.41-15.25-.65-5.76-6-7.55c0,0-5,.65-13.15,2a104.88,104.88,0,0,0-10.91,2.46c-5.81,7.05-11.34,3.82-13.51,6.3C168.48,432.85,166.23,435.87,166.23,435.87Z" style="fill:#37474f"></path><path d="M241.87,426.57a2.71,2.71,0,0,0,1.26-1.58c.18-.63-1-4-4.26-6.54a17.35,17.35,0,0,0-8.43-3.48,10,10,0,0,1-4.87-2.51c-1.61-1.28-4.32-2.32-5.3-1.9a4.54,4.54,0,0,0-1.69,2Z" style="fill:#263238"></path><path d="M220.59,425.2c1,.85,2,.45,3.2.1,1.6-.48,3.75-.15,6,.38,1.5.36,2.88.82,4.34,1.29s3.18,1.44,4.52,1.62a3,3,0,0,0,3.29-3.71c-.57-1.77-3.05-5.35-7.19-7.36-2.26-1.09-6-.95-8.5-2.87-1.7-1.29-3.79-2.77-6-3-1.28-.17-1.79.52-2.48,1.47a35,35,0,0,1-3,3.58,7,7,0,0,0,3.11,2.13,3.21,3.21,0,0,1,1.17.54,2.62,2.62,0,0,1,.48.74c.18.36.36.82.12,1.15a3.82,3.82,0,0,1-.36.34c-.44.45-.23,1.18,0,1.75A5.41,5.41,0,0,0,220.4,425,1.57,1.57,0,0,0,220.59,425.2Z" style="fill:#455a64"></path><path d="M227.62,425.25a1.89,1.89,0,0,1-1.78-.25,5.43,5.43,0,0,1-1.75-3.35.75.75,0,0,1,.9-.86h0a.76.76,0,0,1,.58.65A5.74,5.74,0,0,0,227.62,425.25Z" style="fill:#f5f5f5"></path><path d="M230.8,426a2.15,2.15,0,0,1-1.92-.49,6.75,6.75,0,0,1-1.93-3.67.73.73,0,0,1,.87-.82h0a.71.71,0,0,1,.56.62A5.73,5.73,0,0,0,230.8,426Z" style="fill:#f5f5f5"></path><path d="M234.09,427a2.43,2.43,0,0,1-1.91-.61,6.43,6.43,0,0,1-1.8-3.56.74.74,0,0,1,.88-.83h0a.71.71,0,0,1,.55.62A5.51,5.51,0,0,0,234.09,427Z" style="fill:#f5f5f5"></path><path d="M192.58,420.71a36.69,36.69,0,0,0-11.85,4.07s5.37-5.71,13.29-6.4Z" style="fill:#263238"></path><path d="M179.18,411.08l0,.72a2,2,0,0,0,.93,1.82L199,425.77a2.18,2.18,0,0,0,1,.32,2.06,2.06,0,0,0,1-.22L237.77,407a2.05,2.05,0,0,0,1.11-1.72l0-.49-38.81,20Z" style="fill:#00DFC0"></path><g style="opacity:0.4"><path d="M179.18,411.08l0,.72a2,2,0,0,0,.93,1.82L199,425.77a2.18,2.18,0,0,0,1,.32,2.06,2.06,0,0,0,1-.22L237.77,407a2.05,2.05,0,0,0,1.11-1.72l0-.49-38.81,20Z"></path></g><g style="opacity:0.2"><path d="M200.09,424.73l-.07,1.36a2.06,2.06,0,0,0,1-.22L237.77,407a2.05,2.05,0,0,0,1.11-1.72l0-.49Z"></path></g><path d="M238.9,404.76,218.32,391.5a1.24,1.24,0,0,0-1.22-.05l-37.77,19.43a.27.27,0,0,0,0,.47l20.78,13.38Z" style="fill:#00DFC0"></path><g style="opacity:0.2"><path d="M238.9,404.76,218.32,391.5a1.24,1.24,0,0,0-1.22-.05l-37.77,19.43a.27.27,0,0,0,0,.47l20.78,13.38Z"></path></g><polygon points="199.98 422.92 188.87 415.78 223.21 398.11 234.38 405.23 199.98 422.92" style="fill:#455a64"></polygon><polygon points="195.25 404.32 195.46 404.45 200.9 407.96 211.13 402.69 211.35 402.58 205.7 398.95 195.25 404.32" style="fill:#37474f"></polygon><polygon points="195.46 404.45 200.9 407.96 211.13 402.69 205.69 399.19 195.46 404.45" style="fill:#455a64"></polygon><path d="M200.65,425.06a2.43,2.43,0,0,0,2.09-.06l36.56-18.81a2.45,2.45,0,0,0,1.26-1.63l5-23a2.76,2.76,0,0,0,.06-.4,2.39,2.39,0,0,0-.64-1.75l-38,19.55a1.79,1.79,0,0,0-.93,1.21Z" style="fill:#00DFC0"></path><g style="opacity:0.2"><path d="M200.65,425.06a2.43,2.43,0,0,0,2.09-.06l36.56-18.81a2.45,2.45,0,0,0,1.26-1.63l5-23a2.76,2.76,0,0,0,.06-.4,2.39,2.39,0,0,0-.64-1.75l-38,19.55a1.79,1.79,0,0,0-.93,1.21Z"></path></g><path d="M200.09,424.73l.23.15a2.11,2.11,0,0,0,.33.18l5.42-24.92a1.79,1.79,0,0,1,.93-1.21l38-19.55a2,2,0,0,0-.47-.4l-38.07,19.58a1.84,1.84,0,0,0-.93,1.21Z" style="fill:#00DFC0"></path><g style="opacity:0.4"><path d="M200.09,424.73l.23.15a2.11,2.11,0,0,0,.33.18l5.42-24.92a1.79,1.79,0,0,1,.93-1.21l38-19.55a2,2,0,0,0-.47-.4l-38.07,19.58a1.84,1.84,0,0,0-.93,1.21Z"></path></g><path d="M221.72,404.6a7.84,7.84,0,0,1,3.8-4.44c1.77-.91,2.93-.4,2.59,1.14a7.84,7.84,0,0,1-3.8,4.44C222.54,406.65,221.38,406.14,221.72,404.6Z" style="fill:#00DFC0"></path><path d="M244.91,361.69a5.63,5.63,0,0,1,3.81-1.57,13.82,13.82,0,0,0,2.2-.16,2.85,2.85,0,0,0,2.19-1.66c.08-.22.12-.46.2-.69s.39-.66.54-1a2.16,2.16,0,0,0,.07-1.6,1.37,1.37,0,0,1-.14-.62,1.22,1.22,0,0,1,.24-.5,2.25,2.25,0,0,0,0-2.31,3.5,3.5,0,0,1-.32-.56c-.14-.43.06-.9,0-1.35-.09-2-3.4-1.44-4.57-1.07-.33.11-2,.59-2.72.83a11,11,0,0,0-.32-3.3c-.47-2.11-2.58-2.94-2.71-1.67-.07.73.24,2.72-.48,4.46a16.81,16.81,0,0,0-1.29,2.78c-.35,1.13-.52,1.64-2.83,4.25-2.16,2.42-11.16,10.35-11.16,10.35s-9.77-15.27-12.29-19.43c-4.24-7-9.82-6-13.46-5.79l3.35,13.88s14.77,19.67,17.58,22.7,5,3,7.31.7C232.69,375.85,240.69,366.63,244.91,361.69Z" style="fill:#ffa8a7"></path><path d="M247.38,350.05c-.92.36-1.47,1.06-1.6,2.75a4.6,4.6,0,0,1-1.83,3.4,2.62,2.62,0,0,0,1.48-.48c.56-.48.71-.53,1-.2a1.87,1.87,0,0,0,.71.5,1.32,1.32,0,0,0-.26,1.54c.44.91,2.78,1.15,4.79.34,0,0-3.2.68-3.83-.38s1.13-2.14,2.39-2.36c0,0-3.07.43-3.44-.6s.95-1.65,2.76-1.94c0,0-2.53.22-2.88-.67A1.55,1.55,0,0,1,247.38,350.05Z" style="fill:#f28f8f"></path><path d="M189.61,341.44s-10.09,1.8-11.32,2.34c9.54,6.83-.88,20.06-.88,20.06l4.13,12.46a121.62,121.62,0,0,0-5.15,15.43c13.25,8.11,30.14,6.76,35.7-2.75A87.41,87.41,0,0,1,211,375.62c.06-2.41.65-5.91.8-9a11.08,11.08,0,0,0,2.31-12.4c-3.75-7.59-10.25-13.14-12.34-13.16Z" style="fill:#00DFC0"></path><g style="opacity:0.5"><path d="M189.61,341.44s-10.09,1.8-11.32,2.34c9.54,6.83-.88,20.06-.88,20.06l4.13,12.46a121.62,121.62,0,0,0-5.15,15.43c13.25,8.11,30.14,6.76,35.7-2.75A87.41,87.41,0,0,1,211,375.62c.06-2.41.65-5.91.8-9a11.08,11.08,0,0,0,2.31-12.4c-3.75-7.59-10.25-13.14-12.34-13.16Z" style="fill:#fff"></path></g><path d="M184.38,386.08c2.05-4.19,5.59-8.57,3-11.48s-5.56-12.56-4.78-15.71l-1.9-.65a29.14,29.14,0,0,1-3.28,5.6l4.13,12.46a121.62,121.62,0,0,0-5.15,15.43,36.15,36.15,0,0,0,15.88,5.21C187.14,395.08,182.37,390.19,184.38,386.08Z" style="opacity:0.05"></path><path d="M180.57,406.72c-2.06-1.44-12.36-11.2-17.08-16-5.59-5.64-5-6.15-3.92-9.12,2.39-6.62,8-21.12,10.07-27.18,2.47-7.06,4.82-10.14,9.37-10.91,3.43,2.75,6.12,9.26,2.1,20.63l-9.53,19.45s5.91,8.23,9.6,11.75,4.67,4.53,6.49,5.33c2.29,1,5.18,1.23,6,2a66.18,66.18,0,0,1,5.64,6.64c.78,1.31,2.63,4,0,4.78-2.44.75-4.41-.31-6.38-1.68a24.25,24.25,0,0,1-2.62-2.2,9.69,9.69,0,0,1-5.7-1.18C183.08,408.23,180.57,406.72,180.57,406.72Z" style="fill:#ffa8a7"></path><path d="M187.39,337.54c.83-.73-4.07-4.47-4.54-4.85a22.09,22.09,0,0,1-5.08-5A11,11,0,0,1,181,312.53a12.43,12.43,0,0,1,16.68-9.8,10.62,10.62,0,0,0,3.06.94,15.37,15.37,0,0,0,2.52-.32,6.93,6.93,0,0,1,7.06,9.85,4.13,4.13,0,0,1,2,3.66c-.25,1.69-1.88,2.09-2.08,2.93a.83.83,0,0,0,1.41.75,1.7,1.7,0,0,1-2,1.33c-1.83-.12-3.42-2.62-3.42-2.62Z" style="fill:#263238"></path><path d="M204.32,311.36c2.32,1.05,4.51,4.65,4.35,14.66-.13,8.49-2.75,10.6-4.08,11.22s-3.88.26-6.37-.15l-.05,4.88s5.92,6.67,1.85,9.41c-10.41-1.95-12.62-8.9-12.62-8.9l-.05-11.56s-1.45,1.49-3.95-.75c-2.06-1.85-2.78-5-1.19-6.69a4.46,4.46,0,0,1,.61-.53,3.66,3.66,0,0,1,3.19-.52,3.09,3.09,0,0,1,1.94,2.81.89.89,0,0,0,.38.73.69.69,0,0,0,.68,0,2.24,2.24,0,0,0,.54-.48,13.6,13.6,0,0,1,3.19-2.51c1.44-.73,2.88-1.45,4.27-2.3a18.42,18.42,0,0,0,5.18-4.49,12,12,0,0,0,1.42-2.42C203.7,313.53,204.5,311.45,204.32,311.36Z" style="fill:#ffa8a7"></path><path d="M204.4,323.09a1.13,1.13,0,1,0,1.18-1.12A1.15,1.15,0,0,0,204.4,323.09Z" style="fill:#263238"></path><path d="M195.41,323.48a1.21,1.21,0,1,0,1.27-1.2A1.24,1.24,0,0,0,195.41,323.48Z" style="fill:#263238"></path><path d="M196.67,330.29l4.28,1.38a2.2,2.2,0,0,1-2.77,1.62A2.46,2.46,0,0,1,196.67,330.29Z" style="fill:#b16668"></path><path d="M197.28,331.21a2.15,2.15,0,0,0-.67.12,2.39,2.39,0,0,0,1.57,2,2,2,0,0,0,1.26,0A2.17,2.17,0,0,0,197.28,331.21Z" style="fill:#f28f8f"></path><path d="M207.4,321l-2.88-1.19a1.49,1.49,0,0,1,2-.86A1.61,1.61,0,0,1,207.4,321Z" style="fill:#263238"></path><polygon points="200.62 322.4 201.44 329.3 204.53 327.85 200.62 322.4" style="fill:#f28f8f"></polygon><path d="M198.22,337.09c-2.62-.34-8-1.91-8.88-4.13a5.76,5.76,0,0,0,1.91,2.82c1.62,1.43,7,3,7,3Z" style="fill:#f28f8f"></path></g></g></svg>