<svg width="48" height="48" xmlns="http://www.w3.org/2000/svg">

 <g>
  <title>background</title>
  <rect fill="none" id="canvas_background" height="50" width="50" y="-1" x="-1"/>
 </g>
 <g>
  <title>Layer 1</title>
  <path stroke="null" id="svg_2" d="m769.89951,360.74288c-140.326,0 -254.10048,138.4565 -254.10048,309.22455c0,136.64464 72.79979,252.52835 173.77892,293.4082c12.70205,2.83133 17.33938,-6.71899 17.33938,-14.87238c0,-7.36099 -0.23276,-31.74504 -0.35683,-57.56408c-70.65929,18.68453 -85.59464,-36.46373 -85.59464,-36.46373c-11.56952,-35.70879 -28.21111,-45.22107 -28.21111,-45.22107c-23.09287,-19.17555 1.7519,-18.79808 1.7519,-18.79808c25.51229,2.15129 38.94388,31.85859 38.94388,31.85859c22.6745,47.25941 59.49276,33.59495 73.94721,25.66805c2.30973,-19.93049 8.88558,-33.59495 16.12943,-41.29537c-56.40634,-7.81335 -115.74377,-34.34989 -115.74377,-152.83846c0,-33.78399 9.91042,-61.3388 26.13265,-82.98693c-2.59014,-7.8514 -11.33725,-39.31379 2.51222,-81.87324c0,0 21.3097,-8.30437 69.88359,31.7076c20.25459,-6.88871 41.98316,-10.28595 63.58716,-10.39949c21.58861,0.11354 43.33207,3.54823 63.61842,10.43693c48.48158,-40.04941 69.82205,-31.70759 69.82205,-31.70759c13.89612,42.59749 5.14901,74.02183 2.54349,81.83579c16.28426,21.64813 26.11726,49.20354 26.11726,82.98693c0,118.79054 -59.43073,144.94901 -116.03856,152.61198c9.15059,9.58777 17.24608,28.38585 17.24608,57.22466c0,41.33342 -0.34145,74.66384 -0.34145,84.85556c0,8.22888 4.62145,17.8541 17.49422,14.83433c100.90221,-40.95535 173.63947,-156.83906 173.63947,-293.4082c0,-170.76805 -113.77449,-309.22455 -254.10049,-309.22455z"/>
  <path stroke="null" id="svg_1" d="m23.889588,0.000005c-13.192924,0 -23.889574,10.982941 -23.889574,24.528967c0,10.839216 6.844363,20.031591 16.338042,23.274349c1.194199,0.224593 1.630183,-0.532978 1.630183,-1.179738c0,-0.583904 -0.021883,-2.518148 -0.033548,-4.566221c-6.643121,1.482134 -8.047287,-2.892454 -8.047287,-2.892454c-1.087722,-2.832569 -2.652303,-3.587122 -2.652303,-3.587122c-2.171105,-1.521083 0.164707,-1.491141 0.164707,-1.491141c2.398569,0.170649 3.661357,2.527154 3.661357,2.527154c2.131771,3.748812 5.593287,2.66489 6.952239,2.036096c0.217152,-1.580969 0.835389,-2.66489 1.516428,-3.275719c-5.303112,-0.619788 -10.881794,-2.724775 -10.881794,-12.123777c0,-2.679885 0.93174,-4.865646 2.456893,-6.582866c-0.243515,-0.622806 -1.065886,-3.118532 0.236189,-6.494523c0,0 2.003458,-0.658737 6.570193,2.515177c1.90426,-0.54644 3.947099,-0.815924 5.978226,-0.82493c2.029681,0.009007 4.073919,0.28146 5.981165,0.827901c4.558056,-3.176885 6.564407,-2.515177 6.564407,-2.515177c1.306461,3.379009 0.48409,5.871717 0.239129,6.491553c1.530986,1.717219 2.455447,3.903028 2.455447,6.582866c0,9.422956 -5.587454,11.497953 -10.90951,12.105812c0.860305,0.760542 1.621412,2.251683 1.621412,4.539296c0,3.278737 -0.032102,5.922644 -0.032102,6.731094c0,0.652748 0.434492,1.41626 1.644741,1.17672c9.486447,-3.248747 16.324931,-12.441121 16.324931,-23.274349c0,-13.546026 -10.69665,-24.528967 -23.889574,-24.528967z"/>
  <path stroke="null" id="svg_3" d="m769.89951,359.16068c-140.326,0 -254.10048,138.4565 -254.10048,309.22454c0,136.64464 72.79979,252.52835 173.77892,293.4082c12.70205,2.83134 17.33938,-6.71899 17.33938,-14.87237c0,-7.361 -0.23276,-31.74504 -0.35683,-57.56408c-70.65929,18.68453 -85.59464,-36.46374 -85.59464,-36.46374c-11.56952,-35.70879 -28.21111,-45.22107 -28.21111,-45.22107c-23.09287,-19.17554 1.7519,-18.79807 1.7519,-18.79807c25.51229,2.15128 38.94388,31.85858 38.94388,31.85858c22.6745,47.25942 59.49276,33.59495 73.94721,25.66805c2.30973,-19.93048 8.88558,-33.59495 16.12943,-41.29536c-56.40634,-7.81336 -115.74377,-34.3499 -115.74377,-152.83847c0,-33.78399 9.91042,-61.33879 26.13265,-82.98693c-2.59014,-7.8514 -11.33725,-39.31379 2.51222,-81.87323c0,0 21.3097,-8.30437 69.88359,31.70759c20.25459,-6.8887 41.98316,-10.28594 63.58716,-10.39949c21.58861,0.11355 43.33207,3.54823 63.61842,10.43694c48.48158,-40.04941 69.82205,-31.7076 69.82205,-31.7076c13.89612,42.59749 5.14901,74.02183 2.54349,81.83579c16.28426,21.64814 26.11726,49.20355 26.11726,82.98693c0,118.79055 -59.43073,144.94901 -116.03856,152.61198c9.15059,9.58778 17.24608,28.38585 17.24608,57.22466c0,41.33342 -0.34145,74.66384 -0.34145,84.85557c0,8.22887 4.62145,17.85409 17.49422,14.83432c100.90221,-40.95534 173.63947,-156.83905 173.63947,-293.4082c0,-170.76804 -113.77449,-309.22454 -254.10049,-309.22454z"/>
  <path stroke="null" id="svg_4" d="m769.89951,357.57847c-140.326,0 -254.10048,138.4565 -254.10048,309.22455c0,136.64464 72.79979,252.52835 173.77892,293.40819c12.70205,2.83134 17.33938,-6.71899 17.33938,-14.87237c0,-7.36099 -0.23276,-31.74504 -0.35683,-57.56408c-70.65929,18.68453 -85.59464,-36.46373 -85.59464,-36.46373c-11.56952,-35.7088 -28.21111,-45.22107 -28.21111,-45.22107c-23.09287,-19.17555 1.7519,-18.79808 1.7519,-18.79808c25.51229,2.15129 38.94388,31.85858 38.94388,31.85858c22.6745,47.25942 59.49276,33.59496 73.94721,25.66806c2.30973,-19.93049 8.88558,-33.59495 16.12943,-41.29537c-56.40634,-7.81336 -115.74377,-34.3499 -115.74377,-152.83846c0,-33.78399 9.91042,-61.3388 26.13265,-82.98693c-2.59014,-7.85141 -11.33725,-39.3138 2.51222,-81.87324c0,0 21.3097,-8.30437 69.88359,31.7076c20.25459,-6.88871 41.98316,-10.28595 63.58716,-10.39949c21.58861,0.11354 43.33207,3.54823 63.61842,10.43693c48.48158,-40.04941 69.82205,-31.70759 69.82205,-31.70759c13.89612,42.59749 5.14901,74.02183 2.54349,81.83579c16.28426,21.64813 26.11726,49.20354 26.11726,82.98693c0,118.79054 -59.43073,144.94901 -116.03856,152.61198c9.15059,9.58777 17.24608,28.38584 17.24608,57.22466c0,41.33341 -0.34145,74.66383 -0.34145,84.85556c0,8.22888 4.62145,17.8541 17.49422,14.83432c100.90221,-40.95534 173.63947,-156.83905 173.63947,-293.40819c0,-170.76805 -113.77449,-309.22455 -254.10049,-309.22455z"/>
  <path stroke="null" id="svg_5" d="m769.89951,355.99626c-140.326,0 -254.10048,138.4565 -254.10048,309.22455c0,136.64464 72.79979,252.52835 173.77892,293.4082c12.70205,2.83134 17.33938,-6.71899 17.33938,-14.87237c0,-7.361 -0.23276,-31.74504 -0.35683,-57.56409c-70.65929,18.68454 -85.59464,-36.46373 -85.59464,-36.46373c-11.56952,-35.70879 -28.21111,-45.22107 -28.21111,-45.22107c-23.09287,-19.17555 1.7519,-18.79807 1.7519,-18.79807c25.51229,2.15128 38.94388,31.85858 38.94388,31.85858c22.6745,47.25941 59.49276,33.59495 73.94721,25.66805c2.30973,-19.93049 8.88558,-33.59495 16.12943,-41.29537c-56.40634,-7.81335 -115.74377,-34.34989 -115.74377,-152.83846c0,-33.78399 9.91042,-61.33879 26.13265,-82.98693c-2.59014,-7.8514 -11.33725,-39.31379 2.51222,-81.87324c0,0 21.3097,-8.30437 69.88359,31.7076c20.25459,-6.8887 41.98316,-10.28594 63.58716,-10.39949c21.58861,0.11355 43.33207,3.54823 63.61842,10.43693c48.48158,-40.04941 69.82205,-31.70759 69.82205,-31.70759c13.89612,42.59749 5.14901,74.02183 2.54349,81.83579c16.28426,21.64814 26.11726,49.20355 26.11726,82.98693c0,118.79055 -59.43073,144.94901 -116.03856,152.61198c9.15059,9.58777 17.24608,28.38585 17.24608,57.22466c0,41.33342 -0.34145,74.66384 -0.34145,84.85557c0,8.22887 4.62145,17.85409 17.49422,14.83432c100.90221,-40.95534 173.63947,-156.83905 173.63947,-293.4082c0,-170.76805 -113.77449,-309.22455 -254.10049,-309.22455z"/>
 </g>
</svg>