<svg width="48" height="48" xmlns="http://www.w3.org/2000/svg">

 <g>
  <title>background</title>
  <rect fill="none" id="canvas_background" height="50" width="50" y="-1" x="-1"/>
 </g>
 <g>
  <title>Layer 1</title>
  <ellipse ry="22" rx="22" id="svg_8" cy="24" cx="24" stroke-opacity="null" stroke-width="null" stroke="null" fill="#fffffe"/>
  <path fill="#d44638" stroke="null" id="svg_2" d="m24.023515,0.088701c-13.194112,0 -23.890777,10.712978 -23.890777,23.92961c0,13.216729 10.696665,23.931553 23.890777,23.931553c13.193142,0 23.889807,-10.714825 23.889807,-23.931553c0,-13.216632 -10.696665,-23.92961 -23.889807,-23.92961zm11.22202,34.778742l0,0.00068l-22.446853,0l-0.844448,0c-1.304606,0 -2.372197,-1.069315 -2.372197,-2.376245l0,-16.231959c0,-1.30693 1.067493,-2.376245 2.372197,-2.376245l0.009314,0.006997l-0.009314,-0.00758l24.207833,0c1.304606,0 2.3721,1.069218 2.3721,2.376051l0,0.688743l0.000679,-0.000486l-0.000679,0.00068l0.003881,15.54584c-0.056659,1.727931 -0.804088,2.344661 -3.292513,2.373524z"/>
  <polygon id="svg_4" points="40.858,18.1176 40.8587,18.117 40.8565,18.1187 "/>
  <polygon fill="#d44638" stroke="null" id="svg_1" points="25.051101684570312,26.995257675647736 34.96630096435547,33.47602778673172 34.96630096435547,20.57521563768387 30.580799102783203,23.414685547351837 "/>
  <path fill="#d44638" stroke="null" id="svg_3" d="m23.999399,27.555686c-0.1196,0 -0.2391,-0.033746 -0.3419,-0.100862l-0.1786,-0.116937l-10.1835,6.656266l21.4153,0l-10.1863,-6.657958c0,0 -0.4064,0.219491 -0.525,0.219491z"/>
  <polygon fill="#d44638" stroke="null" id="svg_5" points="34.69430160522461,14.821633636951447 13.376399993896484,14.821633636951447 24.00050163269043,22.226050674915314 "/>
  <polygon fill="#d44638" stroke="null" id="svg_6" points="22.94500160217285,26.988677322864532 13.039299011230469,20.57493144273758 13.033699035644531,33.48006755113602 22.95490074157715,26.995257675647736 "/>
 </g>
</svg>