<svg xmlns="http://www.w3.org/2000/svg" viewBox="0 0 500 500"><g id="freepik--background-complete--inject-2"><path d="M320.77,477.4c-17-9.53-22.66-29.8-23.87-48.4-.2-3.1-.87-6.33.33-9.19s4.46-5.06,7.36-4c2.4.85,3.67,3.42,5.17,5.51a18.29,18.29,0,0,0,7.95,6.21c2.07.82,4.57,1.21,6.41-.06,2.52-1.74,2.47-5.46,2.15-8.53q-.91-8.6-1.82-17.2c-.32-3.07-.65-6.22,0-9.23s2.51-5.94,5.36-7.05,6.63.21,7.55,3.17a28.27,28.27,0,0,1,.47,3.82c.21,1.27.95,2.62,2.2,2.86s2.41-.76,3.24-1.75c2.86-3.42,4.62-7.64,6.24-11.82s3.17-8.45,5.72-12.13,6.26-6.76,10.64-7.44,9.35,1.56,10.9,5.78-.55,8.88-3,12.67a69.31,69.31,0,0,1-12.95,15.05,5.7,5.7,0,0,0-2.14,2.81c-.47,2.12,1.68,4,3.77,4.44,2.37.53,4.84.05,7.27.09s5.13.85,6.26,3c1.58,3-.73,6.57-3.1,9a59.23,59.23,0,0,1-16.42,11.79c-2.18,1-4.49,2-6.16,3.78s-2.49,4.65-1.18,6.71,4.22,2.47,6.55,1.8,4.32-2.18,6.5-3.25c4.07-2,9.56-2.27,12.63,1.11a9.81,9.81,0,0,1,1.9,8.51,22.58,22.58,0,0,1-3.91,8.07,59.37,59.37,0,0,1-23.51,20.27c-9.47,4.38-18.47,6.2-28.58,3.61" style="fill:#ebebeb"></path><path d="M324.41,465.3a274.83,274.83,0,0,1,8-30.78q1.28-4,2.51-8c.83-2.61,1.66-5.2,2.62-7.68a138.51,138.51,0,0,1,6.34-13.95c2.23-4.34,4.51-8.38,6.66-12.13s4.25-7.22,6.28-10.3a110.7,110.7,0,0,1,10.67-13.78c1.38-1.52,2.49-2.67,3.26-3.43l.87-.87a2.09,2.09,0,0,1,.31-.28,1.47,1.47,0,0,1-.27.32l-.83.91c-.74.79-1.82,2-3.18,3.5a116.3,116.3,0,0,0-10.49,13.86c-2,3.08-4.07,6.54-6.21,10.31s-4.39,7.8-6.61,12.13a140.76,140.76,0,0,0-6.28,13.91c-1,2.47-1.77,5-2.6,7.66s-1.66,5.27-2.51,7.95a285.64,285.64,0,0,0-8,30.71" style="fill:#e0e0e0"></path><path d="M337.69,418.84a6,6,0,0,1-.43-1.28c-.25-.84-.57-2.06-.94-3.57-.73-3-1.61-7.23-2.57-11.87s-1.88-8.82-2.67-11.82c-.38-1.51-.71-2.72-.95-3.55a5.94,5.94,0,0,1-.3-1.32,5.44,5.44,0,0,1,.51,1.25c.31.81.69,2,1.13,3.51.89,3,1.89,7.17,2.84,11.82l2.41,11.89.75,3.6A5.88,5.88,0,0,1,337.69,418.84Z" style="fill:#e0e0e0"></path><path d="M376.52,407.51a8.52,8.52,0,0,1-1.56.35c-1,.19-2.46.46-4.25.85-3.59.75-8.5,2-13.87,3.54s-10.16,3.22-13.59,4.51c-1.72.63-3.1,1.17-4.06,1.55a8.84,8.84,0,0,1-1.5.53,7.82,7.82,0,0,1,1.42-.74c.93-.44,2.29-1,4-1.73,3.4-1.38,8.19-3.09,13.57-4.68a139,139,0,0,1,13.95-3.38c1.81-.34,3.28-.55,4.3-.67A8.53,8.53,0,0,1,376.52,407.51Z" style="fill:#e0e0e0"></path><path d="M324.82,464.52s-.13-.14-.32-.45l-.82-1.37c-.7-1.18-1.68-2.93-2.86-5.1-2.36-4.35-5.43-10.45-8.73-17.23s-6.3-12.9-8.57-17.29l-2.7-5.19-.72-1.41a2,2,0,0,1-.22-.51,2.49,2.49,0,0,1,.32.45l.81,1.37c.71,1.18,1.69,2.93,2.87,5.1,2.35,4.34,5.42,10.45,8.72,17.23s6.31,12.9,8.58,17.29c1.1,2.13,2,3.88,2.69,5.18l.73,1.42A2,2,0,0,1,324.82,464.52Z" style="fill:#e0e0e0"></path><path d="M375.72,442.35a2.5,2.5,0,0,1-.5.27l-1.48.66-5.45,2.39c-4.6,2-10.92,4.87-17.91,8s-13.33,6-18,7.88c-2.32,1-4.21,1.72-5.52,2.22l-1.52.56a1.71,1.71,0,0,1-.54.16,2.16,2.16,0,0,1,.5-.27l1.48-.66,5.44-2.38c4.61-2,10.93-4.87,17.91-8s13.34-6,18-7.88c2.32-1,4.21-1.72,5.53-2.21l1.51-.57A2.15,2.15,0,0,1,375.72,442.35Z" style="fill:#e0e0e0"></path><path d="M82.09,212h0l-18.46-3.35v0l-.5-11.3a46.24,46.24,0,0,1-10.25-6.6L42.35,195v0L31.65,179.52l0,0,7.64-8.33a45.91,45.91,0,0,1-2.58-11.92L26.3,154.81v0l3.35-18.46h0L41,135.83a45.76,45.76,0,0,1,6.6-10.25l-4.24-10.51h0l15.42-10.69h0L67.13,112a45.91,45.91,0,0,1,11.92-2.58L83.49,99h0L102,102.37v0l.49,11.3a46.3,46.3,0,0,1,10.26,6.6l10.51-4.23h0l10.69,15.43h0l-7.64,8.34a46.15,46.15,0,0,1,2.58,11.92l10.43,4.44v0l-3.34,18.46h0l-11.3.49a46.3,46.3,0,0,1-6.6,10.26L122.24,196h0L106.8,206.65l0,0L98.45,199a46.33,46.33,0,0,1-11.92,2.58Zm-18.43-3.4,18.4,3.34,4.43-10.42h0a46.39,46.39,0,0,0,11.94-2.58h0l8.33,7.64,15.37-10.65-4.23-10.5v0a45.76,45.76,0,0,0,6.61-10.26v0h0l11.3-.49,3.34-18.4-10.42-4.43v0a46.39,46.39,0,0,0-2.58-11.94h0v0l7.64-8.33-10.65-15.37-10.5,4.23h0a46,46,0,0,0-10.27-6.6h0v0l-.49-11.29-18.4-3.34L79.09,109.5h0a46,46,0,0,0-11.94,2.58h0l-8.33-7.64L43.4,115.09l4.24,10.5h0A45.7,45.7,0,0,0,41,135.87h0l-11.29.5-3.34,18.4,10.42,4.43v0a45.9,45.9,0,0,0,2.58,11.93v0h0l-7.64,8.33,10.65,15.37,10.5-4.23h0a46,46,0,0,0,10.27,6.61h0Zm19.87-33.44a20.34,20.34,0,0,1-3.63-.33A20.14,20.14,0,0,1,72,138.47l0,0,0,0a20.14,20.14,0,1,1,11.51,36.69Zm-.08-40.22a20.08,20.08,0,1,0,3.62.32A20.21,20.21,0,0,0,83.45,134.94Z" style="fill:#e0e0e0"></path><path d="M72,138.5A15.12,15.12,0,0,1,76.35,136a20,20,0,0,1,13.47-.48A20.23,20.23,0,0,1,98,140.38a20.7,20.7,0,0,1,5.48,9.38,20.63,20.63,0,0,1-.41,12,20.55,20.55,0,0,1-20.09,13.92,20.61,20.61,0,0,1-11.37-3.83,20.59,20.59,0,0,1-6.86-8.42A20.28,20.28,0,0,1,63,154.11a20,20,0,0,1,5.17-12.45A14.87,14.87,0,0,1,72,138.5,48.56,48.56,0,0,0,68.53,142a20,20,0,0,0-4.7,12.18A19.66,19.66,0,0,0,72.18,171,19.79,19.79,0,0,0,83,174.54a19.5,19.5,0,0,0,19-13.16A19.59,19.59,0,0,0,102.4,150a19.77,19.77,0,0,0-5.13-9,19.55,19.55,0,0,0-7.7-4.75,20,20,0,0,0-13.06.12A46.59,46.59,0,0,0,72,138.5Z" style="fill:#ebebeb"></path><path d="M67.13,112.06a4.86,4.86,0,0,1-.55-.45c-.4-.35-.93-.81-1.61-1.42l-6.32-5.65h.23L43.54,115.32l.1-.35,4.28,10.49.08.19-.14.15A46.09,46.09,0,0,0,41.34,136l-.1.21H41l-11.32.52.39-.34c-1,5.81-2.15,12-3.3,18.45l-.27-.49,10.43,4.41.27.11,0,.29A45.79,45.79,0,0,0,39.8,171l.11.29-.21.22-7.64,8.36,0-.64L42.8,194.62l-.64-.19,10.5-4.25.31-.12.25.21a45.28,45.28,0,0,0,10.16,6.53l.3.14,0,.34c.15,3.54.32,7.41.5,11.32l-.47-.53,18.45,3.33-.63.34L86,201.32l.14-.32.34,0a45.51,45.51,0,0,0,11.79-2.55h0l.33-.12.25.23,8.35,7.66-.72-.05,15.41-10.67-.2.68q-2.15-5.31-4.23-10.51l-.13-.31.22-.26a45.64,45.64,0,0,0,6.54-10.15l.14-.31h.34l11.32-.48-.52.45q1.72-9.45,3.37-18.44l.31.58-10.42-4.45-.29-.12,0-.31A45.26,45.26,0,0,0,125.77,140l-.1-.28.2-.22,7.67-8.34,0,.6-10.65-15.43.53.16-10.51,4.21-.23.09-.19-.16a46,46,0,0,0-10.17-6.59l-.21-.09v-.23c-.17-4.12-.31-7.82-.45-11.32l.28.32L83.46,99.3l.28-.15c-1.8,4.15-3.27,7.56-4.5,10.4l0,.1h-.11a48.15,48.15,0,0,0-9,1.55l-2.18.64a6.55,6.55,0,0,1-.72.21,4.48,4.48,0,0,1,.69-.3c.47-.17,1.19-.43,2.16-.73a44.86,44.86,0,0,1,9.07-1.74l-.15.11c1.19-2.85,2.62-6.28,4.37-10.45l.07-.19.21,0L102,102.06l.26,0,0,.28c.16,3.5.33,7.2.53,11.31l-.22-.32A46.52,46.52,0,0,1,113,120l-.42-.07,10.49-4.26.33-.13.2.29,10.71,15.38.22.32-.26.28-7.64,8.36.1-.51a46.37,46.37,0,0,1,2.63,12.08l-.31-.44,10.43,4.42.39.17-.08.42c-1.08,6-2.19,12.15-3.33,18.44l-.07.43-.44,0-11.32.5.48-.32a46.25,46.25,0,0,1-6.69,10.41l.1-.58q2.1,5.21,4.24,10.5l.17.42-.38.26-15.4,10.69-.38.26-.34-.31-8.35-7.66.59.12h0a47.09,47.09,0,0,1-12.08,2.61l.48-.35c-1.52,3.58-3,7.13-4.44,10.42l-.18.42-.45-.08-18.44-3.35-.44-.08,0-.45c-.17-3.91-.33-7.78-.49-11.32l.32.48a46.82,46.82,0,0,1-10.39-6.7l.56.09-10.51,4.22-.4.16-.24-.35L31.26,179.81l-.23-.34.28-.3L39,170.84l-.1.5a46.29,46.29,0,0,1-2.59-12.07l.29.4-10.42-4.46-.33-.14.06-.36c1.19-6.47,2.32-12.63,3.39-18.43l.06-.33h.33L41,135.48l-.33.22a46.27,46.27,0,0,1,6.7-10.34l-.06.35L43.1,115.19,43,115l.19-.13,15.47-10.59.13-.08.1.1L65,110l1.57,1.5A5.81,5.81,0,0,1,67.13,112.06Z" style="fill:#ebebeb"></path><path d="M116.29,44.77a24,24,0,0,1,5.46-3.42l.34-6,9.74-1.64,2.27,5.53a23.83,23.83,0,0,1,6.28,1.44l4.45-4,8,5.72L150.58,48A24,24,0,0,1,154,53.42l6,.34,1.65,9.74-5.53,2.27a23.74,23.74,0,0,1-1.44,6.28l4,4.45-5.73,8-5.5-2.3a23.86,23.86,0,0,1-5.47,3.42l-.33,6-9.74,1.64-2.27-5.53a23.74,23.74,0,0,1-6.28-1.44l-4.45,4-8.06-5.73,2.31-5.5a24,24,0,0,1-3.42-5.46l-6-.34-1.64-9.74,5.53-2.27A24.12,24.12,0,0,1,109,55l-4-4.45,5.73-8.05,5.51,2.3ZM123.46,57a10.6,10.6,0,1,0,14.78-2.49A10.6,10.6,0,0,0,123.46,57Z" style="fill:#e0e0e0"></path><path d="M123.46,57a7.86,7.86,0,0,1,1.7-2,10.56,10.56,0,0,1,6.59-2.65A10.77,10.77,0,0,1,141,57a10.83,10.83,0,0,1,2,6,10.82,10.82,0,0,1-7.47,10.5,10,10,0,0,1-3.22.54,10.33,10.33,0,0,1-3.11-.4,10.85,10.85,0,0,1-4.9-3,10.67,10.67,0,0,1-2.51-4.32,10.55,10.55,0,0,1,.34-7.09A8.23,8.23,0,0,1,123.46,57c.07,0-.53.78-1.12,2.34a10.59,10.59,0,0,0-.15,6.89,10.38,10.38,0,0,0,7.15,6.85,9.63,9.63,0,0,0,2.95.36,9.76,9.76,0,0,0,3-.52A10.29,10.29,0,0,0,142.39,63a9.7,9.7,0,0,0-.5-3.05,9.84,9.84,0,0,0-1.31-2.66,10.46,10.46,0,0,0-15.27-2.11C124,56.24,123.52,57.05,123.46,57Z" style="fill:#e0e0e0"></path><path d="M116.29,44.77l-.35-.13-1-.41-4.14-1.67.11,0-5.68,8.09v-.19l4,4.43.07.08,0,.1a24.37,24.37,0,0,0-1.41,6.24v.12l-.11,0-5.52,2.29.13-.24c.53,3.07,1.08,6.32,1.67,9.74l-.22-.2,6,.32h.15l.07.14a23.87,23.87,0,0,0,3.39,5.4l.1.12-.06.15L111,84.67l-.09-.33L119,90.06l-.35,0,4.45-4,.13-.12.16.06a24.13,24.13,0,0,0,6.2,1.42l.18,0,.07.16,2.27,5.53L131.8,93l9.74-1.64-.25.28c.1-1.88.22-3.92.33-6v-.19l.17-.07A24.21,24.21,0,0,0,147.19,82h0l.14-.12.17.07,5.51,2.3-.36.11q2.9-4.08,5.73-8l0,.37-4-4.45-.12-.13.06-.17a24.14,24.14,0,0,0,1.43-6.2l0-.18.16-.07,5.53-2.27-.18.32q-.84-5-1.63-9.75L160,54l-6-.34h-.17l-.07-.15a23.68,23.68,0,0,0-3.37-5.41l-.1-.12.06-.15,2.31-5.5.09.3-8-5.74.29,0-4.46,4-.1.09-.13-.05a24.49,24.49,0,0,0-6.22-1.45H134l0-.11-2.26-5.53.2.11-9.75,1.6.11-.13c-.15,2.38-.27,4.34-.37,6v.06l-.06,0a25.39,25.39,0,0,0-4.21,2.39l-1,.71-.33.23a2.83,2.83,0,0,1,.3-.27c.2-.18.51-.43.94-.75a23.1,23.1,0,0,1,4.18-2.49l0,.08c.08-1.63.17-3.58.29-6v-.11l.1,0,9.74-1.69.14,0,.06.13c.7,1.71,1.45,3.52,2.29,5.52l-.17-.12a24.21,24.21,0,0,1,6.34,1.43l-.23,0,4.45-4,.13-.12.16.11L153,42.25l.16.12-.07.18-2.3,5.51,0-.26a24.12,24.12,0,0,1,3.47,5.51l-.23-.16,6,.33h.22l0,.22q.81,4.76,1.65,9.74l0,.23-.21.09L156.19,66l.19-.24a24.54,24.54,0,0,1-1.46,6.36l-.06-.31,4,4.45.16.18-.14.2-5.73,8-.14.2-.22-.1-5.51-2.3.31,0h0A24.78,24.78,0,0,1,142.05,86l.18-.26c-.12,2-.23,4.08-.34,6v.24l-.24,0-9.74,1.64-.24,0-.09-.22c-.78-1.91-1.56-3.79-2.27-5.52l.25.18a24.37,24.37,0,0,1-6.35-1.47l.29,0-4.45,4-.17.16-.19-.14-8-5.73-.18-.13.08-.2,2.31-5.5,0,.26a24.66,24.66,0,0,1-3.44-5.52l.21.15-6-.35h-.19l0-.19c-.57-3.42-1.11-6.68-1.62-9.75l0-.17.16-.06,5.53-2.26-.12.17a24.48,24.48,0,0,1,1.47-6.32l0,.18-4-4.47-.08-.09.07-.1,5.77-8,0-.06.07,0,4.07,1.75,1,.46A2.46,2.46,0,0,1,116.29,44.77Z" style="fill:#e0e0e0"></path><path d="M431,129.73a24.37,24.37,0,0,1,5.46-3.42l.33-6,9.75-1.65,2.27,5.53a24.33,24.33,0,0,1,6.28,1.44l4.45-4,8.05,5.73-2.3,5.51a24.37,24.37,0,0,1,3.42,5.46l6,.33,1.64,9.75-5.52,2.27a24.16,24.16,0,0,1-1.44,6.27l4,4.46-5.73,8.05-5.51-2.3a24.73,24.73,0,0,1-5.46,3.42l-.33,6-9.75,1.64-2.27-5.52a24.75,24.75,0,0,1-6.28-1.44l-4.45,4-8.05-5.73,2.3-5.51a24.73,24.73,0,0,1-3.42-5.46l-6-.33-1.64-9.75,5.52-2.27a24.75,24.75,0,0,1,1.44-6.28l-4-4.45,5.73-8,5.51,2.3ZM438.16,142a10.6,10.6,0,1,0,14.78-2.49A10.6,10.6,0,0,0,438.16,142Z" style="fill:#e0e0e0"></path><path d="M438.16,142a8.13,8.13,0,0,1,1.69-2,10.74,10.74,0,0,1,11.5-1.69,10.87,10.87,0,0,1,4.39,3.67,10.79,10.79,0,0,1,1.94,6,10.8,10.8,0,0,1-7.47,10.49,10.67,10.67,0,0,1-6.32.14,10.88,10.88,0,0,1-4.91-3,10.73,10.73,0,0,1-2.5-4.31,10.51,10.51,0,0,1,.34-7.1,7.93,7.93,0,0,1,1.34-2.26,24.39,24.39,0,0,0-1.12,2.35,10.56,10.56,0,0,0-.15,6.88,10.4,10.4,0,0,0,2.46,4.09A10.27,10.27,0,0,0,444,158a9.89,9.89,0,0,0,2.94.37,10.08,10.08,0,0,0,3-.53,10.26,10.26,0,0,0,7.06-9.93,10.3,10.3,0,0,0-1.81-5.7,10.37,10.37,0,0,0-8.82-4.51,10.56,10.56,0,0,0-6.45,2.39C438.73,141.2,438.22,142,438.16,142Z" style="fill:#e0e0e0"></path><path d="M431,129.73a1.7,1.7,0,0,1-.35-.12l-1.05-.42-4.15-1.67.12,0-5.68,8.08v-.19l4,4.43.08.08,0,.1a24.14,24.14,0,0,0-1.41,6.24v.12l-.11.05-5.52,2.28.13-.23c.53,3.06,1.08,6.32,1.67,9.74l-.23-.2,6,.32h.15l.06.13a23.87,23.87,0,0,0,3.39,5.4l.11.12-.07.15-2.29,5.51-.09-.32,8.06,5.72-.35,0,4.44-4,.13-.11.17.06a24,24,0,0,0,6.2,1.41l.18,0,.07.17c.71,1.73,1.48,3.61,2.27,5.52l-.33-.18,9.75-1.65-.25.28c.1-1.88.21-3.91.33-6v-.19l.17-.07a24.11,24.11,0,0,0,5.38-3.37h0l.14-.11.17.07,5.51,2.3-.37.1,5.73-8.05,0,.38-4-4.46-.12-.13.06-.17a24.14,24.14,0,0,0,1.43-6.2v-.18l.17-.07,5.52-2.26-.17.31q-.84-5-1.63-9.74l.26.23-6-.34h-.16l-.07-.15a24,24,0,0,0-3.37-5.4L465,133l.06-.14,2.31-5.51.08.3c-2.82-2-5.49-3.93-8-5.74l.29,0-4.46,4-.1.09-.12,0a24.13,24.13,0,0,0-6.22-1.44h-.12l-.05-.11c-.81-2-1.55-3.83-2.25-5.54l.2.11-9.75,1.6.11-.13c-.15,2.39-.27,4.34-.37,6v.06l-.05,0a25.39,25.39,0,0,0-4.21,2.39l-1,.71a1.6,1.6,0,0,1-.32.23l.29-.27c.21-.17.51-.43.94-.75a23.87,23.87,0,0,1,4.19-2.49l-.06.09c.08-1.63.18-3.59.3-6v-.11l.11,0,9.74-1.68.14,0,.05.14,2.29,5.51-.16-.12a24.54,24.54,0,0,1,6.33,1.43l-.22.05,4.44-4,.14-.13.15.11,8.07,5.71.16.12-.08.19c-.74,1.79-1.5,3.62-2.29,5.51l0-.27a24.89,24.89,0,0,1,3.47,5.52l-.24-.16,6,.32h.22l0,.22q.81,4.76,1.65,9.75l0,.22-.22.09L470.89,151l.18-.25a24.43,24.43,0,0,1-1.45,6.36l-.06-.3c1.32,1.46,2.64,3,4,4.44l.16.18-.13.2-5.73,8.05-.14.2-.23-.09-5.5-2.3.31-.05h0a24.07,24.07,0,0,1-5.52,3.46l.17-.26c-.11,2-.22,4.08-.33,6v.24l-.24,0-9.75,1.64-.23,0-.09-.23L444,172.83l.25.18a24.86,24.86,0,0,1-6.36-1.46l.3-.06-4.46,4-.17.15-.18-.13-8-5.74-.18-.13.08-.2c.81-1.91,1.6-3.79,2.31-5.5l0,.27a24.72,24.72,0,0,1-3.44-5.53l.21.15-6-.35h-.19l0-.18c-.56-3.43-1.11-6.68-1.62-9.75l0-.17.16-.07,5.53-2.25-.13.16a24.07,24.07,0,0,1,1.48-6.32l0,.18-4-4.47-.09-.09.08-.1,5.77-8,.05-.06.07,0,4.07,1.75,1,.47A1.93,1.93,0,0,1,431,129.73Z" style="fill:#e0e0e0"></path><path d="M57.34,53.59a14.13,14.13,0,0,1,3.27-2.05l.2-3.57,5.83-1L68,50.29a14.65,14.65,0,0,1,3.76.87l2.66-2.39,4.82,3.43-1.38,3.3a14.57,14.57,0,0,1,2,3.27l3.57.2,1,5.83-3.3,1.36a14.56,14.56,0,0,1-.87,3.76l2.39,2.66L79.25,77.4,76,76a14.52,14.52,0,0,1-3.27,2l-.2,3.57-5.83,1-1.36-3.31a14.54,14.54,0,0,1-3.76-.86l-2.66,2.38-4.82-3.43,1.37-3.3a14.09,14.09,0,0,1-2-3.27l-3.57-.2-1-5.83,3.31-1.36A14.63,14.63,0,0,1,53,59.69L50.61,57,54,52.21l3.3,1.38Zm4.29,7.32a6.35,6.35,0,1,0,8.85-1.49A6.35,6.35,0,0,0,61.63,60.91Z" style="fill:#f5f5f5"></path><path d="M61.63,60.91a4.89,4.89,0,0,1,1-1.2,6.32,6.32,0,0,1,4-1.59,6.43,6.43,0,0,1,5.56,2.77,6.47,6.47,0,0,1,1.17,3.6,6.5,6.5,0,0,1-4.47,6.29,6.2,6.2,0,0,1-1.93.32,6.37,6.37,0,0,1-1.86-.24,6.57,6.57,0,0,1-2.94-1.77,6.46,6.46,0,0,1-1.5-2.58,6.28,6.28,0,0,1,.21-4.25,4.69,4.69,0,0,1,.8-1.35,15.11,15.11,0,0,0-.67,1.4,6.3,6.3,0,0,0-.09,4.12,6.11,6.11,0,0,0,1.47,2.45,6.29,6.29,0,0,0,2.81,1.66,6.32,6.32,0,0,0,3.58-.1A6.16,6.16,0,0,0,73,64.5a5.9,5.9,0,0,0-.3-1.83,5.74,5.74,0,0,0-.78-1.59A6.29,6.29,0,0,0,69.4,59a6.17,6.17,0,0,0-2.8-.59,6.38,6.38,0,0,0-3.87,1.44C62,60.46,61.66,60.94,61.63,60.91Z" style="fill:#f5f5f5"></path><path d="M57.34,53.59l-.21-.08-.63-.24-2.48-1,.07,0-3.4,4.84V57l2.39,2.65,0,.05,0,.06a14.86,14.86,0,0,0-.84,3.73v.07l-.06,0-3.31,1.37.08-.14q.48,2.76,1,5.83l-.13-.12,3.57.19h.09l0,.08a14.83,14.83,0,0,0,2,3.23l.07.08,0,.08c-.43,1-.9,2.15-1.37,3.3l-.06-.19L59,80.7h-.21l2.67-2.38.07-.07.1,0a14.88,14.88,0,0,0,3.72.84h.1l0,.1,1.36,3.31-.19-.11,5.83-1-.15.17c.06-1.12.13-2.34.2-3.57V78l.1,0a14.18,14.18,0,0,0,3.22-2h0l.09-.07.1,0,3.3,1.38-.22.06,3.43-4.82v.22L80.16,70,80.09,70l0-.1A14.64,14.64,0,0,0,81,66.14V66l.1,0,3.31-1.36-.11.19c-.33-2-.66-3.94-1-5.83l.16.14-3.57-.21h-.1l0-.09a14.26,14.26,0,0,0-2-3.24l-.06-.07,0-.09,1.38-3.3.05.19-4.81-3.44h.17l-2.67,2.37-.06.06-.07,0A14.69,14.69,0,0,0,68,50.41h-.08l0-.07L66.54,47l.12.06-5.84,1,.07-.08c-.09,1.43-.16,2.6-.22,3.57v0h0A15.2,15.2,0,0,0,58.11,53l-.58.42-.19.14a2.14,2.14,0,0,1,.17-.17c.12-.1.31-.25.57-.44a13,13,0,0,1,2.5-1.49l0,0c.05-1,.1-2.15.17-3.57V47.9h.06l5.83-1h.09l0,.08,1.37,3.3-.1-.07A14.29,14.29,0,0,1,71.8,51l-.13,0,2.66-2.39.08-.07.09.06,4.83,3.42.1.07-.05.11c-.44,1.07-.9,2.17-1.37,3.3l0-.16a14.51,14.51,0,0,1,2.08,3.3l-.14-.09,3.57.19h.13l0,.13q.48,2.85,1,5.83l0,.14-.13,0-3.31,1.36.11-.14a15,15,0,0,1-.87,3.8l0-.18,2.38,2.66.1.11-.09.12L79.4,77.51l-.09.12-.13-.06-3.3-1.38.19,0h0a14.53,14.53,0,0,1-3.3,2.07l.1-.16c-.07,1.23-.13,2.45-.2,3.57v.15l-.14,0-5.83,1-.14,0-.06-.14c-.46-1.14-.93-2.27-1.35-3.3l.14.1a14.57,14.57,0,0,1-3.8-.87l.18,0c-.93.82-1.84,1.63-2.67,2.38l-.1.09L58.77,81,54,77.54l-.1-.07,0-.12,1.38-3.3,0,.16a14.87,14.87,0,0,1-2.06-3.3l.13.08-3.57-.2h-.12v-.11c-.34-2-.67-4-1-5.84l0-.1.09,0,3.32-1.35-.08.1a14.63,14.63,0,0,1,.88-3.78l0,.1-2.37-2.67,0-.05,0-.06c1.4-2,2.57-3.57,3.45-4.8l0,0,0,0,2.44,1.05.62.27A1.14,1.14,0,0,1,57.34,53.59Z" style="fill:#f5f5f5"></path><path d="M441.39,193.09a14.57,14.57,0,0,1,3.27-2.05l.2-3.57,5.83-1,1.36,3.3a14.56,14.56,0,0,1,3.76.87l2.67-2.39,4.82,3.43-1.38,3.3a14.93,14.93,0,0,1,2.05,3.27l3.57.2,1,5.83-3.31,1.36a14.54,14.54,0,0,1-.86,3.76l2.38,2.66-3.43,4.82L460,215.53a14.52,14.52,0,0,1-3.27,2l-.2,3.57-5.84,1-1.35-3.31a14.45,14.45,0,0,1-3.76-.86l-2.67,2.38-4.82-3.43,1.38-3.3a14.48,14.48,0,0,1-2.05-3.27l-3.57-.2-1-5.83,3.31-1.36a14.23,14.23,0,0,1,.86-3.76l-2.38-2.66,3.43-4.82,3.29,1.38Zm4.3,7.32a6.35,6.35,0,1,0,8.84-1.49A6.34,6.34,0,0,0,445.69,200.41Z" style="fill:#ebebeb"></path><path d="M445.69,200.41a4.61,4.61,0,0,1,1-1.2,6.32,6.32,0,0,1,3.95-1.59,6.43,6.43,0,0,1,5.56,2.77,6.36,6.36,0,0,1,1.16,3.6,6.5,6.5,0,0,1-1.19,3.88,6.6,6.6,0,0,1-3.28,2.41,6.1,6.1,0,0,1-1.93.32,6.26,6.26,0,0,1-1.85-.24,6.52,6.52,0,0,1-2.94-1.77,6.41,6.41,0,0,1-1.3-6.83,4.83,4.83,0,0,1,.81-1.35,13.36,13.36,0,0,0-.68,1.4,6.31,6.31,0,0,0-.08,4.12,6,6,0,0,0,1.47,2.45,6.29,6.29,0,0,0,2.81,1.66,5.67,5.67,0,0,0,1.76.21,6.1,6.1,0,0,0,1.82-.31A6.16,6.16,0,0,0,457,204a6.21,6.21,0,0,0-.3-1.83,5.77,5.77,0,0,0-.79-1.59,6.21,6.21,0,0,0-5.27-2.7,6.32,6.32,0,0,0-3.87,1.44A13.65,13.65,0,0,0,445.69,200.41Z" style="fill:#f5f5f5"></path><path d="M441.39,193.09l-.21-.08-.63-.24-2.48-1,.07,0-3.4,4.84v-.11l2.39,2.65,0,0,0,.06a14.44,14.44,0,0,0-.84,3.73V203l-.07,0-3.3,1.37.08-.14q.47,2.76,1,5.83l-.13-.12,3.57.19h.09l0,.08a14.11,14.11,0,0,0,2,3.23l.06.07,0,.09c-.42,1-.89,2.15-1.37,3.3l-.05-.19L443,220.2h-.21l2.66-2.38.08-.07.1,0a14.48,14.48,0,0,0,3.71.85h.11l0,.1c.42,1,.89,2.17,1.36,3.31l-.2-.11,5.84-1-.15.17c.06-1.12.13-2.34.2-3.57v-.11l.1,0a14.46,14.46,0,0,0,3.23-2h0l.09-.07.1,0,3.29,1.38-.21.06c1.15-1.63,2.3-3.24,3.43-4.82v.22l-2.38-2.66-.07-.08,0-.1a14.25,14.25,0,0,0,.86-3.72v-.1l.1,0,3.3-1.36-.1.19c-.34-2-.66-3.94-1-5.83l.16.14-3.57-.21h-.1l0-.09a14.62,14.62,0,0,0-2-3.24l-.06-.07,0-.09,1.39-3.3,0,.19-4.81-3.44h.17l-2.67,2.37-.06.06-.07,0a14.76,14.76,0,0,0-3.73-.87H452l0-.07c-.49-1.2-.93-2.29-1.34-3.31l.11.06-5.83,1,.06-.08c-.09,1.43-.16,2.6-.22,3.57v0h0a15.62,15.62,0,0,0-2.52,1.43l-.58.43-.2.14.18-.17c.12-.1.3-.25.56-.44a13.54,13.54,0,0,1,2.51-1.49l0,0c0-1,.11-2.15.18-3.57v-.07h.07l5.83-1h.08l0,.08c.43,1,.88,2.1,1.37,3.3l-.1-.08a14.79,14.79,0,0,1,3.8.86l-.13,0,2.65-2.39.09-.07.09.06,4.82,3.42.1.07,0,.11c-.45,1.07-.9,2.17-1.38,3.3l0-.16a14.48,14.48,0,0,1,2.07,3.3l-.13-.09,3.57.19h.13l0,.13q.48,2.85,1,5.83l0,.14-.12.05-3.31,1.36.11-.14a15,15,0,0,1-.87,3.8l0-.18c.79.88,1.58,1.77,2.39,2.66l.09.11-.08.12L463.45,217l-.08.12-.14-.06-3.29-1.38.18,0h0a14.58,14.58,0,0,1-3.31,2.07l.11-.16c-.07,1.23-.14,2.45-.2,3.57v.15l-.14,0-5.84,1-.14,0,0-.14c-.47-1.14-.93-2.27-1.36-3.3l.15.1a14.57,14.57,0,0,1-3.8-.87l.17,0L443,220.47l-.11.09-.11-.08L438,217l-.11-.07.05-.12c.48-1.15,1-2.28,1.39-3.3l0,.16a14.51,14.51,0,0,1-2.06-3.3l.13.08-3.57-.2h-.12l0-.11q-.51-3.07-1-5.84v-.1l.09,0,3.31-1.35-.07.1a14.63,14.63,0,0,1,.88-3.78l0,.1-2.37-2.67-.05-.05,0-.06c1.41-2,2.57-3.58,3.46-4.8l0,0,0,0,2.43,1.05.63.27Z" style="fill:#f5f5f5"></path></g><g id="freepik--Plant--inject-2"><path d="M100.72,422.55a10,10,0,0,1,5.45,5.54,17.65,17.65,0,0,1,1.11,7.83c-.3,5.15-2.92,10.46-5.83,14.72-4.51-3.52-5.85-10-6.33-13.36-.75-5.28,1.09-15.28,5.6-14.73" style="fill:#00DFC0"></path><path d="M106.91,458.8a8.47,8.47,0,0,1,2.3-8.18,11.24,11.24,0,0,1,8.13-3,4.73,4.73,0,0,1,3.72,1.43,3.63,3.63,0,0,1,.26,3.66,7.4,7.4,0,0,1-2.57,2.82c-3.6,2.54-7.55,4.34-11.84,3.31" style="fill:#00DFC0"></path><path d="M102.25,474.77a5.22,5.22,0,0,1,.1-1.06c.09-.74.21-1.71.36-2.86a29.65,29.65,0,0,1,2.44-9.23,18.09,18.09,0,0,1,6.13-7.27,12.86,12.86,0,0,1,2.58-1.32c.32-.12.59-.18.76-.23a.85.85,0,0,1,.27-.06,20,20,0,0,0-3.47,1.83,18.75,18.75,0,0,0-5.94,7.21,32,32,0,0,0-2.51,9.11c-.19,1.2-.35,2.17-.48,2.84A6.38,6.38,0,0,1,102.25,474.77Z" style="fill:#263238"></path><path d="M100,430.29a3.17,3.17,0,0,1,.07.45q.06.51.15,1.32c.13,1.14.28,2.79.46,4.83.36,4.09.77,9.75,1.09,16s.46,11.92.52,16c0,2.05,0,3.71,0,4.85,0,.55,0,1,0,1.33a2.77,2.77,0,0,1,0,.46,2.43,2.43,0,0,1-.05-.46l0-1.32c0-1.2-.08-2.84-.14-4.86-.13-4.1-.32-9.76-.64-16s-.68-11.9-1-16c-.14-2-.26-3.65-.34-4.84,0-.54-.06-1-.08-1.32A1.35,1.35,0,0,1,100,430.29Z" style="fill:#263238"></path><path d="M99.64,462.32a19.8,19.8,0,0,0-11.58-13.89c-1.48-.61-3.38-1-4.51.17s-.75,3-.09,4.5a16.92,16.92,0,0,0,16.1,9.64" style="fill:#00DFC0"></path><path d="M89,453.24a4.62,4.62,0,0,1,.93.34c.3.13.66.28,1.06.5s.88.43,1.36.75a18.67,18.67,0,0,1,1.57,1.05,21.15,21.15,0,0,1,1.68,1.37A22.31,22.31,0,0,1,98.87,461a22,22,0,0,1,2.25,4.42,20,20,0,0,1,.62,2.08,16.2,16.2,0,0,1,.36,1.85,13.49,13.49,0,0,1,.15,1.54,8,8,0,0,1,0,1.17,6,6,0,0,1,0,1c-.09,0,0-1.43-.39-3.67-.11-.56-.21-1.18-.4-1.82a19.68,19.68,0,0,0-.65-2,22.6,22.6,0,0,0-2.23-4.33,23,23,0,0,0-3.18-3.69,21.18,21.18,0,0,0-1.63-1.37,17.41,17.41,0,0,0-1.52-1.08C90.31,453.83,89,453.31,89,453.24Z" style="fill:#263238"></path></g><g id="freepik--Head--inject-2"><path d="M94.48,219.42S78.14,76.1,225.19,72.88,356.68,217.81,350.45,237.94s-35.81,78.41-38.92,105,1,106.46,3,132.57H163.15l.57-78.93s-55.24,8.86-65.35-16.1S89,307.18,89,307.18s-30.34,0-32.68-4.83S94.48,219.42,94.48,219.42Z" style="fill:#00DFC0"></path><path d="M94.48,219.42S78.14,76.1,225.19,72.88,356.68,217.81,350.45,237.94s-35.81,78.41-38.92,105,1,106.46,3,132.57H163.15l.57-78.93s-55.24,8.86-65.35-16.1S89,307.18,89,307.18s-30.34,0-32.68-4.83S94.48,219.42,94.48,219.42Z" style="fill:#00DFC0"></path><g style="opacity:0.7000000000000001"><path d="M94.48,219.42S78.14,76.1,225.19,72.88,356.68,217.81,350.45,237.94s-35.81,78.41-38.92,105,1,106.46,3,132.57H163.15l.57-78.93s-55.24,8.86-65.35-16.1S89,307.18,89,307.18s-30.34,0-32.68-4.83S94.48,219.42,94.48,219.42Z" style="fill:#fff"></path></g><path d="M171.56,131.36c-8.42-2.1-19.54-6.51-28.59,1.59-4.62,4.14-7.21,13.29-7.52,19.58a30.36,30.36,0,0,0-22.75,12.95,22.06,22.06,0,0,0-4.28,13c.16,4.66,2.51,9.38,6.52,11.59a21.56,21.56,0,0,0-1.17,22.13,20.47,20.47,0,0,0,19.08,10.44,24.44,24.44,0,0,0,8,21.92,23.07,23.07,0,0,0,22.47,4.15c7.29,10.79,24,13.15,33.84,4.78,1.23-1,2.45-2.27,4-2.55a7.78,7.78,0,0,1,4,.78c6.58,2.53,13.61,4.73,20.54,3.58s13.67-6.61,14.15-13.8a52.22,52.22,0,0,0,24.68,6.36c9.86,0,21.35-4.47,23.45-14.34a19.27,19.27,0,0,0,20.73,1.87A20.27,20.27,0,0,0,319,216.86c8.36,1.62,15.48-6.92,17.71-15.33,2.17-8.18,1.57-17.36-2.85-24.52s-12.95-11.81-21.09-10.3A21.71,21.71,0,0,0,314.26,145,20.68,20.68,0,0,0,296,133.81a19.19,19.19,0,0,0-12.63-12.65A18.59,18.59,0,0,0,266.14,125a32.38,32.38,0,0,0-23.89-15.54,32,32,0,0,0-26.55,10c-6.68-5.88-18.76-9.1-27.14-6.32a25.32,25.32,0,0,0-17,18.2" style="fill:#00DFC0"></path><g style="opacity:0.30000000000000004"><path d="M171.56,131.36c-8.42-2.1-19.54-6.51-28.59,1.59-4.62,4.14-7.21,13.29-7.52,19.58a30.36,30.36,0,0,0-22.75,12.95,22.06,22.06,0,0,0-4.28,13c.16,4.66,2.51,9.38,6.52,11.59a21.56,21.56,0,0,0-1.17,22.13,20.47,20.47,0,0,0,19.08,10.44,24.44,24.44,0,0,0,8,21.92,23.07,23.07,0,0,0,22.47,4.15c7.29,10.79,24,13.15,33.84,4.78,1.23-1,2.45-2.27,4-2.55a7.78,7.78,0,0,1,4,.78c6.58,2.53,13.61,4.73,20.54,3.58s13.67-6.61,14.15-13.8a52.22,52.22,0,0,0,24.68,6.36c9.86,0,21.35-4.47,23.45-14.34a19.27,19.27,0,0,0,20.73,1.87A20.27,20.27,0,0,0,319,216.86c8.36,1.62,15.48-6.92,17.71-15.33,2.17-8.18,1.57-17.36-2.85-24.52s-12.95-11.81-21.09-10.3A21.71,21.71,0,0,0,314.26,145,20.68,20.68,0,0,0,296,133.81a19.19,19.19,0,0,0-12.63-12.65A18.59,18.59,0,0,0,266.14,125a32.38,32.38,0,0,0-23.89-15.54,32,32,0,0,0-26.55,10c-6.68-5.88-18.76-9.1-27.14-6.32a25.32,25.32,0,0,0-17,18.2" style="fill:#fff"></path></g><path d="M164.27,149.69a9.9,9.9,0,0,0-2.56.17,10.4,10.4,0,0,0-5.83,3.84c-1.91,2.4-3.07,6-3.5,10.15a27.06,27.06,0,0,0-.06,6.56,10.93,10.93,0,0,0,2.82,6.38l.35.36-.5.08A19.36,19.36,0,0,0,143.43,184a19,19,0,0,0-3.3,5.8,20.45,20.45,0,0,0,2,17.39l.18.28-.32.07A9.58,9.58,0,0,0,137.7,210a13.6,13.6,0,0,0-2.63,3.6,20.51,20.51,0,0,0-1.92,7.05c-.23,2-.26,3.64-.3,4.74,0,.51,0,.93,0,1.25a1.34,1.34,0,0,1,0,.43,2.43,2.43,0,0,1,0-.43c0-.33,0-.74,0-1.26a44.64,44.64,0,0,1,.17-4.76,20.41,20.41,0,0,1,1.85-7.19,13.86,13.86,0,0,1,2.68-3.74,9.87,9.87,0,0,1,4.43-2.55l-.14.35a20.89,20.89,0,0,1-2.08-17.82,19.54,19.54,0,0,1,3.39-6,19.85,19.85,0,0,1,11.9-7l-.14.45a11.48,11.48,0,0,1-2.94-6.68,27.45,27.45,0,0,1,.1-6.68c.47-4.18,1.7-7.87,3.69-10.3a10.48,10.48,0,0,1,6-3.82A5.89,5.89,0,0,1,164.27,149.69Z" style="fill:#00DFC0"></path><path d="M185.3,211.92a9.05,9.05,0,0,1-1.5.69,43.2,43.2,0,0,1-4.24,1.51,20.38,20.38,0,0,1-6.63.92,12.31,12.31,0,0,1-3.91-.81,13.71,13.71,0,0,1-3.69-2.17,15.36,15.36,0,0,1-5.18-6.34,12.06,12.06,0,0,1-.51-6.67,11.23,11.23,0,0,1,1.73-4.17,7.42,7.42,0,0,1,.77-.95c.2-.21.3-.31.32-.3s-.36.47-.91,1.37a12.19,12.19,0,0,0-.93,10.54,15.15,15.15,0,0,0,5,6.09,12.42,12.42,0,0,0,7.28,2.91,20.69,20.69,0,0,0,6.51-.8c1.82-.48,3.26-1,4.26-1.33A10.1,10.1,0,0,1,185.3,211.92Z" style="fill:#00DFC0"></path><path d="M276.71,193.46a1,1,0,0,1,0,.28c0,.21-.07.49-.13.84-.12.73-.3,1.82-.58,3.22a45.16,45.16,0,0,1-1.27,5.09,23,23,0,0,1-3.06,6.34,22.22,22.22,0,0,1-6.29,5.94,28,28,0,0,1-9.27,4,22,22,0,0,1-5.54.55,26,26,0,0,1-5.79-.95,39.24,39.24,0,0,1-11.25-5.35l.4-.17c-.71,4.17-1.45,8.66-3.64,12.79a18.13,18.13,0,0,1-2,2.9,15.11,15.11,0,0,1-2.64,2.4A18.2,18.2,0,0,1,219,234a25.51,25.51,0,0,1-22.61-6.74l.44-.15a12.26,12.26,0,0,1-2.77,6.09,15,15,0,0,1-5.1,4,18.06,18.06,0,0,1-11.82.93,29.06,29.06,0,0,1-9.7-4.34A18.22,18.22,0,0,1,161.3,227a12.09,12.09,0,0,1-1.17-3.79,11.62,11.62,0,0,1,.12-3.51,10.66,10.66,0,0,1,2.36-5,7.36,7.36,0,0,1,2.81-2,6,6,0,0,1,1.15-.34s-.4.12-1.12.43a7.42,7.42,0,0,0-2.71,2,10.75,10.75,0,0,0-2.24,4.94,11.15,11.15,0,0,0,1.09,7.1,18.1,18.1,0,0,0,6,6.59,28.89,28.89,0,0,0,9.57,4.23,17.76,17.76,0,0,0,11.51-.94,14.64,14.64,0,0,0,4.91-3.83,11.75,11.75,0,0,0,2.65-5.85l.08-.51.37.36a24.51,24.51,0,0,0,9.94,5.91,24.82,24.82,0,0,0,12.19.67,17.58,17.58,0,0,0,6.49-2.6,14.24,14.24,0,0,0,2.54-2.3,17.68,17.68,0,0,0,1.92-2.81c2.14-4,2.88-8.46,3.6-12.61l.06-.4.33.22a39,39,0,0,0,11.1,5.32,25.25,25.25,0,0,0,5.67.94,21.58,21.58,0,0,0,5.43-.51,27.8,27.8,0,0,0,9.16-3.89,21.92,21.92,0,0,0,6.24-5.81,22.76,22.76,0,0,0,3.08-6.23,45.81,45.81,0,0,0,1.34-5.05c.31-1.39.52-2.47.67-3.2l.17-.82A1.24,1.24,0,0,1,276.71,193.46Z" style="fill:#00DFC0"></path><path d="M281.77,161.89a2.91,2.91,0,0,1,.68.06c.22,0,.5.05.82.11l1.11.27a17,17,0,0,1,6.34,3.41,25,25,0,0,1,6.48,8.49,33.08,33.08,0,0,1,2.13,6,14.25,14.25,0,0,1,.45,3.36,31.13,31.13,0,0,1-.31,3.45,18.16,18.16,0,0,1-2.15,6.48,16.06,16.06,0,0,1-4.26,4.72,27.65,27.65,0,0,1-9.6,4.71,26.25,26.25,0,0,1-7.17.71c-.85,0-1.51-.08-2-.12a3.14,3.14,0,0,1-.67-.1,3.19,3.19,0,0,1,.68,0c.45,0,1.1,0,2,0a25.76,25.76,0,0,0,16.47-5.6,15.77,15.77,0,0,0,4.1-4.58,17.86,17.86,0,0,0,2.07-6.3c1-4.57-.6-8.88-2.19-12.49a25.16,25.16,0,0,0-6.27-8.41,17.66,17.66,0,0,0-6.15-3.5l-1.08-.31-.81-.17A3.57,3.57,0,0,1,281.77,161.89Z" style="fill:#00DFC0"></path><path d="M316.64,177.63a4.68,4.68,0,0,1,.61,1.21,11.84,11.84,0,0,1,.75,3.62,13.48,13.48,0,0,1-.84,5.43,12.4,12.4,0,0,1-3.88,5.48,14.35,14.35,0,0,1-3,1.81,12.43,12.43,0,0,1-3.11,1,10.23,10.23,0,0,1-5.47-.44,9.09,9.09,0,0,1-3.11-2,6.9,6.9,0,0,1-.67-.75,1.19,1.19,0,0,1-.2-.29,8,8,0,0,1,1,.88,9.82,9.82,0,0,0,3.1,1.81,10.11,10.11,0,0,0,5.24.31,12,12,0,0,0,3-1,13.69,13.69,0,0,0,2.88-1.75,12.31,12.31,0,0,0,3.76-5.23,13.52,13.52,0,0,0,.91-5.23A16.22,16.22,0,0,0,316.64,177.63Z" style="fill:#00DFC0"></path><path d="M297.72,134.37a13.57,13.57,0,0,0-1.92-.32,10.2,10.2,0,0,0-2.36.15,11.68,11.68,0,0,0-3.05,1.12,14.51,14.51,0,0,0-6.11,6.42c-1.66,3.14-2.6,7.14-3.46,11.58l-.08.43-.23-.37a24.58,24.58,0,0,0-8.79-8.24,23.13,23.13,0,0,0-13.44-2.94,24.35,24.35,0,0,0-14,6.12,20,20,0,0,0-5,6.53,11.61,11.61,0,0,0-.86,8.27l.48,1.55-.94-1.32a21.89,21.89,0,0,0-18.15-8.84,19.63,19.63,0,0,0-2.42.24,19.08,19.08,0,0,0-4.7,1.34,21.41,21.41,0,0,0-4.26,2.54,23.3,23.3,0,0,0-3.55,3.54,23.91,23.91,0,0,0-4.18,8.07,22.11,22.11,0,0,0-.66,8.84l.06.43-.41-.14a22.77,22.77,0,0,0-10.3-1.18,14.57,14.57,0,0,0-8.78,4.48,12.16,12.16,0,0,0-3.1,8.89A13.45,13.45,0,0,0,181,200a14.92,14.92,0,0,0,7.48,4.51,25,25,0,0,0,8.37.48,21.74,21.74,0,0,0,7.59-2,12.15,12.15,0,0,0,5.29-4.84l.13-.23.18.2a13.34,13.34,0,0,0,6.56,3.93,12.79,12.79,0,0,0,6.82-.09,10.86,10.86,0,0,0,5-3.14,12.79,12.79,0,0,0,2.54-4.34,12.3,12.3,0,0,0,.43-6.88,17.18,17.18,0,0,0-.8-2.31l.28.56a8.79,8.79,0,0,1,.62,1.72,12.27,12.27,0,0,1-.33,7,13.09,13.09,0,0,1-2.55,4.43,11.2,11.2,0,0,1-5.12,3.27,13.13,13.13,0,0,1-7,.13,13.74,13.74,0,0,1-6.75-4l.3,0a12.51,12.51,0,0,1-5.44,5,21.93,21.93,0,0,1-7.73,2.11,25.49,25.49,0,0,1-8.53-.47,15.42,15.42,0,0,1-7.72-4.63,13.92,13.92,0,0,1-3.62-8.71,12.7,12.7,0,0,1,3.21-9.26,15.12,15.12,0,0,1,9.1-4.65,23.19,23.19,0,0,1,10.54,1.19l-.36.3a22.7,22.7,0,0,1,.68-9.07,24.22,24.22,0,0,1,4.28-8.26,23.57,23.57,0,0,1,3.64-3.63,21.78,21.78,0,0,1,4.37-2.61,19.66,19.66,0,0,1,4.84-1.38,20.61,20.61,0,0,1,2.48-.24,22.57,22.57,0,0,1,2.47.07,22,22,0,0,1,16.12,9l-.46.22a12.12,12.12,0,0,1,.9-8.63A20.64,20.64,0,0,1,244,148a24.77,24.77,0,0,1,14.29-6.19,23.48,23.48,0,0,1,13.68,3,24.86,24.86,0,0,1,8.88,8.41l-.31.05c.87-4.44,1.84-8.47,3.55-11.64a14.76,14.76,0,0,1,6.26-6.46,11.23,11.23,0,0,1,3.11-1.08,9.33,9.33,0,0,1,2.4-.12,7.73,7.73,0,0,1,1.44.27C297.57,134.31,297.72,134.37,297.72,134.37Z" style="fill:#00DFC0"></path><path d="M275,177.08a8,8,0,0,1-.16,1.65,29.86,29.86,0,0,1-.95,4.44,12.47,12.47,0,0,1-3.44,5.78,14.17,14.17,0,0,1-7.65,3,15.47,15.47,0,0,1-8.16-1.13,12.41,12.41,0,0,1-5.17-4.31,10.91,10.91,0,0,1-1.77-4.18,7,7,0,0,1-.14-1.23,1.19,1.19,0,0,1,0-.44s.08.59.32,1.62a11.89,11.89,0,0,0,1.88,4,12.36,12.36,0,0,0,5.06,4.07,15.3,15.3,0,0,0,7.9,1,14,14,0,0,0,7.38-2.87,12.5,12.5,0,0,0,3.41-5.53,37.7,37.7,0,0,0,1.1-4.35A12.16,12.16,0,0,1,275,177.08Z" style="fill:#00DFC0"></path><path d="M267.94,124a8.2,8.2,0,0,1-1.19.54c-.78.33-1.91.82-3.3,1.5a20.19,20.19,0,0,0-4.68,2.88,6.23,6.23,0,0,0-1.79,2.69,4.28,4.28,0,0,0,.2,3.41l-.43.28c-1.69-2.35-4.6-4-7.79-4.85a33,33,0,0,0-10.35-1.28,16.09,16.09,0,0,0-7.94,2.78,17.5,17.5,0,0,0-4.15,4c-.81,1.1-1.17,1.77-1.22,1.74a3.7,3.7,0,0,1,.23-.5,11.25,11.25,0,0,1,.82-1.36,16.49,16.49,0,0,1,12.22-7.12,24.2,24.2,0,0,1,5.14.18,37.39,37.39,0,0,1,5.4,1.08c3.25.9,6.29,2.58,8.06,5.06l-.43.28a4.76,4.76,0,0,1-.21-3.81,6.49,6.49,0,0,1,2-2.85,19.4,19.4,0,0,1,4.83-2.85c1.42-.65,2.58-1.1,3.38-1.38A7.63,7.63,0,0,1,267.94,124Z" style="fill:#00DFC0"></path><path d="M177.62,163.92a8.39,8.39,0,0,1-1.33-2.09,12.85,12.85,0,0,1,.36-11.32,11,11,0,0,1,3.8-4,12.31,12.31,0,0,1,5.91-1.86,11.48,11.48,0,0,1,6.53,1.57l-.36.38a13.07,13.07,0,0,1-2.13-5.85,20.44,20.44,0,0,1,3.83-14.35,18,18,0,0,1,10-6.91,17.2,17.2,0,0,1,8.25-.2,13.92,13.92,0,0,1,2.16.65,4,4,0,0,1,.71.33c0,.06-1-.4-2.91-.77a17.8,17.8,0,0,0-17.8,7.2,20.1,20.1,0,0,0-3.69,14,12.6,12.6,0,0,0,2,5.62l.69,1-1-.63a11.1,11.1,0,0,0-6.23-1.52,11.87,11.87,0,0,0-5.69,1.75,10.66,10.66,0,0,0-3.68,3.86,12.3,12.3,0,0,0-1.44,4.42,12.86,12.86,0,0,0,.88,6.61C177.1,163.2,177.67,163.89,177.62,163.92Z" style="fill:#00DFC0"></path><path d="M127.49,176.94s.1,0,.3,0a2.79,2.79,0,0,1,.85.26,5.19,5.19,0,0,1,2.38,2.21,6.24,6.24,0,0,1,.65,4.76,8.5,8.5,0,0,1-3.46,4.75,12.5,12.5,0,0,1-5.57,1.95,19.27,19.27,0,0,1-4.8,0,7.71,7.71,0,0,1-3.06-1.09,3.12,3.12,0,0,1-.89-.79,8.45,8.45,0,0,0,4,1.49,19.92,19.92,0,0,0,4.69-.13,12.47,12.47,0,0,0,5.32-1.89,8.18,8.18,0,0,0,3.29-4.44,6,6,0,0,0-.51-4.44,5.27,5.27,0,0,0-2.13-2.21C127.9,177.06,127.47,177,127.49,176.94Z" style="fill:#00DFC0"></path><path d="M166.2,252.32a3.3,3.3,0,0,1-.8-.56,11,11,0,0,1-1.79-2,17,17,0,0,1-3.11-8.12,16.39,16.39,0,0,1,.14-4.83,15.61,15.61,0,0,1,1.2-3.75,7.21,7.21,0,0,1,2-3,8.09,8.09,0,0,1-.52.81,15.85,15.85,0,0,0-1.14,2.33,16.57,16.57,0,0,0-1.07,3.69,17.26,17.26,0,0,0-.09,4.68,18,18,0,0,0,2.88,8A24.83,24.83,0,0,0,166.2,252.32Z" style="fill:#00DFC0"></path><path d="M201.93,239.55a5.24,5.24,0,0,1,.66,2,12.09,12.09,0,0,1-.28,5.18,11.88,11.88,0,0,1-2.43,4.58,5,5,0,0,1-1.63,1.4c-.06-.07.55-.61,1.33-1.64a13.44,13.44,0,0,0,2.2-4.48,14,14,0,0,0,.43-5A19.39,19.39,0,0,1,201.93,239.55Z" style="fill:#00DFC0"></path><path d="M241.07,227.38a3.65,3.65,0,0,1,.42,1,17.8,17.8,0,0,1,.73,2.78,21.46,21.46,0,0,1-.42,9.42,20.91,20.91,0,0,1-4.5,8.29,17.71,17.71,0,0,1-2.07,2,3.23,3.23,0,0,1-.87.6c-.06-.08,1.12-1,2.64-2.84a22.22,22.22,0,0,0,4.27-8.18,22.84,22.84,0,0,0,.57-9.22C241.5,228.81,241,227.41,241.07,227.38Z" style="fill:#00DFC0"></path><path d="M285.54,213s.2.23.47.71a16.42,16.42,0,0,1,1,2.07,27.67,27.67,0,0,1,1.9,15,19.71,19.71,0,0,1-.47,2.27,2.45,2.45,0,0,1-.29.8c-.09,0,.17-1.2.38-3.12A32.08,32.08,0,0,0,286.68,216C286,214.15,285.46,213.07,285.54,213Z" style="fill:#00DFC0"></path><path d="M217.87,99a21.66,21.66,0,0,0-6.16-3.89,24.76,24.76,0,0,0-7-2.45c-6.57-1-12.91,2.65-17.3,6.91s-7.7,9.34-12.83,13l13.26-.22c4-.07,8.09-.15,11.73-1.52,4.64-1.73,8.17-6,13.21-6.48a27.58,27.58,0,0,1,8.21,1A11.05,11.05,0,0,0,217.87,99Zm-13.42,5.23a1.93,1.93,0,0,1-1.18.26,4,4,0,0,0-1,0c-.8.16-1.21,1.06-1.88,1.52a1.75,1.75,0,0,1-1.89.1,1.53,1.53,0,0,1-.62-1.78,2.35,2.35,0,0,1,.55-.74,5.87,5.87,0,0,1,2-1.25,3.26,3.26,0,0,1,3.18-.5c.68.2,1.42.65,1.46,1.38A1.26,1.26,0,0,1,204.45,104.19Z" style="fill:#455a64"></path><path d="M190.59,104.45s.29-.16.82-.5,1.27-.89,2.19-1.64,2-1.74,3.34-2.8A14.66,14.66,0,0,1,202.18,97a13.09,13.09,0,0,1,3.37-.39,16.64,16.64,0,0,1,3.63.52,21.63,21.63,0,0,1,7.28,3.45,23.53,23.53,0,0,1,6.1,6.48,38.87,38.87,0,0,1,4.15,8.6c2.17,6.19,3.2,12.35,4.4,17.85s2.17,10.5,3,14.69,1.53,7.52,2,9.91c.22,1.14.39,2,.52,2.7,0,.28.09.51.12.71a1.47,1.47,0,0,1,0,.24.74.74,0,0,1-.08-.23l-.18-.7-.62-2.68c-.52-2.38-1.26-5.74-2.17-9.87s-2-9.15-3.16-14.66-2.27-11.65-4.42-17.78-5.42-11.61-10-14.85a21.3,21.3,0,0,0-7.1-3.42,13.66,13.66,0,0,0-6.81-.2,14.63,14.63,0,0,0-5.14,2.35c-1.34,1-2.43,2-3.39,2.72a20.66,20.66,0,0,1-2.27,1.56,5,5,0,0,1-.64.33Z" style="fill:#263238"></path><path d="M250.07,118.37a8.83,8.83,0,0,0,.51,7.31c1.3,2.07,3.63,3.14,5.77,4.26a58.34,58.34,0,0,1,9.37,6.06c.63-1.34.15-2.94-.38-4.33-.46-1.21-.94-2.41-1.45-3.6-1.29-3-2.82-6.06-5.35-8.09s-5.8-3.45-8.47-1.61" style="fill:#455a64"></path><path d="M257.63,124.49s-.36-.46-1-1.26a18.45,18.45,0,0,0-3.17-3,13.19,13.19,0,0,0-5.89-2.47,10.79,10.79,0,0,0-7.49,1.59,15.44,15.44,0,0,0-4.9,6.07,46.59,46.59,0,0,0-2.49,6,18.75,18.75,0,0,0-.93,4.28c-.09,1-.06,1.61-.11,1.61a1.28,1.28,0,0,1-.07-.42,8.44,8.44,0,0,1,0-1.21,17.05,17.05,0,0,1,.77-4.38,43.86,43.86,0,0,1,2.41-6.13,15.64,15.64,0,0,1,5-6.3,11.07,11.07,0,0,1,7.87-1.63,13.15,13.15,0,0,1,6,2.65,16.18,16.18,0,0,1,3.1,3.19,10.62,10.62,0,0,1,.67,1C257.58,124.35,257.65,124.48,257.63,124.49Z" style="fill:#263238"></path><path d="M173.35,169.7a4.75,4.75,0,0,0-7.36,1.11,9.5,9.5,0,0,0-.78,3.26,6.83,6.83,0,0,0,0,2.51,10.22,10.22,0,0,1,.36,1.23,4,4,0,0,1-.19,1.52,8.52,8.52,0,0,0-.44,2.48,2.48,2.48,0,0,0,1.13,2.13,2.48,2.48,0,0,1,.87.49,1.6,1.6,0,0,1,.25,1c0,1.36.07,2.72.1,4.08a6.2,6.2,0,0,0,2.45-6.07,11.62,11.62,0,0,1-.38-2.09c0-1.55,1.21-2.93,1.08-4.48s-1.34-2.56-1.63-4a3.23,3.23,0,0,1,1-3,3,3,0,0,1,3.12-.45" style="fill:#455a64"></path><path d="M228.6,125.36a5.35,5.35,0,0,0-9.17.81A11.65,11.65,0,0,1,218,129c-1.29,1.42-3.7,1.19-5,2.59a4.2,4.2,0,0,0-.9,1.74,8.75,8.75,0,0,0,.92,6.94c.91,1.47,2.29,2.71,2.69,4.41.51,2.2-.7,4.86.7,6.6a12.72,12.72,0,0,0,2.86-13,4.24,4.24,0,0,1-.4-1.73c.18-2,3.19-2.14,4.42-3.73.9-1.16.66-2.82.71-4.3s.86-3.28,2.31-3.2c1,0,2.1.9,2.74.16" style="fill:#455a64"></path><path d="M252.59,171.68c-.44.74-.88,1.72-.36,2.41.23.31.6.48.85.77.57.7.22,1.74-.08,2.59s-.39,2,.39,2.45c.47.24,1,.08,1.54.15a2.43,2.43,0,0,1,1.85,1.84,7.57,7.57,0,0,1,.08,2.77c1.49-.76,1.91-2.72,2-4.42a3.16,3.16,0,0,0-.57-2.35c-.24-.25-.54-.41-.76-.68-.55-.68-.29-1.68-.07-2.53s.28-2-.45-2.42c-.49-.3-1.22-.21-1.55-.68-.48-.68.55-1.63-.2-2" style="fill:#455a64"></path><path d="M285.69,179.18a17.62,17.62,0,0,0-12.55-11.46c-2.38-.53-5-.48-7.05.92l-.47.18c-.33,3.12-.59,6.53,1.13,9.12,2.73,4.12,9,4.1,12.12,7.95,2.27,2.83,2.16,7,3.78,10.23A18.25,18.25,0,0,0,285.69,179.18Zm-13.69-3a2,2,0,0,1-2,1.44,2.4,2.4,0,0,1-2-1.52,3.2,3.2,0,0,1,.16-2.62l.1.19a2.47,2.47,0,0,1,3.73,2.51Z" style="fill:#455a64"></path><path d="M279.71,180.54a2,2,0,0,1-.35-.47l-.92-1.42a33,33,0,0,0-3.78-4.87,21.63,21.63,0,0,0-7.72-4.7,16.23,16.23,0,0,0-5.22-1.08,10.83,10.83,0,0,0-5.47,1.33c-3.47,1.92-5.81,5.06-7.69,7.91a50.45,50.45,0,0,0-4.29,8.09,53.64,53.64,0,0,0-2,5.84c-.41,1.41-.59,2.2-.64,2.19a2.32,2.32,0,0,1,.08-.59c.06-.38.18-.94.35-1.65a45.44,45.44,0,0,1,1.9-5.93,48,48,0,0,1,4.21-8.22c1.89-2.89,4.25-6.12,7.86-8.12a11.25,11.25,0,0,1,5.74-1.38,16.37,16.37,0,0,1,5.38,1.14,21.67,21.67,0,0,1,7.83,4.9,29.86,29.86,0,0,1,3.68,5c.37.63.65,1.13.83,1.47A2,2,0,0,1,279.71,180.54Z" style="fill:#263238"></path><path d="M202.86,202.73c.08.06.16.13.24.18l.28-.08Z" style="fill:#455a64"></path><path d="M208.4,226.74c-.14-1.67-.48-3.32-.54-5-.12-3.31.86-6.61.53-9.9a12.42,12.42,0,0,0-5.29-8.93,16.66,16.66,0,0,0-10.31,9.2,17.34,17.34,0,0,0,.3,14.29c1,2,2.34,3.84,2.51,6s-.91,4.24-1.26,6.4c-.71,4.4,1.58,8.66,3.79,12.5a7.8,7.8,0,0,1,1.78-5.94c1.27-1.69,2.89-3.08,4.24-4.7A19.66,19.66,0,0,0,208.4,226.74Zm-4-6.05a2.45,2.45,0,0,1-.94.87,1.17,1.17,0,0,1-1.21-.08,2,2,0,0,1-.49-.75,12.37,12.37,0,0,1-.53-1.31,6.08,6.08,0,0,1,1.09-5.56l0-.06a2.33,2.33,0,0,1,1.93.86,4.55,4.55,0,0,1,1.13,3A5.24,5.24,0,0,1,204.4,220.69Z" style="fill:#455a64"></path><path d="M198.25,219.44a2.43,2.43,0,0,1,0-.62c0-.41.12-1,.22-1.77a61,61,0,0,1,1.25-6.44,34,34,0,0,1,3.6-9.05,20.82,20.82,0,0,1,8.52-8.28,14.51,14.51,0,0,1,11.74-.63,15.47,15.47,0,0,1,7.08,6.61,40.28,40.28,0,0,1,2.8,5.94c.27.72.48,1.29.61,1.67a2.57,2.57,0,0,1,.17.6,2.25,2.25,0,0,1-.27-.56c-.19-.42-.42-1-.71-1.63a44.24,44.24,0,0,0-2.93-5.82,15.18,15.18,0,0,0-6.94-6.34,14.09,14.09,0,0,0-11.32.65,20.63,20.63,0,0,0-8.32,8,35.11,35.11,0,0,0-3.66,8.9c-.72,2.65-1.12,4.86-1.41,6.37-.13.72-.23,1.3-.32,1.75A3.24,3.24,0,0,1,198.25,219.44Z" style="fill:#263238"></path><path d="M149.54,156.06a20.92,20.92,0,0,0-14.43,11.88,21.75,21.75,0,0,0,.87,18.95c1.71-2.45,2.6-5.38,4-8s3.47-5.22,6.35-5.83c2.41-.5,4.78-.51,7.17-1.09a10.92,10.92,0,0,0,6.43-4.34c1.71-2.29,3.95-3.56,5.66-5.84C162.19,156.66,155.41,154.81,149.54,156.06Zm-7.15,14a1.48,1.48,0,0,1-.46.59,1.16,1.16,0,0,1-1.45-.19,1.55,1.55,0,0,1-.3-1.52c.13-.41.49-.79.9-.71l-.15.25a.87.87,0,0,1,1.41,0A1.57,1.57,0,0,1,142.39,170.06Zm12.21-2.47a4.79,4.79,0,0,1-2.95,1.72,10,10,0,0,1-3.44-.08,2.84,2.84,0,0,1-1.45-.56,1.66,1.66,0,0,1-.38-1.86.63.63,0,0,1,.23-.28.66.66,0,0,1,.42-.07,4.89,4.89,0,0,0,2.72-.34,6.33,6.33,0,0,0,1.54-1.71,2.8,2.8,0,0,1,1.33-1,.53.53,0,0,1-.2,0h.44a.94.94,0,0,1,.29,0,3,3,0,0,1,.49-.09,1.6,1.6,0,0,1,1.38,1A3.34,3.34,0,0,1,154.6,167.59Z" style="fill:#455a64"></path><path d="M145,164.31a2,2,0,0,1,.35-.34,13.3,13.3,0,0,1,1.09-.88,18.2,18.2,0,0,1,4.6-2.34,19.37,19.37,0,0,1,7.59-1,18.79,18.79,0,0,1,8.93,2.8,22.45,22.45,0,0,1,6.61,6.64,39.19,39.19,0,0,1,3.5,6.81c.8,2,1.35,3.7,1.69,4.86.18.58.3,1,.38,1.35a2.31,2.31,0,0,1,.1.48,13.2,13.2,0,0,1-.68-1.76c-.4-1.14-1-2.79-1.85-4.78a40.17,40.17,0,0,0-3.56-6.68,22.27,22.27,0,0,0-6.48-6.46,18.64,18.64,0,0,0-8.67-2.76,19.83,19.83,0,0,0-7.44.89A23.41,23.41,0,0,0,145,164.31Z" style="fill:#263238"></path><path d="M300.91,142.08a12.92,12.92,0,0,0,9.75,1.67c2.76-.64,5.45-2.22,8.24-1.73,2.16.37,4,1.95,6.21,2,3,.11,5.47-2.58,8.46-2.89,2-.22,4,.71,5.85,1.61.53-2.18-1.06-4.24-2.53-5.9-3-3.33-6.23-6.84-10.53-7.86-4.74-1.12-9.61,1-14.48,1a16.18,16.18,0,0,0-3.41.12c-1.87.41-3.39,1.78-4.8,3.1a9.43,9.43,0,0,0-3,4c-.44,1.5-.12,3.13-.51,4.64" style="fill:#455a64"></path><path d="M329.37,136.43s-.77-.24-2.16-.59a26.89,26.89,0,0,0-6-.84,30,30,0,0,0-8.91,1.09,34,34,0,0,0-10,4.58A51.31,51.31,0,0,0,288.42,155a25.23,25.23,0,0,0-2.86,5.36c-.49,1.35-.61,2.14-.66,2.13a2.31,2.31,0,0,1,.05-.58,11.87,11.87,0,0,1,.41-1.62,23.22,23.22,0,0,1,2.74-5.5A49.67,49.67,0,0,1,302,140.21a34.21,34.21,0,0,1,10.16-4.61,29.63,29.63,0,0,1,9-1,25,25,0,0,1,6.06,1,14.8,14.8,0,0,1,1.57.56A2,2,0,0,1,329.37,136.43Z" style="fill:#263238"></path></g><g id="freepik--Character--inject-2"><path d="M408.7,375l4.89,18.33s-17,11.12-16.42,14.59L433,399.72l-6.43-28.87Z" style="fill:#00DFC0"></path><path d="M424.32,389.23a1.51,1.51,0,0,1,1.4,1.44,1.45,1.45,0,0,1-1.42,1.4,1.59,1.59,0,0,1-1.47-1.54,1.5,1.5,0,0,1,1.64-1.28" style="fill:#e0e0e0"></path><g style="opacity:0.6000000000000001"><path d="M433,399.72l-.76-2.88-34.11,8.93s-1.44,1.06-1,2.14Z" style="fill:#fff"></path></g><path d="M413,393.27c.05.17.94.05,1.93.42s1.62,1,1.77.89-.35-1.06-1.56-1.48S412.89,393.12,413,393.27Z" style="fill:#263238"></path><path d="M409.55,395.68c0,.18.83.31,1.59.91s1.12,1.35,1.29,1.31.06-1.07-.91-1.8S409.52,395.52,409.55,395.68Z" style="fill:#263238"></path><path d="M408.44,400.68c.17,0,.22-.93-.45-1.79s-1.58-1.05-1.62-.89.59.56,1.12,1.27S408.27,400.7,408.44,400.68Z" style="fill:#263238"></path><path d="M412.31,389c.11.14.86-.28,1.87-.44s1.85,0,1.9-.2-.83-.62-2-.42S412.2,388.85,412.31,389Z" style="fill:#263238"></path><polygon points="368.17 157.53 350.32 220.25 364.34 222.99 373.6 191.37 368.17 157.53" style="fill:#f5f5f5"></polygon><path d="M368.17,157.53c.31,1.87,2.3,13.76,5.65,33.8v.1c-2.68,9.18-5.83,20-9.22,31.63l-.07.24-.24-.05-6-1.17-8-1.56-.29-.06.08-.28c5.05-17.75,9.64-33.5,12.91-44.72,3.14-10.82,4.83-16.64,5.2-17.93-.37,1.31-2,7.25-5.1,18.28-3.15,11.31-7.48,26.92-12.48,44.52l-.21-.34,8,1.56,6,1.17-.31.19c3.42-11.62,6.6-22.44,9.29-31.6v.1C370.29,171.32,368.46,159.41,368.17,157.53Z" style="fill:#e0e0e0"></path><path d="M449.23,265.19s-1.29,5.26-8.85,6.28c-22.78,3.07-36.31,20.34-36.31,20.34L410,272.57l21.94-15.29,14,4.41Z" style="fill:#e0e0e0"></path><path d="M418.84,310.5c-3.8-15.2-6.52-23.36-6.52-23.36s.43-64.74,0-70.12c-1.05-13-8.37-27.9-9.32-29.8l-36.12,8.47,2.32,18,9.09,79.14,31.26,90.56L431,380.06S422.64,325.7,418.84,310.5Z" style="fill:#263238"></path><path d="M385,116l1.32.3,13.4,3s2.85,34.2,3.33,38.47-5.46,12.83-5.46,12.83,5.46,3.32,6.93,7.6,0,11.56,0,11.56L396.33,197a28.12,28.12,0,0,1-11.65,6.23l-17,4.39s-2-37.31-7.17-52.26c-3.46-10,6-31.41,6-31.41l11.7-8" style="fill:#00DFC0"></path><path d="M376.76,151a65,65,0,0,1-8.37.69,64.49,64.49,0,0,1-8.4.14,65,65,0,0,1,8.37-.69A66.69,66.69,0,0,1,376.76,151Z" style="fill:#fff"></path><path d="M379.22,170a50.73,50.73,0,0,1-7.38,1,52.41,52.41,0,0,1-7.44.43,50.13,50.13,0,0,1,7.39-1A51.28,51.28,0,0,1,379.22,170Z" style="fill:#fff"></path><path d="M382.41,191.14a7.6,7.6,0,0,1-2.11,1,26,26,0,0,1-11.1,1.49,7.38,7.38,0,0,1-2.3-.41,60.78,60.78,0,0,0,7.86-.27C379.07,192.39,382.35,191,382.41,191.14Z" style="fill:#fff"></path><path d="M363.08,105c-2.28-1.06-3.71-3.4-4.55-5.77s-1.23-4.9-2.16-7.23c-.7-1.75.07-4.52-1.5-5.56-2-1.3-1.94-4.74-1.18-6.45.82-1.87,3.06-3.26,3.21-3.86.4-1.55-1-3.23-.46-4.76,1.18-3.58,4.1-3.11,4.1-3.11,1.33-1.61,3.13-3.74,6-4.5,3.17-.81,7.83-1.42,10.65.24s4.89,2.76,5.8,5.9" style="fill:#263238"></path><path d="M387.44,74.29a3.22,3.22,0,0,1,2.87,3.27h0L388.39,121c-.08,5.13-7.57,8-13.06,7.88h0c-5.55-.13-5.72-2.85-5.79-7.72-.12-8.15-.11-11.21-.11-11.16s-7-1.18-8.43-10.32c-.71-4.55-.47-12-.07-18.09.35-5.48,4-12.2,9.46-11.61Z" style="fill:#d38d6e"></path><path d="M362.71,87.79A1.18,1.18,0,0,0,363.84,89a1.12,1.12,0,0,0,1.21-1,1.18,1.18,0,0,0-1.13-1.19A1.12,1.12,0,0,0,362.71,87.79Z" style="fill:#263238"></path><path d="M362.53,85.43c.15.16,1-.5,2.3-.49s2.18.64,2.32.48-.08-.34-.48-.64a3.18,3.18,0,0,0-1.86-.57,3.13,3.13,0,0,0-1.83.58C362.6,85.09,362.46,85.36,362.53,85.43Z" style="fill:#263238"></path><path d="M374.9,87.79A1.18,1.18,0,0,0,376,89a1.11,1.11,0,0,0,1.21-1,1.18,1.18,0,0,0-1.13-1.19A1.12,1.12,0,0,0,374.9,87.79Z" style="fill:#263238"></path><path d="M374.93,85.69c.14.16,1-.5,2.29-.49s2.19.64,2.33.48-.08-.34-.49-.63a3.15,3.15,0,0,0-1.85-.58,3.1,3.1,0,0,0-1.83.58C375,85.35,374.86,85.63,374.93,85.69Z" style="fill:#263238"></path><path d="M370.33,95a7.94,7.94,0,0,0-2.05-.38c-.32,0-.62-.1-.68-.32a1.65,1.65,0,0,1,.22-1c.31-.78.62-1.59,1-2.45a42.21,42.21,0,0,0,2.15-6.41,42.58,42.58,0,0,0-2.66,6.22c-.32.86-.63,1.68-.92,2.47a1.89,1.89,0,0,0-.17,1.26.79.79,0,0,0,.53.47,2.43,2.43,0,0,0,.55.08A8.45,8.45,0,0,0,370.33,95Z" style="fill:#263238"></path><path d="M369.43,110a23.22,23.22,0,0,0,12.24-3.24s-3.1,6.44-12.24,5.57Z" style="fill:#b26746"></path><path d="M370.86,98.08a2.26,2.26,0,0,1,2-.84,2.07,2.07,0,0,1,1.43.77,1.3,1.3,0,0,1,.09,1.5,1.52,1.52,0,0,1-1.65.42,4.85,4.85,0,0,1-1.61-1,1.58,1.58,0,0,1-.36-.37.44.44,0,0,1,0-.47" style="fill:#b26746"></path><path d="M374,95.92c-.2,0-.21,1.35-1.38,2.32s-2.63.82-2.64,1,.32.26.94.28a3.43,3.43,0,0,0,2.2-.76,2.91,2.91,0,0,0,1.07-2C374.29,96.25,374.13,95.91,374,95.92Z" style="fill:#263238"></path><path d="M374.45,81.5c.12.34,1.38.18,2.86.36s2.67.59,2.87.28c.09-.14-.12-.46-.6-.8a4.83,4.83,0,0,0-2.13-.75,4.75,4.75,0,0,0-2.24.26C374.67,81.07,374.39,81.34,374.45,81.5Z" style="fill:#263238"></path><path d="M362.28,82c.22.29,1.09,0,2.14,0s1.93.2,2.13-.1c.09-.14-.05-.43-.43-.7a3,3,0,0,0-1.74-.48,2.86,2.86,0,0,0-1.7.58C362.31,81.56,362.19,81.85,362.28,82Z" style="fill:#263238"></path><path d="M382.42,69.26a6.24,6.24,0,0,1-7.37,6.17c-1.4-.25-2.93-1-4.14-.21s-1.32,2.69-2.45,3.67c-1.61,1.4-4.17.09-6.21.7-1.58.46-2.57,2-3.62,3.24s-2.62,2.48-4.2,2a18.08,18.08,0,0,1,.63-4.21,6.19,6.19,0,0,1,2.39-3.43c.65-.43,1.41-.69,2-1.18,1.31-1.06,1.61-2.9,2.42-4.38a6.87,6.87,0,0,1,5.22-3.46c1.8-.18,3.65.36,5.4-.09,1.3-.32,2.43-1.16,3.74-1.41,2.56-.49,4.93,1.35,6.79,3.17" style="fill:#263238"></path><path d="M387.23,89.06a1,1,0,0,1-.39,1.93c-3.07.7-3.47-5.3-2.79-7A18.19,18.19,0,0,1,381,80.74a13,13,0,0,1-1.41-6.21c-1.11.07-5.82-1.49-5.32-1.63,1.15-.33,3.49-1.07,4.11-2.07a7,7,0,0,1,6.09-3.5,5.79,5.79,0,0,1,5.2,4.57,8.29,8.29,0,0,1,7.14,4.6,9.6,9.6,0,0,1-.26,9,4.75,4.75,0,0,0-.93,2.21c0,1,.74,1.82,1.27,2.66a8.65,8.65,0,0,1,.22,7.94c-1.12,2.5-1.91,3.37-3.5,3.88-3.12,1,.5,7.39-4.69,7.39" style="fill:#263238"></path><path d="M387.11,91.57A2.67,2.67,0,0,1,391,89.3c.92.54,1.63,1.61,1.54,3.68-.22,5.5-5.7,4.14-5.71,4S387,93.85,387.11,91.57Z" style="fill:#d38d6e"></path><path d="M388.61,94.94s.09.08.25.16a1,1,0,0,0,.72,0,2.35,2.35,0,0,0,1.18-2.08,3.16,3.16,0,0,0-.21-1.39,1.09,1.09,0,0,0-.69-.76.47.47,0,0,0-.57.24c-.08.15-.05.26-.08.27s-.12-.1-.06-.32a.55.55,0,0,1,.23-.34.72.72,0,0,1,.53-.12,1.34,1.34,0,0,1,1,.9,3.21,3.21,0,0,1,.27,1.54,2.48,2.48,0,0,1-1.5,2.32,1,1,0,0,1-.87-.18C388.62,95.08,388.59,95,388.61,94.94Z" style="fill:#b26746"></path><path d="M395.28,87.29s.18-.3.44-.88a6,6,0,0,0,.49-2.56,5.39,5.39,0,0,0-1.42-3.5A5.57,5.57,0,0,0,393,79a6.42,6.42,0,0,0-2.38-.53c-1.7-.08-3.36.18-4.89,0A7.55,7.55,0,0,1,382,77a7.24,7.24,0,0,1-1.83-2,2.87,2.87,0,0,1-.42-.9,9.17,9.17,0,0,0,2.42,2.67,7.5,7.5,0,0,0,3.6,1.35c1.47.16,3.11-.11,4.87,0a6.73,6.73,0,0,1,2.53.57,5.75,5.75,0,0,1,1.93,1.44,5.64,5.64,0,0,1,.79,6.39A2.37,2.37,0,0,1,395.28,87.29Z" style="fill:#455a64"></path><path d="M395.28,75.09a4.76,4.76,0,0,0-2.26-.66,7.21,7.21,0,0,0-2.52.43c-.93.3-1.92.76-3,1.11a6.87,6.87,0,0,1-3.27.28,6.62,6.62,0,0,1-2.51-1,6,6,0,0,1-1.35-1.19,1.65,1.65,0,0,1-.36-.55A12.09,12.09,0,0,0,381.83,75a7,7,0,0,0,2.42.85,6.84,6.84,0,0,0,3.09-.31c1.08-.33,2.08-.79,3-1.08a7.28,7.28,0,0,1,2.66-.36,4.08,4.08,0,0,1,1.74.52C395.14,74.88,395.29,75.07,395.28,75.09Z" style="fill:#455a64"></path><path d="M358.31,70.79a4.43,4.43,0,0,0,.63.88,3.57,3.57,0,0,0,2.68.9,6.4,6.4,0,0,0,3.79-1.94c1.24-1.09,2.45-2.58,4.28-3.46a5.05,5.05,0,0,1,2.87-.44,6.34,6.34,0,0,1,2.52,1,9,9,0,0,1,3,3.35,20.37,20.37,0,0,1,1.25,2.75,4.9,4.9,0,0,1,.34,1.06,5.72,5.72,0,0,1-.49-1,26.8,26.8,0,0,0-1.35-2.67A9,9,0,0,0,374.88,68a6,6,0,0,0-2.37-.89,4.73,4.73,0,0,0-2.65.42c-1.71.81-2.92,2.26-4.19,3.36a6.7,6.7,0,0,1-4,2,3.71,3.71,0,0,1-2.81-1.09,2.17,2.17,0,0,1-.44-.71A.82.82,0,0,1,358.31,70.79Z" style="fill:#455a64"></path><path d="M377.32,65.29a3.38,3.38,0,0,1,1.11,1,8,8,0,0,1,1.48,6.88,3.28,3.28,0,0,1-.59,1.37,11.14,11.14,0,0,1,.3-1.44,8.83,8.83,0,0,0-.06-3.46,9.17,9.17,0,0,0-1.37-3.18A12.12,12.12,0,0,1,377.32,65.29Z" style="fill:#455a64"></path><path d="M287.45,58.86s-7.53,3.25-6.91,9.1A57.34,57.34,0,0,0,283,79.13s-11.83-9-23.4-5.36l-.07,2.68s8.3-1,15.41,2.92,16.43,18,16.43,18l23.37-10.49-5.53-9s.78-8.55.91-10.93C310.31,63.31,305.83,49.23,287.45,58.86Zm19.67,5.92c.24,2.08-1.52,5.21-1.52,5.21l-2.45-5.73-18.56,6.41s-3.34-5.54,3.44-9.16c4-2.13,8.35-2.34,11.19-2.47a7.87,7.87,0,0,1,6.86,3.19A5.57,5.57,0,0,1,307.12,64.78Z" style="fill:#00DFC0"></path><path d="M310,55.08l-10.12-.45-8.3,3.6s.38,1.3,1.17,1.2a32.81,32.81,0,0,0,4.66-1.32l-2.65,2.32-.11,1.7s2.61,3.19,3.07,2.85a4.69,4.69,0,0,0,.91-1.48l1.82,2.61h2.84l1.3-1.75L306,65.48s3.55,3.21,5.58,2.47c1.18-.43,3.34,4.87,3.34,4.87L322.58,68l-5.15-6.36Z" style="fill:#d38d6e"></path><path d="M306.44,58.26a6.1,6.1,0,0,1-1.76.24l-1.89.11a4,4,0,0,0-1,.17,10.24,10.24,0,0,0-1,.59c-.68.45-1.31.92-1.87,1.36s-1,.81-.87,1.29c.28,1,.74,1.53.66,1.58s-.61-.39-1-1.48a1.07,1.07,0,0,1,.15-1,4.61,4.61,0,0,1,.77-.76,19,19,0,0,1,1.89-1.42,6.27,6.27,0,0,1,1.11-.63,3.61,3.61,0,0,1,1.18-.18h1.93A5.29,5.29,0,0,1,306.44,58.26Z" style="fill:#b26746"></path><path d="M303.29,66.2c-.07,0,.19-.54.62-1.29.11-.19.22-.4.33-.62a1.17,1.17,0,0,0,.1-.3s0,0,0,0,0,0,0-.06a.5.5,0,0,0-.08-.12,1.23,1.23,0,0,0-1.45,0l-.42.21-.32.16-.08-.37-.21-1c-.08-.3-.23-.53-.39-.57l-.69-.14.64-.29c.63-.29,1.16-.52,1.54-.66a3,3,0,0,1,.47-.15c.13,0,.19,0,.18.07a5.54,5.54,0,0,0-.53.32c-.34.22-.85.5-1.46.84l-.05-.44a1.16,1.16,0,0,1,.78.86c.09.37.17.73.26,1.11l-.4-.21.45-.23a2.36,2.36,0,0,1,1.06-.25,1.38,1.38,0,0,1,1,.46.83.83,0,0,1,.15.23.75.75,0,0,1,.06.13.49.49,0,0,1,0,.21,1.44,1.44,0,0,1-.17.44,6.92,6.92,0,0,1-.4.63C303.71,65.83,303.35,66.23,303.29,66.2Z" style="fill:#b26746"></path><path d="M306,56.09a30.27,30.27,0,0,1-5.56.27l.19-.07c-.18.16-.36.32-.55.47-1.36,1.09-2.63,2-3.55,2.66a7.23,7.23,0,0,1-1.56,1c-.12-.14,2.06-1.93,4.76-4.06l.53-.44.08-.08h.1A31.37,31.37,0,0,1,306,56.09Z" style="fill:#b26746"></path><path d="M256.31,76.5A21,21,0,0,0,238,88.06a8.06,8.06,0,0,0-1,5.06c.36,1.71,1.91,3.27,3.65,3.1a4.64,4.64,0,0,0,3-1.91c2.32-2.84,3.22-6.54,4.59-10s3.6-6.87,7.12-7.88" style="fill:#f5f5f5"></path><path d="M256.59,92.54a25.18,25.18,0,0,0-1.22-3.23,24.18,24.18,0,0,1-1.53-5.78l-.48.45a13.66,13.66,0,0,0-2.47,9.85,6,6,0,0,0,.76,2.37,2.89,2.89,0,0,0,2,1.39,2.81,2.81,0,0,0,2.77-1.66A5,5,0,0,0,256.59,92.54Z" style="fill:#f5f5f5"></path><path d="M246.27,100.79a13.47,13.47,0,0,0-3.33,2.76,4.52,4.52,0,0,0-.93,4.08,2.77,2.77,0,0,0,3.43,1.8c1.52-.64,1.84-2.65,1.57-4.27s-.91-3.26-.48-4.85" style="fill:#f5f5f5"></path><path d="M408.2,187.22l-.08-.13.08.13L400.89,169l2.32-8.78-3.54-40.88h0l-9.36-5.64-.45-3.64-2.57.43L383,114.36h0L347.61,98.61,324.48,66.73l-11,6.6,21.24,40.27,40.11,22.89-.08.27c.36.21,17.7,144.12,25.12,144.55S420,262.89,435,262.45c9.71-.28,13.09,1.48,14.28,2.74C444.07,255.37,409,188.63,408.2,187.22Z" style="fill:#f5f5f5"></path><path d="M408.2,187.22s.26.46.75,1.36l2.14,4,8.21,15.49c7.12,13.47,17.4,32.95,30.1,57l.62,1.17-.94-.95a8.64,8.64,0,0,0-4.17-2,29.3,29.3,0,0,0-4.81-.64c-3.27-.13-6.68-.26-10,.72A34.19,34.19,0,0,0,420.8,268c-3,2-5.8,4.22-8.66,6.53-1.44,1.16-2.89,2.33-4.4,3.45a25.72,25.72,0,0,1-4.86,3,7,7,0,0,1-2.88.63,1.24,1.24,0,0,1-.8-.32,3.39,3.39,0,0,1-.49-.6,9.18,9.18,0,0,1-.71-1.3,40.44,40.44,0,0,1-1.89-5.56c-2.07-7.58-3.56-15.51-5.06-23.63-2.92-16.26-5.51-33.37-8.07-51.11s-5-36.11-7.45-54.92c-.17-1.22-.33-2.44-.49-3.66l-.25-1.83-.13-.91-.07-.45,0-.22,0-.11v-.05s0,0,0,0a.23.23,0,0,0,.11.11l-.12-.32.08-.27.13.31-40.11-22.89-.07,0,0-.07L313.28,73.44l-.11-.21.21-.12,11-6.59.2-.12.13.19L347.8,98.48l-.09-.08,35.41,15.78-.28.22h0l0-.11.08-.08,4.26-3.91,0,0h.06l2.57-.42.19,0,0,.2.44,3.63-.09-.13,9.36,5.64h0l.1.14c1.4,16.47,2.57,30.23,3.47,40.89v.05c-1,3.61-1.68,6.31-2.33,8.77v-.06c2.34,5.9,4.13,10.4,5.34,13.46s1.84,4.69,1.88,4.83v0l-.08-.13h0l.07.13-.08-.13h0l.07.13h0c-.07-.13-.74-1.74-2-4.79L400.8,169v-.06c.64-2.47,1.35-5.17,2.29-8.78v0c-.94-10.66-2.15-24.42-3.59-40.88l.09.15h0l-9.37-5.63-.08,0v-.09l-.45-3.64.22.17-2.57.43.1,0-4.25,3.92.06-.19h0l.08.37-.35-.15L347.52,98.82l-.06,0,0,0L324.28,66.88l.33.07-11,6.59.09-.33L335,113.47l-.11-.1L375,136.25l.19.11-.07.21-.08.27-.13-.31a.33.33,0,0,1,.13.17l0,.06v.06l0,.12,0,.23.07.46.13.92.25,1.83c.16,1.22.32,2.44.49,3.66,2.46,18.81,4.9,37.18,7.44,54.92s5.13,34.84,8,51.09c1.49,8.11,3,16,5,23.59a41.19,41.19,0,0,0,1.86,5.49,8.55,8.55,0,0,0,.67,1.23c.26.37.56.75.92.71a6.33,6.33,0,0,0,2.68-.59,25.05,25.05,0,0,0,4.77-2.91c1.5-1.12,2.94-2.28,4.38-3.44,2.87-2.31,5.72-4.58,8.71-6.54A34.51,34.51,0,0,1,430,263a20.92,20.92,0,0,1,5.07-.79c1.69,0,3.36,0,5,.07A29.26,29.26,0,0,1,445,263a8.94,8.94,0,0,1,4.37,2.08l-.32.23c-12.63-24.09-22.86-43.59-29.94-57.08L411,192.66c-.92-1.78-1.63-3.13-2.1-4S408.2,187.22,408.2,187.22Z" style="fill:#e0e0e0"></path><path d="M388.59,142.08a3.71,3.71,0,0,1-2.32-.3,46.15,46.15,0,0,1-5.17-2.17c-2-1-3.73-1.85-5-2.49a10.73,10.73,0,0,1-2-1.1,8.88,8.88,0,0,1,2.2.75c1.33.55,3.12,1.4,5.09,2.35s3.75,1.76,5.07,2.3A13.46,13.46,0,0,0,388.59,142.08Z" style="fill:#263238"></path><path d="M397.73,128.79a27.66,27.66,0,0,0-.58-3.18,11.54,11.54,0,0,0-4.42-6.14,54.33,54.33,0,0,0-6.85-3.77,13.7,13.7,0,0,1-2.83-1.65,31.29,31.29,0,0,1,3,1.3,40.94,40.94,0,0,1,7,3.68,11.26,11.26,0,0,1,4.47,6.48,9.38,9.38,0,0,1,.3,2.4A2.6,2.6,0,0,1,397.73,128.79Z" style="fill:#263238"></path><path d="M398.76,177.55a15.71,15.71,0,0,1,.54-4.51,15,15,0,0,1,1.34-4.33,25.87,25.87,0,0,1-.81,4.45A23.67,23.67,0,0,1,398.76,177.55Z" style="fill:#263238"></path><path d="M405.18,197.24a5.2,5.2,0,0,1-1.44,1.66,12,12,0,0,1-4.72,2.47,12.11,12.11,0,0,1-5.33.19,5.14,5.14,0,0,1-2.07-.73c0-.09.82.18,2.14.35a13.41,13.41,0,0,0,9.74-2.58C404.56,197.8,405.11,197.17,405.18,197.24Z" style="fill:#263238"></path><path d="M435,251.38a6.6,6.6,0,0,1-1.4.23c-.45.06-1,.11-1.65.14s-1.38.08-2.19.06a39.78,39.78,0,0,1-5.71-.4,42.64,42.64,0,0,1-13.32-4.2,40.48,40.48,0,0,1-4.91-2.94c-.68-.45-1.24-.92-1.76-1.31s-.93-.75-1.27-1.06a7.08,7.08,0,0,1-1-1c.06-.08,1.57,1.25,4.26,3a45.28,45.28,0,0,0,4.91,2.81,45.32,45.32,0,0,0,13.18,4.15,47.44,47.44,0,0,0,5.63.52C433,251.51,435,251.28,435,251.38Z" style="fill:#263238"></path><path d="M449.47,265.36s-.14-.08-.37-.26a7.84,7.84,0,0,0-1-.78,13,13,0,0,0-4.36-1.75,25.43,25.43,0,0,0-7-.45,31.71,31.71,0,0,0-8.43,1.65c-5.84,2-10.19,5.63-13.26,8.19l-3.61,3.14a10.16,10.16,0,0,1-1.36,1.11,11.09,11.09,0,0,1,1.22-1.27c.81-.79,2-1.92,3.5-3.27a61.28,61.28,0,0,1,5.56-4.44,30.66,30.66,0,0,1,7.77-4,31.3,31.3,0,0,1,8.58-1.64,24.4,24.4,0,0,1,7.11.58,12.26,12.26,0,0,1,4.39,1.95,6.37,6.37,0,0,1,1,.87C449.39,265.23,449.49,265.35,449.47,265.36Z" style="fill:#263238"></path><path d="M411.52,215.86s0,.11-.13.3a6.46,6.46,0,0,1-.52.78,8.78,8.78,0,0,1-2.66,2.24,9.14,9.14,0,0,1-5,1.1,9.75,9.75,0,0,1-5.72-2.6,14.54,14.54,0,0,1-3.61-5.15,25.47,25.47,0,0,1-1.48-4.91c-.28-1.43-.44-2.59-.54-3.39a6.24,6.24,0,0,1-.1-1.26,5.74,5.74,0,0,1,.31,1.22c.16.79.38,1.95.71,3.35a27.52,27.52,0,0,0,1.56,4.79,14.45,14.45,0,0,0,3.51,4.95,9.48,9.48,0,0,0,5.4,2.5,8.89,8.89,0,0,0,4.8-.95A10.79,10.79,0,0,0,411.52,215.86Z" style="fill:#263238"></path><polygon points="341.19 232.37 322.23 475.77 334.55 475.55 355.88 232.21 341.19 232.37" style="fill:#455a64"></polygon><polygon points="359.78 232.17 345.34 232.37 417.22 475.49 431.4 475.49 359.78 232.17" style="fill:#455a64"></polygon><polygon points="342.33 344.36 382.14 344.36 385.47 353.83 339.63 353.83 342.33 344.36" style="fill:#455a64"></polygon><path d="M352.12,226.44l-11.74,1.3-7.17,4.49s-.14,1.46,1.9,1.23l4-1.71-3.2,3.5a1.71,1.71,0,0,0,2.53.43,10.06,10.06,0,0,0,2.85-2.46l7.06-.5s-5.34,5.13-4.36,6.47,1.62,1.05,2.39.56,1.19-2.18,2.95-2.74,4.66-2.2,7.8-3.69c2.7-1.28,5.45-10.44,5.45-10.44l-9-1.76Z" style="fill:#d38d6e"></path><path d="M347.45,229.44a44.28,44.28,0,0,1-6.68,1.28h-.1l.15-.08a40.92,40.92,0,0,1-4.87,4.6,42,42,0,0,1,4.48-5l.07-.07h.19A42,42,0,0,1,347.45,229.44Z" style="fill:#b26746"></path></g><g id="freepik--Floor--inject-2"><path d="M452.59,475.49c0,.15-94.53.28-211.11.28s-211.13-.13-211.13-.28,94.51-.27,211.13-.27S452.59,475.34,452.59,475.49Z" style="fill:#263238"></path></g></svg>