<?xml version="1.0" encoding="UTF-8" standalone="no"?>
<!DOCTYPE svg PUBLIC "-//W3C//DTD SVG 1.1//EN" "http://www.w3.org/Graphics/SVG/1.1/DTD/svg11.dtd">
<svg version="1.1" xmlns="http://www.w3.org/2000/svg" xmlns:xlink="http://www.w3.org/1999/xlink" preserveAspectRatio="xMidYMid meet" viewBox="0 0 640 640" width="640" height="640"><defs><path d="M167.27 247.3C167.28 312.02 208.07 369.71 269.09 391.29C269.09 392.84 269.09 400.59 269.09 414.55L298.18 414.55L298.18 290.91C285.09 290.91 277.82 290.91 276.36 290.91C256.28 290.91 240 274.63 240 254.55C240 234.46 256.28 218.18 276.36 218.18C296.45 218.18 312.73 234.46 312.73 254.55C312.73 256 312.73 263.27 312.73 276.36L327.27 276.36C327.27 263.27 327.27 256 327.27 254.55C327.27 234.46 343.55 218.18 363.64 218.18C383.72 218.18 400 234.46 400 254.55C400 274.63 383.72 290.91 363.64 290.91C362.18 290.91 354.91 290.91 341.82 290.91L341.82 414.55L370.91 414.55C370.91 400.59 370.91 392.84 370.91 391.29C450.44 363.16 492.11 275.89 463.99 196.36C442.41 135.35 384.72 94.55 320 94.55C235.64 94.55 167.27 162.94 167.27 247.3Z" id="cVXctl2l"></path><path d="M370.91 429.09C370.91 429.09 370.91 429.09 370.91 429.09C370.91 437.82 370.91 442.67 370.91 443.64C370.91 443.64 370.91 443.64 370.91 443.64C309.82 443.64 275.88 443.64 269.09 443.64C269.09 443.64 269.09 443.64 269.09 443.64C269.09 434.91 269.09 430.06 269.09 429.09C269.09 429.09 269.09 429.09 269.09 429.09C330.18 429.09 364.12 429.09 370.91 429.09Z" id="c12tETf5nZ"></path><path d="M370.91 458.18C370.91 458.18 370.91 458.18 370.91 458.18C370.91 523.64 370.91 560 370.91 567.27C370.91 567.27 370.91 567.27 370.91 567.27C353.45 567.27 343.76 567.27 341.82 567.27C341.82 567.27 341.82 567.27 341.82 567.27C341.82 501.82 341.82 465.45 341.82 458.18C341.82 458.18 341.82 458.18 341.82 458.18C359.27 458.18 368.97 458.18 370.91 458.18Z" id="cPAzaWPoM"></path><path d="M327.27 456.09C327.27 456.09 327.27 456.09 327.27 456.09C327.27 521.55 327.27 557.91 327.27 565.18C327.27 565.18 327.27 565.18 327.27 565.18C318.55 565.18 313.7 565.18 312.73 565.18C312.73 565.18 312.73 565.18 312.73 565.18C312.73 499.73 312.73 463.37 312.73 456.09C312.73 456.09 312.73 456.09 312.73 456.09C321.45 456.09 326.3 456.09 327.27 456.09Z" id="gei2bQb75"></path><path d="M327.27 290.91C327.27 290.91 327.27 290.91 327.27 290.91C327.27 365.09 327.27 406.3 327.27 414.55C327.27 414.55 327.27 414.55 327.27 414.55C318.55 414.55 313.7 414.55 312.73 414.55C312.73 414.55 312.73 414.55 312.73 414.55C312.73 340.36 312.73 299.15 312.73 290.91C312.73 290.91 312.73 290.91 312.73 290.91C321.45 290.91 326.3 290.91 327.27 290.91Z" id="a4vZGKAi95"></path><path d="M254.55 254.55C254.55 266.6 264.31 276.36 276.36 276.36C277.82 276.36 285.09 276.36 298.18 276.36C298.18 263.27 298.18 256 298.18 254.55C298.17 242.5 288.41 232.74 276.36 232.73C264.31 232.73 254.55 242.5 254.55 254.55Z" id="e3Mq5zNqAk"></path><path d="M298.18 458.18C298.18 458.18 298.18 458.18 298.18 458.18C298.18 523.64 298.18 560 298.18 567.27C298.18 567.27 298.18 567.27 298.18 567.27C280.73 567.27 271.03 567.27 269.09 567.27C269.09 567.27 269.09 567.27 269.09 567.27C269.09 501.82 269.09 465.45 269.09 458.18C269.09 458.18 269.09 458.18 269.09 458.18C286.55 458.18 296.24 458.18 298.18 458.18Z" id="a15AslOOtq"></path><path d="M363.64 232.73C351.59 232.73 341.82 242.5 341.82 254.55C341.82 256 341.82 263.27 341.82 276.36C354.91 276.36 362.18 276.36 363.64 276.36C375.68 276.35 385.44 266.59 385.45 254.55C385.45 242.5 375.69 232.73 363.64 232.73Z" id="aep06aJoN"></path><path d="M314.48 630.19C317.09 633.24 321.68 633.59 324.73 630.98C325.01 630.74 325.28 630.47 325.52 630.19C328.28 626.96 342.1 610.84 366.98 581.82L273.02 581.82C295.13 607.62 308.95 623.74 314.48 630.19Z" id="a1b46LvN1i"></path></defs><g><g><g><use xlink:href="#cVXctl2l" opacity="1" fill="#fafafa" fill-opacity="1"></use><g><use xlink:href="#cVXctl2l" opacity="1" fill-opacity="0" stroke="#000000" stroke-width="1" stroke-opacity="0"></use></g></g><g><use xlink:href="#c12tETf5nZ" opacity="1" fill="#fafafa" fill-opacity="1"></use><g><use xlink:href="#c12tETf5nZ" opacity="1" fill-opacity="0" stroke="#000000" stroke-width="1" stroke-opacity="0"></use></g></g><g><use xlink:href="#cPAzaWPoM" opacity="1" fill="#fafafa" fill-opacity="1"></use><g><use xlink:href="#cPAzaWPoM" opacity="1" fill-opacity="0" stroke="#000000" stroke-width="1" stroke-opacity="0"></use></g></g><g><use xlink:href="#gei2bQb75" opacity="1" fill="#fafafa" fill-opacity="1"></use><g><use xlink:href="#gei2bQb75" opacity="1" fill-opacity="0" stroke="#000000" stroke-width="1" stroke-opacity="0"></use></g></g><g><use xlink:href="#a4vZGKAi95" opacity="1" fill="#fafafa" fill-opacity="1"></use><g><use xlink:href="#a4vZGKAi95" opacity="1" fill-opacity="0" stroke="#000000" stroke-width="1" stroke-opacity="0"></use></g></g><g><use xlink:href="#e3Mq5zNqAk" opacity="1" fill="#fafafa" fill-opacity="1"></use><g><use xlink:href="#e3Mq5zNqAk" opacity="1" fill-opacity="0" stroke="#000000" stroke-width="1" stroke-opacity="0"></use></g></g><g><use xlink:href="#a15AslOOtq" opacity="1" fill="#fafafa" fill-opacity="1"></use><g><use xlink:href="#a15AslOOtq" opacity="1" fill-opacity="0" stroke="#000000" stroke-width="1" stroke-opacity="0"></use></g></g><g><use xlink:href="#aep06aJoN" opacity="1" fill="#fafafa" fill-opacity="1"></use><g><use xlink:href="#aep06aJoN" opacity="1" fill-opacity="0" stroke="#000000" stroke-width="1" stroke-opacity="0"></use></g></g><g><use xlink:href="#a1b46LvN1i" opacity="1" fill="#fafafa" fill-opacity="1"></use><g><use xlink:href="#a1b46LvN1i" opacity="1" fill-opacity="0" stroke="#000000" stroke-width="1" stroke-opacity="0"></use></g></g></g></g></svg>