<svg width="48" height="48" xmlns="http://www.w3.org/2000/svg">

 <g>
  <title>background</title>
  <rect fill="none" id="canvas_background" height="50" width="50" y="-1" x="-1"/>
 </g>
 <g>
  <title>Layer 1</title>
  <ellipse ry="22" rx="22" id="svg_2" cy="24" cx="24" stroke-opacity="null" stroke-width="null" stroke="null" fill="#fffffe"/>
  <path stroke="null" id="svg_1" fill-rule="evenodd" clip-rule="evenodd" fill="#007AB9" d="m37.382368,35.303549l0,-9.367994c0,-5.01914 -2.673761,-7.354739 -6.238243,-7.354739c-2.876488,0 -4.16548,1.586128 -4.883804,2.698737l0,-2.314803l-5.419354,0c0.071832,1.533337 0,16.3388 0,16.3388l5.419354,0l0,-9.124836c0,-0.487117 0.035118,-0.975033 0.178783,-1.323773c0.391087,-0.975833 1.282607,-1.98606 2.779115,-1.98606c1.961822,0 2.745593,1.498143 2.745593,3.693767l0,8.741702l5.418556,0l0,-0.0008zm-22.250478,-18.568818c1.889192,0 3.066444,-1.255785 3.066444,-2.824316c-0.035118,-1.602125 -1.177253,-2.821916 -3.030528,-2.821916s-3.065646,1.218991 -3.065646,2.821916c0,1.568531 1.176455,2.824316 2.99541,2.824316l0.03432,0zm8.812237,31.257043c-13.223543,0 -23.944126,-10.743759 -23.944126,-23.995887c0,-13.252929 10.720584,-23.995887 23.944126,-23.995887s23.944126,10.742959 23.944126,23.995887c0,13.252129 -10.720584,23.995887 -23.944126,23.995887zm-6.10256,-12.688225l0,-16.3388l-5.418556,0l0,16.3388l5.418556,0z"/>
 </g>
</svg>