<svg width="48" height="48" xmlns="http://www.w3.org/2000/svg">

 <g>
  <title>background</title>
  <rect fill="none" id="canvas_background" height="50" width="50" y="-1" x="-1"/>
 </g>
 <g>
  <title>Layer 1</title>
  <rect fill="#55acee" y="0" x="0" width="48" ry="250" rx="250" id="rect2990-1" height="48"/>
  <path fill="#fffffe" id="rect2989" d="m28.798486,13.575474c-2.843878,0.072061 -5.1252,2.399754 -5.1252,5.261497c0,0.411962 0.044194,0.814705 0.134293,1.200624c-4.374813,-0.219781 -8.253465,-2.315258 -10.849709,-5.500019c-0.453108,0.777051 -0.713559,1.682202 -0.713559,2.647786c0,1.825964 0.930681,3.435858 2.34312,4.37957c-0.862462,-0.027603 -1.675346,-0.265186 -2.385212,-0.659441c-0.000401,0.021873 0,0.045755 0,0.068149c0,2.549894 1.814998,4.67492 4.223229,5.159274c-0.441647,0.119787 -0.906842,0.184403 -1.387031,0.184403c-0.339569,0 -0.668824,-0.032229 -0.990164,-0.094206c0.670282,2.091057 2.611712,3.613805 4.91474,3.655989c-1.801486,1.41192 -4.067716,2.252923 -6.534279,2.252923c-0.42446,0 -0.844786,-0.023201 -1.256746,-0.072158c2.330109,1.494212 5.09536,2.365168 8.067629,2.365168c9.6824,0 14.976727,-8.020773 14.976727,-14.976727c0,-0.228114 -0.004145,-0.457461 -0.014031,-0.683494c1.028082,-0.740594 1.92056,-1.668266 2.625738,-2.723952c-0.943189,0.419254 -1.957546,0.703254 -3.022605,0.829813c1.087453,-0.651015 1.921848,-1.682209 2.315059,-2.912364c-1.017144,0.603621 -2.143879,1.042346 -3.343306,1.278794c-0.959855,-1.022874 -2.328398,-1.661631 -3.842396,-1.661631c-0.045416,0 -0.091158,-0.001147 -0.136298,0z"/>
 </g>
</svg>