<?xml version="1.0" encoding="UTF-8" standalone="no"?>
<!DOCTYPE svg PUBLIC "-//W3C//DTD SVG 1.1//EN" "http://www.w3.org/Graphics/SVG/1.1/DTD/svg11.dtd">
<svg version="1.1" xmlns="http://www.w3.org/2000/svg" xmlns:xlink="http://www.w3.org/1999/xlink" preserveAspectRatio="xMidYMid meet" viewBox="0 0 640 640" width="640" height="640"><defs><path d="M10 320C10 491.32 148.65 630 320 630C380.19 630 439.18 612.33 489.26 579.72C504.27 569.95 507.54 549.36 496.2 535.51C494.93 533.95 484.75 521.52 483.48 519.96C473.89 508.25 457.01 505.38 444.26 513.55C407.4 537.2 364.14 550 320 550C193.18 550 90 446.82 90 320C90 193.18 193.18 90 320 90C445.17 90 550 162.02 550 290C550 338.48 523.63 389.68 477.29 394.62C455.6 394.05 456.15 378.55 460.44 357.09C463.37 341.95 486.8 220.84 489.73 205.7C493.32 187.19 479.14 170 460.28 170C454.66 170 409.68 170 404.06 170C395.46 170 388.23 176.45 387.27 184.99C387.26 185 387.25 185.09 387.25 185.11C368.88 162.73 336.69 157.89 312.29 157.89C219.06 157.89 140 235.68 140 347.21C140 428.84 185.98 479.55 260 479.55C293.73 479.55 331.71 460 353.74 431.63C365.64 474.26 404.51 474.26 442.13 474.26C578.26 474.26 630 384.75 630 290C630 119.57 492.53 10 320 10C148.68 10 10 148.65 10 320ZM247.81 339.57C247.81 283.33 286.29 248.66 321.1 248.66C348.97 248.66 365.6 267.71 365.6 299.63C365.6 355.95 323.26 390.54 292.9 390.54C265.09 390.54 247.81 371.01 247.81 339.57Z" id="g1A7GishA8"></path></defs><g><g><g><use xlink:href="#g1A7GishA8" opacity="1" fill="#00dfc0" fill-opacity="1"></use><g><use xlink:href="#g1A7GishA8" opacity="1" fill-opacity="0" stroke="#000000" stroke-width="1" stroke-opacity="0"></use></g></g></g></g></svg>