<?xml version="1.0" encoding="UTF-8" standalone="no"?>
<!DOCTYPE svg PUBLIC "-//W3C//DTD SVG 1.1//EN" "http://www.w3.org/Graphics/SVG/1.1/DTD/svg11.dtd">
<svg version="1.1" xmlns="http://www.w3.org/2000/svg" xmlns:xlink="http://www.w3.org/1999/xlink" preserveAspectRatio="xMidYMid meet" viewBox="0 0 640 640" width="640" height="640"><defs><path d="M570.88 40.14L572.55 40.31L574.21 40.54L575.84 40.84L577.45 41.21L579.04 41.63L580.6 42.12L582.13 42.66L583.64 43.26L585.11 43.92L586.56 44.64L587.97 45.4L589.35 46.22L590.69 47.09L592 48.01L593.27 48.98L594.5 50L595.69 51.06L596.84 52.16L597.94 53.31L599 54.5L600.02 55.73L600.99 57L601.91 58.31L602.78 59.65L603.6 61.03L604.36 62.44L605.08 63.89L605.74 65.36L606.34 66.87L606.88 68.4L607.37 69.96L607.79 71.55L608.16 73.16L608.46 74.79L608.69 76.45L608.86 78.12L608.97 79.82L609 81.53L609 559.13L608.97 560.81L608.86 562.48L608.7 564.13L608.47 565.76L608.17 567.37L607.81 568.95L607.39 570.51L606.92 572.05L606.38 573.56L605.79 575.04L605.14 576.49L604.44 577.91L603.68 579.3L602.88 580.66L602.02 581.98L601.11 583.27L600.16 584.52L599.16 585.73L598.12 586.9L597.03 588.03L595.9 589.12L594.73 590.16L593.52 591.16L592.27 592.11L590.98 593.02L589.66 593.88L588.3 594.68L586.91 595.44L585.49 596.14L584.04 596.79L582.56 597.38L581.05 597.92L579.51 598.39L577.95 598.81L576.37 599.17L574.76 599.47L573.13 599.7L571.48 599.86L569.81 599.97L568.13 600L88.15 600L86.43 599.97L84.72 599.86L83.04 599.69L81.37 599.45L79.72 599.15L78.1 598.78L76.51 598.36L74.93 597.87L73.39 597.32L71.87 596.71L70.39 596.05L68.93 595.33L67.51 594.56L66.12 593.73L64.77 592.86L63.45 591.93L62.18 590.96L60.94 589.93L59.74 588.86L58.58 587.75L57.47 586.59L56.4 585.4L55.38 584.16L54.4 582.88L53.48 581.56L52.6 580.21L51.77 578.82L51 577.4L50.28 575.94L49.62 574.46L49.01 572.94L48.47 571.4L47.98 569.83L47.55 568.23L47.18 566.61L46.88 564.96L46.64 563.3L46.47 561.61L46.37 559.9L46.33 558.18L46.33 85.79L46.37 83.9L46.49 82.04L46.67 80.19L46.93 78.36L47.26 76.56L47.66 74.79L48.13 73.04L48.67 71.32L49.27 69.63L49.93 67.97L50.66 66.34L51.44 64.75L52.29 63.19L53.19 61.67L54.15 60.19L55.17 58.75L56.24 57.35L57.36 55.99L58.53 54.68L59.75 53.41L61.01 52.19L62.32 51.02L63.68 49.9L65.08 48.84L66.52 47.82L68 46.86L69.52 45.96L71.08 45.11L72.67 44.32L74.3 43.6L75.96 42.93L77.65 42.33L79.37 41.8L81.12 41.33L82.9 40.93L84.7 40.6L86.52 40.34L88.37 40.15L90.24 40.04L92.12 40L567.47 40L569.18 40.03L570.88 40.14ZM311.09 107.8L302.3 108.68L293.6 109.91L285.03 111.47L276.57 113.36L268.24 115.57L260.05 118.1L252 120.93L244.1 124.06L236.35 127.48L228.77 131.2L221.35 135.19L214.12 139.45L207.06 143.98L200.2 148.77L193.54 153.81L187.08 159.09L180.83 164.61L174.81 170.36L169 176.34L163.43 182.54L158.11 188.94L153.02 195.55L148.19 202.35L143.63 209.35L139.33 216.52L135.3 223.87L131.56 231.39L128.11 239.08L124.95 246.91L122.09 254.9L119.55 263.02L117.32 271.28L115.41 279.67L113.84 288.17L112.6 296.79L111.71 305.52L111.17 314.35L110.99 323.26L111.17 332.18L111.71 341.01L112.6 349.73L113.84 358.35L115.41 366.85L117.32 375.24L119.54 383.5L122.09 391.62L124.94 399.61L128.1 407.44L131.56 415.13L135.3 422.65L139.32 430L143.62 437.17L148.19 444.17L153.02 450.97L158.1 457.58L163.43 463.98L169 470.18L174.8 476.16L180.83 481.91L187.07 487.43L193.53 492.72L200.19 497.76L207.06 502.54L214.11 507.07L221.34 511.34L228.76 515.33L236.34 519.04L244.09 522.47L251.99 525.6L260.04 528.43L268.24 530.95L276.56 533.17L285.02 535.05L293.6 536.62L302.29 537.84L311.09 538.73L319.99 539.26L328.99 539.44L332.16 539.42L335.33 539.35L338.49 539.24L341.65 539.08L344.81 538.87L347.96 538.62L351.1 538.32L354.24 537.98L357.37 537.59L360.49 537.16L363.6 536.69L366.71 536.17L369.8 535.6L372.89 535L375.96 534.34L379.03 533.65L382.08 532.91L385.12 532.13L388.15 531.31L391.17 530.44L394.17 529.53L397.16 528.58L400.13 527.58L403.09 526.55L406.04 525.47L408.96 524.35L411.88 523.18L414.77 521.98L417.65 520.74L420.51 519.45L423.35 518.13L426.17 516.76L428.98 515.35L431.76 513.9L434.52 512.42L437.27 510.89L439.99 509.32L442.68 507.71L445.36 506.07L448.01 504.38L448.79 503.86L449.53 503.3L450.25 502.73L450.93 502.12L451.58 501.5L452.2 500.85L452.78 500.18L453.34 499.49L453.86 498.78L454.35 498.05L454.81 497.3L455.23 496.54L455.62 495.77L455.97 494.98L456.3 494.18L456.59 493.37L456.84 492.55L457.06 491.72L457.25 490.88L457.4 490.03L457.52 489.18L457.6 488.33L457.65 487.47L457.66 486.61L457.64 485.75L457.58 484.89L457.48 484.04L457.35 483.18L457.18 482.33L456.98 481.48L456.74 480.64L456.46 479.81L456.15 478.99L455.8 478.17L455.41 477.37L454.98 476.58L454.52 475.8L454.01 475.03L453.47 474.28L452.89 473.55L443.95 462.71L443.43 462.11L442.9 461.53L442.35 460.98L441.78 460.45L441.19 459.94L440.59 459.46L439.98 459L439.35 458.56L438.71 458.15L438.05 457.76L437.39 457.4L436.71 457.07L436.02 456.75L435.33 456.47L434.62 456.2L433.91 455.97L433.19 455.75L432.46 455.57L431.73 455.41L430.99 455.27L430.25 455.17L429.5 455.08L428.76 455.03L428.01 455L427.26 455L426.5 455.02L425.75 455.07L425 455.15L424.26 455.25L423.51 455.38L422.77 455.54L422.03 455.73L421.3 455.95L420.57 456.19L419.85 456.46L419.14 456.76L418.43 457.09L417.73 457.44L417.05 457.83L416.37 458.24L414.42 459.46L412.45 460.66L410.46 461.82L408.46 462.96L406.45 464.07L404.41 465.14L402.37 466.19L400.31 467.21L398.23 468.2L396.15 469.17L394.04 470.1L391.93 471L389.8 471.87L387.66 472.71L385.51 473.53L383.35 474.31L381.18 475.06L379 475.78L376.8 476.47L374.6 477.13L372.38 477.76L370.16 478.36L367.93 478.92L365.69 479.46L363.44 479.96L361.18 480.43L358.92 480.87L356.65 481.28L354.37 481.66L352.09 482L349.8 482.31L347.5 482.59L345.2 482.84L342.9 483.06L340.59 483.24L338.28 483.39L335.96 483.51L333.64 483.59L331.31 483.64L328.99 483.66L322.33 483.52L315.74 483.12L309.22 482.46L302.78 481.55L296.43 480.39L290.16 478.99L283.99 477.34L277.92 475.46L271.95 473.36L266.09 471.03L260.34 468.48L254.72 465.73L249.22 462.76L243.85 459.59L238.62 456.23L233.52 452.67L228.58 448.92L223.78 445L219.15 440.9L214.67 436.62L210.36 432.19L206.23 427.59L202.27 422.83L198.49 417.93L194.9 412.88L191.51 407.69L188.31 402.36L185.32 396.91L182.54 391.33L179.97 385.64L177.63 379.83L175.5 373.91L173.61 367.88L171.95 361.76L170.54 355.55L169.36 349.25L168.44 342.86L167.78 336.4L167.38 329.87L167.24 323.26L167.38 316.66L167.78 310.13L168.44 303.67L169.36 297.28L170.54 290.98L171.95 284.77L173.61 278.65L175.5 272.62L177.63 266.7L179.97 260.89L182.54 255.2L185.32 249.62L188.31 244.16L191.51 238.84L194.9 233.65L198.49 228.6L202.27 223.7L206.23 218.94L210.36 214.34L214.67 209.9L219.15 205.63L223.78 201.53L228.58 197.6L233.52 193.86L238.62 190.3L243.85 186.94L249.22 183.77L254.72 180.8L260.34 178.04L266.09 175.5L271.95 173.17L277.92 171.06L283.99 169.19L290.16 167.54L296.43 166.14L302.78 164.98L309.22 164.06L315.74 163.41L322.33 163.01L328.99 162.87L335.56 162.97L342.07 163.25L348.52 163.72L354.9 164.37L361.21 165.21L367.43 166.23L373.57 167.43L379.61 168.81L385.55 170.37L391.39 172.12L397.12 174.03L402.74 176.13L408.24 178.4L413.61 180.85L418.84 183.47L423.95 186.26L428.9 189.23L433.71 192.36L438.37 195.67L442.87 199.14L447.2 202.78L451.36 206.59L455.34 210.56L459.15 214.7L462.76 219L466.18 223.46L469.41 228.08L472.43 232.86L475.24 237.8L477.83 242.9L480.21 248.16L482.36 253.57L484.27 259.13L485.95 264.85L487.39 270.73L488.58 276.75L489.51 282.93L490.18 289.25L490.59 295.72L490.73 302.34L490.69 304.88L490.59 307.42L490.42 309.97L490.18 312.51L489.87 315.04L489.49 317.57L489.05 320.08L488.54 322.58L487.96 325.06L487.32 327.52L486.61 329.96L485.84 332.36L485.01 334.73L484.11 337.07L483.14 339.38L482.11 341.64L481.02 343.85L479.87 346.02L478.66 348.14L477.38 350.21L476.05 352.22L474.65 354.16L473.19 356.05L471.67 357.87L470.1 359.62L468.46 361.29L466.76 362.89L465.01 364.41L463.2 365.85L461.33 367.2L459.41 368.46L457.43 369.63L455.39 370.71L453.3 371.69L451.15 372.56L448.95 373.33L446.69 373.99L444.38 374.54L442.01 374.98L439.59 375.3L438.48 375.25L437.42 375.16L436.42 375.04L435.47 374.87L434.58 374.67L433.74 374.44L432.95 374.17L432.22 373.86L431.53 373.52L430.88 373.15L430.29 372.74L429.74 372.3L429.23 371.83L428.77 371.32L428.35 370.79L427.97 370.22L427.62 369.63L427.32 369.01L427.05 368.36L426.82 367.68L426.62 366.97L426.46 366.23L426.32 365.47L426.22 364.69L426.15 363.88L426.1 363.04L426.09 362.19L426.09 361.3L426.13 360.4L426.18 359.47L426.26 358.53L426.36 357.56L426.47 356.57L426.61 355.56L426.76 354.53L426.93 353.48L427.12 352.42L427.32 351.34L427.53 350.24L427.75 349.13L448.35 243.56L448.51 242.59L448.63 241.63L448.71 240.67L448.74 239.72L448.72 238.78L448.67 237.85L448.57 236.92L448.43 236.01L448.25 235.11L448.04 234.22L447.78 233.35L447.49 232.49L447.16 231.64L446.8 230.81L446.4 230.01L445.96 229.22L445.5 228.45L445 227.7L444.47 226.97L443.91 226.27L443.32 225.59L442.7 224.93L442.05 224.31L441.38 223.71L440.68 223.13L439.95 222.59L439.2 222.08L438.43 221.6L437.64 221.15L436.82 220.74L435.98 220.36L435.12 220.01L434.24 219.7L433.35 219.43L432.43 219.2L431.5 219.01L430.56 218.86L429.6 218.75L428.62 218.68L427.63 218.66L388.09 218.66L387.64 218.67L387.2 218.69L386.75 218.74L386.31 218.79L385.88 218.87L385.45 218.95L385.03 219.06L384.61 219.18L384.2 219.31L383.8 219.46L383.4 219.62L383.01 219.79L382.62 219.98L382.25 220.18L381.88 220.4L381.52 220.63L381.17 220.87L380.83 221.12L380.5 221.38L380.18 221.65L379.87 221.94L379.57 222.24L379.28 222.54L379 222.86L378.73 223.19L378.47 223.53L378.23 223.87L378 224.23L377.78 224.6L377.57 224.97L377.38 225.35L377.2 225.74L377.03 226.14L376.88 226.54L376.74 226.96L376.62 227.38L376.51 227.8L376.42 228.23L376.35 228.67L376.29 229.12L376.28 229.2L375.29 228.05L374.27 226.95L373.21 225.89L372.13 224.87L371.01 223.9L369.86 222.97L368.69 222.08L367.48 221.23L366.26 220.42L365.01 219.65L363.73 218.91L362.44 218.21L361.13 217.55L359.79 216.93L358.45 216.33L357.08 215.77L355.71 215.25L354.32 214.75L352.92 214.29L351.51 213.85L350.09 213.45L348.67 213.07L347.24 212.72L345.81 212.4L344.38 212.11L342.94 211.83L341.51 211.59L340.08 211.37L338.65 211.16L337.22 210.99L335.8 210.83L334.39 210.69L332.99 210.57L331.6 210.47L330.22 210.39L328.86 210.32L327.51 210.28L326.18 210.24L324.86 210.22L323.56 210.21L318.66 210.32L313.81 210.62L309 211.12L304.24 211.81L299.53 212.7L294.89 213.77L290.3 215.03L285.79 216.48L281.34 218.1L276.97 219.91L272.69 221.88L268.48 224.03L264.37 226.35L260.34 228.83L256.42 231.48L252.59 234.29L248.88 237.25L245.27 240.37L241.77 243.64L238.4 247.06L235.15 250.63L232.02 254.33L229.03 258.18L226.17 262.17L223.45 266.29L220.88 270.54L218.46 274.92L216.18 279.42L214.07 284.05L212.12 288.8L210.33 293.66L208.71 298.64L207.27 303.73L206 308.93L204.92 314.24L204.03 319.64L203.32 325.15L202.82 330.75L202.51 336.45L202.4 342.24L202.47 346.47L202.65 350.62L202.94 354.68L203.36 358.66L203.9 362.55L204.54 366.35L205.31 370.07L206.18 373.7L207.17 377.23L208.27 380.68L209.48 384.02L210.79 387.28L212.22 390.44L213.75 393.5L215.38 396.46L217.12 399.32L218.96 402.08L220.9 404.73L222.94 407.28L225.08 409.73L227.32 412.07L229.65 414.3L232.08 416.42L234.6 418.44L237.22 420.34L239.92 422.12L242.72 423.8L245.61 425.35L248.58 426.79L251.65 428.11L254.79 429.31L258.03 430.39L261.34 431.35L264.74 432.19L268.22 432.9L271.78 433.48L275.42 433.94L279.13 434.26L282.92 434.46L286.79 434.53L288.58 434.5L290.37 434.43L292.17 434.3L293.98 434.13L295.8 433.9L297.62 433.63L299.44 433.31L301.27 432.95L303.09 432.54L304.92 432.09L306.74 431.59L308.56 431.05L310.38 430.46L312.19 429.84L313.99 429.17L315.78 428.46L317.56 427.71L319.33 426.93L321.09 426.1L322.84 425.24L324.57 424.34L326.28 423.4L327.97 422.43L329.65 421.42L331.3 420.38L332.93 419.3L334.54 418.2L336.12 417.05L337.68 415.88L339.21 414.68L340.71 413.45L342.18 412.18L343.62 410.89L345.03 409.57L346.4 408.23L347.74 406.86L349.04 405.46L350.31 404.03L351.53 402.58L352.71 401.11L353.37 403.29L354.11 405.35L354.91 407.31L355.77 409.17L356.7 410.92L357.69 412.58L358.74 414.15L359.85 415.62L361.01 417L362.23 418.3L363.51 419.51L364.83 420.64L366.2 421.7L367.62 422.68L369.08 423.58L370.59 424.42L372.13 425.19L373.72 425.89L375.35 426.54L377.01 427.12L378.7 427.65L380.43 428.13L382.18 428.56L383.97 428.94L385.78 429.27L387.62 429.57L389.48 429.82L391.36 430.04L393.26 430.22L395.17 430.38L397.1 430.5L399.05 430.6L401 430.68L402.97 430.74L404.94 430.78L406.92 430.81L408.91 430.83L410.9 430.84L412.88 430.84L414.87 430.84L421.94 430.72L428.79 430.38L435.42 429.81L441.83 429.03L448.03 428.03L454.02 426.82L459.8 425.42L465.37 423.82L470.74 422.03L475.9 420.05L480.86 417.9L485.62 415.57L490.19 413.08L494.56 410.42L498.74 407.6L502.73 404.64L506.53 401.53L510.15 398.27L513.58 394.89L516.83 391.37L519.9 387.73L522.79 383.97L525.51 380.1L528.05 376.12L530.42 372.04L532.63 367.86L534.67 363.59L536.54 359.24L538.25 354.8L539.8 350.3L541.2 345.72L542.44 341.08L543.52 336.38L544.45 331.63L545.23 326.83L545.87 322L546.36 317.12L546.71 312.22L546.92 307.29L546.99 302.34L546.81 293.51L546.27 284.84L545.38 276.33L544.16 268L542.59 259.83L540.7 251.84L538.49 244.03L535.96 236.4L533.12 228.95L529.98 221.69L526.55 214.63L522.83 207.75L518.82 201.08L514.55 194.6L510 188.33L505.19 182.27L500.13 176.41L494.82 170.77L489.27 165.35L483.48 160.14L477.47 155.16L471.24 150.41L464.79 145.88L458.13 141.59L451.28 137.53L444.23 133.71L436.99 130.13L429.58 126.8L421.99 123.71L414.23 120.88L406.32 118.3L398.25 115.98L390.03 113.92L381.68 112.13L373.19 110.6L364.57 109.34L355.84 108.36L346.99 107.65L338.04 107.23L328.99 107.08L319.99 107.26L311.09 107.8ZM332.64 273.62L334.03 273.74L335.4 273.91L336.73 274.13L338.03 274.4L339.3 274.71L340.54 275.08L341.74 275.49L342.92 275.94L344.05 276.44L345.16 276.99L346.23 277.58L347.27 278.21L348.27 278.89L349.24 279.62L350.17 280.38L351.07 281.19L351.93 282.05L352.75 282.94L353.54 283.88L354.29 284.85L355.01 285.87L355.68 286.93L356.32 288.03L356.92 289.17L357.48 290.35L358 291.57L358.48 292.82L358.92 294.11L359.32 295.45L359.68 296.81L360 298.22L360.28 299.66L360.51 301.14L360.71 302.65L360.86 304.2L360.97 305.79L361.03 307.4L361.05 309.06L361 311.97L360.83 314.83L360.57 317.63L360.2 320.38L359.73 323.06L359.17 325.68L358.52 328.24L357.79 330.73L356.97 333.16L356.07 335.53L355.09 337.84L354.04 340.07L352.93 342.24L351.75 344.34L350.51 346.38L349.21 348.34L347.85 350.23L346.45 352.06L344.99 353.81L343.5 355.48L341.96 357.09L340.39 358.62L338.78 360.07L337.15 361.45L335.49 362.75L333.8 363.97L332.1 365.12L330.39 366.18L328.66 367.17L326.92 368.07L325.18 368.89L323.44 369.63L321.71 370.29L319.97 370.86L318.25 371.34L316.55 371.74L314.86 372.05L313.19 372.27L311.54 372.41L309.93 372.45L308.47 372.43L307.05 372.35L305.65 372.23L304.29 372.05L302.95 371.83L301.64 371.55L300.37 371.23L299.12 370.86L297.91 370.45L296.72 369.98L295.57 369.47L294.45 368.92L293.37 368.32L292.32 367.68L291.3 366.99L290.32 366.26L289.37 365.48L288.46 364.66L287.58 363.81L286.74 362.9L285.94 361.96L285.17 360.98L284.44 359.96L283.75 358.89L283.1 357.79L282.48 356.65L281.91 355.47L281.37 354.26L280.88 353L280.42 351.72L280.01 350.39L279.64 349.03L279.31 347.63L279.03 346.2L278.78 344.73L278.58 343.24L278.42 341.7L278.31 340.14L278.24 338.54L278.22 336.91L278.27 334L278.42 331.14L278.67 328.35L279 325.61L279.43 322.93L279.95 320.31L280.55 317.75L281.23 315.26L281.99 312.83L282.83 310.46L283.74 308.16L284.73 305.92L285.78 303.75L286.89 301.65L288.07 299.62L289.31 297.65L290.61 295.76L291.96 293.94L293.36 292.19L294.81 290.51L296.31 288.9L297.84 287.37L299.42 285.92L301.04 284.54L302.69 283.23L304.38 282.01L306.09 280.86L307.83 279.8L309.59 278.81L311.38 277.91L313.18 277.08L315 276.34L316.83 275.69L318.67 275.12L320.52 274.63L322.37 274.23L324.22 273.92L326.07 273.7L327.92 273.56L329.76 273.52L331.21 273.54L332.64 273.62Z" id="cvhm4IZRJ"></path></defs><g><g><g><use xlink:href="#cvhm4IZRJ" opacity="1" fill="#00dfc0" fill-opacity="1"></use></g></g></g></svg>