<?xml version="1.0" encoding="UTF-8" standalone="no"?>
<!DOCTYPE svg PUBLIC "-//W3C//DTD SVG 1.1//EN" "http://www.w3.org/Graphics/SVG/1.1/DTD/svg11.dtd">
<svg version="1.1" xmlns="http://www.w3.org/2000/svg" xmlns:xlink="http://www.w3.org/1999/xlink" preserveAspectRatio="xMidYMid meet" viewBox="0 0 640 640" width="640" height="640"><defs><path d="M100 40C66.88 40 40 66.88 40 100C40 144 40 496 40 540C40 573.13 66.88 600 100 600C144 600 496 600 540 600C573.13 600 600 573.13 600 540C600 496 600 144 600 100C600 66.88 573.13 40 540 40C452 40 144 40 100 40ZM372.25 509.63C372.25 502.88 372.5 468.38 372.5 440.5C372.5 421 366 408.63 358.38 402.13C404.63 397 453.38 390.63 453.38 310.75C453.38 288 445.25 276.63 432 262C434.12 256.63 441.25 234.5 429.88 205.75C412.5 200.37 372.75 228.13 372.75 228.13C356.25 223.5 338.38 221.13 320.75 221.13C303.13 221.13 285.25 223.5 268.75 228.13C268.75 228.13 229 200.38 211.63 205.75C200.25 234.38 207.25 256.5 209.5 262C196.25 276.63 190 288 190 310.75C190 390.25 236.63 397 282.88 402.13C276.88 407.5 271.5 416.75 269.63 430C257.75 435.38 227.38 444.63 209.25 412.63C197.88 392.88 177.38 391.25 177.38 391.25C157.13 391 176 404 176 404C189.5 410.25 199 434.25 199 434.25C211.13 471.37 269.13 458.87 269.13 458.87C269.13 476.25 269.38 504.5 269.38 509.63C269.38 515 265.63 521.5 255 519.63C172.5 492 114.75 413.5 114.75 321.75C114.75 207 202.5 119.87 317.25 119.87C432 119.87 525 207 525 321.75C525.13 413.5 469.13 492.13 386.63 519.63C376.13 521.5 372.25 515 372.25 509.63ZM259.13 441.13C258.88 439.25 260.5 437.62 262.88 437.13C265.25 436.88 267.5 437.88 267.75 439.5C268.13 441.13 266.5 442.75 264 443.25C261.63 443.75 259.38 442.75 259.13 441.13ZM247.75 445.12C245 445.37 243.13 444 243.13 442.13C243.13 440.5 245 439.13 247.5 439.13C249.88 438.88 252.13 440.25 252.13 442.13C252.13 443.75 250.25 445.12 247.75 445.12ZM229.88 442.38C227.5 441.88 225.88 440 226.38 438.38C226.88 436.75 229.38 436 231.5 436.5C234 437.25 235.63 439.13 235 440.75C234.5 442.38 232 443.12 229.88 442.38ZM214.25 433.25C212.38 431.62 211.88 429.25 213.13 428.12C214.25 426.75 216.63 427 218.5 428.87C220.13 430.5 220.75 433 219.63 434C218.5 435.38 216.13 435.12 214.25 433.25ZM203.63 420.75C202.25 418.87 202.25 416.75 203.63 415.88C205 414.75 207.13 415.63 208.25 417.5C209.63 419.38 209.63 421.63 208.25 422.63C207.13 423.38 205 422.62 203.63 420.75ZM195.75 409.75C194.38 408.12 194.13 406.25 195.25 405.37C196.38 404.25 198.25 404.88 199.63 406.13C201 407.75 201.25 409.63 200.13 410.5C199 411.62 197.13 411 195.75 409.75ZM188.25 401.75C186.63 401 185.88 399.63 186.38 398.5C186.88 397.75 188.25 397.38 189.88 398C191.5 398.87 192.25 400.25 191.75 401.25C191.25 402.38 189.63 402.63 188.25 401.75Z" id="ae39LycwN"></path></defs><g><g><g><use xlink:href="#ae39LycwN" opacity="1" fill="#00dfc0" fill-opacity="1"></use><g><use xlink:href="#ae39LycwN" opacity="1" fill-opacity="0" stroke="#000000" stroke-width="1" stroke-opacity="0"></use></g></g></g></g></svg>