<?xml version="1.0" encoding="UTF-8" standalone="no"?>
<!DOCTYPE svg PUBLIC "-//W3C//DTD SVG 1.1//EN" "http://www.w3.org/Graphics/SVG/1.1/DTD/svg11.dtd">
<svg version="1.1" xmlns="http://www.w3.org/2000/svg" xmlns:xlink="http://www.w3.org/1999/xlink" preserveAspectRatio="xMidYMid meet" viewBox="0 0 640 640" width="640" height="640"><defs><path d="M79.88 40C57.88 40 40 58.13 40 80.38C40 128.3 40 511.7 40 559.63C40 581.88 57.88 600 79.88 600C127.89 600 511.99 600 560 600C582 600 600 581.88 600 559.63C600 511.7 600 128.3 600 80.38C600 58.13 582 40 560 40C463.98 40 127.89 40 79.88 40ZM209.25 520L126.25 520L126.25 252.75L209.38 252.75L209.38 520L209.25 520ZM119.63 168.13C119.63 141.63 141.13 120 167.75 120C194.25 120 215.88 141.63 215.88 168.13C215.88 194.75 194.37 216.25 167.75 216.25C141.13 216.25 119.63 194.63 119.63 168.13ZM437.38 520C437.38 442 437.38 398.67 437.38 390C437.38 359 436.75 319.13 394.25 319.13C351 319.13 344.37 352.88 344.37 387.75C344.37 396.57 344.37 440.65 344.37 520L261.37 520L261.37 252.75L341 252.75L341 289.25C341.67 289.25 342.05 289.25 342.12 289.25C353.25 268.25 380.37 246.12 420.75 246.12C504.75 246.12 520.38 301.5 520.38 373.5C520.38 383.27 520.38 432.1 520.38 520L437.38 520Z" id="g2we4TpWO"></path></defs><g><g><g><use xlink:href="#g2we4TpWO" opacity="1" fill="#00dfc0" fill-opacity="1"></use><g><use xlink:href="#g2we4TpWO" opacity="1" fill-opacity="0" stroke="#000000" stroke-width="1" stroke-opacity="0"></use></g></g></g></g></svg>