<?xml version="1.0" encoding="UTF-8" standalone="no"?>
<!DOCTYPE svg PUBLIC "-//W3C//DTD SVG 1.1//EN" "http://www.w3.org/Graphics/SVG/1.1/DTD/svg11.dtd">
<svg version="1.1" xmlns="http://www.w3.org/2000/svg" xmlns:xlink="http://www.w3.org/1999/xlink" preserveAspectRatio="xMidYMid meet" viewBox="0 0 640 640" width="640" height="640"><defs><path d="M100 40C66.86 40 40 66.86 40 100C40 144 40 496 40 540C40 573.14 66.86 600 100 600C144 600 496 600 540 600C573.14 600 600 573.14 600 540C600 496 600 144 600 100C600 66.86 573.14 40 540 40C452 40 144 40 100 40ZM120 221.46C120 218.31 120 193.15 120 190C120 173.43 133.43 160 150 160C184 160 456 160 490 160C506.57 160 520 173.43 520 190C520 193.15 520 218.31 520 221.46C489.54 245.17 490.71 245.36 377.35 327.63C364.23 337.2 338.11 360.28 320 360C301.87 360.27 275.79 337.22 262.65 327.63C149.29 245.36 150.44 245.15 120 221.46ZM520 450C520 466.57 506.57 480 490 480C456 480 184 480 150 480C133.43 480 120 466.57 120 450C120 432.22 120 290 120 272.22C137.45 285.71 161.66 303.76 239.13 359.99C256.83 372.91 286.6 400.17 320 400C353.61 400.17 383.79 372.45 400.9 359.97C478.34 303.76 502.55 285.71 520 272.22C520 307.78 520 432.22 520 450Z" id="ljxM4Xw0z"></path></defs><g><g><g><use xlink:href="#ljxM4Xw0z" opacity="1" fill="#00dfc0" fill-opacity="1"></use><g><use xlink:href="#ljxM4Xw0z" opacity="1" fill-opacity="0" stroke="#000000" stroke-width="1" stroke-opacity="0"></use></g></g></g></g></svg>