<?xml version="1.0" encoding="UTF-8" standalone="no"?>
<!DOCTYPE svg PUBLIC "-//W3C//DTD SVG 1.1//EN" "http://www.w3.org/Graphics/SVG/1.1/DTD/svg11.dtd">
<svg version="1.1" xmlns="http://www.w3.org/2000/svg" xmlns:xlink="http://www.w3.org/1999/xlink" preserveAspectRatio="xMidYMid meet" viewBox="38.302325581395095 38.30232558139534 564.0000000000002 564.0000000000005" width="560" height="560"><defs><path d="M90.21 39.3C62.08 39.3 39.3 62.08 39.3 90.21C39.3 136.03 39.3 502.58 39.3 548.39C39.3 576.52 62.08 599.3 90.21 599.3C136.03 599.3 502.58 599.3 548.39 599.3C576.52 599.3 599.3 576.52 599.3 548.39C599.3 502.58 599.3 136.03 599.3 90.21C599.3 62.08 576.52 39.3 548.39 39.3C456.76 39.3 136.03 39.3 90.21 39.3ZM360.31 472.03L360.31 463.55L395.67 432.45L395.67 254.9L308.84 472.03L295.27 472.03L198.39 253.2L198.39 408.14L242.68 463.55L242.68 472.03L127.32 472.03L127.32 463.55L173.12 408.14L173.12 223.8C148.7 193.27 135.13 176.31 132.42 172.91C132.42 172.91 132.42 165.56 132.42 166.7C139.84 166.7 176.97 166.7 243.8 166.7L330.32 353.87L404.96 166.7L510.7 166.7L510.7 172.91L472.03 205.42L472.03 432.45L511.28 463.55L511.28 472.03L360.31 472.03Z" id="b3mbRIOe5h"></path></defs><g><g><use xlink:href="#b3mbRIOe5h" opacity="1" fill="#00dfc0" fill-opacity="1"></use><g><use xlink:href="#b3mbRIOe5h" opacity="1" fill-opacity="0" stroke="#000000" stroke-width="1" stroke-opacity="0"></use></g></g></g></svg>