<?xml version="1.0" encoding="UTF-8" standalone="no"?>
<!DOCTYPE svg PUBLIC "-//W3C//DTD SVG 1.1//EN" "http://www.w3.org/Graphics/SVG/1.1/DTD/svg11.dtd">
<svg version="1.1" xmlns="http://www.w3.org/2000/svg" xmlns:xlink="http://www.w3.org/1999/xlink" preserveAspectRatio="xMidYMid meet" viewBox="0 0 640 640" width="640" height="640"><defs><path d="M77.95 23.02C48.03 23.02 23.8 47.29 23.8 77.24C23.8 126.04 23.8 516.43 23.8 565.23C23.8 595.19 48.03 619.45 77.95 619.45C126.68 619.45 516.57 619.45 565.31 619.45C595.22 619.45 619.46 595.19 619.46 565.23C619.46 516.43 619.46 126.04 619.46 77.24C619.46 47.29 595.22 23.02 565.31 23.02C467.84 23.02 126.68 23.02 77.95 23.02ZM365.25 483.9L365.25 474.87L402.85 441.74L402.85 252.65L310.5 483.9L296.07 483.9L193.02 250.83L193.02 415.85L240.13 474.87L240.13 483.9L117.43 483.9L117.43 474.87L166.13 415.85L166.13 219.52C140.16 187 125.73 168.94 122.84 165.33C122.84 165.33 122.84 157.49 122.84 158.71C130.74 158.71 170.23 158.71 241.32 158.71L333.35 358.05L412.74 158.71L525.21 158.71L525.21 165.33L484.08 199.95L484.08 441.74L525.83 474.87L525.83 483.9L365.25 483.9Z" id="cIFqwROlX"></path></defs><g><g><g><use xlink:href="#cIFqwROlX" opacity="1" fill="#00dfc0" fill-opacity="1"></use><g><use xlink:href="#cIFqwROlX" opacity="1" fill-opacity="0" stroke="#000000" stroke-width="1" stroke-opacity="0"></use></g></g></g></g></svg>