<?xml version="1.0" encoding="UTF-8" standalone="no"?>
<!DOCTYPE svg PUBLIC "-//W3C//DTD SVG 1.1//EN" "http://www.w3.org/Graphics/SVG/1.1/DTD/svg11.dtd">
<svg version="1.1" xmlns="http://www.w3.org/2000/svg" xmlns:xlink="http://www.w3.org/1999/xlink" preserveAspectRatio="xMidYMid meet" viewBox="0 0 640 640" width="640" height="640"><defs><path d="M100 40C66.88 40 40 66.88 40 100C40 144 40 496 40 540C40 573.13 66.88 600 100 600C144 600 496 600 540 600C573.13 600 600 573.13 600 540C600 496 600 144 600 100C600 66.88 573.13 40 540 40C452 40 144 40 100 40ZM479.13 249.13C479.13 357.5 396.63 482.38 245.88 482.38C199.38 482.38 156.25 468.87 120 445.63C126.63 446.38 133 446.63 139.75 446.63C178.13 446.63 213.38 433.63 241.5 411.63C205.5 410.88 175.25 387.25 164.88 354.75C177.5 356.63 188.88 356.63 201.88 353.25C164.38 345.63 136.25 312.63 136.25 272.75C136.25 272.65 136.25 271.85 136.25 271.75C147.13 277.88 159.88 281.63 173.25 282.13C150.41 266.93 136.71 241.31 136.75 213.88C136.75 198.63 140.75 184.63 147.88 172.5C188.25 222.25 248.88 254.75 316.88 258.25C305.25 202.63 346.88 157.5 396.88 157.5C420.5 157.5 441.75 167.38 456.75 183.38C475.25 179.88 493 173 508.75 163.63C502.63 182.63 489.75 198.63 472.75 208.75C489.25 207 505.25 202.38 520 196C508.88 212.38 494.88 226.88 478.88 238.5C479.13 242 479.13 245.63 479.13 249.13Z" id="a4hUZ9MCFb"></path></defs><g><g><g><use xlink:href="#a4hUZ9MCFb" opacity="1" fill="#00dfc0" fill-opacity="1"></use><g><use xlink:href="#a4hUZ9MCFb" opacity="1" fill-opacity="0" stroke="#000000" stroke-width="1" stroke-opacity="0"></use></g></g></g></g></svg>